<svg width="1280" height="756" viewBox="0 0 1280 756" fill="none" xmlns="http://www.w3.org/2000/svg">
<g clip-path="url(#clip0_97_740)">
<g opacity="0.12">
<path style="mix-blend-mode:multiply" opacity="0.2" d="M1526.35 953.372C1513.28 915.615 1516.77 874.137 1523.76 834.737C1530.75 795.338 1540.89 756.114 1540.37 716.121C1539.49 650.793 1508.17 586.409 1457.03 545.734C1405.89 505.06 1335.87 489.038 1272.21 503.802C1232.01 513.167 1194.12 534.098 1152.82 535.793C1110.41 537.54 1070.13 518.81 1028.39 511.157C929.283 492.969 823.066 542.817 767.625 626.909C712.183 711.001 706.904 823.8 747.489 915.982C788.074 1008.16 871.272 1078.89 966.548 1111.67C1061.82 1144.44 1167.88 1140.62 1263.46 1108.77C1310.33 1093.15 1354.96 1071.05 1402.5 1057.57C1450.04 1044.1 1502.53 1039.89 1547.69 1059.88L1613.32 1025.25C1573.31 1024.17 1539.49 991.146 1526.35 953.372Z" fill="url(#paint0_linear_97_740)"/>
<path style="mix-blend-mode:multiply" opacity="0.2" d="M740.445 1177.87C727.267 1140.11 730.885 1098.63 737.859 1059.23C744.833 1019.84 754.988 980.611 754.446 940.617C753.572 875.29 722.25 810.906 671.108 770.231C619.966 729.557 549.964 713.535 486.308 728.299C446.107 737.664 408.196 758.577 366.912 760.29C324.509 762.037 284.221 743.307 242.482 735.654C143.379 717.466 37.162 767.313 -18.2974 851.406C-73.7567 935.498 -79.0178 1048.33 -38.4326 1140.51C2.1525 1232.7 85.3678 1303.42 180.643 1336.2C275.919 1368.98 381.961 1365.2 477.551 1333.25C524.428 1317.64 569.051 1295.52 616.575 1282.07C664.099 1268.62 716.605 1264.39 761.787 1284.38L827.419 1249.75C787.41 1248.66 753.607 1215.64 740.445 1177.87Z" fill="url(#paint1_linear_97_740)"/>
<path style="mix-blend-mode:multiply" opacity="0.2" d="M1824.03 -14.031C1810.87 -51.8054 1814.48 -93.2837 1821.44 -132.683C1828.4 -172.082 1838.57 -211.307 1838.04 -251.3C1837.17 -316.627 1805.85 -381.011 1754.71 -421.686C1703.56 -462.361 1633.55 -478.382 1569.89 -463.619C1529.69 -454.254 1491.79 -433.322 1450.49 -431.628C1408.09 -429.88 1367.8 -448.61 1326.06 -456.263C1226.98 -474.416 1120.74 -424.569 1065.3 -340.477C1009.86 -256.384 1004.65 -143.585 1045.17 -51.4035C1085.68 40.7784 1168.95 111.505 1264.22 144.247C1359.5 176.99 1465.56 173.198 1561.13 141.347C1608.01 125.727 1652.63 103.625 1700.17 90.1541C1747.72 76.6832 1800.2 72.4724 1845.37 92.4603L1911 57.831C1870.99 56.7477 1837.21 23.7258 1824.03 -14.031Z" fill="url(#paint2_linear_97_740)"/>
<path style="mix-blend-mode:multiply" opacity="0.2" d="M1200.1 0.645264C1192.81 44.8966 1174.7 86.6661 1147.4 122.25C1093.21 191.858 1003.57 232.323 915.563 226.557C906.212 225.946 896.791 224.81 887.335 223.622C837.906 217 787.533 204.91 743.19 225.561C705.541 243.033 681.473 280.685 647.495 304.534C603.047 335.722 543.218 340.824 491.516 324.19C439.815 307.557 396.031 270.988 364.028 227.116C352.964 211.951 343.176 195.877 333.475 179.75V0.645264H1200.1Z" fill="url(#paint3_linear_97_740)"/>
<g style="mix-blend-mode:overlay">
<path d="M1398.32 0.645264C1387.36 10.9431 1374.54 19.0503 1360.53 24.5294C1334.99 34.401 1306.21 36.288 1283.03 50.8421C1252.5 70.0612 1238.3 106.875 1230.6 142.063C1222.89 177.251 1219.44 214.327 1202.16 245.916C1166.19 311.453 1076.75 333.975 1005.84 310.23C958.647 294.383 919.198 262.497 887.405 223.622C871.552 204.059 857.479 183.12 845.352 161.055C818.015 111.697 797.967 57.3417 760.476 15.1819C755.896 10.0411 751.004 5.18641 745.829 0.645264L1398.32 0.645264Z" fill="#F8E5CB"/>
</g>
<g style="mix-blend-mode:overlay">
<path d="M1644.36 430.123V874.241H1004.97C1007.06 855.459 1011.06 836.938 1016.89 818.96C1036.83 757.931 1080.09 704.502 1134.94 671.777C1163.89 654.272 1196.27 643.173 1229.88 639.227C1273.8 634.317 1323.32 640.24 1357.18 611.848C1377.61 594.691 1387.43 568.657 1400.19 545.315C1436.34 478.834 1504.41 427.974 1579.9 422.627C1601.67 421.18 1623.51 423.72 1644.36 430.123Z" fill="#F8E5CB"/>
</g>
<path style="mix-blend-mode:soft-light" d="M1464.79 874.242H615.457C618.108 850.24 623.939 826.697 632.795 804.232C653.28 751.956 694.25 702.143 749.901 694.158C773.882 690.664 797.443 695.381 820.252 703.838C836.199 709.713 853.573 710.516 869.994 706.137C886.414 701.758 901.079 692.411 911.98 679.377C934.654 652.133 966.345 633.915 1001.3 628.026C1036.26 622.138 1072.18 628.969 1102.53 647.281C1114.08 654.431 1124.95 662.619 1135.01 671.742C1164.19 697.478 1190.43 727.565 1227.19 738.747C1265.41 750.331 1307.19 738.747 1346.36 746.522C1403.77 758.001 1445.98 810.347 1462.64 866.467C1463.41 869.041 1464.13 871.632 1464.79 874.242Z" fill="url(#paint4_linear_97_740)"/>
<g style="mix-blend-mode:overlay">
<path d="M733.119 285.987C740.374 253.911 720.243 222.03 688.155 214.778C656.067 207.526 624.174 227.649 616.919 259.725C609.664 291.801 629.795 323.682 661.883 330.934C693.971 338.187 725.865 318.063 733.119 285.987Z" fill="#F8E5CB"/>
</g>
<g style="mix-blend-mode:overlay">
<path d="M514.168 693.459C514.168 695.481 513.569 697.457 512.445 699.138C511.322 700.819 509.725 702.129 507.856 702.902C505.988 703.676 503.932 703.878 501.949 703.484C499.965 703.09 498.143 702.116 496.713 700.687C495.283 699.257 494.31 697.436 493.915 695.453C493.52 693.471 493.723 691.416 494.497 689.548C495.271 687.68 496.581 686.084 498.263 684.961C499.944 683.838 501.921 683.238 503.943 683.238C506.655 683.238 509.256 684.315 511.174 686.232C513.091 688.149 514.168 690.749 514.168 693.459Z" fill="#F8E5CB"/>
</g>
<path d="M488.51 -20.6007C561.151 -20.688 633.162 12.7532 679.952 68.314C720.52 116.502 741.424 178.038 776.224 230.523C811.024 283.009 869.804 329.065 931.783 317.533C974.308 309.619 1008.11 275.723 1028.11 237.372C1048.1 199.021 1056.75 156.006 1067.47 114.108C1078.18 72.2102 1091.78 29.6835 1119.48 -3.53058C1154.62 -45.6204 1211.65 -68.334 1266.11 -61.9218" stroke="#FFE3AA" stroke-miterlimit="10"/>
<path d="M512.84 -23.2563C546.985 -23.0703 580.689 -15.5332 611.659 -1.15778C642.628 13.2176 670.136 34.0937 692.31 60.0498C730.343 105.215 749.989 162.89 782.551 212.056C815.114 261.222 870.276 304.43 928.34 293.614C968.208 286.189 999.879 254.407 1018.63 218.485C1037.39 182.563 1045.5 142.203 1055.53 102.943C1065.56 63.684 1078.25 23.7956 1104.3 -7.33942C1137.23 -46.791 1190.69 -68.0893 1241.75 -62.079" stroke="#FFE3AA" stroke-miterlimit="10"/>
<path d="M537.17 -25.9121C569.038 -25.7369 600.494 -18.6981 629.395 -5.27505C658.296 8.14796 683.964 27.6398 704.649 51.8729C740.148 94.0327 758.431 147.864 788.878 193.797C819.326 239.731 870.748 279.986 924.931 269.905C962.126 262.916 991.699 233.319 1009.2 199.773C1026.69 166.227 1034.26 128.592 1043.63 91.9361C1053 55.28 1064.9 18.0822 1089.07 -10.9736C1104.67 -29.2926 1124.51 -43.5234 1146.87 -52.4273C1169.23 -61.3313 1193.42 -64.6386 1217.35 -62.0615" stroke="#FFE3AA" stroke-miterlimit="10"/>
<path d="M561.5 -28.5678C591.099 -28.4121 620.317 -21.8793 647.161 -9.41484C674.006 3.04965 697.847 21.1529 717.059 43.6611C749.954 82.7633 766.943 132.785 795.206 175.364C823.469 217.944 871.22 255.403 921.523 246.038C956.061 239.609 983.519 212.073 999.757 180.921C1015.99 149.768 1023.04 114.824 1031.74 80.8064C1040.45 46.7886 1051.48 12.2815 1073.99 -14.6951C1088.48 -31.699 1106.9 -44.9086 1127.65 -53.1757C1148.41 -61.4428 1170.87 -64.5171 1193.09 -62.1314" stroke="#FFE3AA" stroke-miterlimit="10"/>
<path d="M585.83 -31.206C613.139 -31.0589 640.095 -25.0285 664.861 -13.5259C689.628 -2.02327 711.623 14.6813 729.347 35.4494C759.777 71.5638 775.438 117.69 801.533 157.054C827.628 196.418 871.674 230.925 918.115 222.277C949.996 216.336 975.339 190.915 990.319 162.173C1005.3 133.432 1011.8 101.179 1019.84 69.7642C1027.88 38.3497 1038.05 6.48092 1058.83 -18.4166C1072.2 -34.1219 1089.2 -46.3254 1108.36 -53.9655C1127.51 -61.6056 1148.25 -64.4508 1168.76 -62.2536" stroke="#FFE3AA" stroke-miterlimit="10"/>
<path d="M868.318 1000.98C856.293 957.128 847.519 909.325 864.333 867.078C886.356 811.727 947.444 780.714 1006.61 773.62C1065.77 766.527 1125.36 778.251 1184.78 782.776C1244.21 787.301 1307.85 783.37 1356.84 749.439C1424.76 702.37 1447.07 610.642 1508.36 555.204C1559.47 508.991 1636.62 493.755 1701.47 517.063" stroke="#FFE3AA" stroke-miterlimit="10"/>
<path d="M913.343 1000.98C901.964 959.487 893.68 914.287 909.568 874.311C930.402 821.896 988.221 792.613 1044.15 785.903C1100.08 779.194 1156.5 790.376 1212.65 794.552C1268.79 798.728 1329.07 795.129 1375.41 763.102C1439.66 718.567 1460.75 631.801 1518.73 579.35C1567.09 535.67 1640.07 521.221 1701.41 543.271" stroke="#FFE3AA" stroke-miterlimit="10"/>
<path d="M958.35 1000.98C947.636 961.863 939.806 919.232 954.855 881.545C974.483 832.169 1028.98 804.511 1081.75 798.186C1134.52 791.861 1187.67 802.31 1240.68 806.346C1293.69 810.382 1350.45 806.887 1394.14 776.643C1454.74 734.711 1474.54 652.855 1529.29 603.409C1574.89 562.175 1643.7 548.582 1701.54 569.374" stroke="#FFE3AA" stroke-miterlimit="10"/>
<path d="M1003.36 1000.98C993.29 964.292 985.879 924.106 1000.02 888.778C1018.48 842.39 1069.65 816.409 1119.24 810.469C1168.83 804.528 1218.75 814.348 1268.54 818.139C1318.34 821.931 1371.66 818.646 1412.7 790.184C1469.63 750.75 1488.32 673.873 1539.67 627.433C1582.49 588.698 1647.14 575.926 1701.48 595.477" stroke="#FFE3AA" stroke-miterlimit="10"/>
<path d="M1048.35 1000.98C1038.93 966.598 1032.06 929.138 1045.22 896.011C1062.49 852.611 1110.38 828.308 1156.77 822.752C1203.15 817.196 1249.86 826.386 1296.44 829.915C1343.02 833.444 1392.92 830.404 1431.3 803.795C1484.56 766.894 1502.04 694.979 1550.16 651.527C1590.18 615.29 1650.66 603.427 1701.48 621.632" stroke="#FFE3AA" stroke-miterlimit="10"/>
<path d="M320.489 349.437C311.75 379.996 327.341 413.018 349.993 435.312C372.645 457.606 401.659 472.003 428.296 489.37C454.934 506.737 480.732 528.804 490.8 558.943C508.733 612.564 472.115 667.147 454.654 720.925C428.227 802.292 448.816 897.165 506.6 960.291" stroke="#FFE3AA" stroke-miterlimit="10"/>
<path d="M299.759 355.745C291.02 386.303 306.611 419.307 329.263 441.602C351.915 463.896 380.912 478.293 407.567 495.66C434.222 513.027 460.003 535.111 470.07 565.25C488.003 618.872 451.386 673.454 433.925 727.233C407.497 808.599 428.087 903.472 485.871 966.598" stroke="#FFE3AA" stroke-miterlimit="10"/>
<path d="M279.012 362.052C270.273 392.593 285.864 425.615 308.534 447.909C331.203 470.203 360.183 484.6 386.837 501.967C413.492 519.334 439.273 541.419 449.323 571.558C467.274 625.179 430.639 679.761 413.178 733.54C386.767 814.907 407.357 909.779 465.124 972.905" stroke="#FFE3AA" stroke-miterlimit="10"/>
<path d="M258.318 368.359C249.579 398.9 265.169 431.922 287.822 454.216C310.474 476.511 339.488 490.907 366.125 508.275C392.763 525.642 418.561 547.726 428.629 577.865C446.562 631.487 409.944 686.069 392.483 739.847C366.02 821.214 386.61 916.174 444.394 979.195" stroke="#FFE3AA" stroke-miterlimit="10"/>
</g>
</g>
<defs>
<linearGradient id="paint0_linear_97_740" x1="720.904" y1="816.462" x2="1613.32" y2="816.462" gradientUnits="userSpaceOnUse">
<stop stop-color="#FF7AFF"/>
<stop offset="1" stop-color="#E917E9"/>
</linearGradient>
<linearGradient id="paint1_linear_97_740" x1="-65" y1="1040.96" x2="827.419" y2="1040.96" gradientUnits="userSpaceOnUse">
<stop stop-color="#FFC248"/>
<stop offset="1" stop-color="#FDCD00"/>
</linearGradient>
<linearGradient id="paint2_linear_97_740" x1="1018.58" y1="-150.959" x2="1911" y2="-150.959" gradientUnits="userSpaceOnUse">
<stop stop-color="#81A6F9"/>
<stop offset="1" stop-color="#DBDBDB"/>
</linearGradient>
<linearGradient id="paint3_linear_97_740" x1="333.475" y1="167.083" x2="1200.1" y2="167.083" gradientUnits="userSpaceOnUse">
<stop stop-color="#5382EC"/>
<stop offset="1" stop-color="#DBDBDB"/>
</linearGradient>
<linearGradient id="paint4_linear_97_740" x1="615.457" y1="750.278" x2="1464.79" y2="750.278" gradientUnits="userSpaceOnUse">
<stop stop-color="#FCCC6B"/>
<stop offset="1" stop-color="#FFEECB"/>
</linearGradient>
<clipPath id="clip0_97_740">
<rect width="1976" height="1828" fill="white" transform="translate(-65 -469)"/>
</clipPath>
</defs>
</svg>
