<?xml version="1.0" encoding="UTF-8"?><svg id="Layer_1" xmlns="http://www.w3.org/2000/svg" xmlns:xlink="http://www.w3.org/1999/xlink" viewBox="0 0 637.99 577.21"><defs><style>.cls-1{fill:url(#linear-gradient-2);}.cls-1,.cls-2,.cls-3,.cls-4,.cls-5,.cls-6,.cls-7,.cls-8,.cls-9,.cls-10,.cls-11,.cls-12,.cls-13,.cls-14,.cls-15,.cls-16,.cls-17,.cls-18,.cls-19,.cls-20,.cls-21{isolation:isolate;}.cls-1,.cls-2,.cls-8,.cls-13,.cls-22{opacity:.3;}.cls-2{fill:url(#linear-gradient-3);}.cls-3{fill:url(#linear-gradient-4);}.cls-3,.cls-4,.cls-5,.cls-6,.cls-7,.cls-10{opacity:.2;}.cls-4{fill:url(#linear-gradient-6);}.cls-5{fill:url(#linear-gradient-5);}.cls-6{fill:url(#linear-gradient-7);}.cls-7{fill:url(#linear-gradient-8);}.cls-8{fill:url(#linear-gradient);}.cls-9{opacity:.18;}.cls-9,.cls-10,.cls-11,.cls-12,.cls-13,.cls-14,.cls-15,.cls-16,.cls-17,.cls-19,.cls-20,.cls-21{fill:#231f20;}.cls-11{opacity:.28;}.cls-12{opacity:.26;}.cls-14{opacity:.22;}.cls-15{opacity:.16;}.cls-16{opacity:.13;}.cls-23{fill:url(#radial-gradient-42);}.cls-23,.cls-24,.cls-25{opacity:.45;}.cls-24{fill:url(#radial-gradient-41);}.cls-26{fill:url(#radial-gradient-20);}.cls-27{fill:url(#radial-gradient-21);}.cls-28{fill:url(#radial-gradient-40);}.cls-29{fill:url(#radial-gradient-30);}.cls-30{fill:url(#radial-gradient-33);}.cls-31{fill:url(#radial-gradient-32);}.cls-32{fill:url(#radial-gradient-38);}.cls-33{fill:url(#radial-gradient-31);}.cls-34{fill:url(#radial-gradient-37);}.cls-35{fill:url(#radial-gradient-36);}.cls-36{fill:url(#radial-gradient-39);}.cls-37{fill:url(#radial-gradient-26);}.cls-38{fill:url(#radial-gradient-27);}.cls-39{fill:url(#radial-gradient-22);}.cls-40{fill:url(#radial-gradient-24);}.cls-41{fill:url(#radial-gradient-23);}.cls-42{fill:url(#radial-gradient-28);}.cls-43{fill:url(#radial-gradient-29);}.cls-44{fill:url(#radial-gradient-35);}.cls-45{fill:url(#radial-gradient-34);}.cls-46{fill:url(#radial-gradient-25);}.cls-47{fill:url(#radial-gradient-10);}.cls-48{fill:url(#radial-gradient-19);}.cls-49{fill:url(#radial-gradient-18);}.cls-50{fill:url(#radial-gradient-17);}.cls-51{fill:url(#radial-gradient-11);}.cls-52{fill:url(#radial-gradient-16);}.cls-53{fill:url(#radial-gradient-15);}.cls-54{fill:url(#radial-gradient-12);}.cls-55{fill:url(#radial-gradient-14);}.cls-56{fill:url(#radial-gradient-13);}.cls-17{opacity:.24;}.cls-57{fill:url(#radial-gradient-6);}.cls-58{fill:url(#radial-gradient-5);}.cls-59{fill:url(#radial-gradient-4);}.cls-60{fill:url(#radial-gradient-9);}.cls-61{fill:url(#radial-gradient-8);}.cls-62{fill:url(#radial-gradient-7);}.cls-63{fill:url(#radial-gradient-2);}.cls-64{fill:url(#linear-gradient-9);}.cls-18{fill:url(#radial-gradient-3);opacity:.5;}.cls-19{opacity:.07;}.cls-25{fill:url(#radial-gradient);}.cls-20{opacity:.09;}.cls-65{fill:url(#linear-gradient-41);}.cls-66{fill:url(#linear-gradient-40);}.cls-67{fill:url(#linear-gradient-43);}.cls-68{fill:url(#linear-gradient-42);}.cls-69{fill:url(#linear-gradient-14);}.cls-70{fill:url(#linear-gradient-18);}.cls-71{fill:url(#linear-gradient-22);}.cls-72{fill:url(#linear-gradient-20);}.cls-73{fill:url(#linear-gradient-21);}.cls-74{fill:url(#linear-gradient-23);}.cls-75{fill:url(#linear-gradient-15);}.cls-76{fill:url(#linear-gradient-19);}.cls-77{fill:url(#linear-gradient-16);}.cls-78{fill:url(#linear-gradient-17);}.cls-79{fill:url(#linear-gradient-13);}.cls-80{fill:url(#linear-gradient-12);}.cls-81{fill:url(#linear-gradient-10);}.cls-82{fill:url(#linear-gradient-11);}.cls-83{fill:url(#linear-gradient-27);}.cls-84{fill:url(#linear-gradient-24);}.cls-85{fill:url(#linear-gradient-26);}.cls-86{fill:url(#linear-gradient-38);}.cls-87{fill:url(#linear-gradient-35);}.cls-88{fill:url(#linear-gradient-37);}.cls-89{fill:url(#linear-gradient-34);}.cls-90{fill:url(#linear-gradient-39);}.cls-91{fill:url(#linear-gradient-36);}.cls-92{fill:url(#linear-gradient-25);}.cls-93{fill:url(#linear-gradient-28);}.cls-94{fill:url(#linear-gradient-29);}.cls-95{fill:url(#linear-gradient-33);}.cls-96{fill:url(#linear-gradient-30);}.cls-97{fill:url(#linear-gradient-32);}.cls-98{fill:url(#linear-gradient-31);}.cls-21{opacity:.11;}</style><radialGradient id="radial-gradient" cx="-324.31" cy="1294.11" fx="-324.31" fy="1294.11" r="3.95" gradientTransform="translate(8014.24 30148.46) scale(23.02 -23.03)" gradientUnits="userSpaceOnUse"><stop offset=".09" stop-color="#b8109b"/><stop offset=".13" stop-color="#5b0663"/><stop offset=".15" stop-color="#500557"/><stop offset=".21" stop-color="#37033c" stop-opacity="0"/><stop offset=".29" stop-color="#230226" stop-opacity="0"/><stop offset=".37" stop-color="#130114" stop-opacity="0"/><stop offset=".48" stop-color="#080008" stop-opacity="0"/><stop offset=".62" stop-color="#010001" stop-opacity="0"/><stop offset="1" stop-color="#000" stop-opacity="0"/></radialGradient><linearGradient id="linear-gradient" x1="192.53" y1="1365.77" x2="291.38" y2="1365.77" gradientTransform="translate(0 1735.56) scale(1 -1)" gradientUnits="userSpaceOnUse"><stop offset="0" stop-color="#1bb0d4"/><stop offset=".11" stop-color="#1ebfdd"/><stop offset=".24" stop-color="#23d8ec"/><stop offset=".37" stop-color="#1ebfdd"/><stop offset=".44" stop-color="#1bb0d4"/><stop offset=".5" stop-color="#1bb0d4"/><stop offset=".51" stop-color="#1bb0d4"/><stop offset=".55" stop-color="#20c6e2"/><stop offset=".56" stop-color="#1aafd3"/><stop offset=".58" stop-color="#169bc7"/><stop offset=".61" stop-color="#138fbf"/><stop offset=".63" stop-color="#138bbd"/></linearGradient><linearGradient id="linear-gradient-2" x1="-31.03" y1="1310.98" x2="280.14" y2="1380.72" gradientTransform="translate(0 1735.56) scale(1 -1)" gradientUnits="userSpaceOnUse"><stop offset=".04" stop-color="#138bbd"/><stop offset=".23" stop-color="#169ac6"/><stop offset=".59" stop-color="#1ec2df"/><stop offset="1" stop-color="#2af6ff"/></linearGradient><linearGradient id="linear-gradient-3" x1="201.45" y1="1318.59" x2="214.14" y2="1299.51" xlink:href="#linear-gradient-2"/><linearGradient id="linear-gradient-4" x1="483.73" y1="1336.11" x2="721.9" y2="1407.42" gradientTransform="translate(0 1735.56) scale(1 -1)" gradientUnits="userSpaceOnUse"><stop offset=".04" stop-color="#9f19ab"/><stop offset=".24" stop-color="#ae24b0"/><stop offset=".65" stop-color="#d643bf"/><stop offset="1" stop-color="#ff63ce"/></linearGradient><linearGradient id="linear-gradient-5" x1="405.23" y1="1317.97" x2="484.58" y2="1335.76" xlink:href="#linear-gradient-4"/><linearGradient id="linear-gradient-6" x1="423.95" y1="1330.65" x2="363.83" y2="1330.65" gradientTransform="translate(0 1735.56) scale(1 -1)" gradientUnits="userSpaceOnUse"><stop offset="0" stop-color="#9f19ab"/><stop offset=".17" stop-color="#ae24b0"/><stop offset=".49" stop-color="#d643bf"/><stop offset=".77" stop-color="#ff63ce"/><stop offset=".92" stop-color="#dc48c1"/></linearGradient><linearGradient id="linear-gradient-7" x1="216.66" y1="1262.43" x2="441.74" y2="1262.43" gradientTransform="translate(0 1735.56) scale(1 -1)" gradientUnits="userSpaceOnUse"><stop offset=".07" stop-color="#fcce9e"/><stop offset=".52" stop-color="#fac099"/><stop offset=".59" stop-color="#ffe4a7"/><stop offset=".61" stop-color="#fcd4a0"/><stop offset=".64" stop-color="#f9bd97"/><stop offset=".67" stop-color="#f7ae91"/><stop offset=".7" stop-color="#f7aa90"/><stop offset="1" stop-color="#f9b695"/></linearGradient><linearGradient id="linear-gradient-8" x1="195.61" y1="1296.1" x2="255.79" y2="1309.6" gradientTransform="translate(0 1735.56) scale(1 -1)" gradientUnits="userSpaceOnUse"><stop offset=".04" stop-color="#ffa98c"/><stop offset=".32" stop-color="#feb892"/><stop offset=".86" stop-color="#fee0a3"/><stop offset="1" stop-color="#feeca8"/></linearGradient><radialGradient id="radial-gradient-2" cx="-377.14" cy="1340.67" fx="-377.14" fy="1340.67" r="1" gradientTransform="translate(-6045.3 6556.51) rotate(90.64) scale(16.2 -4.7)" gradientUnits="userSpaceOnUse"><stop offset="0" stop-color="#972a74"/><stop offset=".04" stop-color="#8a266a"/><stop offset=".19" stop-color="#601a49"/><stop offset=".35" stop-color="#3d112f"/><stop offset=".51" stop-color="#22091a"/><stop offset=".67" stop-color="#0f040b"/><stop offset=".83" stop-color="#030102"/><stop offset="1" stop-color="#000"/></radialGradient><radialGradient id="radial-gradient-3" cx="-346.88" cy="1270.3" fx="-346.88" fy="1270.3" r="1" gradientTransform="translate(105937.66 236196.59) scale(304.52 -185.78)" gradientUnits="userSpaceOnUse"><stop offset="0" stop-color="#744e52"/><stop offset=".19" stop-color="#e2988d"/><stop offset=".36" stop-color="#cf847d"/><stop offset="1" stop-color="#000" stop-opacity="0"/></radialGradient><linearGradient id="linear-gradient-9" x1="441.48" y1="1795.75" x2="297.92" y2="1522.19" gradientTransform="translate(0 1735.56) scale(1 -1)" gradientUnits="userSpaceOnUse"><stop offset=".04" stop-color="#6b24d6"/><stop offset=".29" stop-color="#7733dc"/><stop offset=".79" stop-color="#965bec"/><stop offset="1" stop-color="#a56ef4"/></linearGradient><linearGradient id="linear-gradient-10" x1="342.51" y1="1521.15" x2="584.77" y2="1652.19" xlink:href="#linear-gradient-9"/><linearGradient id="linear-gradient-11" x1="326.98" y1="1494.27" x2="428.15" y2="1369.76" xlink:href="#linear-gradient-9"/><linearGradient id="linear-gradient-12" x1="354.6" y1="1498.79" x2="596.88" y2="1629.82" xlink:href="#linear-gradient-9"/><linearGradient id="linear-gradient-13" x1="363.9" y1="1492.84" x2="363.94" y2="1492.79" xlink:href="#linear-gradient-9"/><linearGradient id="linear-gradient-14" x1="364.96" y1="1493.23" x2="364.99" y2="1493.18" xlink:href="#linear-gradient-9"/><linearGradient id="linear-gradient-15" x1="53.75" y1="1457.53" x2="481.43" y2="1553.39" xlink:href="#linear-gradient-9"/><linearGradient id="linear-gradient-16" x1="367.03" y1="1505.74" x2="419.25" y2="1505.74" gradientTransform="translate(0 1735.56) scale(1 -1)" gradientUnits="userSpaceOnUse"><stop offset="0" stop-color="#6b24d6"/><stop offset=".07" stop-color="#712cd9"/><stop offset=".16" stop-color="#7734dc"/><stop offset=".32" stop-color="#8c4ee7"/><stop offset=".48" stop-color="#a56ef4"/><stop offset=".87" stop-color="#6b24d6"/></linearGradient><linearGradient id="linear-gradient-17" x1="363.35" y1="1527.73" x2="363.4" y2="1527.67" xlink:href="#linear-gradient-9"/><linearGradient id="linear-gradient-18" x1="364.48" y1="1528.26" x2="364.65" y2="1528.06" xlink:href="#linear-gradient-9"/><linearGradient id="linear-gradient-19" x1="150.36" y1="1523.16" x2="285.36" y2="1553.42" xlink:href="#linear-gradient-9"/><linearGradient id="linear-gradient-20" x1="235.57" y1="1492.47" x2="249.07" y2="1495.49" xlink:href="#linear-gradient-9"/><linearGradient id="linear-gradient-21" x1="243.83" y1="1492.88" x2="246.43" y2="1493.46" xlink:href="#linear-gradient-9"/><linearGradient id="linear-gradient-22" x1="247.19" y1="1493.49" x2="247.43" y2="1493.54" xlink:href="#linear-gradient-9"/><linearGradient id="linear-gradient-23" x1="280.6" y1="1481.81" x2="280.93" y2="1481.89" xlink:href="#linear-gradient-9"/><linearGradient id="linear-gradient-24" x1="250.48" y1="1520.71" x2="297.91" y2="1520.71" gradientTransform="translate(0 1735.56) scale(1 -1)" gradientUnits="userSpaceOnUse"><stop offset="0" stop-color="#7c3adf"/><stop offset=".04" stop-color="#7633dc"/><stop offset=".14" stop-color="#6d27d7"/><stop offset=".25" stop-color="#6b24d6"/><stop offset=".56" stop-color="#9a60ee"/><stop offset=".97" stop-color="#7734dc"/></linearGradient><radialGradient id="radial-gradient-4" cx="-325.1" cy="1298.59" fx="-325.1" fy="1298.59" r="1" gradientTransform="translate(5341.5 19885.54) scale(15.18 -15.18)" gradientUnits="userSpaceOnUse"><stop offset="0" stop-color="#fff"/><stop offset=".07" stop-color="#d8d8d8"/><stop offset="1" stop-color="#a5a5a5" stop-opacity="0"/></radialGradient><radialGradient id="radial-gradient-5" cx="-338.7" cy="1280.32" fx="-338.7" fy="1280.32" r="1" gradientTransform="translate(13024.98 47984.91) scale(37.29 -37.3)" xlink:href="#radial-gradient-4"/><radialGradient id="radial-gradient-6" cx="-331.37" cy="1290.16" fx="-331.37" fy="1290.16" r="1" gradientTransform="translate(7144.66 27159.46) scale(20.89 -20.9)" xlink:href="#radial-gradient-4"/><radialGradient id="radial-gradient-7" cx="-329.74" cy="1292.36" fx="-329.74" fy="1292.36" r="1" gradientTransform="translate(6549.13 24792.2) scale(19.03 -19.03)" xlink:href="#radial-gradient-4"/><linearGradient id="linear-gradient-25" x1="325.24" y1="1748.2" x2="164.84" y2="1442.56" xlink:href="#linear-gradient-2"/><linearGradient id="linear-gradient-26" x1="255.97" y1="1487.6" x2="311.49" y2="1504.23" xlink:href="#linear-gradient-2"/><linearGradient id="linear-gradient-27" x1="0" y1="1437.83" x2="1.57" y2="1437.83" xlink:href="#linear-gradient"/><linearGradient id="linear-gradient-28" x1="-36.39" y1="1381.84" x2="285.73" y2="1454.03" xlink:href="#linear-gradient-2"/><linearGradient id="linear-gradient-29" x1="185.06" y1="1415.31" x2="237.41" y2="1336.58" xlink:href="#linear-gradient-2"/><linearGradient id="linear-gradient-30" x1="204.02" y1="1386.8" x2="225.28" y2="1354.83" xlink:href="#linear-gradient-2"/><radialGradient id="radial-gradient-8" cx="-343.73" cy="1273.55" fx="-343.73" fy="1273.55" r="1" gradientTransform="translate(27982.86 103539.95) scale(81.06 -81.07)" gradientUnits="userSpaceOnUse"><stop offset="0" stop-color="#fff"/><stop offset=".07" stop-color="#d8d8d8"/><stop offset="1" stop-color="#a5a5a5" stop-opacity="0"/></radialGradient><radialGradient id="radial-gradient-9" cx="-317.04" cy="1309.42" fx="-317.04" fy="1309.42" r="1" gradientTransform="translate(3821.32 14940.9) scale(11.23 -11.23)" xlink:href="#radial-gradient-8"/><radialGradient id="radial-gradient-10" cx="-338.37" cy="1280.76" fx="-338.37" fy="1280.76" r="1" gradientTransform="translate(12416.89 46439.72) scale(36.04 -36.05)" xlink:href="#radial-gradient-8"/><linearGradient id="linear-gradient-31" x1="349.05" y1="1471.58" x2="573.67" y2="1471.58" xlink:href="#linear-gradient-4"/><linearGradient id="linear-gradient-32" x1="595.49" y1="1726.64" x2="435.09" y2="1421" xlink:href="#linear-gradient-4"/><linearGradient id="linear-gradient-33" x1="464.86" y1="1496.77" x2="411.95" y2="1496.77" gradientTransform="translate(0 1735.56) scale(1 -1)" gradientUnits="userSpaceOnUse"><stop offset="0" stop-color="#9f19ab"/><stop offset=".14" stop-color="#ae24b0"/><stop offset=".4" stop-color="#d643bf"/><stop offset=".63" stop-color="#ff63ce"/><stop offset=".87" stop-color="#dc48c1"/></linearGradient><linearGradient id="linear-gradient-34" x1="505.14" y1="1449.44" x2="546.39" y2="1363.81" xlink:href="#linear-gradient-4"/><linearGradient id="linear-gradient-35" x1="482.51" y1="1409.89" x2="728.95" y2="1483.67" xlink:href="#linear-gradient-4"/><linearGradient id="linear-gradient-36" x1="299.02" y1="1436.37" x2="440.68" y2="1468.13" xlink:href="#linear-gradient-4"/><linearGradient id="linear-gradient-37" x1="402.49" y1="1391.5" x2="487.96" y2="1410.65" xlink:href="#linear-gradient-4"/><linearGradient id="linear-gradient-38" x1="397.8" y1="1397.73" x2="439.05" y2="1312.09" xlink:href="#linear-gradient-4"/><linearGradient id="linear-gradient-39" x1="0" y1="1404.81" x2="1.57" y2="1404.81" xlink:href="#linear-gradient-6"/><radialGradient id="radial-gradient-11" cx="-333.71" cy="1287.02" fx="-333.71" fy="1287.02" r="1" gradientTransform="translate(8491.23 31566.97) scale(24.31 -24.31)" gradientUnits="userSpaceOnUse"><stop offset="0" stop-color="#fff"/><stop offset=".07" stop-color="#d8d8d8"/><stop offset="1" stop-color="#a5a5a5" stop-opacity="0"/></radialGradient><radialGradient id="radial-gradient-12" cx="-328.12" cy="1294.54" fx="-328.12" fy="1294.54" r="1" gradientTransform="translate(6177.38 22857.71) scale(17.48 -17.48)" xlink:href="#radial-gradient-11"/><radialGradient id="radial-gradient-13" cx="-341.87" cy="1276.06" fx="-341.87" fy="1276.06" r="1" gradientTransform="translate(19696.84 72433.11) scale(56.5 -56.5)" gradientUnits="userSpaceOnUse"><stop offset="0" stop-color="#fff"/><stop offset=".07" stop-color="#d8d8d8"/><stop offset="1" stop-color="#a5a5a5" stop-opacity="0"/></radialGradient><radialGradient id="radial-gradient-14" cx="-342.26" cy="1275.53" fx="-342.26" fy="1275.53" r="1" gradientTransform="translate(21174.82 77231.07) scale(60.3 -60.31)" gradientUnits="userSpaceOnUse"><stop offset="0" stop-color="#fff"/><stop offset=".07" stop-color="#d8d8d8"/><stop offset="1" stop-color="#a5a5a5" stop-opacity="0"/></radialGradient><linearGradient id="linear-gradient-40" x1="440" y1="1612.55" x2="302.1" y2="1349.78" xlink:href="#linear-gradient-8"/><linearGradient id="linear-gradient-41" x1="0" y1="1334.76" x2="1.57" y2="1334.76" xlink:href="#linear-gradient-7"/><linearGradient id="linear-gradient-42" x1="175.11" y1="1379.51" x2="291.25" y2="1405.53" xlink:href="#linear-gradient-8"/><linearGradient id="linear-gradient-43" x1="357.11" y1="1406.13" x2="290.8" y2="1406.13" gradientTransform="translate(0 1735.56) scale(1 -1)" gradientUnits="userSpaceOnUse"><stop offset=".04" stop-color="#f7aa90"/><stop offset=".23" stop-color="#f9b996"/><stop offset=".61" stop-color="#fee1a6"/><stop offset=".63" stop-color="#ffe4a7"/><stop offset=".87" stop-color="#f7aa90"/></linearGradient><radialGradient id="radial-gradient-15" cx="1671.83" cy="3982.37" fx="1671.83" fy="3982.37" r="1" gradientTransform="translate(99.28 1015.92) scale(.17 -.17)" gradientUnits="userSpaceOnUse"><stop offset="0" stop-color="#fff"/><stop offset=".07" stop-color="#d8d8d8"/><stop offset=".16" stop-color="#a5a5a5"/><stop offset="1" stop-color="#a5a5a5" stop-opacity="0"/></radialGradient><radialGradient id="radial-gradient-16" cx="-309.98" cy="1318.91" fx="-309.98" fy="1318.91" r="1" gradientTransform="translate(3181.92 12387.83) scale(9.15 -9.15)" xlink:href="#radial-gradient-15"/><radialGradient id="radial-gradient-17" cx="-321.39" cy="1303.58" fx="-321.39" fy="1303.58" r="1" gradientTransform="translate(4429.45 17365.42) scale(13.06 -13.06)" xlink:href="#radial-gradient-15"/><radialGradient id="radial-gradient-18" cx="-343.88" cy="1273.35" fx="-343.88" fy="1273.35" r="1" gradientTransform="translate(29175.21 107345.15) scale(83.98 -84)" xlink:href="#radial-gradient-15"/><radialGradient id="radial-gradient-19" cx="-343.91" cy="1273.32" fx="-343.91" fy="1273.32" r="1" gradientTransform="translate(29376.54 107954.84) scale(84.41 -84.42)" gradientUnits="userSpaceOnUse"><stop offset="0" stop-color="#fa45c1"/><stop offset=".33" stop-color="#cb389d"/><stop offset=".41" stop-color="#ca389c" stop-opacity=".92"/><stop offset=".57" stop-color="#ca399a" stop-opacity=".71"/><stop offset=".79" stop-color="#c93b98" stop-opacity=".37"/><stop offset="1" stop-color="#c83d96" stop-opacity="0"/></radialGradient><radialGradient id="radial-gradient-20" cx="-334.64" cy="1285.77" fx="-334.64" fy="1285.77" r="1" gradientTransform="translate(9164.07 33550.68) scale(26 -26)" gradientUnits="userSpaceOnUse"><stop offset="0" stop-color="#dc3daa"/><stop offset=".09" stop-color="#c23596"/><stop offset="1" stop-color="#822465" stop-opacity=".1"/></radialGradient><radialGradient id="radial-gradient-21" cx="-306.88" cy="1323.08" fx="-306.88" fy="1323.08" r="1" gradientTransform="translate(3058.8 11307.33) scale(8.46 -8.46)" xlink:href="#radial-gradient-20"/><radialGradient id="radial-gradient-22" cx="-343" cy="1274.53" fx="-343" fy="1274.53" r="1" gradientTransform="translate(23874.6 88626.83) scale(69.26 -69.27)" gradientUnits="userSpaceOnUse"><stop offset="0" stop-color="#fa45c1"/><stop offset=".21" stop-color="#cb389d"/><stop offset="1" stop-color="#c83d96" stop-opacity=".1"/></radialGradient><radialGradient id="radial-gradient-23" cx="-343.08" cy="1274.43" fx="-343.08" fy="1274.43" r="1" gradientTransform="translate(24663.33 89977.89) scale(70.33 -70.34)" gradientUnits="userSpaceOnUse"><stop offset="0" stop-color="#fa45c1"/><stop offset=".21" stop-color="#cb389d"/><stop offset="1" stop-color="#c83d96" stop-opacity=".1"/></radialGradient><radialGradient id="radial-gradient-24" cx="-329.9" cy="1292.14" fx="-329.9" fy="1292.14" r="1" gradientTransform="translate(6731.99 24873.91) scale(19.2 -19.21)" xlink:href="#radial-gradient-20"/><radialGradient id="radial-gradient-25" cx="-275.41" cy="1365.36" fx="-275.41" fy="1365.36" r="1" gradientTransform="translate(1716.94 6626.09) scale(4.79 -4.79)" xlink:href="#radial-gradient-20"/><radialGradient id="radial-gradient-26" cx="-310.81" cy="1317.8" fx="-310.81" fy="1317.8" r="1" gradientTransform="translate(3302.93 12387.22) scale(9.35 -9.35)" xlink:href="#radial-gradient-20"/><radialGradient id="radial-gradient-27" cx="-344.22" cy="1300.5" fx="-344.22" fy="1300.5" r="1" gradientTransform="translate(-8272.15 21708.87) rotate(30) scale(17.7 -17.7)" xlink:href="#radial-gradient-20"/><radialGradient id="radial-gradient-28" cx="-337.57" cy="1357.51" fx="-337.57" fy="1357.51" r="1" gradientTransform="translate(-4523.79 7401.74) rotate(30) scale(6.45 -6.45)" xlink:href="#radial-gradient-20"/><radialGradient id="radial-gradient-29" cx="-331.42" cy="1290.1" fx="-331.42" fy="1290.1" r="1" gradientTransform="translate(7483.53 27227.23) scale(20.96 -20.96)" xlink:href="#radial-gradient-20"/><radialGradient id="radial-gradient-30" cx="-344.18" cy="1272.95" fx="-344.18" fy="1272.95" r="1" gradientTransform="translate(31532.93 115335.76) scale(90.41 -90.42)" xlink:href="#radial-gradient-20"/><radialGradient id="radial-gradient-31" cx="-341.8" cy="1276.15" fx="-341.8" fy="1276.15" r="1" gradientTransform="translate(19491.67 71456.1) scale(55.87 -55.88)" xlink:href="#radial-gradient-20"/><radialGradient id="radial-gradient-32" cx="-343.22" cy="1274.24" fx="-343.22" fy="1274.24" r="1" gradientTransform="translate(25082.14 92412.53) scale(72.38 -72.39)" xlink:href="#radial-gradient-20"/><radialGradient id="radial-gradient-33" cx="-344.47" cy="1272.56" fx="-344.47" fy="1272.56" r="1" gradientTransform="translate(33908.17 124813.95) scale(97.86 -97.88)" xlink:href="#radial-gradient-20"/><radialGradient id="radial-gradient-34" cx="-335.92" cy="1284.05" fx="-335.92" fy="1284.05" r="1" gradientTransform="translate(10152.19 37117.2) scale(28.74 -28.75)" xlink:href="#radial-gradient-20"/><radialGradient id="radial-gradient-35" cx="-337.13" cy="1282.43" fx="-337.13" fy="1282.43" r="1" gradientTransform="translate(11127.45 41057.05) scale(31.92 -31.93)" xlink:href="#radial-gradient-20"/><radialGradient id="radial-gradient-36" cx="-334.72" cy="1285.66" fx="-334.72" fy="1285.66" r="1" gradientTransform="translate(9003.83 33688.1) scale(26.16 -26.16)" xlink:href="#radial-gradient-20"/><radialGradient id="radial-gradient-37" cx="-322.75" cy="1301.75" fx="-322.75" fy="1301.75" r="1" gradientTransform="translate(4691.97 17979.51) scale(13.77 -13.77)" xlink:href="#radial-gradient-20"/><radialGradient id="radial-gradient-38" cx="-311.24" cy="1317.22" fx="-311.24" fy="1317.22" r="1" gradientTransform="translate(3080.57 12614.13) scale(9.46 -9.46)" xlink:href="#radial-gradient-20"/><radialGradient id="radial-gradient-39" cx="-324.39" cy="1299.55" fx="-324.39" fy="1299.55" r="1" gradientTransform="translate(4925.07 19271.94) scale(14.72 -14.73)" xlink:href="#radial-gradient-20"/><radialGradient id="radial-gradient-40" cx="-330.74" cy="1291.02" fx="-330.74" fy="1291.02" r="1" gradientTransform="translate(6818.56 26108.43) scale(20.13 -20.13)" xlink:href="#radial-gradient-20"/><radialGradient id="radial-gradient-41" cx="-332.91" cy="1288.09" fx="-332.91" fy="1288.09" r="3.95" xlink:href="#radial-gradient"/><radialGradient id="radial-gradient-42" cx="-343.6" cy="1293.74" fx="-343.6" fy="1293.74" xlink:href="#radial-gradient"/></defs><path class="cls-25" d="M599.58,422.01c40.99-29.01,50.71-85.75,21.71-126.74-29-40.99-85.74-50.71-126.72-21.71-40.98,29-50.7,85.74-21.7,126.74,29,41,85.73,50.71,126.72,21.71Z"/><g class="cls-22"><path class="cls-8" d="M249.45,371.61c-2.1,1.21-5.72,.47-6.01-1.24-.63-3.62-3.52-7.13-8.71-9.76-9.15-4.65-24.64-4.7-33.77-.12-11.37,5.69-11.78,15.68-1.25,21.74,4.43,2.55,10.06,3.99,15.84,4.31,1.79,.09,2.94,.92,3.1,1.82v-11.67c5.89,.11,11.72,1.28,16.1,3.51,5.18,2.63,8.08,6.14,8.71,9.76,.3,1.71,3.92,2.44,6.01,1.24l39.53-22.83,1.74-.36v-20.22l-41.27,23.83h-.01Z"/><path class="cls-1" d="M69.62,352.25c-2.29-1.32-3.46-3.04-3.51-4.78v18.85h.05c-.33,1.96,.83,4,3.46,5.51l106.68,61.61v-19.58l-106.68-61.61Z"/><path class="cls-2" d="M217.62,389.99l-41.32,23.86v19.58l41.32-23.86c.64-.38,.94-.83,.99-1.28h.01v-19.79c.03,.53-.27,1.07-1,1.5v-.02Z"/><path class="cls-3" d="M573.64,365.6h.08v-19.6h-.08c.08,1.83-1.07,3.65-3.45,5.03l-106.02,61.22v19.58l106.02-61.22c2.38-1.38,3.52-3.2,3.45-5.01Z"/><path class="cls-5" d="M422.18,388c-1.35-.78-3.16-.92-4.7-.61v19.58c1.54-.31,3.35-.16,4.7,.61l42.01,24.25v-19.58l-42.01-24.25Z"/><path class="cls-4" d="M414.52,389.63c-.36,3.32-2.73,6.56-7.11,9.1-9.76,5.64-25.73,5.51-35.33-.36-3.68-2.26-5.84-5.06-6.5-7.96l-.19,.05v16.97c-.31,3.77,1.91,7.6,6.69,10.51,9.6,5.88,25.58,6,35.33,.36,4.39-2.52,6.75-5.78,7.11-9.1,.13-1.13,1.38-1.93,2.96-2.24v-19.58c-1.57,.31-2.84,1.13-2.96,2.24v.02Z"/><path class="cls-6" d="M358.04,497.8c-3.65,3.15-11.04,3.98-16.51,1.85l-125.13-48.64v19.58l125.13,48.64c5.47,2.13,12.86,1.3,16.51-1.85l83.44-71.95v-19.58l-83.44,71.95Z"/><path class="cls-7" d="M228.08,431.99c-6.53-2.54-10.31-6.56-10.88-10.76v17.5c-.35,2.96,.91,5.92,3.62,8.48l14.13-9.35c2.13-1.83-1.69-3.85-6.86-5.86Z"/><path class="cls-63" d="M350.1,521.92c-2.58-.03-4.6-7.33-4.51-16.29,.09-8.98,2.29-16.21,4.87-16.2,2.58,.03,4.6,7.33,4.51,16.29-.09,8.98-2.29,16.21-4.87,16.2Z"/></g><path class="cls-18" d="M304.64,372.83c168.25,0,304.64-83.46,304.64-186.42S472.89,0,304.64,0,0,83.46,0,186.42s136.39,186.42,304.64,186.42Z"/><path class="cls-19" d="M12.01,358.23l334.23,156.64,256.82-183.6L318.87,170.24,12.01,358.23Z"/><path class="cls-20" d="M19.47,355.49l326.1,154.73,252.41-180.43L318.66,171.52,19.47,355.49Z"/><path class="cls-21" d="M26.92,352.73l317.97,152.85,247.99-177.27L318.47,172.8,26.92,352.73Z"/><path class="cls-16" d="M34.4,349.99l309.83,150.95,243.57-174.12L318.27,174.09,34.4,349.99Z"/><path class="cls-15" d="M41.85,347.25l301.7,149.06,239.16-170.96L318.07,175.39,41.85,347.25Z"/><path class="cls-9" d="M49.31,344.49l293.57,147.16,234.74-167.79L317.86,176.67,49.31,344.49Z"/><path class="cls-10" d="M56.76,341.75l285.44,145.26,230.32-164.64-254.87-144.42L56.76,341.75Z"/><path class="cls-14" d="M64.23,339.01l277.3,143.37,225.91-161.48-249.98-141.66L64.23,339.01Z"/><path class="cls-17" d="M71.69,336.26l269.17,141.49,221.49-158.33-245.09-138.87L71.69,336.26Z"/><path class="cls-12" d="M79.14,333.51l261.04,139.58,217.07-155.17-240.21-136.1L79.14,333.51Z"/><path class="cls-11" d="M86.62,330.77l252.89,137.68,212.66-152-235.32-133.34L86.62,330.77Z"/><path class="cls-13" d="M94.07,328.03l244.78,135.79,208.22-148.85-230.42-130.57L94.07,328.03Z"/><path class="cls-64" d="M251.94,194.97c7.5-7.36,24.36-9.56,36.81-4.57,10.01,4,13.86,12.69,8.39,18.92-3.1,3.54-8.25,6.01-14.14,7.24-2.79,.58-3.1,2.79-.55,3.67l50.5,17.29,29.96-29.39c1.94-1.9,6.91-1.61,8.11,.49,1.94,3.4,6.11,6.41,12.12,8.22,11.28,3.4,25.39,1.21,32.12-4.98,7.39-6.8,3.52-15.76-8.41-19.85-5.36-1.83-11.42-2.37-17.07-1.77-3.77,.41-6.62-1.97-4.68-3.88l29.96-29.39-129.72-44.43c-5.67-1.94-12.97-.88-16.29,2.4l-76.12,74.63,50.56,17.31c2.52,.86,5.7-.35,5.23-2.01-.94-3.31,.03-6.8,3.19-9.9h.02Z"/><path class="cls-81" d="M389.79,190.24c5.65-.61,11.72-.08,17.07,1.77,2.18,.75,4.07,1.66,5.7,2.68l2.52-2.46v-35.25l-29.96,29.39c-1.94,1.91,.91,4.29,4.68,3.89l-.02-.02Z"/><path class="cls-82" d="M418.86,205.95c-.41,2.04-1.55,4.04-3.57,5.89-6.73,6.19-20.83,8.38-32.12,4.98-6.01-1.82-10.18-4.82-12.12-8.22-1.21-2.1-6.19-2.4-8.11-.49l-29.96,29.39-50.5-17.29c-2.57-.88-2.24-3.09,.55-3.67,5.9-1.22,11.06-3.7,14.14-7.24,5.47-6.24,1.61-14.91-8.4-18.92-12.45-4.98-29.29-2.77-36.81,4.57-3.16,3.1-4.13,6.6-3.2,9.9,.47,1.68-2.69,2.88-5.23,2.01l-50.56-17.31v35.25l50.56,17.31c2.52,.86,5.7-.35,5.23-2-.94-3.31,.03-6.8,3.2-9.9,6-5.89,17.97-8.46,28.88-6.72v29.73c-.33,.81,.17,1.74,1.63,2.22l50.5,17.29,29.96-29.39c1.94-1.9,6.91-1.61,8.11,.49,1.94,3.4,6.11,6.41,12.12,8.22,11.28,3.4,25.39,1.21,32.12-4.98,3.1-2.85,4.2-6.08,3.57-9.18v-31.94Z"/><path class="cls-80" d="M367.42,242.14v-35.25c-1.69-.14-3.51,.25-4.51,1.24l-29.96,29.39v35.25l29.96-29.39c1-.99,2.82-1.38,4.51-1.24Z"/><path class="cls-79" d="M363.99,242.67s-.14,.05-.2,.08c.06-.03,.14-.05,.2-.08Z"/><path class="cls-69" d="M365.01,242.31s-.06,0-.11,.01c.03,0,.06,0,.11-.01Z"/><path class="cls-75" d="M282.45,220.21c-2.57-.88-2.24-3.09,.55-3.67,5.9-1.22,11.06-3.7,14.14-7.24,5.47-6.24,1.61-14.91-8.39-18.92-12.45-4.98-29.29-2.77-36.81,4.57-3.16,3.1-4.14,6.6-3.2,9.9,.47,1.68-2.69,2.87-5.23,2.01l-50.56-17.31v35.25l50.56,17.31c2.52,.86,5.7-.35,5.23-2-.94-3.31,.03-6.8,3.2-9.9,6-5.87,17.97-8.46,28.88-6.72v29.73c-.33,.81,.17,1.74,1.63,2.22l50.5,17.29v-35.25l-50.5-17.29v.02Z"/><path class="cls-77" d="M418.86,237.93v-31.97c-.41,2.04-1.55,4.04-3.57,5.89-6.74,6.19-20.83,8.38-32.12,4.98-6.03-1.82-10.18-4.82-12.12-8.22-.88-1.54-3.77-2.1-6.03-1.54,.77-.19,1.61-.25,2.41-.17v35.25c1.57,.13,3.02,.71,3.6,1.72,1.94,3.4,6.11,6.41,12.12,8.22,11.28,3.4,25.39,1.21,32.12-4.98,3.1-2.85,4.2-6.08,3.57-9.18h.02Z"/><path class="cls-78" d="M363.79,207.5c-.33,.17-.63,.38-.88,.63,.25-.25,.55-.45,.88-.63Z"/><path class="cls-70" d="M364.9,207.1c-.33,.08-.63,.2-.91,.33,.28-.12,.58-.25,.91-.33Z"/><path class="cls-76" d="M239.85,205.62l-46.89-16.06,46.89,16.06Z"/><path class="cls-72" d="M243.51,242.12l-3.67-1.25,3.67,1.25c.33,.11,.66,.19,.99,.24-.33-.05-.67-.13-.99-.24Z"/><path class="cls-73" d="M244.67,242.37c.28,.03,.56,.05,.85,.05-.28,0-.56,0-.85-.05Z"/><path class="cls-71" d="M247.35,242.03s-.09,.05,0,0h0Z"/><path class="cls-74" d="M280.76,253.48c-.03,.16-.03,.31,0,.45v-.45Z"/><path class="cls-84" d="M280.76,218.8c-.27-.91,.5-1.9,2.24-2.26,5.9-1.22,11.06-3.7,14.14-7.24,5.47-6.24,1.61-14.91-8.39-18.92-12.45-4.98-29.29-2.77-36.81,4.57-3.16,3.1-4.14,6.6-3.2,9.9,.24,.82-.41,1.5-1.39,1.91v35.23c.3-.16,1.68-.92,1.39-1.89-.94-3.31,.03-6.8,3.2-9.9,5.98-5.87,17.92-8.44,28.82-6.72v-4.68Z"/><g><path class="cls-59" d="M384.99,187.28s.08-.09,.13-.14l29.96-29.39-1.77-.61-28.19,27.63c-.85,.83-.78,1.75-.13,2.49v.02Z"/><path class="cls-58" d="M415.29,210.27c-6.74,6.19-20.83,8.38-32.12,4.98-6.03-1.82-10.18-4.82-12.12-8.22-1.21-2.1-6.19-2.4-8.11-.49l-29.96,29.39-50.5-17.29c-.47-.16-.82-.38-1.1-.61-1.13,.91-.83,2.3,1.1,2.96l50.5,17.29,29.96-29.39c1.94-1.9,6.91-1.61,8.11,.49,1.94,3.4,6.11,6.41,12.12,8.22,11.28,3.4,25.39,1.21,32.12-4.98,2.94-2.71,4.07-5.75,3.65-8.69-.31,2.18-1.49,4.35-3.65,6.34Z"/><path class="cls-57" d="M248.49,204.43c-.8,1-3.07,1.53-4.97,.88l-48.79-16.7-1.77,1.74,50.56,17.31c2.52,.86,5.7-.34,5.23-2-.11-.41-.2-.81-.25-1.22h-.02Z"/><path class="cls-62" d="M299.54,202.68c.72-5.25-3.32-10.86-10.79-13.85-12.45-4.98-29.29-2.77-36.81,4.58-2.79,2.72-3.87,5.76-3.45,8.69,.3-2.18,1.41-4.36,3.45-6.34,7.5-7.36,24.36-9.56,36.81-4.57,6.38,2.55,10.23,7,10.79,11.5Z"/></g><path class="cls-92" d="M199.69,302.34c-10.53-6.08-10.12-16.06,1.25-21.74,9.15-4.57,24.64-4.51,33.77,.12,5.18,2.63,8.08,6.14,8.71,9.76,.3,1.71,3.92,2.44,6.01,1.24l41.27-23.83-42.01-24.25c-2.71-1.57-1.03-4.28,2.79-4.42,6.19-.22,12.23-1.79,16.74-4.68,8.44-5.45,8.19-13.9-.56-19.24-9.6-5.86-25.58-6-35.34-.36-4.39,2.52-6.75,5.78-7.11,9.1-.24,2.21-4.92,3.2-7.64,1.63l-42.01-24.25-106.02,61.22c-4.64,2.68-4.61,7.03,.05,9.73l106.68,61.61,41.32-23.86c2.07-1.19,.82-3.27-2.1-3.43-5.76-.31-11.4-1.75-15.84-4.31l.03-.05Z"/><path class="cls-85" d="M268.24,234.54c-4.51,2.9-10.56,4.46-16.74,4.68-3.82,.14-5.51,2.85-2.79,4.42l25.56,14.76v-31.85c-.49,2.9-2.49,5.7-6.03,7.99Z"/><path class="cls-83" d="M249.45,291.72c-2.1,1.21-5.72,.47-6.01-1.24-.63-3.62-3.52-7.13-8.71-9.76-9.15-4.65-24.64-4.7-33.77-.12-11.37,5.69-11.78,15.68-1.25,21.74,4.43,2.55,10.06,3.99,15.84,4.31,1.79,.09,2.94,.92,3.1,1.82v3.99c5.89,.11,11.72,1.28,16.1,3.51,5.18,2.63,8.08,6.14,8.71,9.76,.3,1.71,3.92,2.44,6.01,1.24l39.53-22.82,1.74-.36v-35.89l-41.27,23.83h-.01Z"/><path class="cls-93" d="M69.62,272.36c-2.29-1.32-3.46-3.04-3.51-4.78v34.51h.05c-.33,1.96,.83,4,3.46,5.52l106.68,61.61v-35.25l-106.68-61.61Z"/><path class="cls-94" d="M217.62,310.09l-41.32,23.86v35.25l41.32-23.86c.64-.38,.94-.83,.99-1.28h.01v-35.45c.03,.53-.27,1.07-1,1.5v-.02Z"/><path class="cls-96" d="M217.62,310.09l-41.32,23.86v35.25l41.32-23.86c.64-.38,.94-.83,.99-1.28h.01v-35.45c.03,.53-.27,1.07-1,1.5v-.02Z"/><g><path class="cls-61" d="M217.39,308.67l-41.08,23.72-106.68-61.61c-1.64-.95-2.69-2.1-3.2-3.32-.91,2.24,.16,4.7,3.2,6.45l106.68,61.61,41.32-23.86c1.55-.89,1.24-2.29-.25-2.99h.02Z"/><path class="cls-60" d="M268.24,232.97c-4.51,2.91-10.56,4.46-16.73,4.68-3.6,.12-5.31,2.54-3.21,4.14,.72-.55,1.82-.96,3.21-1,6.19-.22,12.23-1.79,16.73-4.68,4.78-3.09,6.77-7.13,6-11.03-.52,2.85-2.51,5.64-6,7.9Z"/><path class="cls-47" d="M249.45,290.15c-2.1,1.21-5.72,.47-6.01-1.24-.63-3.62-3.52-7.13-8.71-9.76-9.15-4.65-24.64-4.7-33.77-.12-6.64,3.32-9.52,8.11-8.68,12.74,.66-3.57,3.54-7.03,8.68-9.6,9.15-4.57,24.64-4.51,33.77,.12,5.18,2.63,8.08,6.14,8.71,9.76,.3,1.71,3.92,2.44,6.01,1.24l41.27-23.83-2.71-1.57-38.56,22.26Z"/></g><path class="cls-98" d="M440.07,229.34c10.53,6.08,10.12,16.06-1.25,21.74-9.15,4.58-24.64,4.51-33.77-.12-5.18-2.63-8.08-6.14-8.71-9.76-.3-1.71-3.92-2.44-6.01-1.24l-41.27,23.83,42.01,24.25c2.71,1.57,1.03,4.28-2.79,4.42-6.19,.22-12.23,1.79-16.74,4.68-8.44,5.45-8.19,13.89,.56,19.24,9.6,5.86,25.58,6,35.34,.36,4.38-2.52,6.75-5.78,7.11-9.1,.23-2.21,4.92-3.2,7.64-1.63l42.01,24.25,106.02-61.22c4.64-2.68,4.6-7.03-.05-9.73l-106.68-61.61-41.32,23.86c-2.07,1.19-.82,3.27,2.1,3.43,5.76,.31,11.4,1.75,15.84,4.31l-.03,.05Z"/><path class="cls-97" d="M440.07,229.34c10.53,6.08,10.12,16.06-1.25,21.74-9.15,4.58-24.64,4.51-33.77-.12-5.18-2.63-8.08-6.14-8.71-9.76-.3-1.71-3.92-2.44-6.01-1.24l-41.27,23.83,42.01,24.25c2.71,1.57,1.03,4.28-2.79,4.42-6.19,.22-12.23,1.79-16.74,4.68-8.44,5.45-8.19,13.89,.56,19.24,9.6,5.86,25.58,6,35.34,.36,4.38-2.52,6.75-5.78,7.11-9.1,.23-2.21,4.92-3.2,7.64-1.63l42.01,24.25,106.02-61.22c4.64-2.68,4.6-7.03-.05-9.73l-106.68-61.61-41.32,23.86c-2.07,1.19-.82,3.27,2.1,3.43,5.76,.31,11.4,1.75,15.84,4.31l-.03,.05Z"/><path class="cls-95" d="M438.81,251.08c11.37-5.69,11.78-15.68,1.25-21.74-4.43-2.55-10.05-3.99-15.83-4.31-1.86-.11-3.04-.99-3.1-1.93h-.06v31.36c6.44,.14,12.95-.97,17.75-3.37v-.02Z"/><path class="cls-89" d="M573.64,299.29h.08v-35.26h-.08c.08,1.83-1.07,3.65-3.45,5.03l-106.02,61.22v35.25l106.02-61.22c2.38-1.38,3.52-3.2,3.45-5.01Z"/><path class="cls-87" d="M573.64,299.29h.08v-35.26h-.08c.08,1.83-1.07,3.65-3.45,5.03l-106.02,61.22v35.25l106.02-61.22c2.38-1.38,3.52-3.2,3.45-5.01Z"/><path class="cls-91" d="M371.52,297.14c4.51-2.9,10.56-4.46,16.74-4.68,3.82-.14,5.51-2.85,2.79-4.42l-42.01-24.25v35.25l16.35,9.45,.19-.05c-.89-3.98,1.05-8.13,5.94-11.28v-.02Z"/><path class="cls-88" d="M422.18,306.02c-1.35-.78-3.16-.93-4.7-.61v35.25c1.54-.31,3.35-.16,4.7,.61l42.01,24.25v-35.25l-42.01-24.25Z"/><path class="cls-86" d="M414.52,307.64c-.36,3.32-2.73,6.56-7.11,9.1-9.76,5.64-25.73,5.52-35.33-.36-3.68-2.26-5.84-5.06-6.5-7.96l-.19,.05v32.63c-.31,3.77,1.91,7.6,6.69,10.51,9.6,5.88,25.58,6,35.33,.36,4.39-2.52,6.75-5.78,7.11-9.1,.12-1.13,1.38-1.93,2.96-2.24v-35.25c-1.57,.31-2.83,1.13-2.96,2.24v.02Z"/><path class="cls-90" d="M414.52,307.64c-.36,3.32-2.73,6.56-7.11,9.1-9.76,5.64-25.73,5.52-35.33-.36-3.68-2.26-5.84-5.06-6.5-7.96l-.19,.05v32.63c-.31,3.77,1.91,7.6,6.69,10.51,9.6,5.88,25.58,6,35.33,.36,4.39-2.52,6.75-5.78,7.11-9.1,.12-1.13,1.38-1.93,2.96-2.24v-35.25c-1.57,.31-2.83,1.13-2.96,2.24v.02Z"/><g><path class="cls-51" d="M391.48,289.89c1.25-.97,1.3-2.43-.42-3.41l-39.28-22.68-2.71,1.57,42.01,24.25c.16,.09,.3,.19,.42,.28h-.02Z"/><path class="cls-54" d="M424.23,226.58c5.76,.31,11.4,1.75,15.83,4.31,4.37,2.52,6.83,5.73,7.42,9.02,.8-4.32-1.66-8.82-7.42-12.16-4.43-2.55-10.05-3.99-15.83-4.31-.74-.05-1.36-.2-1.86-.44l-.25,.14c-2.07,1.19-.82,3.27,2.1,3.43h.02Z"/></g><path class="cls-56" d="M422.18,304.45c-2.73-1.57-7.41-.6-7.64,1.63-.36,3.32-2.73,6.56-7.11,9.1-9.76,5.64-25.73,5.51-35.34-.36-3.79-2.32-5.98-5.22-6.56-8.21-.74,4.03,1.46,8.22,6.56,11.34,9.6,5.87,25.58,6,35.34,.36,4.38-2.52,6.75-5.78,7.11-9.1,.23-2.21,4.92-3.2,7.64-1.63l41.71,24.08v-3.13l-41.71-24.08Z"/><path class="cls-55" d="M570.19,270.62c3.01-1.74,4.04-4.17,3.13-6.41-.49,1.21-1.52,2.33-3.13,3.27l-106.02,61.22-.3-.17v3.13l.3,.17,106.02-61.22Z"/><path class="cls-66" d="M383.1,338.34c-8.22,7.1-25.28,8.73-37.21,3.35-9.6-4.32-12.58-13.11-6.5-19.16,3.45-3.43,8.83-5.73,14.85-6.75,2.85-.49,3.38-2.68,.91-3.63l-48.71-18.92-32.84,28.32c-2.13,1.83-7.06,1.38-8.07-.75-1.6-3.46-5.47-6.6-11.29-8.6-10.93-3.76-25.23-2.04-32.58,3.92-8.05,6.53-5.09,15.62,6.42,20.08,5.17,2.01,11.17,2.74,16.88,2.33,3.81-.28,6.42,2.19,4.29,4.03l-32.85,28.32,125.13,48.64c5.47,2.13,12.86,1.3,16.51-1.85l83.44-71.95-48.77-18.96c-2.44-.94-5.73,.16-5.42,1.83,.61,3.34-.72,6.78-4.18,9.77v-.03Z"/><path class="cls-65" d="M358.04,417.64c-3.65,3.15-11.04,3.98-16.51,1.85l-125.13-48.64v35.25l125.13,48.64c5.47,2.13,12.86,1.3,16.51-1.85l83.44-71.95v-35.25l-83.44,71.95Z"/><path class="cls-68" d="M244.95,338.5c-5.72,.42-11.71-.31-16.88-2.33-6.53-2.54-10.31-6.56-10.89-10.76v33.16c-.34,2.96,.91,5.92,3.62,8.48l28.43-24.52c2.13-1.83-.47-4.31-4.29-4.03h.01Z"/><path class="cls-67" d="M354.23,315.77c-6.02,1.03-11.4,3.32-14.85,6.75-6.08,6.05-3.1,14.83,6.5,19.16,3.27,1.47,6.94,2.41,10.7,2.87v-30.23c-.27,.66-1.07,1.24-2.35,1.46Z"/><g><path class="cls-53" d="M387.38,329.44c-.06,.14-.08,.3-.08,.47,.03-.16,.06-.31,.08-.47Z"/><path class="cls-52" d="M339.38,320.97c-2.6,2.58-3.52,5.67-3.01,8.71,.33-1.96,1.3-3.89,3.01-5.58,3.45-3.43,8.83-5.73,14.85-6.75,2.73-.47,3.3-2.49,1.17-3.49-.33,.16-.7,.28-1.17,.36-6.02,1.03-11.4,3.32-14.85,6.75Z"/><path class="cls-50" d="M228.08,337.73c5.17,2.01,11.17,2.74,16.88,2.33,1.74-.12,3.23,.33,4.13,1.03l.16-.12c2.13-1.83-.47-4.31-4.29-4.03-5.72,.42-11.72-.31-16.88-2.33-6.33-2.46-10.06-6.31-10.81-10.35-1,5.12,2.87,10.4,10.81,13.49v-.02Z"/><path class="cls-49" d="M358.04,416.07c-3.65,3.15-11.04,3.98-16.51,1.85l-122.64-47.65-2.51,2.16,125.13,48.62c5.47,2.13,12.86,1.3,16.51-1.85l83.44-71.95-2.51-.97-80.93,69.79h.02Z"/></g><path class="cls-48" d="M348.5,486.96c-1.25,0-2.52-.23-3.74-.7l-128.66-50.18,.56-1.46,128.66,50.18c2.99,1.17,6.38,.6,8.82-1.47l86.82-73.74,1.02,1.19-86.82,73.74c-1.9,1.61-4.26,2.44-6.66,2.44Z"/><g><path class="cls-26" d="M473.16,144.36c-1.44,0-2.96-.22-4.51-.64-.23-.06-.42-.24-.52-.45l-2.99-7.3c-.86-.36-1.6-.72-2.33-1.14-.63-.36-1.28-.78-2.01-1.3l-2.63,3.41c-.13,.17-.33,.28-.55,.3-.22,0-.42-.05-.6-.19-1.97-1.72-3.85-3.73-5.62-5.92-.16-.19-.2-.44-.16-.67l1.3-5.48c-1.25-1.8-2.37-3.73-3.31-5.72l-5.43-1.65c-.23-.06-.41-.24-.5-.45-1.03-2.63-1.82-5.25-2.33-7.8-.05-.22,0-.44,.12-.61,.12-.17,.33-.3,.53-.31l4.29-.55c-.09-.88-.12-1.65-.12-2.37,0-.83,.06-1.66,.17-2.57l-4.86-6.23c-.16-.19-.2-.44-.14-.69,.53-2.02,1.35-3.79,2.41-5.28,.12-.17,.33-.3,.55-.31,.2-.03,.44,.05,.6,.19l5.25,4.48c.82-.67,1.71-1.19,2.71-1.55l-1.25-6.74c-.05-.22,0-.44,.14-.61,.12-.17,.33-.28,.55-.31,1.82-.17,3.79,.03,5.81,.58,.23,.06,.42,.24,.52,.45l2.98,7.3c.85,.34,1.61,.72,2.33,1.14,.63,.36,1.28,.78,1.99,1.3l2.65-3.42c.12-.17,.33-.28,.55-.3,.22-.02,.42,.05,.6,.19,1.96,1.72,3.85,3.73,5.62,5.92,.16,.19,.2,.44,.16,.67l-1.3,5.48c1.25,1.8,2.36,3.73,3.3,5.72l5.43,1.64c.24,.06,.41,.24,.5,.45,1.03,2.63,1.82,5.25,2.33,7.8,.05,.22,0,.44-.12,.61-.13,.17-.33,.3-.53,.31l-4.29,.55c.09,.86,.13,1.64,.13,2.36,0,.83-.06,1.68-.17,2.57l4.86,6.24c.16,.19,.2,.44,.14,.67-.53,2.02-1.35,3.79-2.41,5.28-.13,.17-.33,.3-.55,.31-.22,.03-.44-.05-.6-.19l-5.25-4.48c-.8,.67-1.71,1.19-2.71,1.55l1.25,6.74c.05,.22,0,.44-.14,.61-.13,.17-.33,.28-.55,.31-.42,.05-.86,.06-1.3,.06l.02,.02Zm-3.71-2.05c1.38,.36,2.76,.52,4.01,.49l-1.22-6.55c-.08-.41,.17-.8,.56-.91,1.24-.33,2.33-.96,3.24-1.85,.3-.28,.75-.3,1.07-.05l5.11,4.36c.67-1.08,1.21-2.32,1.6-3.68l-4.82-6.19c-.13-.17-.19-.39-.16-.6,.14-.96,.2-1.83,.2-2.68s-.06-1.82-.2-2.94c-.05-.42,.25-.82,.67-.88l4.21-.53c-.47-2.08-1.11-4.23-1.94-6.36l-5.4-1.63c-.22-.06-.39-.22-.49-.42-.99-2.13-2.18-4.17-3.52-6.08-.12-.19-.17-.41-.12-.63l1.3-5.45c-1.46-1.79-2.99-3.42-4.57-4.87l-2.6,3.35c-.27,.34-.75,.41-1.1,.14-.92-.71-1.71-1.22-2.46-1.66-.74-.42-1.54-.81-2.44-1.17-.2-.08-.36-.24-.44-.42l-2.96-7.25c-1.39-.34-2.74-.52-4.03-.49l1.22,6.55c.08,.41-.17,.8-.56,.91-1.24,.33-2.33,.96-3.24,1.85-.3,.28-.75,.3-1.07,.05l-5.11-4.35c-.67,1.08-1.21,2.32-1.6,3.68l4.82,6.19c.13,.17,.19,.38,.16,.59-.14,.97-.2,1.82-.2,2.68s.06,1.8,.2,2.94c.05,.42-.25,.82-.67,.88l-4.21,.53c.47,2.08,1.11,4.23,1.94,6.36l5.4,1.63c.22,.06,.39,.22,.49,.42,.99,2.11,2.18,4.17,3.52,6.08,.12,.19,.17,.41,.12,.63l-1.3,5.45c1.46,1.79,2.99,3.42,4.57,4.87l2.58-3.35c.27-.35,.75-.41,1.1-.14,.91,.69,1.71,1.22,2.46,1.66,.75,.42,1.52,.8,2.44,1.18,.19,.08,.36,.24,.44,.42l2.96,7.25h.03Z"/><path class="cls-27" d="M466.21,124.43c-1.07,0-2.21-.34-3.38-1.02-3.9-2.24-7.06-7.71-7.06-12.19,0-3.34,1.75-5.5,4.46-5.5,1.07,0,2.21,.34,3.38,1.02,3.9,2.24,7.06,7.71,7.06,12.19,0,3.34-1.75,5.5-4.46,5.5Zm-5.98-17.14c-1.82,0-2.9,1.47-2.9,3.93,0,3.98,2.82,8.82,6.28,10.82,.92,.53,1.82,.82,2.6,.82,1.82,0,2.9-1.47,2.9-3.93,0-3.96-2.82-8.82-6.28-10.82-.92-.53-1.82-.82-2.6-.82Z"/></g><path class="cls-39" d="M175.91,398.85L39.8,320.28l.8-1.36,136.09,78.59-.78,1.35Z"/><path class="cls-41" d="M620.88,303.81l-157.1,92.07,.79,1.35,157.1-92.07-.79-1.35Z"/><g><path class="cls-40" d="M401.42,80.8c-.52,0-1.07-.16-1.61-.49l-6.58-3.81c-1.74-1-3.1-3.35-3.1-5.36v-3.38c0-2.51-.99-5.51-2.72-8.26-3.51-5.55-5.22-11.84-4.59-16.86,.64-5,3.74-8.11,8.11-8.11,1.5,0,3.08,.36,4.71,1.1,8.26,3.68,15.51,15.24,15.51,24.74,0,4.72-1.82,8.22-4.98,9.63-1.58,.7-2.46,2.38-2.46,4.72v3.38c0,.77-.2,1.43-.58,1.91-.41,.52-1.02,.8-1.69,.8l-.02-.02Zm-10.49-44.68c-3.57,0-6.02,2.52-6.56,6.74-.6,4.67,1.03,10.57,4.35,15.82,1.88,2.98,2.96,6.3,2.96,9.09v3.38c0,1.44,1.06,3.27,2.32,4.01l6.58,3.81c.3,.17,.6,.27,.83,.27,.2,0,.36-.06,.47-.2,.16-.19,.25-.52,.25-.92v-3.38c0-2.96,1.24-5.2,3.4-6.14,2.57-1.14,4.04-4.12,4.04-8.19,0-8.94-6.81-19.83-14.58-23.29-1.42-.64-2.79-.96-4.07-.96l.02-.02Z"/><path class="cls-46" d="M399.2,86.35c-.39,0-.82-.13-1.22-.34l-2.9-1.68c-1.38-.8-2.47-2.84-2.47-4.64v-3.78l8.63,4.98v2.87c0,1.8-1.02,2.6-2.04,2.6v-.02Zm-5.03-7.74v1.05c0,1.24,.78,2.77,1.69,3.29l2.9,1.68c.2,.13,.35,.14,.44,.14,.33,0,.47-.53,.47-1.03v-1.96l-5.5-3.16Z"/><path class="cls-37" d="M397.89,74.55h-1.57v-13.11l-.08,.05-5.9-10.18,12.59,7.27-5.04,2.87v13.11Zm-3.24-18.96l2.57,4.43,2.57-1.47-5.14-2.96Z"/></g><g><path class="cls-38" d="M325.27,107.71c-2.33,0-4.82-.75-7.41-2.26-8.83-5.11-16.04-17.51-16.04-27.67,0-7.21,3.7-11.86,9.4-11.86,2.33,0,4.82,.75,7.41,2.26,8.83,5.11,16.04,17.51,16.04,27.66,0,7.21-3.7,11.86-9.4,11.86Zm-14.05-40.2c-4.84,0-7.83,3.95-7.83,10.29,0,9.65,6.84,21.45,15.26,26.32,2.32,1.33,4.61,2.04,6.63,2.04,4.84,0,7.83-3.95,7.83-10.29,0-9.65-6.84-21.45-15.26-26.3-2.32-1.33-4.6-2.04-6.63-2.04v-.02Z"/><path class="cls-42" d="M328.4,92.25l-10.46-4.48c-.28-.13-.47-.41-.47-.72v-13.02h1.57v12.5l9.99,4.28-.61,1.44h-.02Z"/></g><path class="cls-43" d="M530.71,206.39c-2.6,0-5.64-1.55-8.32-4.26-.14-.14-.22-.34-.19-.55,.03-.2,.16-.39,.33-.49l5.03-2.87-5.01-8.66-5.04,2.87c-.17,.09-.39,.11-.58,.03-.19-.08-.33-.24-.39-.44-1.43-5.2-.44-9.65,2.54-11.34,2.85-1.63,7.11-.34,10.79,3.18l9.77-5.58c-1.24-4.98-.2-9.21,2.66-10.84,2.95-1.68,7.39-.25,11.15,3.52,.14,.14,.22,.35,.19,.55-.03,.2-.16,.39-.33,.49l-5.03,2.87,5.01,8.66,5.04-2.87c.17-.09,.39-.11,.58-.03,.19,.08,.33,.24,.39,.44,1.42,5.2,.44,9.65-2.54,11.34-2.84,1.63-7.11,.34-10.78-3.17l-9.77,5.58c1.24,4.98,.2,9.2-2.66,10.84-.85,.49-1.8,.72-2.84,.72h-.02Zm-6.73-4.59c2.26,2.08,4.68,3.26,6.73,3.26,.81,0,1.54-.19,2.18-.55,2.43-1.38,3.18-5.25,1.91-9.84-.08-.3,.05-.6,.31-.75l10.65-6.08c.27-.16,.6-.11,.8,.11,3.3,3.34,7.14,4.68,9.55,3.31,2.29-1.3,3.09-4.78,2.13-9.01l-4.85,2.77c-.31,.17-.72,.08-.91-.25l-5.69-9.81c-.09-.16-.11-.33-.06-.5,.05-.17,.16-.31,.31-.41l4.84-2.76c-3.15-2.9-6.66-4-8.93-2.71-2.43,1.38-3.18,5.25-1.91,9.84,.08,.3-.05,.6-.31,.75l-10.65,6.08c-.27,.14-.6,.11-.8-.11-3.3-3.34-7.13-4.7-9.55-3.3-2.29,1.3-3.09,4.78-2.13,9.01l4.86-2.77c.31-.17,.72-.08,.91,.25l5.68,9.81c.09,.16,.11,.33,.06,.5-.05,.17-.16,.31-.31,.41l-4.84,2.76h.02Z"/><g><path class="cls-29" d="M390.66,310.17c-.44,0-.78-.35-.78-.78v-3.13c0-.44,.35-.78,.78-.78s.78,.35,.78,.78v3.13c0,.44-.35,.78-.78,.78Zm0-6.27c-.44,0-.78-.35-.78-.78v-3.13c0-.44,.35-.78,.78-.78s.78,.35,.78,.78v3.13c0,.44-.35,.78-.78,.78Zm0-6.27c-.44,0-.78-.34-.78-.78v-3.13c0-.44,.35-.78,.78-.78s.78,.35,.78,.78v3.13c0,.44-.35,.78-.78,.78Zm0-6.27c-.44,0-.78-.34-.78-.78v-3.13c0-.44,.35-.78,.78-.78s.78,.34,.78,.78v3.13c0,.44-.35,.78-.78,.78Zm0-6.27c-.44,0-.78-.34-.78-.78v-3.13c0-.44,.35-.78,.78-.78s.78,.34,.78,.78v3.13c0,.44-.35,.78-.78,.78Zm0-6.27c-.44,0-.78-.35-.78-.78v-3.13c0-.44,.35-.78,.78-.78s.78,.34,.78,.78v3.13c0,.44-.35,.78-.78,.78Zm0-6.27c-.44,0-.78-.35-.78-.78v-3.13c0-.44,.35-.78,.78-.78s.78,.35,.78,.78v3.13c0,.44-.35,.78-.78,.78Zm0-6.27c-.44,0-.78-.35-.78-.78v-3.13c0-.44,.35-.78,.78-.78s.78,.35,.78,.78v3.13c0,.44-.35,.78-.78,.78Zm0-6.27c-.44,0-.78-.35-.78-.78v-3.13c0-.44,.35-.78,.78-.78s.78,.35,.78,.78v3.13c0,.44-.35,.78-.78,.78Zm0-6.27c-.44,0-.78-.35-.78-.78v-3.13c0-.44,.35-.78,.78-.78s.78,.35,.78,.78v3.13c0,.44-.35,.78-.78,.78Zm0-6.27c-.44,0-.78-.34-.78-.78v-3.13c0-.44,.35-.78,.78-.78s.78,.35,.78,.78v3.13c0,.44-.35,.78-.78,.78Zm0-6.27c-.44,0-.78-.34-.78-.78v-3.13c0-.44,.35-.78,.78-.78s.78,.34,.78,.78v3.13c0,.44-.35,.78-.78,.78Zm0-6.27c-.44,0-.78-.34-.78-.78v-3.13c0-.44,.35-.78,.78-.78s.78,.34,.78,.78v3.13c0,.44-.35,.78-.78,.78Zm1.9-5.2c-.27,0-.52-.14-.67-.38-.22-.38-.11-.84,.27-1.08l2.68-1.63c.38-.22,.85-.11,1.08,.27,.22,.38,.11,.85-.27,1.08l-2.68,1.63c-.12,.08-.27,.11-.41,.11Zm5.36-3.24c-.27,0-.52-.14-.67-.38-.22-.38-.11-.85,.27-1.08l2.68-1.63c.38-.22,.85-.11,1.08,.27,.23,.38,.11,.85-.27,1.08l-2.68,1.63c-.13,.08-.27,.11-.41,.11Zm5.36-3.24c-.27,0-.52-.14-.67-.38-.22-.38-.11-.85,.27-1.08l2.68-1.63c.38-.22,.85-.11,1.08,.27,.22,.38,.11,.85-.27,1.08l-2.68,1.63c-.12,.08-.27,.11-.41,.11Zm5.36-3.24c-.27,0-.52-.14-.67-.38-.22-.38-.11-.85,.27-1.08l2.68-1.63c.38-.22,.85-.11,1.08,.27,.22,.38,.11,.85-.27,1.08l-2.68,1.63c-.12,.08-.27,.11-.41,.11Zm5.36-3.24c-.27,0-.52-.14-.67-.38-.22-.38-.11-.85,.27-1.08l2.68-1.63c.38-.22,.85-.11,1.08,.27,.22,.38,.11,.85-.27,1.08l-2.68,1.63c-.12,.08-.27,.11-.41,.11Zm5.36-3.24c-.27,0-.52-.14-.67-.38-.22-.38-.11-.85,.27-1.08l2.68-1.63c.38-.22,.85-.11,1.08,.27,.22,.38,.11,.85-.27,1.08l-2.68,1.63c-.13,.08-.27,.11-.41,.11Zm5.36-3.24c-.27,0-.52-.14-.67-.38-.22-.38-.11-.85,.27-1.08l2.68-1.63c.38-.22,.85-.11,1.08,.27,.22,.38,.11,.85-.27,1.08l-2.68,1.63c-.12,.08-.27,.11-.41,.11Zm5.36-3.24c-.27,0-.52-.14-.67-.38-.22-.38-.11-.85,.27-1.08l2.68-1.63c.38-.22,.85-.11,1.08,.27,.24,.38,.11,.85-.27,1.08l-2.68,1.63c-.12,.08-.27,.11-.41,.11Zm5.36-3.24c-.27,0-.52-.14-.67-.38-.22-.38-.11-.85,.27-1.08l2.68-1.63c.38-.22,.85-.11,1.08,.27,.22,.38,.11,.85-.27,1.08l-2.68,1.63c-.13,.08-.27,.11-.41,.11Zm5.36-3.24c-.27,0-.52-.14-.67-.38-.22-.38-.11-.85,.27-1.08l2.68-1.63c.38-.22,.85-.11,1.08,.27,.22,.38,.11,.85-.27,1.08l-2.68,1.63c-.12,.08-.27,.11-.41,.11Zm5.36-3.24c-.27,0-.52-.14-.67-.38-.22-.38-.11-.85,.27-1.08l2.68-1.63c.38-.22,.85-.11,1.08,.27,.22,.38,.11,.85-.27,1.08l-2.68,1.63c-.12,.08-.27,.11-.41,.11Zm5.36-3.24c-.27,0-.52-.14-.67-.38-.22-.38-.11-.85,.27-1.08l2.68-1.63c.38-.22,.85-.11,1.08,.27,.22,.38,.11,.85-.27,1.08l-2.68,1.63c-.12,.08-.27,.11-.41,.11Zm5.36-3.24c-.27,0-.52-.14-.67-.38-.22-.38-.11-.85,.27-1.08l2.68-1.63c.38-.22,.85-.11,1.08,.27,.22,.38,.11,.85-.27,1.08l-2.68,1.63c-.13,.08-.27,.11-.41,.11Zm5.36-3.24c-.27,0-.52-.14-.67-.38-.22-.38-.11-.85,.27-1.08l.48-.3v-1.68c0-.44,.35-.78,.78-.78s.78,.35,.78,.78v2.12c0,.27-.14,.53-.38,.67l-.88,.53c-.13,.08-.27,.11-.41,.11h.02Zm.88-5.78c-.44,0-.78-.35-.78-.78v-3.13c0-.44,.35-.78,.78-.78s.78,.35,.78,.78v3.13c0,.44-.34,.78-.78,.78Zm0-6.27c-.44,0-.78-.35-.78-.78v-3.13c0-.44,.35-.78,.78-.78s.78,.35,.78,.78v3.13c0,.44-.34,.78-.78,.78Zm0-6.27c-.44,0-.78-.34-.78-.78v-3.13c0-.44,.35-.78,.78-.78s.78,.34,.78,.78v3.13c0,.44-.34,.78-.78,.78Zm0-6.27c-.44,0-.78-.34-.78-.78v-3.13c0-.44,.35-.78,.78-.78s.78,.34,.78,.78v3.13c0,.44-.34,.78-.78,.78Zm0-6.27c-.44,0-.78-.34-.78-.78v-3.13c0-.44,.35-.78,.78-.78s.78,.34,.78,.78v3.13c0,.44-.34,.78-.78,.78Zm0-6.27c-.44,0-.78-.34-.78-.78v-3.13c0-.44,.35-.78,.78-.78s.78,.34,.78,.78v3.13c0,.44-.34,.78-.78,.78Zm0-6.27c-.44,0-.78-.35-.78-.78v-3.13c0-.44,.35-.78,.78-.78s.78,.35,.78,.78v3.13c0,.44-.34,.78-.78,.78Z"/><path class="cls-33" d="M395.49,204.82c-.44,0-.78-.35-.78-.78v-.78c0-.44,.34-.78,.78-.78s.78,.35,.78,.78v.78c0,.44-.35,.78-.78,.78Zm0-3.92c-.44,0-.78-.34-.78-.78v-3.13c0-.44,.34-.78,.78-.78s.78,.34,.78,.78v3.13c0,.44-.35,.78-.78,.78Zm0-6.27c-.44,0-.78-.34-.78-.78v-3.13c0-.44,.34-.78,.78-.78s.78,.34,.78,.78v3.13c0,.44-.35,.78-.78,.78Zm0-6.27c-.44,0-.78-.34-.78-.78v-3.13c0-.44,.34-.78,.78-.78s.78,.34,.78,.78v3.13c0,.44-.35,.78-.78,.78Zm0-6.27c-.44,0-.78-.34-.78-.78v-3.13c0-.44,.34-.78,.78-.78s.78,.35,.78,.78v3.13c0,.44-.35,.78-.78,.78Zm0-6.27c-.44,0-.78-.35-.78-.78v-3.13c0-.44,.34-.78,.78-.78s.78,.35,.78,.78v3.13c0,.44-.35,.78-.78,.78Zm0-6.27c-.44,0-.78-.35-.78-.78v-3.13c0-.44,.34-.78,.78-.78s.78,.35,.78,.78v3.13c0,.44-.35,.78-.78,.78Zm0-6.27c-.44,0-.78-.35-.78-.78v-3.13c0-.44,.34-.78,.78-.78s.78,.35,.78,.78v3.13c0,.44-.35,.78-.78,.78Zm0-6.27c-.44,0-.78-.35-.78-.78v-3.13c0-.44,.34-.78,.78-.78s.78,.35,.78,.78v3.13c0,.44-.35,.78-.78,.78Zm0-6.27c-.44,0-.78-.34-.78-.78v-3.13c0-.44,.34-.78,.78-.78s.78,.35,.78,.78v3.13c0,.44-.35,.78-.78,.78Zm0-6.27c-.44,0-.78-.34-.78-.78v-3.13c0-.44,.34-.78,.78-.78s.78,.34,.78,.78v3.13c0,.44-.35,.78-.78,.78Zm0-6.27c-.44,0-.78-.34-.78-.78v-3.13c0-.44,.34-.78,.78-.78s.78,.34,.78,.78v3.13c0,.44-.35,.78-.78,.78Zm0-6.27c-.44,0-.78-.35-.78-.78v-3.13c0-.44,.34-.78,.78-.78s.78,.34,.78,.78v3.13c0,.44-.35,.78-.78,.78Zm0-6.27c-.44,0-.78-.34-.78-.78v-3.13c0-.44,.34-.78,.78-.78s.78,.35,.78,.78v3.13c0,.44-.35,.78-.78,.78Zm0-6.27c-.44,0-.78-.35-.78-.78v-3.13c0-.44,.34-.78,.78-.78s.78,.35,.78,.78v3.13c0,.44-.35,.78-.78,.78Zm0-6.27c-.44,0-.78-.35-.78-.78v-3.13c0-.44,.34-.78,.78-.78s.78,.35,.78,.78v3.13c0,.44-.35,.78-.78,.78Zm0-6.27c-.44,0-.78-.35-.78-.78v-3.13c0-.44,.34-.78,.78-.78s.78,.34,.78,.78v3.13c0,.44-.35,.78-.78,.78Zm0-6.27c-.44,0-.78-.35-.78-.78v-3.13c0-.44,.34-.78,.78-.78s.78,.34,.78,.78v3.13c0,.44-.35,.78-.78,.78Zm0-6.27c-.44,0-.78-.34-.78-.78v-3.13c0-.44,.34-.78,.78-.78s.78,.34,.78,.78v3.13c0,.44-.35,.78-.78,.78Z"/><path class="cls-31" d="M249.31,223.1c-.44,0-.78-.34-.78-.78v-3.13c0-.44,.35-.78,.78-.78s.78,.34,.78,.78v3.13c0,.44-.35,.78-.78,.78Zm0-6.27c-.44,0-.78-.35-.78-.78v-3.13c0-.44,.35-.78,.78-.78s.78,.34,.78,.78v3.13c0,.44-.35,.78-.78,.78Zm0-6.27c-.44,0-.78-.35-.78-.78v-3.13c0-.44,.35-.78,.78-.78s.78,.35,.78,.78v3.13c0,.44-.35,.78-.78,.78Zm0-6.27c-.44,0-.78-.35-.78-.78v-3.13c0-.44,.35-.78,.78-.78s.78,.35,.78,.78v3.13c0,.44-.35,.78-.78,.78Zm0-6.27c-.44,0-.78-.35-.78-.78v-3.13c0-.44,.35-.78,.78-.78s.78,.35,.78,.78v3.13c0,.44-.35,.78-.78,.78Zm0-6.27c-.44,0-.78-.35-.78-.78v-3.13c0-.44,.35-.78,.78-.78s.78,.35,.78,.78v3.13c0,.44-.35,.78-.78,.78Zm0-6.27c-.44,0-.78-.34-.78-.78v-3.13c0-.44,.35-.78,.78-.78s.78,.35,.78,.78v3.13c0,.44-.35,.78-.78,.78Zm0-6.27c-.44,0-.78-.34-.78-.78v-3.13c0-.44,.35-.78,.78-.78s.78,.34,.78,.78v3.13c0,.44-.35,.78-.78,.78Zm0-6.27c-.44,0-.78-.34-.78-.78v-3.13c0-.44,.35-.78,.78-.78s.78,.34,.78,.78v3.13c0,.44-.35,.78-.78,.78Zm0-6.27c-.44,0-.78-.35-.78-.78v-3.13c0-.44,.35-.78,.78-.78s.78,.34,.78,.78v3.13c0,.44-.35,.78-.78,.78Zm0-6.27c-.44,0-.78-.35-.78-.78v-3.13c0-.44,.35-.78,.78-.78s.78,.35,.78,.78v3.13c0,.44-.35,.78-.78,.78Zm0-6.27c-.44,0-.78-.35-.78-.78v-3.13c0-.44,.35-.78,.78-.78s.78,.35,.78,.78v3.13c0,.44-.35,.78-.78,.78Zm0-6.27c-.44,0-.78-.35-.78-.78v-3.13c0-.44,.35-.78,.78-.78s.78,.35,.78,.78v3.13c0,.44-.35,.78-.78,.78Zm0-6.27c-.44,0-.78-.35-.78-.78v-3.13c0-.44,.35-.78,.78-.78s.78,.35,.78,.78v3.13c0,.44-.35,.78-.78,.78Zm0-6.27c-.44,0-.78-.35-.78-.78v-3.13c0-.44,.35-.78,.78-.78s.78,.35,.78,.78v3.13c0,.44-.35,.78-.78,.78Zm0-6.27c-.44,0-.78-.34-.78-.78v-3.13c0-.44,.35-.78,.78-.78s.78,.34,.78,.78v3.13c0,.44-.35,.78-.78,.78Zm0-6.27c-.44,0-.78-.34-.78-.78v-3.13c0-.44,.35-.78,.78-.78s.78,.34,.78,.78v3.13c0,.44-.35,.78-.78,.78Zm0-6.27c-.44,0-.78-.34-.78-.78v-3.13c0-.44,.35-.78,.78-.78s.78,.34,.78,.78v3.13c0,.44-.35,.78-.78,.78Zm0-6.27c-.44,0-.78-.35-.78-.78v-3.13c0-.44,.35-.78,.78-.78s.78,.35,.78,.78v3.13c0,.44-.35,.78-.78,.78Zm0-6.27c-.44,0-.78-.35-.78-.78v-3.13c0-.44,.35-.78,.78-.78s.78,.34,.78,.78v3.13c0,.44-.35,.78-.78,.78Zm0-6.27c-.44,0-.78-.34-.78-.78v-3.13c0-.44,.35-.78,.78-.78s.78,.34,.78,.78v3.13c0,.44-.35,.78-.78,.78Zm0-6.27c-.44,0-.78-.34-.78-.78v-3.13c0-.44,.35-.78,.78-.78s.78,.34,.78,.78v3.13c0,.44-.35,.78-.78,.78Z"/><path class="cls-30" d="M239.91,322.83c-.44,0-.78-.34-.78-.78v-3.13c0-.44,.34-.78,.78-.78s.78,.34,.78,.78v3.13c0,.44-.35,.78-.78,.78Zm0-6.27c-.44,0-.78-.34-.78-.78v-3.13c0-.44,.34-.78,.78-.78s.78,.34,.78,.78v3.13c0,.44-.35,.78-.78,.78Zm0-6.27c-.44,0-.78-.35-.78-.78v-3.13c0-.44,.34-.78,.78-.78s.78,.34,.78,.78v3.13c0,.44-.35,.78-.78,.78Zm0-6.27c-.44,0-.78-.35-.78-.78v-3.13c0-.44,.34-.78,.78-.78s.78,.35,.78,.78v3.13c0,.44-.35,.78-.78,.78Zm0-6.27c-.44,0-.78-.35-.78-.78v-3.13c0-.44,.34-.78,.78-.78s.78,.35,.78,.78v3.13c0,.44-.35,.78-.78,.78Zm0-6.27c-.44,0-.78-.35-.78-.78v-3.13c0-.44,.34-.78,.78-.78s.78,.35,.78,.78v3.13c0,.44-.35,.78-.78,.78Zm0-6.27c-.44,0-.78-.35-.78-.78v-3.13c0-.44,.34-.78,.78-.78s.78,.35,.78,.78v3.13c0,.44-.35,.78-.78,.78Zm0-6.27c-.44,0-.78-.35-.78-.78v-3.13c0-.44,.34-.78,.78-.78s.78,.35,.78,.78v3.13c0,.44-.35,.78-.78,.78Zm0-6.27c-.44,0-.78-.34-.78-.78v-3.13c0-.44,.34-.78,.78-.78s.78,.34,.78,.78v3.13c0,.44-.35,.78-.78,.78Zm0-6.27c-.44,0-.78-.34-.78-.78v-3.13c0-.44,.34-.78,.78-.78s.78,.34,.78,.78v3.13c0,.44-.35,.78-.78,.78Zm0-6.27c-.44,0-.78-.34-.78-.78v-3.13c0-.44,.34-.78,.78-.78s.78,.34,.78,.78v3.13c0,.44-.35,.78-.78,.78Zm0-6.27c-.44,0-.78-.35-.78-.78v-3.13c0-.44,.34-.78,.78-.78s.78,.35,.78,.78v3.13c0,.44-.35,.78-.78,.78Zm-2.16-5c-.12,0-.27-.03-.39-.09l-2.73-1.54c-.38-.22-.52-.69-.3-1.07,.2-.38,.69-.52,1.07-.3l2.73,1.54c.38,.22,.52,.69,.3,1.07-.14,.25-.41,.39-.69,.39h.01Zm-5.45-3.07c-.13,0-.27-.03-.39-.09l-2.73-1.54c-.38-.22-.52-.69-.3-1.06,.2-.38,.69-.52,1.07-.3l2.73,1.54c.38,.22,.52,.69,.3,1.07-.14,.25-.41,.39-.69,.39h.02Zm-5.45-3.07c-.12,0-.27-.03-.39-.09l-2.72-1.54c-.38-.22-.52-.69-.3-1.07,.22-.38,.69-.52,1.06-.3l2.73,1.54c.38,.22,.52,.69,.3,1.07-.14,.25-.41,.39-.69,.39h.02Zm-5.45-3.07c-.12,0-.27-.03-.39-.09l-2.73-1.54c-.38-.22-.52-.69-.3-1.07,.22-.38,.69-.52,1.07-.3l2.72,1.54c.38,.22,.52,.69,.3,1.06-.14,.25-.41,.39-.69,.39h.01Zm-5.45-3.07c-.13,0-.27-.03-.39-.09l-2.72-1.54c-.38-.22-.52-.69-.3-1.07,.22-.38,.69-.52,1.07-.3l2.73,1.54c.38,.22,.52,.69,.3,1.07-.14,.25-.41,.39-.69,.39h.02Zm-5.45-3.07c-.12,0-.27-.03-.39-.09l-2.73-1.54c-.38-.22-.52-.69-.3-1.07,.22-.38,.69-.52,1.07-.3l2.72,1.54c.38,.22,.52,.69,.3,1.07-.14,.25-.41,.39-.69,.39h.02Zm-5.45-3.07c-.12,0-.27-.03-.39-.09l-2.73-1.54c-.38-.22-.52-.69-.3-1.07,.22-.38,.69-.52,1.07-.3l2.73,1.54c.38,.22,.52,.69,.3,1.07-.14,.25-.41,.39-.69,.39h.01Zm-5.45-3.07c-.13,0-.27-.03-.39-.09l-2.73-1.54c-.38-.22-.52-.69-.3-1.07,.2-.38,.69-.52,1.07-.3l2.73,1.53c.38,.22,.52,.69,.3,1.07-.14,.25-.41,.39-.69,.39h.02Zm-5.47-3.07c-.12,0-.27-.03-.39-.09l-2.73-1.54c-.38-.22-.52-.69-.3-1.07,.22-.38,.69-.52,1.06-.3l2.73,1.54c.38,.22,.52,.69,.3,1.07-.14,.25-.41,.39-.69,.39h.02Zm-5.45-3.07c-.13,0-.27-.03-.39-.09l-2.72-1.53c-.38-.22-.52-.69-.3-1.07,.2-.38,.69-.52,1.07-.3l2.72,1.54c.38,.22,.52,.69,.3,1.07-.14,.25-.41,.39-.69,.39h.02Zm-5.45-3.07c-.12,0-.27-.03-.39-.09l-2.72-1.54c-.38-.22-.52-.69-.3-1.07,.22-.38,.69-.52,1.07-.3l2.73,1.53c.38,.22,.52,.69,.3,1.07-.14,.25-.41,.39-.69,.39h.02Zm-5.45-3.07c-.12,0-.27-.03-.39-.09l-2.73-1.54c-.38-.22-.52-.69-.3-1.07,.22-.38,.69-.52,1.07-.3l2.72,1.54c.38,.22,.52,.69,.3,1.07-.14,.25-.41,.39-.69,.39h.02Zm-5.45-3.07c-.12,0-.27-.03-.39-.09l-2.73-1.53c-.38-.22-.52-.69-.3-1.07,.2-.38,.69-.52,1.07-.3l2.73,1.54c.38,.22,.52,.69,.3,1.07-.14,.25-.41,.39-.69,.39h.01Zm-5.45-3.07c-.13,0-.27-.03-.39-.09l-2.73-1.54c-.38-.22-.52-.69-.3-1.06,.22-.38,.69-.52,1.07-.3l2.73,1.54c.38,.22,.52,.69,.3,1.07-.14,.25-.41,.39-.69,.39h.02Zm-5.45-3.07c-.12,0-.27-.03-.39-.09l-2.73-1.54c-.38-.22-.52-.69-.3-1.07,.22-.38,.69-.52,1.07-.3l2.73,1.54c.38,.22,.52,.69,.3,1.07-.14,.25-.41,.39-.69,.39h.02Zm-5.45-3.07c-.12,0-.27-.03-.39-.09l-2.73-1.54c-.38-.22-.52-.69-.3-1.07,.22-.38,.69-.52,1.06-.3l2.73,1.54c.38,.22,.52,.69,.3,1.06-.14,.25-.41,.39-.69,.39h.01Zm-5.45-3.07c-.13,0-.27-.03-.39-.09l-.58-.33c-.25-.14-.39-.39-.39-.69v-2.48c0-.44,.35-.78,.78-.78s.78,.34,.78,.78v2.01l.19,.11c.38,.22,.52,.69,.3,1.06-.14,.25-.41,.39-.69,.39h0Zm-.58-5.91c-.44,0-.78-.35-.78-.78v-3.13c0-.44,.35-.78,.78-.78s.78,.35,.78,.78v3.13c0,.44-.34,.78-.78,.78Zm0-6.27c-.44,0-.78-.35-.78-.78v-3.13c0-.44,.35-.78,.78-.78s.78,.35,.78,.78v3.13c0,.44-.34,.78-.78,.78Zm0-6.27c-.44,0-.78-.35-.78-.78v-3.13c0-.44,.35-.78,.78-.78s.78,.34,.78,.78v3.13c0,.44-.34,.78-.78,.78Zm0-6.27c-.44,0-.78-.35-.78-.78v-3.13c0-.44,.35-.78,.78-.78s.78,.35,.78,.78v3.13c0,.44-.34,.78-.78,.78Zm0-6.27c-.44,0-.78-.35-.78-.78v-3.13c0-.44,.35-.78,.78-.78s.78,.35,.78,.78v3.13c0,.44-.34,.78-.78,.78Zm0-6.27c-.44,0-.78-.34-.78-.78v-1.97c0-.44,.35-.78,.78-.78s.78,.35,.78,.78v1.97c0,.44-.34,.78-.78,.78Z"/><path class="cls-45" d="M530.64,226.71c-.14,0-.27-.03-.39-.11l-2.69-1.58c-.38-.22-.5-.71-.28-1.07,.22-.38,.7-.49,1.07-.28l2.69,1.58c.38,.22,.5,.7,.28,1.07-.14,.25-.41,.39-.67,.39Zm.97-1.42c-.44,0-.78-.35-.78-.78v-3.13c0-.44,.35-.78,.78-.78s.78,.35,.78,.78v3.13c0,.44-.34,.78-.78,.78Zm-6.38-1.74c-.14,0-.27-.03-.39-.11l-2.69-1.58c-.38-.22-.5-.71-.28-1.07,.22-.38,.71-.5,1.07-.28l2.69,1.58c.38,.22,.5,.71,.28,1.06-.14,.25-.41,.39-.67,.39Zm-5.4-3.17c-.14,0-.27-.03-.39-.11l-2.69-1.58c-.38-.22-.5-.71-.28-1.07,.22-.38,.71-.49,1.07-.28l2.69,1.58c.38,.22,.5,.71,.28,1.07-.14,.25-.41,.39-.67,.39Zm11.78-1.35c-.44,0-.78-.34-.78-.78v-3.13c0-.44,.35-.78,.78-.78s.78,.34,.78,.78v3.13c0,.44-.34,.78-.78,.78Zm-17.18-1.82c-.14,0-.27-.03-.39-.11l-2.69-1.58c-.38-.22-.5-.71-.28-1.07,.22-.38,.7-.49,1.06-.28l2.69,1.58c.38,.22,.5,.71,.28,1.07-.14,.25-.41,.39-.67,.39Zm-5.4-3.16c-.14,0-.27-.03-.39-.11l-2.71-1.58c-.38-.22-.5-.7-.28-1.07,.22-.38,.71-.49,1.07-.28l2.71,1.58c.38,.22,.5,.71,.28,1.07-.14,.25-.41,.39-.67,.39Zm22.59-1.27c-.44,0-.78-.35-.78-.78v-1.91c0-.44,.35-.78,.78-.78s.78,.35,.78,.78v1.91c0,.44-.34,.78-.78,.78Zm-27.99-1.9c-.14,0-.27-.03-.39-.11l-2.71-1.58c-.38-.22-.5-.71-.28-1.07,.22-.38,.7-.5,1.07-.28l2.71,1.58c.38,.22,.5,.71,.28,1.07-.14,.25-.41,.39-.67,.39Zm-5.4-3.16c-.14,0-.27-.03-.39-.11l-2.71-1.58c-.38-.22-.5-.71-.28-1.07,.22-.38,.71-.5,1.07-.28l2.71,1.58c.38,.22,.5,.71,.28,1.07-.14,.25-.41,.39-.67,.39Zm-5.4-3.16c-.14,0-.27-.03-.39-.11l-2.71-1.58c-.38-.22-.5-.71-.28-1.07,.22-.38,.71-.49,1.07-.28l2.71,1.58c.38,.22,.5,.7,.28,1.07-.14,.25-.41,.39-.67,.39Zm-5.4-3.16c-.14,0-.27-.03-.39-.11l-2.69-1.58c-.38-.22-.5-.71-.28-1.07,.22-.38,.71-.5,1.07-.28l2.69,1.58c.38,.22,.5,.71,.28,1.07-.14,.25-.41,.39-.67,.39Zm-5.4-3.16c-.14,0-.27-.03-.39-.11l-2.69-1.58c-.38-.22-.5-.71-.28-1.07,.22-.38,.7-.5,1.07-.28l2.69,1.58c.38,.22,.5,.71,.28,1.07-.14,.25-.41,.39-.67,.39Zm-5.4-3.17c-.14,0-.27-.03-.39-.11l-2.7-1.58c-.38-.22-.5-.7-.28-1.06,.22-.38,.7-.5,1.07-.28l2.69,1.58c.38,.22,.5,.71,.28,1.07-.14,.25-.41,.39-.67,.39Zm-5.4-3.16c-.14,0-.27-.03-.39-.11l-2.69-1.58c-.38-.22-.5-.7-.28-1.06,.22-.38,.7-.49,1.07-.28l2.69,1.58c.38,.22,.5,.71,.28,1.07-.14,.25-.41,.39-.67,.39Zm-5.4-3.16c-.14,0-.27-.03-.39-.11l-2.69-1.58c-.38-.22-.5-.71-.28-1.07,.22-.38,.7-.49,1.07-.28l2.69,1.58c.38,.22,.5,.7,.28,1.06-.14,.25-.41,.39-.67,.39Z"/><path class="cls-44" d="M392.23,113.31c-.08,0-.17,0-.25-.05l-1.02-.35c-.41-.14-.63-.58-.49-.99,.14-.41,.58-.63,.99-.49l1.02,.35c.41,.14,.63,.58,.49,.99-.11,.33-.41,.53-.74,.53Zm-3.98-1.35c-.08,0-.17,0-.25-.05l-2.98-1c-.41-.14-.63-.58-.49-.99,.14-.41,.6-.63,.99-.48l2.98,1c.41,.14,.63,.58,.49,.99-.11,.33-.41,.53-.74,.53Zm-5.94-2c-.08,0-.17,0-.25-.05l-2.96-1c-.41-.14-.63-.58-.49-.99,.14-.41,.58-.63,.99-.49l2.96,1c.41,.14,.63,.58,.49,.99-.11,.33-.41,.53-.74,.53Zm-5.94-2.01c-.08,0-.17,0-.25-.05l-2.96-1c-.41-.14-.63-.58-.49-.99,.14-.41,.58-.63,.99-.49l2.96,1c.41,.14,.63,.58,.48,.99-.11,.33-.41,.53-.74,.53Zm-5.94-2.01c-.08,0-.17,0-.25-.05l-2.96-1c-.41-.14-.63-.58-.49-.99,.14-.41,.58-.63,.99-.49l2.96,1c.41,.14,.63,.58,.49,.99-.11,.33-.41,.53-.74,.53Zm-5.94-2c-.08,0-.17,0-.25-.05l-2.96-1c-.41-.14-.63-.58-.48-.99,.14-.41,.6-.63,.99-.49l2.96,1c.41,.14,.63,.58,.49,.99-.11,.33-.41,.53-.74,.53Zm-5.94-2.01c-.08,0-.17,0-.25-.05l-2.96-1c-.41-.14-.63-.58-.48-.99,.14-.41,.58-.63,.99-.49l2.96,1c.41,.14,.63,.58,.49,.99-.11,.33-.41,.53-.74,.53Zm-5.94-2c-.08,0-.17,0-.25-.05l-2.96-1c-.41-.14-.63-.58-.49-.99,.14-.41,.58-.63,.99-.49l2.96,1c.41,.14,.63,.58,.49,.99-.11,.33-.41,.53-.74,.53Zm-5.94-2.01c-.08,0-.17,0-.25-.05l-2.96-1c-.41-.14-.63-.58-.49-.99,.14-.41,.58-.63,.99-.49l2.96,1c.41,.14,.63,.58,.49,.99-.11,.33-.41,.53-.74,.53Zm-5.94-2.01c-.08,0-.17,0-.25-.05l-2.96-1c-.41-.14-.63-.58-.49-.99,.14-.41,.58-.63,.99-.49l2.96,1c.41,.14,.63,.58,.49,.99-.11,.33-.41,.53-.74,.53Z"/></g><g><path class="cls-35" d="M248.3,83.78c-.09,0-.19-.02-.28-.05-11.56-4.54-19.56-11.28-21.07-29.45l-.41-4.89c-.03-.3,.13-.6,.39-.75l.28-.16c7.38-4.18,14.47-10.81,20.53-19.17,.06-.09,.14-.17,.25-.22,.17-.09,.45-.17,.64-.14,5.84,1.32,13.03-.28,20.22-4.51l.28-.17c.25-.14,.56-.14,.81,0,.25,.16,.39,.44,.36,.72l-.41,5.36c-1.47,19.61-9.33,35.33-20.69,52.9-.06,.11-.16,.19-.27,.25l-.28,.17c-.12,.06-.25,.11-.39,.11h.01Zm-20.14-34.02l.36,4.39c1.41,17.12,8.85,23.62,19.63,27.95,11.12-17.25,18.79-32.69,20.24-51.85l.3-3.89c-7.02,3.9-14,5.39-19.89,4.21-6.09,8.32-13.22,14.94-20.63,19.17v.02Z"/><path class="cls-34" d="M248.37,70.32c-.09,0-.19-.02-.28-.05-7.17-2.82-10.37-7.28-11.03-15.41l-.2-2.51c-.03-.3,.12-.6,.39-.75l.14-.08c3.73-2.11,7.33-5.48,10.4-9.71,.06-.09,.16-.17,.25-.22,.17-.09,.42-.16,.6-.11,2.9,.66,6.49-.16,10.07-2.27l.14-.08c.25-.14,.56-.14,.82,0,.25,.16,.39,.44,.38,.72l-.2,2.74c-.75,10.12-4.81,18.22-10.65,27.27-.06,.11-.16,.19-.27,.25l-.14,.08c-.12,.08-.25,.11-.39,.11v.02Zm-9.93-17.61l.16,2.01c.69,8.41,4.29,11.7,9.52,13.86,5.58-8.68,9.41-16.48,10.13-26.11l.09-1.3c-3.37,1.74-6.72,2.41-9.59,1.91-3.07,4.14-6.62,7.44-10.32,9.62v.02Z"/></g><g><path class="cls-32" d="M132.04,163.31c-.14,0-.27-.03-.39-.11-.24-.14-.39-.39-.39-.67v-18.69c0-.28,.16-.53,.39-.67l8.15-4.7c.23-.14,.55-.14,.78,0,.24,.14,.39,.39,.39,.67v18.69c0,.28-.16,.53-.39,.67l-8.15,4.7c-.12,.06-.25,.11-.39,.11Zm.78-19.02v16.87l6.58-3.79v-16.87l-6.58,3.79Z"/><path class="cls-36" d="M144.93,155.87c-.14,0-.27-.03-.39-.11-.24-.14-.39-.39-.39-.67v-34.24c0-.28,.16-.53,.39-.67l8.14-4.7c.24-.14,.55-.14,.78,0s.39,.39,.39,.67v34.24c0,.28-.16,.53-.39,.67l-8.14,4.7c-.13,.06-.25,.11-.39,.11Zm.78-34.57v32.44l6.58-3.79v-32.44l-6.58,3.79Z"/><path class="cls-28" d="M157.82,148.43c-.14,0-.27-.03-.39-.11-.24-.14-.39-.39-.39-.67v-49.82c0-.28,.16-.53,.39-.67l8.15-4.7c.24-.14,.55-.14,.78,0,.24,.14,.39,.39,.39,.67v49.82c0,.28-.16,.53-.39,.67l-8.15,4.7c-.12,.06-.25,.11-.39,.11Zm.78-50.14v48.01l6.58-3.79v-48.01l-6.58,3.79Z"/></g><path class="cls-24" d="M401.57,560.5c40.99-29.01,50.71-85.75,21.71-126.74-29-40.99-85.74-50.71-126.72-21.71-40.98,29-50.7,85.74-21.7,126.74,29,41,85.73,50.71,126.72,21.71Z"/><path class="cls-23" d="M155.44,430.33c40.99-29.01,50.71-85.75,21.71-126.74-29-40.99-85.74-50.71-126.72-21.71C9.44,310.88-.28,367.63,28.72,408.62c29,41,85.73,50.71,126.72,21.71Z"/></svg>