<svg width="1280" height="644" viewBox="0 0 1280 644" fill="none" xmlns="http://www.w3.org/2000/svg">
<mask id="mask0_34_408" style="mask-type:alpha" maskUnits="userSpaceOnUse" x="0" y="0" width="1280" height="644">
<rect width="1280" height="644" fill="white"/>
</mask>
<g mask="url(#mask0_34_408)">
<g opacity="0.15" clip-path="url(#clip0_34_408)">
<path d="M1152.74 39.2062C1200.81 -8.05837 1200.81 -84.6893 1152.74 -131.954C1104.68 -179.218 1026.75 -179.218 978.682 -131.954C930.616 -84.6893 930.617 -8.05842 978.682 39.2061C1026.75 86.4707 1104.68 86.4707 1152.74 39.2062Z" fill="#FFC248"/>
<path d="M875.399 120.01L884.857 125.376V114.645L875.399 120.01Z" fill="#FFC248"/>
<path d="M875.399 109.266L884.857 114.645V103.901L875.399 109.266Z" fill="#FFC248"/>
<path d="M875.399 98.5352L884.857 103.901V93.1697L875.399 98.5352Z" fill="#FFC248"/>
<path d="M875.399 87.8041L884.857 93.1697V82.4386L875.399 87.8041Z" fill="#FFC248"/>
<path d="M884.857 114.645L894.316 120.01V109.266L884.857 114.645Z" fill="#FFC248"/>
<path d="M884.857 103.901L894.316 109.266V98.5353L884.857 103.901Z" fill="#FFC248"/>
<path d="M884.857 93.1697L894.316 98.5353V87.8042L884.857 93.1697Z" fill="#FFC248"/>
<path d="M894.316 120.01L903.762 125.376V114.645L894.316 120.01Z" fill="#FFC248"/>
<path d="M894.316 109.266L903.762 114.645V103.901L894.316 109.266Z" fill="#FFC248"/>
<path d="M894.316 98.5352L903.762 103.901V93.1697L894.316 98.5352Z" fill="#FFC248"/>
<path d="M894.316 87.8041L903.762 93.1697V82.4386L894.316 87.8041Z" fill="#FFC248"/>
<path d="M903.762 114.645L913.221 120.01V109.266L903.762 114.645Z" fill="#FFC248"/>
<path d="M903.762 103.901L913.221 109.266V98.5353L903.762 103.901Z" fill="#FFC248"/>
<path d="M903.762 93.1697L913.221 98.5353V87.8042L903.762 93.1697Z" fill="#FFC248"/>
<path d="M952.934 609.591L1139.41 736.212V482.969L952.934 609.591Z" fill="#FFC248"/>
<path d="M1139.41 424.112L1281.75 520.781V327.444L1139.41 424.112Z" fill="#FFC248"/>
<rect x="1079.32" y="427.137" width="323.68" height="318.288"/>
<path d="M1328.29 671.908C1376.36 624.644 1376.36 548.013 1328.29 500.748C1280.23 453.484 1202.3 453.484 1154.23 500.748C1106.17 548.013 1106.17 624.644 1154.23 671.908C1202.3 719.173 1280.23 719.173 1328.29 671.908Z" fill="#F2F2F2"/>
<path d="M727.123 19.7352C727.123 20.0708 726.987 20.3927 726.746 20.63C726.504 20.8673 726.177 21.0006 725.836 21.0006C725.494 21.0006 725.167 20.8673 724.926 20.63C724.684 20.3927 724.549 20.0708 724.549 19.7352C724.549 19.3996 724.684 19.0777 724.926 18.8404C725.167 18.6031 725.494 18.4697 725.836 18.4697C726.177 18.4697 726.504 18.6031 726.746 18.8404C726.987 19.0777 727.123 19.3996 727.123 19.7352Z" fill="black"/>
<path d="M746.426 19.7352C746.426 20.0708 746.29 20.3927 746.049 20.63C745.808 20.8673 745.48 21.0006 745.139 21.0006C744.798 21.0006 744.47 20.8673 744.229 20.63C743.988 20.3927 743.852 20.0708 743.852 19.7352C743.852 19.3996 743.988 19.0777 744.229 18.8404C744.47 18.6031 744.798 18.4697 745.139 18.4697C745.48 18.4697 745.808 18.6031 746.049 18.8404C746.29 19.0777 746.426 19.3996 746.426 19.7352Z" fill="black"/>
<path d="M716.274 35.3509C716.978 35.3509 717.548 34.79 717.548 34.0981C717.548 33.4062 716.978 32.8453 716.274 32.8453C715.57 32.8453 715 33.4062 715 34.0981C715 34.79 715.57 35.3509 716.274 35.3509Z" fill="black"/>
<path d="M735.526 35.3509C736.23 35.3509 736.8 34.79 736.8 34.0981C736.8 33.4062 736.23 32.8453 735.526 32.8453C734.822 32.8453 734.252 33.4062 734.252 34.0981C734.252 34.79 734.822 35.3509 735.526 35.3509Z" fill="black"/>
<path d="M727.123 48.5876C727.123 48.8379 727.047 49.0825 726.906 49.2907C726.764 49.4988 726.563 49.661 726.328 49.7567C726.093 49.8525 725.834 49.8776 725.585 49.8287C725.335 49.7799 725.106 49.6594 724.926 49.4824C724.746 49.3054 724.623 49.08 724.574 48.8345C724.524 48.589 724.549 48.3346 724.647 48.1033C724.744 47.8721 724.909 47.6745 725.121 47.5354C725.332 47.3964 725.581 47.3221 725.836 47.3221C726.177 47.3221 726.504 47.4555 726.746 47.6928C726.987 47.9301 727.123 48.252 727.123 48.5876Z" fill="black"/>
<path d="M746.426 48.5876C746.426 48.8379 746.35 49.0825 746.209 49.2907C746.068 49.4988 745.867 49.661 745.632 49.7567C745.396 49.8525 745.138 49.8776 744.888 49.8287C744.638 49.7799 744.409 49.6594 744.229 49.4824C744.049 49.3054 743.927 49.08 743.877 48.8345C743.827 48.589 743.853 48.3346 743.95 48.1033C744.048 47.8721 744.212 47.6745 744.424 47.5354C744.636 47.3964 744.885 47.3221 745.139 47.3221C745.48 47.3221 745.808 47.4555 746.049 47.6928C746.29 47.9301 746.426 48.252 746.426 48.5876Z" fill="black"/>
<path d="M716.274 64.254C716.978 64.254 717.548 63.6931 717.548 63.0012C717.548 62.3093 716.978 61.7484 716.274 61.7484C715.57 61.7484 715 62.3093 715 63.0012C715 63.6931 715.57 64.254 716.274 64.254Z" fill="black"/>
<path d="M735.526 64.254C736.23 64.254 736.8 63.6931 736.8 63.0012C736.8 62.3093 736.23 61.7484 735.526 61.7484C734.822 61.7484 734.252 62.3093 734.252 63.0012C734.252 63.6931 734.822 64.254 735.526 64.254Z" fill="black"/>
<path d="M727.123 77.4907C727.123 77.741 727.047 77.9856 726.906 78.1937C726.764 78.4018 726.563 78.564 726.328 78.6598C726.093 78.7556 725.834 78.7806 725.585 78.7318C725.335 78.683 725.106 78.5625 724.926 78.3855C724.746 78.2085 724.623 77.983 724.574 77.7376C724.524 77.4921 724.549 77.2376 724.647 77.0064C724.744 76.7752 724.909 76.5775 725.121 76.4385C725.332 76.2994 725.581 76.2252 725.836 76.2252C726.177 76.2252 726.504 76.3585 726.746 76.5959C726.987 76.8332 727.123 77.1551 727.123 77.4907Z" fill="black"/>
<path d="M746.426 77.4907C746.426 77.741 746.35 77.9856 746.209 78.1937C746.068 78.4018 745.867 78.564 745.632 78.6598C745.396 78.7556 745.138 78.7806 744.888 78.7318C744.638 78.683 744.409 78.5625 744.229 78.3855C744.049 78.2085 743.927 77.983 743.877 77.7376C743.827 77.4921 743.853 77.2376 743.95 77.0064C744.048 76.7752 744.212 76.5775 744.424 76.4385C744.636 76.2994 744.885 76.2252 745.139 76.2252C745.48 76.2252 745.808 76.3585 746.049 76.5959C746.29 76.8332 746.426 77.1551 746.426 77.4907Z" fill="black"/>
<path d="M716.274 93.1697C716.978 93.1697 717.548 92.6088 717.548 91.9169C717.548 91.225 716.978 90.6641 716.274 90.6641C715.57 90.6641 715 91.225 715 91.9169C715 92.6088 715.57 93.1697 716.274 93.1697Z" fill="black"/>
<path d="M735.526 93.1697C736.23 93.1697 736.8 92.6088 736.8 91.9169C736.8 91.225 736.23 90.6641 735.526 90.6641C734.822 90.6641 734.252 91.225 734.252 91.9169C734.252 92.6088 734.822 93.1697 735.526 93.1697Z" fill="black"/>
<path d="M1204.05 148.103C1204.05 148.354 1203.97 148.598 1203.83 148.806C1203.69 149.014 1203.49 149.177 1203.25 149.272C1203.02 149.368 1202.76 149.393 1202.51 149.344C1202.26 149.296 1202.03 149.175 1201.85 148.998C1201.67 148.821 1201.55 148.596 1201.5 148.35C1201.45 148.105 1201.47 147.85 1201.57 147.619C1201.67 147.388 1201.83 147.19 1202.04 147.051C1202.26 146.912 1202.5 146.838 1202.76 146.838C1203.1 146.838 1203.43 146.971 1203.67 147.208C1203.91 147.446 1204.05 147.768 1204.05 148.103Z" fill="black"/>
<path d="M1223.3 148.103C1223.3 148.439 1223.16 148.761 1222.92 148.998C1222.68 149.235 1222.35 149.369 1222.01 149.369C1221.67 149.369 1221.34 149.235 1221.1 148.998C1220.86 148.761 1220.72 148.439 1220.72 148.103C1220.72 147.768 1220.86 147.446 1221.1 147.208C1221.34 146.971 1221.67 146.838 1222.01 146.838C1222.35 146.838 1222.68 146.971 1222.92 147.208C1223.16 147.446 1223.3 147.768 1223.3 148.103Z" fill="black"/>
<path d="M1242.55 148.103C1242.55 148.354 1242.47 148.598 1242.33 148.806C1242.19 149.014 1241.99 149.177 1241.76 149.272C1241.52 149.368 1241.26 149.393 1241.01 149.344C1240.76 149.296 1240.53 149.175 1240.35 148.998C1240.17 148.821 1240.05 148.596 1240 148.35C1239.95 148.105 1239.98 147.85 1240.07 147.619C1240.17 147.388 1240.34 147.19 1240.55 147.051C1240.76 146.912 1241.01 146.838 1241.26 146.838C1241.6 146.838 1241.93 146.971 1242.17 147.208C1242.41 147.446 1242.55 147.768 1242.55 148.103Z" fill="black"/>
<path d="M1261.79 148.103C1261.79 148.354 1261.71 148.598 1261.57 148.806C1261.43 149.014 1261.23 149.177 1260.99 149.272C1260.76 149.368 1260.5 149.393 1260.25 149.344C1260 149.296 1259.77 149.175 1259.59 148.998C1259.41 148.821 1259.29 148.596 1259.24 148.35C1259.19 148.105 1259.22 147.85 1259.31 147.619C1259.41 147.388 1259.58 147.19 1259.79 147.051C1260 146.912 1260.25 146.838 1260.5 146.838C1260.84 146.838 1261.17 146.971 1261.41 147.208C1261.65 147.446 1261.79 147.768 1261.79 148.103Z" fill="black"/>
<path d="M1281.04 148.103C1281.04 148.354 1280.97 148.598 1280.82 148.806C1280.68 149.014 1280.48 149.177 1280.25 149.272C1280.01 149.368 1279.75 149.393 1279.5 149.344C1279.25 149.296 1279.02 149.175 1278.84 148.998C1278.66 148.821 1278.54 148.596 1278.49 148.35C1278.44 148.105 1278.47 147.85 1278.57 147.619C1278.66 147.388 1278.83 147.19 1279.04 147.051C1279.25 146.912 1279.5 146.838 1279.75 146.838C1280.1 146.838 1280.42 146.971 1280.66 147.208C1280.91 147.446 1281.04 147.768 1281.04 148.103Z" fill="black"/>
<path d="M1212.4 163.77C1213.1 163.77 1213.67 163.209 1213.67 162.517C1213.67 161.825 1213.1 161.264 1212.4 161.264C1211.69 161.264 1211.12 161.825 1211.12 162.517C1211.12 163.209 1211.69 163.77 1212.4 163.77Z" fill="black"/>
<path d="M1231.64 163.77C1232.34 163.77 1232.91 163.209 1232.91 162.517C1232.91 161.825 1232.34 161.264 1231.64 161.264C1230.93 161.264 1230.36 161.825 1230.36 162.517C1230.36 163.209 1230.93 163.77 1231.64 163.77Z" fill="black"/>
<path d="M1252.18 162.517C1252.18 162.767 1252.1 163.012 1251.96 163.22C1251.82 163.428 1251.62 163.59 1251.38 163.686C1251.15 163.782 1250.89 163.807 1250.64 163.758C1250.39 163.709 1250.16 163.589 1249.98 163.412C1249.8 163.235 1249.68 163.009 1249.63 162.764C1249.58 162.518 1249.6 162.264 1249.7 162.033C1249.8 161.801 1249.96 161.604 1250.17 161.465C1250.39 161.326 1250.63 161.251 1250.89 161.251C1251.23 161.251 1251.56 161.385 1251.8 161.622C1252.04 161.859 1252.18 162.181 1252.18 162.517Z" fill="black"/>
<path d="M1270.14 163.77C1270.84 163.77 1271.41 163.209 1271.41 162.517C1271.41 161.825 1270.84 161.264 1270.14 161.264C1269.44 161.264 1268.87 161.825 1268.87 162.517C1268.87 163.209 1269.44 163.77 1270.14 163.77Z" fill="black"/>
<path d="M1204.05 177.006C1204.05 177.257 1203.97 177.501 1203.83 177.709C1203.69 177.917 1203.49 178.08 1203.25 178.175C1203.02 178.271 1202.76 178.296 1202.51 178.247C1202.26 178.199 1202.03 178.078 1201.85 177.901C1201.67 177.724 1201.55 177.499 1201.5 177.253C1201.45 177.008 1201.47 176.753 1201.57 176.522C1201.67 176.291 1201.83 176.093 1202.04 175.954C1202.26 175.815 1202.5 175.741 1202.76 175.741C1203.1 175.741 1203.43 175.874 1203.67 176.111C1203.91 176.349 1204.05 176.671 1204.05 177.006Z" fill="black"/>
<path d="M1223.3 177.006C1223.3 177.257 1223.22 177.501 1223.08 177.709C1222.94 177.917 1222.74 178.08 1222.5 178.175C1222.27 178.271 1222.01 178.296 1221.76 178.247C1221.51 178.199 1221.28 178.078 1221.1 177.901C1220.92 177.724 1220.8 177.499 1220.75 177.253C1220.7 177.008 1220.72 176.753 1220.82 176.522C1220.92 176.291 1221.08 176.093 1221.3 175.954C1221.51 175.815 1221.76 175.741 1222.01 175.741C1222.35 175.741 1222.68 175.874 1222.92 176.111C1223.16 176.349 1223.3 176.671 1223.3 177.006Z" fill="black"/>
<path d="M1242.55 177.006C1242.55 177.257 1242.47 177.501 1242.33 177.709C1242.19 177.917 1241.99 178.08 1241.76 178.175C1241.52 178.271 1241.26 178.296 1241.01 178.247C1240.76 178.199 1240.53 178.078 1240.35 177.901C1240.17 177.724 1240.05 177.499 1240 177.253C1239.95 177.008 1239.98 176.753 1240.07 176.522C1240.17 176.291 1240.34 176.093 1240.55 175.954C1240.76 175.815 1241.01 175.741 1241.26 175.741C1241.6 175.741 1241.93 175.874 1242.17 176.111C1242.41 176.349 1242.55 176.671 1242.55 177.006Z" fill="black"/>
<path d="M1261.79 177.006C1261.79 177.257 1261.71 177.501 1261.57 177.709C1261.43 177.917 1261.23 178.08 1260.99 178.175C1260.76 178.271 1260.5 178.296 1260.25 178.247C1260 178.199 1259.77 178.078 1259.59 177.901C1259.41 177.724 1259.29 177.499 1259.24 177.253C1259.19 177.008 1259.22 176.753 1259.31 176.522C1259.41 176.291 1259.58 176.093 1259.79 175.954C1260 175.815 1260.25 175.741 1260.5 175.741C1260.84 175.741 1261.17 175.874 1261.41 176.111C1261.65 176.349 1261.79 176.671 1261.79 177.006Z" fill="black"/>
<path d="M1281.04 177.006C1281.04 177.257 1280.97 177.501 1280.82 177.709C1280.68 177.917 1280.48 178.08 1280.25 178.175C1280.01 178.271 1279.75 178.296 1279.5 178.247C1279.25 178.199 1279.02 178.078 1278.84 177.901C1278.66 177.724 1278.54 177.499 1278.49 177.253C1278.44 177.008 1278.47 176.753 1278.57 176.522C1278.66 176.291 1278.83 176.093 1279.04 175.954C1279.25 175.815 1279.5 175.741 1279.75 175.741C1280.1 175.741 1280.42 175.874 1280.66 176.111C1280.91 176.349 1281.04 176.671 1281.04 177.006Z" fill="black"/>
<path d="M1212.4 192.673C1213.1 192.673 1213.67 192.112 1213.67 191.42C1213.67 190.728 1213.1 190.167 1212.4 190.167C1211.69 190.167 1211.12 190.728 1211.12 191.42C1211.12 192.112 1211.69 192.673 1212.4 192.673Z" fill="black"/>
<path d="M1231.64 192.673C1232.34 192.673 1232.91 192.112 1232.91 191.42C1232.91 190.728 1232.34 190.167 1231.64 190.167C1230.93 190.167 1230.36 190.728 1230.36 191.42C1230.36 192.112 1230.93 192.673 1231.64 192.673Z" fill="black"/>
<path d="M1252.18 191.42C1252.18 191.67 1252.1 191.915 1251.96 192.123C1251.82 192.331 1251.62 192.493 1251.38 192.589C1251.15 192.685 1250.89 192.71 1250.64 192.661C1250.39 192.612 1250.16 192.492 1249.98 192.315C1249.8 192.138 1249.68 191.912 1249.63 191.667C1249.58 191.421 1249.6 191.167 1249.7 190.936C1249.8 190.704 1249.96 190.507 1250.17 190.368C1250.39 190.229 1250.63 190.154 1250.89 190.154C1251.23 190.154 1251.56 190.288 1251.8 190.525C1252.04 190.762 1252.18 191.084 1252.18 191.42Z" fill="black"/>
<path d="M1270.14 192.673C1270.84 192.673 1271.41 192.112 1271.41 191.42C1271.41 190.728 1270.84 190.167 1270.14 190.167C1269.44 190.167 1268.87 190.728 1268.87 191.42C1268.87 192.112 1269.44 192.673 1270.14 192.673Z" fill="black"/>
<path d="M1204.05 205.909C1204.05 206.16 1203.97 206.404 1203.83 206.612C1203.69 206.821 1203.49 206.983 1203.25 207.079C1203.02 207.174 1202.76 207.199 1202.51 207.151C1202.26 207.102 1202.03 206.981 1201.85 206.804C1201.67 206.627 1201.55 206.402 1201.5 206.156C1201.45 205.911 1201.47 205.656 1201.57 205.425C1201.67 205.194 1201.83 204.996 1202.04 204.857C1202.26 204.718 1202.5 204.644 1202.76 204.644C1203.1 204.644 1203.43 204.777 1203.67 205.015C1203.91 205.252 1204.05 205.574 1204.05 205.909Z" fill="black"/>
<path d="M1223.3 205.909C1223.3 206.16 1223.22 206.404 1223.08 206.612C1222.94 206.821 1222.74 206.983 1222.5 207.079C1222.27 207.174 1222.01 207.199 1221.76 207.151C1221.51 207.102 1221.28 206.981 1221.1 206.804C1220.92 206.627 1220.8 206.402 1220.75 206.156C1220.7 205.911 1220.72 205.656 1220.82 205.425C1220.92 205.194 1221.08 204.996 1221.3 204.857C1221.51 204.718 1221.76 204.644 1222.01 204.644C1222.35 204.644 1222.68 204.777 1222.92 205.015C1223.16 205.252 1223.3 205.574 1223.3 205.909Z" fill="black"/>
<path d="M1242.55 205.909C1242.55 206.245 1242.41 206.567 1242.17 206.804C1241.93 207.042 1241.6 207.175 1241.26 207.175C1240.92 207.175 1240.59 207.042 1240.35 206.804C1240.11 206.567 1239.98 206.245 1239.98 205.909C1239.98 205.574 1240.11 205.252 1240.35 205.015C1240.59 204.777 1240.92 204.644 1241.26 204.644C1241.6 204.644 1241.93 204.777 1242.17 205.015C1242.41 205.252 1242.55 205.574 1242.55 205.909Z" fill="black"/>
<path d="M1261.79 205.909C1261.79 206.16 1261.71 206.404 1261.57 206.612C1261.43 206.821 1261.23 206.983 1260.99 207.079C1260.76 207.174 1260.5 207.199 1260.25 207.151C1260 207.102 1259.77 206.981 1259.59 206.804C1259.41 206.627 1259.29 206.402 1259.24 206.156C1259.19 205.911 1259.22 205.656 1259.31 205.425C1259.41 205.194 1259.58 204.996 1259.79 204.857C1260 204.718 1260.25 204.644 1260.5 204.644C1260.84 204.644 1261.17 204.777 1261.41 205.015C1261.65 205.252 1261.79 205.574 1261.79 205.909Z" fill="black"/>
<path d="M1281.04 205.909C1281.04 206.245 1280.91 206.567 1280.66 206.804C1280.42 207.042 1280.1 207.175 1279.75 207.175C1279.41 207.175 1279.09 207.042 1278.84 206.804C1278.6 206.567 1278.47 206.245 1278.47 205.909C1278.47 205.574 1278.6 205.252 1278.84 205.015C1279.09 204.777 1279.41 204.644 1279.75 204.644C1280.1 204.644 1280.42 204.777 1280.66 205.015C1280.91 205.252 1281.04 205.574 1281.04 205.909Z" fill="black"/>
<path d="M1212.4 221.588C1213.1 221.588 1213.67 221.028 1213.67 220.336C1213.67 219.644 1213.1 219.083 1212.4 219.083C1211.69 219.083 1211.12 219.644 1211.12 220.336C1211.12 221.028 1211.69 221.588 1212.4 221.588Z" fill="black"/>
<path d="M1231.64 221.588C1232.34 221.588 1232.91 221.028 1232.91 220.336C1232.91 219.644 1232.34 219.083 1231.64 219.083C1230.93 219.083 1230.36 219.644 1230.36 220.336C1230.36 221.028 1230.93 221.588 1231.64 221.588Z" fill="black"/>
<path d="M1252.18 220.336C1252.18 220.586 1252.1 220.831 1251.96 221.039C1251.82 221.247 1251.62 221.409 1251.38 221.505C1251.15 221.601 1250.89 221.626 1250.64 221.577C1250.39 221.528 1250.16 221.407 1249.98 221.23C1249.8 221.053 1249.68 220.828 1249.63 220.583C1249.58 220.337 1249.6 220.083 1249.7 219.851C1249.8 219.62 1249.96 219.423 1250.17 219.283C1250.39 219.144 1250.63 219.07 1250.89 219.07C1251.23 219.07 1251.56 219.204 1251.8 219.441C1252.04 219.678 1252.18 220 1252.18 220.336Z" fill="black"/>
<path d="M1270.14 221.588C1270.84 221.588 1271.41 221.028 1271.41 220.336C1271.41 219.644 1270.84 219.083 1270.14 219.083C1269.44 219.083 1268.87 219.644 1268.87 220.336C1268.87 221.028 1269.44 221.588 1270.14 221.588Z" fill="black"/>
<path d="M1000.25 503.33C1000.25 503.58 1000.18 503.825 1000.04 504.033C999.895 504.241 999.694 504.403 999.459 504.499C999.224 504.595 998.965 504.62 998.715 504.571C998.466 504.522 998.236 504.402 998.056 504.225C997.876 504.048 997.754 503.822 997.704 503.577C997.655 503.331 997.68 503.077 997.777 502.846C997.875 502.614 998.04 502.417 998.251 502.278C998.463 502.139 998.712 502.065 998.966 502.065C999.308 502.065 999.635 502.198 999.876 502.435C1000.12 502.672 1000.25 502.994 1000.25 503.33Z" fill="black"/>
<path d="M1018.23 504.596C1018.93 504.596 1019.51 504.035 1019.51 503.343C1019.51 502.651 1018.93 502.09 1018.23 502.09C1017.53 502.09 1016.96 502.651 1016.96 503.343C1016.96 504.035 1017.53 504.596 1018.23 504.596Z" fill="black"/>
<path d="M1037.47 504.596C1038.17 504.596 1038.74 504.035 1038.74 503.343C1038.74 502.651 1038.17 502.09 1037.47 502.09C1036.77 502.09 1036.2 502.651 1036.2 503.343C1036.2 504.035 1036.77 504.596 1037.47 504.596Z" fill="black"/>
<path d="M1056.72 504.596C1057.43 504.596 1058 504.035 1058 503.343C1058 502.651 1057.43 502.09 1056.72 502.09C1056.02 502.09 1055.45 502.651 1055.45 503.343C1055.45 504.035 1056.02 504.596 1056.72 504.596Z" fill="black"/>
<path d="M1077.25 503.33C1077.25 503.58 1077.17 503.825 1077.03 504.033C1076.89 504.241 1076.69 504.403 1076.45 504.499C1076.22 504.595 1075.96 504.62 1075.71 504.571C1075.46 504.522 1075.23 504.402 1075.05 504.225C1074.87 504.048 1074.75 503.822 1074.7 503.577C1074.65 503.331 1074.67 503.077 1074.77 502.846C1074.87 502.614 1075.03 502.417 1075.25 502.278C1075.46 502.139 1075.71 502.065 1075.96 502.065C1076.3 502.065 1076.63 502.198 1076.87 502.435C1077.11 502.672 1077.25 502.994 1077.25 503.33Z" fill="black"/>
<path d="M1009.88 517.756C1009.88 518.007 1009.8 518.251 1009.66 518.459C1009.52 518.667 1009.32 518.83 1009.08 518.925C1008.85 519.021 1008.59 519.046 1008.34 518.997C1008.09 518.949 1007.86 518.828 1007.68 518.651C1007.5 518.474 1007.38 518.249 1007.33 518.003C1007.28 517.758 1007.31 517.503 1007.4 517.272C1007.5 517.041 1007.67 516.843 1007.88 516.704C1008.09 516.565 1008.34 516.491 1008.59 516.491C1008.93 516.491 1009.26 516.624 1009.5 516.861C1009.74 517.099 1009.88 517.421 1009.88 517.756Z" fill="black"/>
<path d="M1027.86 519.009C1028.56 519.009 1029.13 518.448 1029.13 517.756C1029.13 517.064 1028.56 516.503 1027.86 516.503C1027.15 516.503 1026.58 517.064 1026.58 517.756C1026.58 518.448 1027.15 519.009 1027.86 519.009Z" fill="black"/>
<path d="M1047.1 519.009C1047.8 519.009 1048.37 518.448 1048.37 517.756C1048.37 517.064 1047.8 516.503 1047.1 516.503C1046.39 516.503 1045.82 517.064 1045.82 517.756C1045.82 518.448 1046.39 519.009 1047.1 519.009Z" fill="black"/>
<path d="M1067.62 517.756C1067.62 518.092 1067.49 518.414 1067.25 518.651C1067 518.888 1066.68 519.022 1066.34 519.022C1065.99 519.022 1065.67 518.888 1065.43 518.651C1065.18 518.414 1065.05 518.092 1065.05 517.756C1065.05 517.421 1065.18 517.099 1065.43 516.861C1065.67 516.624 1065.99 516.491 1066.34 516.491C1066.68 516.491 1067 516.624 1067.25 516.861C1067.49 517.099 1067.62 517.421 1067.62 517.756Z" fill="black"/>
<path d="M1000.25 532.246C1000.25 532.496 1000.18 532.741 1000.04 532.949C999.895 533.157 999.694 533.319 999.459 533.415C999.224 533.511 998.965 533.536 998.715 533.487C998.466 533.438 998.236 533.318 998.056 533.141C997.876 532.964 997.754 532.738 997.704 532.493C997.655 532.247 997.68 531.993 997.777 531.761C997.875 531.53 998.04 531.333 998.251 531.194C998.463 531.054 998.712 530.98 998.966 530.98C999.308 530.98 999.635 531.114 999.876 531.351C1000.12 531.588 1000.25 531.91 1000.25 532.246Z" fill="black"/>
<path d="M1018.23 533.499C1018.93 533.499 1019.51 532.938 1019.51 532.246C1019.51 531.554 1018.93 530.993 1018.23 530.993C1017.53 530.993 1016.96 531.554 1016.96 532.246C1016.96 532.938 1017.53 533.499 1018.23 533.499Z" fill="black"/>
<path d="M1037.47 533.499C1038.17 533.499 1038.74 532.938 1038.74 532.246C1038.74 531.554 1038.17 530.993 1037.47 530.993C1036.77 530.993 1036.2 531.554 1036.2 532.246C1036.2 532.938 1036.77 533.499 1037.47 533.499Z" fill="black"/>
<path d="M1056.72 533.499C1057.43 533.499 1058 532.938 1058 532.246C1058 531.554 1057.43 530.993 1056.72 530.993C1056.02 530.993 1055.45 531.554 1055.45 532.246C1055.45 532.938 1056.02 533.499 1056.72 533.499Z" fill="black"/>
<path d="M1077.25 532.246C1077.25 532.581 1077.11 532.903 1076.87 533.141C1076.63 533.378 1076.3 533.511 1075.96 533.511C1075.62 533.511 1075.29 533.378 1075.05 533.141C1074.81 532.903 1074.67 532.581 1074.67 532.246C1074.67 531.91 1074.81 531.588 1075.05 531.351C1075.29 531.114 1075.62 530.98 1075.96 530.98C1076.3 530.98 1076.63 531.114 1076.87 531.351C1077.11 531.588 1077.25 531.91 1077.25 532.246Z" fill="black"/>
<path d="M1009.88 546.659C1009.88 546.91 1009.8 547.154 1009.66 547.362C1009.52 547.57 1009.32 547.733 1009.08 547.828C1008.85 547.924 1008.59 547.949 1008.34 547.9C1008.09 547.852 1007.86 547.731 1007.68 547.554C1007.5 547.377 1007.38 547.152 1007.33 546.906C1007.28 546.661 1007.31 546.406 1007.4 546.175C1007.5 545.944 1007.67 545.746 1007.88 545.607C1008.09 545.468 1008.34 545.394 1008.59 545.394C1008.93 545.394 1009.26 545.527 1009.5 545.764C1009.74 546.002 1009.88 546.324 1009.88 546.659Z" fill="black"/>
<path d="M1027.86 547.912C1028.56 547.912 1029.13 547.351 1029.13 546.659C1029.13 545.967 1028.56 545.407 1027.86 545.407C1027.15 545.407 1026.58 545.967 1026.58 546.659C1026.58 547.351 1027.15 547.912 1027.86 547.912Z" fill="black"/>
<path d="M1047.1 547.912C1047.8 547.912 1048.37 547.351 1048.37 546.659C1048.37 545.967 1047.8 545.407 1047.1 545.407C1046.39 545.407 1045.82 545.967 1045.82 546.659C1045.82 547.351 1046.39 547.912 1047.1 547.912Z" fill="black"/>
<path d="M1067.62 546.659C1067.62 546.91 1067.55 547.154 1067.41 547.362C1067.26 547.57 1067.06 547.733 1066.83 547.828C1066.59 547.924 1066.33 547.949 1066.08 547.9C1065.83 547.852 1065.61 547.731 1065.43 547.554C1065.25 547.377 1065.12 547.152 1065.07 546.906C1065.02 546.661 1065.05 546.406 1065.15 546.175C1065.24 545.944 1065.41 545.746 1065.62 545.607C1065.83 545.468 1066.08 545.394 1066.34 545.394C1066.68 545.394 1067 545.527 1067.25 545.764C1067.49 546.002 1067.62 546.324 1067.62 546.659Z" fill="black"/>
<path d="M1000.25 561.149C1000.25 561.399 1000.18 561.644 1000.04 561.852C999.895 562.06 999.694 562.222 999.459 562.318C999.224 562.414 998.965 562.439 998.715 562.39C998.466 562.341 998.236 562.221 998.056 562.044C997.876 561.867 997.754 561.641 997.704 561.396C997.655 561.15 997.68 560.896 997.777 560.664C997.875 560.433 998.04 560.236 998.251 560.097C998.463 559.958 998.712 559.883 998.966 559.883C999.308 559.883 999.635 560.017 999.876 560.254C1000.12 560.491 1000.25 560.813 1000.25 561.149Z" fill="black"/>
<path d="M1018.23 562.402C1018.93 562.402 1019.51 561.841 1019.51 561.149C1019.51 560.457 1018.93 559.896 1018.23 559.896C1017.53 559.896 1016.96 560.457 1016.96 561.149C1016.96 561.841 1017.53 562.402 1018.23 562.402Z" fill="black"/>
<path d="M1037.47 562.402C1038.17 562.402 1038.74 561.841 1038.74 561.149C1038.74 560.457 1038.17 559.896 1037.47 559.896C1036.77 559.896 1036.2 560.457 1036.2 561.149C1036.2 561.841 1036.77 562.402 1037.47 562.402Z" fill="black"/>
<path d="M1056.72 562.402C1057.43 562.402 1058 561.841 1058 561.149C1058 560.457 1057.43 559.896 1056.72 559.896C1056.02 559.896 1055.45 560.457 1055.45 561.149C1055.45 561.841 1056.02 562.402 1056.72 562.402Z" fill="black"/>
<path d="M1077.25 561.149C1077.25 561.399 1077.17 561.644 1077.03 561.852C1076.89 562.06 1076.69 562.222 1076.45 562.318C1076.22 562.414 1075.96 562.439 1075.71 562.39C1075.46 562.341 1075.23 562.221 1075.05 562.044C1074.87 561.867 1074.75 561.641 1074.7 561.396C1074.65 561.15 1074.67 560.896 1074.77 560.664C1074.87 560.433 1075.03 560.236 1075.25 560.097C1075.46 559.958 1075.71 559.883 1075.96 559.883C1076.3 559.883 1076.63 560.017 1076.87 560.254C1077.11 560.491 1077.25 560.813 1077.25 561.149Z" fill="black"/>
<path d="M1009.88 575.562C1009.88 575.813 1009.8 576.057 1009.66 576.265C1009.52 576.473 1009.32 576.636 1009.08 576.731C1008.85 576.827 1008.59 576.852 1008.34 576.803C1008.09 576.755 1007.86 576.634 1007.68 576.457C1007.5 576.28 1007.38 576.055 1007.33 575.809C1007.28 575.564 1007.31 575.309 1007.4 575.078C1007.5 574.847 1007.67 574.649 1007.88 574.51C1008.09 574.371 1008.34 574.297 1008.59 574.297C1008.93 574.297 1009.26 574.43 1009.5 574.667C1009.74 574.905 1009.88 575.227 1009.88 575.562Z" fill="black"/>
<path d="M1027.86 576.815C1028.56 576.815 1029.13 576.254 1029.13 575.562C1029.13 574.87 1028.56 574.31 1027.86 574.31C1027.15 574.31 1026.58 574.87 1026.58 575.562C1026.58 576.254 1027.15 576.815 1027.86 576.815Z" fill="black"/>
<path d="M1047.1 576.815C1047.8 576.815 1048.37 576.254 1048.37 575.562C1048.37 574.87 1047.8 574.31 1047.1 574.31C1046.39 574.31 1045.82 574.87 1045.82 575.562C1045.82 576.254 1046.39 576.815 1047.1 576.815Z" fill="black"/>
<path d="M1067.62 575.562C1067.62 575.813 1067.55 576.057 1067.41 576.265C1067.26 576.473 1067.06 576.636 1066.83 576.731C1066.59 576.827 1066.33 576.852 1066.08 576.803C1065.83 576.755 1065.61 576.634 1065.43 576.457C1065.25 576.28 1065.12 576.055 1065.07 575.809C1065.02 575.564 1065.05 575.309 1065.15 575.078C1065.24 574.847 1065.41 574.649 1065.62 574.51C1065.83 574.371 1066.08 574.297 1066.34 574.297C1066.68 574.297 1067 574.43 1067.25 574.667C1067.49 574.905 1067.62 575.227 1067.62 575.562Z" fill="black"/>
<path d="M1041.38 703.083H973.267V636.127H1041.38V703.083ZM983.755 692.782H1030.89V646.428H983.755V692.782Z" stroke="black" stroke-width="0.25" stroke-miterlimit="10"/>
<path d="M1263.06 498.774H1194.96V431.806H1263.06V498.774ZM1205.44 488.474H1252.59V442.107H1205.44V488.474Z" stroke="black" stroke-width="0.25" stroke-miterlimit="10"/>
<path d="M1010.74 66.3293H942.639V-0.651367H1010.74V66.3293ZM953.114 56.0159H1000.25V9.6115H953.114V56.0159Z" stroke="black" stroke-width="0.25" stroke-miterlimit="10"/>
<path d="M1012.56 171.818C1022.22 167.718 1026.29 176.994 1035.95 172.881C1045.62 168.768 1041.55 159.505 1051.21 155.405C1060.88 151.305 1064.96 160.581 1074.62 156.481C1084.29 152.381 1080.22 143.092 1089.89 138.992C1099.55 134.892 1103.62 144.168 1113.29 140.055" stroke="black" stroke-width="0.17" stroke-miterlimit="10"/>
<path d="M964.49 429.06C974.155 424.948 978.222 434.223 987.886 430.123C997.551 426.023 993.484 416.747 1003.15 412.647C1012.81 408.547 1016.89 417.81 1026.56 413.71C1036.22 409.61 1032.16 400.334 1041.82 396.234C1051.48 392.134 1055.56 401.397 1065.23 397.297" stroke="black" stroke-width="0.17" stroke-miterlimit="10"/>
<path d="M1195.72 641.948C1205.38 637.836 1209.45 647.111 1219.12 643.011C1228.78 638.911 1224.71 629.635 1234.38 625.535C1244.04 621.435 1248.12 630.698 1257.79 626.598C1267.45 622.498 1263.38 613.222 1273.05 609.122C1282.71 605.022 1286.79 614.285 1296.46 610.185" stroke="black" stroke-width="0.17" stroke-miterlimit="10"/>
<path d="M823.961 49.7898C833.626 45.677 837.693 54.9528 847.357 50.8527C857.022 46.7527 852.955 37.4515 862.62 33.3768C872.284 29.302 876.364 38.5398 886.028 34.4397C895.693 30.3397 891.626 21.0639 901.291 16.9638C910.956 12.8637 915.022 22.1268 924.7 18.0268" stroke="black" stroke-width="0.17" stroke-miterlimit="10"/>
<path d="M862.465 571.412L868.604 574.892V567.919L862.465 571.412Z" fill="#FFC248"/>
<path d="M886.183 571.412L880.044 567.919V574.892L886.183 571.412Z" fill="#FFC248"/>
<path d="M874.331 583.067L877.869 577.03H870.779L874.331 583.067Z" fill="#FFC248"/>
<path d="M874.331 559.757L870.779 565.793H877.869L874.331 559.757Z" fill="#FFC248"/>
<path d="M1161.28 93.7392L1167.42 97.2192V90.2466L1161.28 93.7392Z" fill="#FFC248"/>
<path d="M1185 93.7392L1178.86 90.2466V97.2192L1185 93.7392Z" fill="#FFC248"/>
<path d="M1173.13 105.394L1176.69 99.3578H1169.6L1173.13 105.394Z" fill="#FFC248"/>
<path d="M1173.13 82.0842L1169.6 88.1205H1176.69L1173.13 82.0842Z" fill="#FFC248"/>
<path d="M1217.16 63.5833L1223.3 67.0759V60.1033L1217.16 63.5833Z" fill="black"/>
<path d="M1240.86 63.5833L1234.73 60.1033V67.0759L1240.86 63.5833Z" fill="black"/>
<path d="M1229.01 75.2508L1232.56 69.2146H1225.47L1229.01 75.2508Z" fill="black"/>
<path d="M1229.01 51.9285L1225.47 57.9647H1232.56L1229.01 51.9285Z" fill="black"/>
<g clip-path="url(#clip1_34_408)">
<path fill-rule="evenodd" clip-rule="evenodd" d="M1052.47 193.564C1050.22 195.513 1050.07 198.846 1052.05 201.051C1052.1 201.102 1052.1 201.153 1052.15 201.153C1054.24 203.307 1057.69 203.41 1059.88 201.359C1062.07 199.307 1062.18 195.923 1060.09 193.769C1058.05 191.667 1054.66 191.564 1052.47 193.564ZM1040.36 201.871C1038.16 203.923 1034.72 203.82 1032.63 201.666C1030.54 199.512 1030.65 196.077 1032.84 194.077C1035.03 192.077 1038.48 192.128 1040.57 194.282C1042.65 196.436 1042.55 199.82 1040.36 201.871ZM1042.18 212.076C1044.58 214.589 1048.66 214.743 1051.21 212.384L1051.27 212.333C1053.88 209.922 1053.98 205.871 1051.53 203.307C1049.07 200.743 1044.95 200.641 1042.34 203.051C1039.78 205.461 1039.68 209.41 1042.08 211.974C1042.13 211.974 1042.13 212.025 1042.18 212.076ZM1032 212.64C1029.86 214.64 1029.71 217.973 1031.74 220.076L1031.8 220.127C1033.88 222.23 1037.28 222.332 1039.42 220.332C1041.56 218.332 1041.71 214.999 1039.68 212.897L1039.63 212.845C1037.69 210.743 1034.35 210.589 1032.16 212.486C1032.11 212.538 1032.06 212.589 1032 212.64ZM1059.67 221.871C1057.53 223.871 1054.14 223.819 1052.05 221.717C1052.05 221.717 1052.05 221.717 1052 221.666C1049.96 219.614 1049.96 216.332 1052.05 214.332C1052.1 214.281 1052.15 214.23 1052.21 214.179C1054.35 212.179 1057.74 212.23 1059.78 214.332L1059.83 214.384C1061.92 216.537 1061.81 219.871 1059.67 221.871ZM1020.99 171.155C1020.36 170.488 1020.42 169.514 1021.04 168.898C1021.72 168.232 1022.76 168.232 1023.44 168.847C1024.12 169.514 1024.07 170.59 1023.39 171.257L1023.34 171.308C1022.66 171.872 1021.56 171.821 1020.99 171.155ZM1070.63 169.206C1071.36 168.591 1072.41 168.693 1073.03 169.36C1073.61 170.026 1073.61 171.001 1072.98 171.616C1072.36 172.283 1071.26 172.283 1070.58 171.667C1069.9 171.052 1069.9 169.975 1070.53 169.308C1070.58 169.257 1070.58 169.257 1070.63 169.206ZM1011.12 173.77C1010.45 172.898 1010.55 171.667 1011.38 171.001C1012.22 170.334 1013.53 170.437 1014.2 171.257C1014.88 172.078 1014.78 173.206 1014.05 173.924C1013.21 174.693 1011.91 174.59 1011.12 173.77ZM1080.76 172.385C1081.54 171.616 1082.8 171.616 1083.58 172.334C1084.36 173.052 1084.36 174.334 1083.63 175.103C1083.58 175.154 1083.58 175.154 1083.53 175.206C1082.8 176.026 1081.49 176.077 1080.71 175.359C1079.87 174.642 1079.82 173.36 1080.55 172.59C1080.6 172.539 1080.71 172.488 1080.76 172.385ZM1063.79 174.077C1064.63 173.36 1065.88 173.36 1066.61 174.129C1067.45 174.898 1067.45 176.231 1066.67 177C1065.88 177.821 1064.53 177.821 1063.69 177.052C1063.64 177 1063.64 177 1063.59 176.949C1062.86 176.129 1062.91 174.847 1063.79 174.077ZM1027.25 177.103C1026.52 176.231 1026.58 174.949 1027.46 174.231C1028.3 173.513 1029.5 173.513 1030.28 174.283C1031.12 175.052 1031.12 176.385 1030.33 177.154C1029.55 177.975 1028.19 177.975 1027.36 177.154C1027.31 177.206 1027.25 177.154 1027.25 177.103ZM1016.97 182.077C1015.82 180.795 1015.93 178.847 1017.18 177.667C1018.43 176.488 1020.47 176.539 1021.67 177.77C1022.87 179 1022.82 181 1021.56 182.18C1020.26 183.359 1018.22 183.308 1016.97 182.077ZM1072.3 178.18C1073.61 177.052 1075.59 177.154 1076.79 178.385C1078.05 179.564 1078.1 181.564 1076.85 182.795C1075.64 184.026 1073.61 184.077 1072.36 182.846C1072.3 182.795 1072.25 182.744 1072.2 182.641C1071 181.411 1071.05 179.411 1072.3 178.18ZM1055.03 179.821C1056.28 178.59 1058.26 178.641 1059.51 179.872C1059.57 179.923 1059.57 179.923 1059.62 179.975C1060.87 181.154 1060.92 183.154 1059.67 184.385C1058.47 185.616 1056.43 185.667 1055.18 184.436C1055.13 184.385 1055.08 184.334 1055.03 184.231C1053.77 183.052 1053.77 181.103 1054.97 179.872C1054.97 179.821 1054.97 179.821 1055.03 179.821ZM1033.94 184.744C1032.74 183.462 1032.79 181.462 1034.04 180.231C1035.29 179.052 1037.33 179.103 1038.53 180.334C1039.73 181.564 1039.68 183.564 1038.43 184.744C1037.17 185.974 1035.19 185.974 1033.94 184.744ZM1007.84 183.718C1007.21 183.052 1007.26 182.077 1007.89 181.462C1008.57 180.795 1009.61 180.744 1010.29 181.411C1010.97 182.077 1010.97 183.103 1010.29 183.769L1010.24 183.821C1009.56 184.436 1008.51 184.385 1007.84 183.718C1007.89 183.718 1007.89 183.718 1007.84 183.718ZM1083.37 182.077C1084.05 181.513 1085.04 181.513 1085.67 182.128C1086.35 182.795 1086.35 183.821 1085.67 184.487C1084.99 185.154 1083.94 185.154 1083.27 184.487C1082.59 183.821 1082.59 182.795 1083.27 182.128C1083.32 182.128 1083.37 182.077 1083.37 182.077ZM1024.7 191.359C1023.13 189.667 1023.29 187.051 1024.96 185.462C1026.63 183.923 1029.24 183.975 1030.8 185.616C1030.8 185.616 1030.8 185.616 1030.86 185.667C1032.47 187.308 1032.47 189.923 1030.8 191.564C1029.03 193.102 1026.31 193.051 1024.7 191.359ZM1062.8 185.769C1064.53 184.231 1067.19 184.334 1068.81 186.026C1070.37 187.667 1070.32 190.231 1068.7 191.769C1068.7 191.769 1068.65 191.769 1068.65 191.82C1066.98 193.41 1064.32 193.41 1062.65 191.769C1061.08 190.026 1061.13 187.41 1062.8 185.769ZM1049.7 193.564C1051.32 191.923 1051.32 189.308 1049.65 187.667C1048.03 186.077 1045.42 186.026 1043.75 187.615C1042.08 189.205 1041.97 191.82 1043.59 193.513C1045.26 195.102 1047.93 195.154 1049.7 193.564ZM1012.79 190.436C1012.06 189.667 1012.06 188.436 1012.85 187.667C1013.63 186.846 1014.99 186.846 1015.77 187.615C1016.61 188.436 1016.61 189.769 1015.77 190.538L1015.72 190.59C1014.88 191.359 1013.58 191.256 1012.79 190.436ZM1077.32 188.282C1078.2 187.513 1079.51 187.615 1080.24 188.436C1080.97 189.308 1080.81 190.59 1079.93 191.308C1079.14 191.923 1077.99 191.923 1077.21 191.256C1076.38 190.436 1076.38 189.154 1077.21 188.333C1077.26 188.333 1077.26 188.282 1077.32 188.282ZM1018.64 199.051C1017.39 197.82 1017.44 195.872 1018.64 194.641C1018.69 194.59 1018.69 194.59 1018.75 194.538C1020.05 193.359 1022.09 193.41 1023.34 194.641C1024.49 195.923 1024.38 197.871 1023.13 199.051C1021.93 200.282 1019.95 200.282 1018.69 199.102C1018.64 199.102 1018.64 199.051 1018.64 199.051ZM1069.54 194.897C1070.84 193.718 1072.88 193.769 1074.13 195C1075.44 196.128 1075.59 198.077 1074.44 199.359C1073.3 200.641 1071.31 200.794 1070.01 199.666C1069.85 199.564 1069.75 199.41 1069.59 199.256C1068.34 198.025 1068.34 196.128 1069.54 194.897ZM1066.82 210.794C1068.44 209.204 1068.49 206.64 1066.93 204.999C1065.31 203.358 1062.65 203.256 1060.92 204.846C1059.25 206.487 1059.25 209.153 1060.87 210.845C1062.49 212.435 1065.15 212.384 1066.82 210.794ZM1031.33 210.948C1029.6 212.486 1026.94 212.384 1025.32 210.692C1023.76 209.051 1023.81 206.487 1025.43 204.948C1025.43 204.948 1025.43 204.948 1025.48 204.897C1027.15 203.307 1029.81 203.307 1031.48 204.948C1033.05 206.64 1033 209.307 1031.33 210.948ZM1018.59 215.05C1017.34 216.23 1017.28 218.178 1018.48 219.46C1018.54 219.512 1018.54 219.512 1018.59 219.563C1019.74 220.845 1021.72 220.999 1023.08 219.871C1024.44 218.743 1024.54 216.794 1023.39 215.461C1023.29 215.358 1023.18 215.255 1023.08 215.153C1021.88 213.922 1019.89 213.871 1018.64 215.05C1018.59 215.05 1018.59 215.05 1018.59 215.05ZM1069.38 220.025C1070.63 221.255 1072.67 221.255 1073.97 220.025C1075.17 218.794 1075.17 216.845 1073.92 215.614C1072.67 214.435 1070.69 214.435 1069.43 215.666C1068.23 216.896 1068.18 218.845 1069.38 220.025ZM1048.19 228.383C1046.52 229.922 1043.91 229.87 1042.34 228.281C1042.34 228.281 1042.34 228.281 1042.29 228.229C1040.67 226.588 1040.67 223.973 1042.34 222.332C1044.06 220.742 1046.78 220.845 1048.45 222.486C1050.01 224.23 1049.86 226.845 1048.19 228.383ZM1024.44 222.845C1022.82 224.537 1022.92 227.152 1024.59 228.742C1026.21 230.332 1028.82 230.332 1030.44 228.742C1030.44 228.742 1030.44 228.742 1030.49 228.691C1032.16 227.101 1032.21 224.435 1030.59 222.794C1028.87 221.255 1026.16 221.255 1024.44 222.845ZM1062.49 229.05C1064.21 230.64 1066.87 230.537 1068.49 228.896C1070.11 227.306 1070.11 224.742 1068.49 223.153C1068.49 223.153 1068.49 223.153 1068.44 223.101C1066.82 221.46 1064.11 221.409 1062.44 222.999C1060.82 224.691 1060.82 227.358 1062.49 229.05ZM1012.53 223.563C1011.75 224.332 1011.75 225.563 1012.53 226.332C1013.32 227.152 1014.62 227.204 1015.46 226.435C1016.29 225.614 1016.34 224.332 1015.51 223.512L1015.46 223.46C1014.62 222.691 1013.32 222.742 1012.53 223.563ZM1077 226.845C1077.84 227.614 1079.14 227.511 1079.93 226.691C1080.71 225.922 1080.71 224.691 1079.93 223.922C1079.14 223.101 1077.84 223.05 1077 223.819C1076.17 224.588 1076.11 225.87 1076.9 226.742C1076.95 226.742 1077 226.794 1077 226.845ZM1033.57 229.665C1032.32 230.896 1032.32 232.896 1033.57 234.178C1034.77 235.409 1036.75 235.511 1038.01 234.332C1038.06 234.28 1038.11 234.229 1038.16 234.178C1039.36 232.947 1039.31 230.998 1038.06 229.819L1038.01 229.768C1036.81 228.537 1034.82 228.537 1033.57 229.665ZM1054.5 234.845C1055.7 236.075 1057.74 236.127 1058.99 234.947C1059.04 234.896 1059.04 234.896 1059.1 234.845C1060.35 233.614 1060.35 231.563 1059.04 230.332C1057.74 229.204 1055.81 229.255 1054.56 230.434C1053.35 231.614 1053.3 233.562 1054.5 234.845ZM1007.47 230.178C1006.84 230.793 1006.84 231.819 1007.47 232.434C1008.1 233.101 1009.19 233.152 1009.87 232.537C1010.55 231.922 1010.6 230.845 1009.98 230.178C1009.35 229.511 1008.25 229.46 1007.57 230.075C1007.52 230.127 1007.47 230.178 1007.47 230.178ZM1082.95 233.152C1083.58 233.768 1084.62 233.768 1085.25 233.152C1085.93 232.537 1085.98 231.46 1085.35 230.793C1084.68 230.127 1083.63 230.127 1082.95 230.793C1082.27 231.46 1082.27 232.486 1082.95 233.152ZM1016.55 232.024C1015.4 233.306 1015.46 235.255 1016.66 236.434C1017.91 237.665 1019.89 237.614 1021.15 236.383C1022.4 235.152 1022.35 233.204 1021.15 231.973C1019.84 230.793 1017.81 230.793 1016.55 232.024ZM1071.78 236.793C1073.09 237.921 1075.02 237.87 1076.27 236.691C1077.52 235.511 1077.58 233.562 1076.38 232.332L1076.32 232.28C1075.12 231.05 1073.09 230.998 1071.83 232.178C1071.78 232.229 1071.78 232.229 1071.73 232.28C1070.48 233.511 1070.48 235.562 1071.78 236.793ZM1026.73 237.152C1025.95 237.973 1026 239.255 1026.84 240.024C1027.62 240.793 1028.87 240.793 1029.66 240.024C1030.49 239.255 1030.54 237.973 1029.76 237.152C1028.98 236.332 1027.67 236.28 1026.78 237.05C1026.78 237.101 1026.73 237.152 1026.73 237.152ZM1063.17 240.742C1063.95 241.511 1065.2 241.511 1065.99 240.742C1066.82 239.973 1066.87 238.691 1066.09 237.87C1065.26 237.05 1063.95 236.998 1063.06 237.819L1063.01 237.87C1062.28 238.691 1062.33 239.973 1063.17 240.742ZM1080.08 242.793C1080.86 243.562 1082.17 243.562 1082.9 242.793C1083.68 242.024 1083.68 240.742 1082.9 239.973C1082.17 239.152 1080.86 239.101 1080.03 239.819C1079.19 240.537 1079.14 241.819 1079.87 242.639C1079.98 242.69 1080.03 242.742 1080.08 242.793ZM1010.5 240.229C1009.71 240.998 1009.71 242.229 1010.5 242.998C1011.28 243.767 1012.53 243.767 1013.32 242.998C1014.15 242.229 1014.2 240.947 1013.42 240.126C1012.59 239.357 1011.28 239.408 1010.5 240.229ZM1020.26 243.049C1019.63 243.665 1019.63 244.69 1020.26 245.306C1020.89 245.972 1021.93 246.024 1022.66 245.408C1023.34 244.793 1023.39 243.767 1022.76 243.049C1022.71 242.998 1022.66 242.947 1022.61 242.896C1021.98 242.331 1020.94 242.331 1020.26 243.049C1020.31 242.998 1020.26 243.049 1020.26 243.049ZM1069.9 245.767C1070.58 246.434 1071.63 246.434 1072.3 245.767C1072.98 245.101 1072.98 244.075 1072.3 243.408C1071.63 242.742 1070.58 242.69 1069.85 243.357L1069.8 243.408C1069.17 244.075 1069.22 245.152 1069.9 245.767Z" fill="#FDCD00"/>
</g>
<g clip-path="url(#clip2_34_408)">
<path fill-rule="evenodd" clip-rule="evenodd" d="M831.467 505.717C829.223 507.665 829.066 510.999 831.05 513.204C831.102 513.255 831.102 513.306 831.154 513.306C833.242 515.46 836.687 515.563 838.88 513.511C841.072 511.46 841.177 508.076 839.089 505.922C837.053 503.819 833.66 503.717 831.467 505.717ZM819.357 514.024C817.164 516.075 813.719 515.973 811.631 513.819C809.543 511.665 809.647 508.23 811.84 506.23C814.032 504.23 817.477 504.281 819.565 506.435C821.653 508.588 821.549 511.973 819.357 514.024ZM821.184 524.229C823.585 526.742 827.657 526.896 830.214 524.537L830.267 524.485C832.877 522.075 832.981 518.024 830.528 515.46C828.074 512.896 823.95 512.793 821.34 515.204C818.782 517.614 818.678 521.562 821.079 524.126C821.131 524.126 821.131 524.178 821.184 524.229ZM811.004 524.793C808.864 526.793 808.708 530.126 810.743 532.229L810.796 532.28C812.884 534.382 816.277 534.485 818.417 532.485C820.557 530.485 820.714 527.152 818.678 525.049L818.626 524.998C816.694 522.896 813.353 522.742 811.161 524.639C811.109 524.69 811.057 524.742 811.004 524.793ZM838.671 534.023C836.531 536.023 833.138 535.972 831.05 533.87C831.05 533.87 831.05 533.87 830.997 533.818C828.962 531.767 828.962 528.485 831.05 526.485C831.102 526.434 831.154 526.383 831.206 526.331C833.347 524.332 836.74 524.383 838.775 526.485L838.828 526.537C840.916 528.69 840.811 532.024 838.671 534.023ZM799.99 483.307C799.364 482.641 799.416 481.666 800.042 481.051C800.721 480.384 801.765 480.384 802.443 481C803.122 481.666 803.07 482.743 802.391 483.41L802.339 483.461C801.66 484.025 800.564 483.974 799.99 483.307ZM849.633 481.359C850.364 480.743 851.408 480.846 852.035 481.513C852.609 482.179 852.609 483.154 851.982 483.769C851.356 484.436 850.26 484.436 849.581 483.82C848.903 483.205 848.903 482.128 849.529 481.461C849.581 481.41 849.581 481.41 849.633 481.359ZM790.124 485.923C789.445 485.051 789.55 483.82 790.385 483.154C791.22 482.487 792.525 482.589 793.204 483.41C793.882 484.23 793.778 485.359 793.047 486.076C792.212 486.846 790.907 486.743 790.124 485.923ZM859.76 484.538C860.543 483.769 861.796 483.769 862.579 484.487C863.362 485.205 863.362 486.487 862.631 487.256C862.579 487.307 862.579 487.307 862.527 487.358C861.796 488.179 860.491 488.23 859.708 487.512C858.873 486.794 858.821 485.512 859.552 484.743C859.604 484.692 859.708 484.641 859.76 484.538ZM842.795 486.23C843.63 485.512 844.883 485.512 845.614 486.282C846.449 487.051 846.449 488.384 845.666 489.153C844.883 489.974 843.526 489.974 842.691 489.205C842.638 489.153 842.638 489.153 842.586 489.102C841.855 488.282 841.908 487 842.795 486.23ZM806.254 489.256C805.523 488.384 805.575 487.102 806.463 486.384C807.298 485.666 808.499 485.666 809.282 486.435C810.117 487.205 810.117 488.538 809.334 489.307C808.551 490.128 807.194 490.128 806.358 489.307C806.306 489.358 806.254 489.307 806.254 489.256ZM795.97 494.23C794.822 492.948 794.926 490.999 796.179 489.82C797.432 488.64 799.468 488.692 800.669 489.922C801.869 491.153 801.817 493.153 800.564 494.333C799.259 495.512 797.223 495.461 795.97 494.23ZM851.304 490.333C852.609 489.205 854.592 489.307 855.793 490.538C857.046 491.717 857.098 493.717 855.845 494.948C854.645 496.179 852.609 496.23 851.356 494.999C851.304 494.948 851.252 494.897 851.199 494.794C849.999 493.563 850.051 491.563 851.304 490.333ZM834.025 491.974C835.278 490.743 837.262 490.794 838.514 492.025C838.567 492.076 838.567 492.076 838.619 492.128C839.872 493.307 839.924 495.307 838.671 496.538C837.47 497.768 835.435 497.82 834.182 496.589C834.13 496.538 834.077 496.486 834.025 496.384C832.772 495.204 832.772 493.256 833.973 492.025C833.973 491.974 833.973 491.974 834.025 491.974ZM812.936 496.897C811.735 495.615 811.787 493.615 813.04 492.384C814.293 491.204 816.329 491.256 817.53 492.486C818.73 493.717 818.678 495.717 817.425 496.897C816.172 498.127 814.189 498.127 812.936 496.897ZM786.835 495.871C786.209 495.204 786.261 494.23 786.887 493.615C787.566 492.948 788.61 492.897 789.289 493.563C789.967 494.23 789.967 495.256 789.289 495.922L789.236 495.974C788.558 496.589 787.514 496.538 786.835 495.871C786.887 495.871 786.887 495.871 786.835 495.871ZM862.37 494.23C863.049 493.666 864.041 493.666 864.667 494.281C865.346 494.948 865.346 495.974 864.667 496.64C863.989 497.307 862.945 497.307 862.266 496.64C861.587 495.974 861.587 494.948 862.266 494.281C862.318 494.281 862.37 494.23 862.37 494.23ZM803.696 503.512C802.13 501.819 802.287 499.204 803.957 497.615C805.628 496.076 808.238 496.127 809.804 497.768C809.804 497.768 809.804 497.768 809.856 497.82C811.474 499.461 811.474 502.076 809.804 503.717C808.029 505.255 805.314 505.204 803.696 503.512ZM841.803 497.922C843.526 496.384 846.188 496.486 847.806 498.179C849.372 499.82 849.32 502.384 847.702 503.922C847.702 503.922 847.65 503.922 847.65 503.973C845.979 505.563 843.317 505.563 841.647 503.922C840.081 502.178 840.133 499.563 841.803 497.922ZM828.701 505.717C830.319 504.076 830.319 501.461 828.648 499.82C827.03 498.23 824.42 498.179 822.75 499.768C821.079 501.358 820.975 503.973 822.593 505.666C824.264 507.255 826.926 507.306 828.701 505.717ZM791.794 502.589C791.064 501.819 791.064 500.589 791.847 499.82C792.63 498.999 793.987 498.999 794.77 499.768C795.605 500.589 795.605 501.922 794.77 502.691L794.718 502.743C793.882 503.512 792.577 503.409 791.794 502.589ZM856.315 500.435C857.203 499.666 858.508 499.768 859.238 500.589C859.969 501.461 859.813 502.743 858.925 503.46C858.142 504.076 856.994 504.076 856.211 503.409C855.375 502.589 855.375 501.307 856.211 500.486C856.263 500.486 856.263 500.435 856.315 500.435ZM797.641 511.204C796.388 509.973 796.44 508.024 797.641 506.794C797.693 506.742 797.693 506.742 797.745 506.691C799.05 505.512 801.086 505.563 802.339 506.794C803.487 508.076 803.383 510.024 802.13 511.204C800.93 512.434 798.946 512.434 797.693 511.255C797.641 511.255 797.641 511.204 797.641 511.204ZM848.537 507.05C849.842 505.871 851.878 505.922 853.131 507.153C854.436 508.281 854.592 510.229 853.444 511.511C852.296 512.793 850.312 512.947 849.007 511.819C848.85 511.717 848.746 511.563 848.589 511.409C847.336 510.178 847.336 508.281 848.537 507.05ZM845.823 522.947C847.441 521.357 847.493 518.793 845.927 517.152C844.309 515.511 841.647 515.409 839.924 516.998C838.253 518.639 838.253 521.306 839.872 522.998C841.49 524.588 844.152 524.537 845.823 522.947ZM810.326 523.101C808.603 524.639 805.941 524.537 804.323 522.844C802.757 521.203 802.809 518.639 804.427 517.101C804.427 517.101 804.427 517.101 804.479 517.05C806.15 515.46 808.812 515.46 810.482 517.101C812.048 518.793 811.996 521.46 810.326 523.101ZM797.589 527.203C796.336 528.383 796.284 530.331 797.484 531.613C797.536 531.665 797.536 531.665 797.589 531.716C798.737 532.998 800.721 533.152 802.078 532.024C803.435 530.895 803.54 528.947 802.391 527.613C802.287 527.511 802.182 527.408 802.078 527.306C800.877 526.075 798.894 526.024 797.641 527.203C797.589 527.203 797.589 527.203 797.589 527.203ZM848.381 532.177C849.633 533.408 851.669 533.408 852.974 532.177C854.175 530.947 854.175 528.998 852.922 527.767C851.669 526.588 849.686 526.588 848.433 527.819C847.232 529.049 847.18 530.998 848.381 532.177ZM827.187 540.536C825.516 542.074 822.906 542.023 821.34 540.433C821.34 540.433 821.34 540.433 821.288 540.382C819.67 538.741 819.67 536.126 821.34 534.485C823.063 532.895 825.777 532.998 827.448 534.639C829.014 536.382 828.857 538.998 827.187 540.536ZM803.435 534.998C801.817 536.69 801.921 539.305 803.592 540.895C805.21 542.485 807.82 542.485 809.438 540.895C809.438 540.895 809.438 540.895 809.491 540.844C811.161 539.254 811.213 536.587 809.595 534.946C807.872 533.408 805.158 533.408 803.435 534.998ZM841.49 541.203C843.213 542.792 845.875 542.69 847.493 541.049C849.111 539.459 849.111 536.895 847.493 535.305C847.493 535.305 847.493 535.305 847.441 535.254C845.823 533.613 843.108 533.562 841.438 535.152C839.819 536.844 839.819 539.51 841.49 541.203ZM791.533 535.716C790.75 536.485 790.75 537.716 791.533 538.485C792.316 539.305 793.621 539.357 794.457 538.587C795.292 537.767 795.344 536.485 794.509 535.664L794.457 535.613C793.621 534.844 792.316 534.895 791.533 535.716ZM856.002 538.998C856.837 539.767 858.142 539.664 858.925 538.844C859.708 538.075 859.708 536.844 858.925 536.075C858.142 535.254 856.837 535.203 856.002 535.972C855.167 536.741 855.114 538.023 855.897 538.895C855.95 538.895 856.002 538.946 856.002 538.998ZM812.57 541.818C811.318 543.049 811.318 545.049 812.57 546.331C813.771 547.561 815.755 547.664 817.008 546.485C817.06 546.433 817.112 546.382 817.164 546.331C818.365 545.1 818.313 543.151 817.06 541.972L817.008 541.921C815.807 540.69 813.823 540.69 812.57 541.818ZM833.503 546.997C834.704 548.228 836.74 548.279 837.992 547.1C838.045 547.049 838.045 547.049 838.097 546.997C839.35 545.767 839.35 543.715 838.045 542.485C836.74 541.357 834.808 541.408 833.555 542.587C832.355 543.767 832.303 545.715 833.503 546.997ZM786.47 542.331C785.843 542.946 785.843 543.972 786.47 544.587C787.096 545.254 788.192 545.305 788.871 544.69C789.55 544.074 789.602 542.997 788.975 542.331C788.349 541.664 787.253 541.613 786.574 542.228C786.522 542.28 786.47 542.331 786.47 542.331ZM861.953 545.305C862.579 545.92 863.623 545.92 864.25 545.305C864.928 544.69 864.981 543.613 864.354 542.946C863.675 542.28 862.631 542.28 861.953 542.946C861.274 543.613 861.274 544.638 861.953 545.305ZM795.553 544.177C794.404 545.459 794.457 547.408 795.657 548.587C796.91 549.818 798.894 549.766 800.147 548.536C801.399 547.305 801.347 545.356 800.147 544.126C798.842 542.946 796.806 542.946 795.553 544.177ZM850.782 548.946C852.087 550.074 854.018 550.023 855.271 548.843C856.524 547.664 856.576 545.715 855.375 544.485L855.323 544.433C854.123 543.203 852.087 543.151 850.834 544.331C850.782 544.382 850.782 544.382 850.73 544.433C849.477 545.664 849.477 547.715 850.782 548.946ZM805.732 549.305C804.949 550.125 805.001 551.407 805.836 552.177C806.619 552.946 807.872 552.946 808.655 552.177C809.491 551.407 809.543 550.125 808.76 549.305C807.977 548.484 806.672 548.433 805.784 549.202C805.784 549.254 805.732 549.305 805.732 549.305ZM842.169 552.895C842.952 553.664 844.204 553.664 844.987 552.895C845.823 552.125 845.875 550.843 845.092 550.023C844.257 549.202 842.952 549.151 842.064 549.972L842.012 550.023C841.281 550.843 841.333 552.125 842.169 552.895ZM859.082 554.946C859.865 555.715 861.17 555.715 861.901 554.946C862.684 554.177 862.684 552.895 861.901 552.125C861.17 551.305 859.865 551.254 859.03 551.972C858.194 552.689 858.142 553.971 858.873 554.792C858.977 554.843 859.03 554.894 859.082 554.946ZM789.497 552.382C788.714 553.151 788.714 554.382 789.497 555.151C790.281 555.92 791.533 555.92 792.316 555.151C793.152 554.382 793.204 553.1 792.421 552.279C791.586 551.51 790.281 551.561 789.497 552.382ZM799.259 555.202C798.633 555.818 798.633 556.843 799.259 557.458C799.886 558.125 800.93 558.176 801.66 557.561C802.339 556.946 802.391 555.92 801.765 555.202C801.713 555.151 801.66 555.1 801.608 555.048C800.982 554.484 799.938 554.484 799.259 555.202C799.311 555.151 799.259 555.202 799.259 555.202ZM848.903 557.92C849.581 558.587 850.625 558.587 851.304 557.92C851.982 557.253 851.982 556.228 851.304 555.561C850.625 554.894 849.581 554.843 848.85 555.51L848.798 555.561C848.172 556.228 848.224 557.305 848.903 557.92Z" fill="#FDCD00"/>
</g>
</g>
</g>
<defs>
<clipPath id="clip0_34_408">
<rect width="688" height="912.826" fill="white" transform="translate(715 -167.401)"/>
</clipPath>
<clipPath id="clip1_34_408">
<rect width="83" height="77.792" fill="white" transform="translate(1007 168.385)"/>
</clipPath>
<clipPath id="clip2_34_408">
<rect width="83" height="77.792" fill="white" transform="translate(786 480.538)"/>
</clipPath>
</defs>
</svg>
