<svg width="536" height="552" viewBox="0 0 536 552" fill="none" xmlns="http://www.w3.org/2000/svg">
<g clip-path="url(#clip0_398_239)">
<g style="mix-blend-mode:multiply">
<g style="mix-blend-mode:multiply">
<g style="mix-blend-mode:multiply">
<path d="M270.592 129.212C270.592 185.12 225.213 230.436 169.227 230.436C113.241 230.436 67.8625 185.12 67.8625 129.212C67.8625 73.3041 113.241 27.9882 169.227 27.9882C225.213 27.9882 270.592 73.3041 270.592 129.212V129.212Z" fill="#E74645"/>
</g>
<mask id="mask0_398_239" style="mask-type:alpha" maskUnits="userSpaceOnUse" x="67" y="27" width="204" height="204">
<g style="mix-blend-mode:multiply">
<path d="M270.592 129.212C270.592 185.12 225.213 230.436 169.227 230.436C113.241 230.436 67.8625 185.12 67.8625 129.212C67.8625 73.3041 113.241 27.9882 169.227 27.9882C225.213 27.9882 270.592 73.3041 270.592 129.212V129.212Z" fill="#E74645"/>
</g>
</mask>
<g mask="url(#mask0_398_239)">
<g style="mix-blend-mode:multiply">
<g style="mix-blend-mode:multiply">
<path d="M181.31 176.584H161.366V188.428H181.31V176.584Z" fill="#F8BB94"/>
</g>
<g style="mix-blend-mode:multiply">
<path d="M173.998 186.834C169.811 185.497 166.309 182.892 165.777 178.298C165.709 177.664 165.777 177.099 165.949 176.567H161.366V188.41H181.31V186.919C178.856 187.536 176.298 187.554 173.998 186.817V186.834Z" fill="#DADADA"/>
</g>
<g style="mix-blend-mode:multiply">
<g style="mix-blend-mode:multiply">
<path d="M221.248 138.587C221.248 143.489 217.129 147.448 212.049 147.448C206.968 147.448 202.849 143.472 202.849 138.587C202.849 133.702 206.968 129.726 212.049 129.726C217.129 129.726 221.248 133.702 221.248 138.587Z" fill="#F8BB94"/>
</g>
<g style="mix-blend-mode:multiply">
<g style="mix-blend-mode:multiply">
<path d="M213.233 133.651C213.233 133.651 213.456 133.617 213.851 133.634C214.246 133.634 214.829 133.702 215.481 133.959C216.133 134.199 216.906 134.662 217.438 135.451C217.575 135.656 217.661 135.879 217.781 136.085C217.867 136.307 217.936 136.547 217.987 136.787L218.073 137.524C218.073 137.764 218.056 138.004 218.039 138.244C218.004 138.69 217.884 139.187 217.747 139.632C217.609 140.078 217.404 140.489 217.18 140.884C216.734 141.655 216.099 142.255 215.464 142.598C215.172 142.786 214.846 142.872 214.589 142.957C214.297 143.009 214.074 143.06 213.868 143.077C213.473 143.077 213.25 143.077 213.25 143.077C213.25 143.077 213.456 142.992 213.816 142.855C214.005 142.786 214.194 142.649 214.417 142.546C214.623 142.392 214.881 142.255 215.087 142.032C215.31 141.843 215.533 141.586 215.739 141.312C215.945 141.038 216.116 140.729 216.288 140.387C216.442 140.044 216.563 139.684 216.683 139.307C216.786 138.913 216.871 138.553 216.889 138.124L216.94 137.541L216.906 136.976C216.854 136.805 216.82 136.616 216.786 136.445C216.717 136.29 216.666 136.119 216.58 135.965C216.271 135.348 215.739 134.885 215.224 134.542C214.692 134.199 214.211 133.977 213.851 133.839C213.49 133.702 213.284 133.634 213.284 133.634L213.233 133.651Z" fill="#DADADA"/>
</g>
</g>
<g style="mix-blend-mode:multiply">
<path d="M214.417 139.015C214.417 139.958 213.748 140.729 212.924 140.729C212.1 140.729 211.431 139.958 211.431 139.015C211.431 138.073 212.1 137.302 212.924 137.302C213.748 137.302 214.417 138.073 214.417 139.015Z" fill="#DADADA"/>
</g>
</g>
<g style="mix-blend-mode:multiply">
<g style="mix-blend-mode:multiply">
<path d="M122.681 138.587C122.681 143.489 126.8 147.448 131.863 147.448C136.926 147.448 141.063 143.472 141.063 138.587C141.063 133.702 136.944 129.726 131.863 129.726C126.783 129.726 122.681 133.702 122.681 138.587Z" fill="#F8BB94"/>
</g>
<g style="mix-blend-mode:multiply">
<g style="mix-blend-mode:multiply">
<path d="M130.696 133.651C130.696 133.651 130.473 133.617 130.078 133.634C129.684 133.634 129.117 133.702 128.448 133.959C127.796 134.199 127.023 134.662 126.491 135.451C126.371 135.656 126.268 135.879 126.148 136.085C126.062 136.307 125.994 136.547 125.942 136.787L125.874 137.524C125.874 137.764 125.891 138.004 125.908 138.244C125.942 138.69 126.062 139.187 126.2 139.632C126.337 140.078 126.543 140.489 126.766 140.884C127.229 141.655 127.864 142.255 128.482 142.598C128.774 142.786 129.117 142.872 129.375 142.957C129.649 143.009 129.89 143.06 130.096 143.077C130.508 143.077 130.714 143.077 130.714 143.077C130.714 143.077 130.508 142.992 130.147 142.855C129.975 142.786 129.77 142.649 129.546 142.546C129.34 142.392 129.083 142.255 128.877 142.032C128.654 141.843 128.431 141.586 128.225 141.312C128.019 141.038 127.847 140.729 127.693 140.387C127.521 140.044 127.401 139.684 127.298 139.307C127.195 138.913 127.109 138.553 127.092 138.124L127.058 137.541L127.092 136.976C127.144 136.805 127.178 136.616 127.212 136.445C127.281 136.29 127.332 136.119 127.418 135.965C127.744 135.348 128.276 134.885 128.774 134.542C129.289 134.199 129.787 133.977 130.147 133.839C130.508 133.702 130.714 133.634 130.714 133.634L130.696 133.651Z" fill="#DADADA"/>
</g>
</g>
<g style="mix-blend-mode:multiply">
<path d="M129.512 139.015C129.512 139.958 130.181 140.729 131.005 140.729C131.829 140.729 132.498 139.958 132.498 139.015C132.498 138.073 131.829 137.302 131.005 137.302C130.181 137.302 129.512 138.073 129.512 139.015Z" fill="#DADADA"/>
</g>
</g>
<g style="mix-blend-mode:multiply">
<path d="M212.049 126.898C212.049 157.012 197.889 178.161 171.338 178.161C144.787 178.161 130.61 157.012 130.61 126.898C130.61 96.7846 145.302 72.3614 171.87 72.3614C198.438 72.3614 212.049 96.7846 212.049 126.898V126.898Z" fill="#F8BB94"/>
</g>
<g style="mix-blend-mode:multiply">
<path d="M161.761 187.931C161.761 187.931 136.463 191.273 127.384 199.122C118.116 207.126 115.387 214.051 112.04 229.87H230.619C227.289 214.051 224.543 207.126 215.275 199.122C206.179 191.273 180.898 187.931 180.898 187.931H161.761Z" fill="#F8BB94"/>
</g>
<g style="mix-blend-mode:multiply">
<path d="M154.124 189.233C154.124 189.233 136.48 191.273 127.384 199.122C118.116 207.126 115.387 214.051 112.04 229.87H230.619C227.289 214.051 224.595 207.075 215.275 199.122C207.586 192.558 190.32 189.593 190.32 189.593L180.881 187.931H161.744L154.107 189.233H154.124Z" fill="white"/>
</g>
<g style="mix-blend-mode:multiply">
<g style="mix-blend-mode:multiply">
<path d="M166.601 203.304C166.601 203.304 166.687 203.167 166.944 202.962C166.841 203.064 166.721 203.184 166.601 203.304L163.34 229.87H179.336L176.075 203.304L178.272 194.186C179.079 192.815 179.336 191.238 178.495 189.867C177.723 188.616 176.693 187.965 175.509 187.639C173.638 187.125 171.424 187.434 169.433 187.434C167.442 187.434 166.052 187.605 164.73 189.165C163.426 190.724 163.34 192.404 164.387 194.186L166.584 203.304H166.601Z" fill="#E74645"/>
</g>
<g style="mix-blend-mode:multiply">
<path d="M166.241 201.899C166.241 201.899 172.866 198.814 176.058 203.322C176.058 203.322 171.596 200.785 166.584 203.322L166.241 201.899Z" fill="#C6C6C6"/>
</g>
</g>
<g style="mix-blend-mode:multiply">
<path d="M154.124 189.233C154.124 189.233 136.48 191.273 127.384 199.122C118.116 207.126 115.387 214.051 112.04 229.87H230.619C227.289 214.051 224.595 207.075 215.275 199.122C207.586 192.558 190.32 189.593 190.32 189.593L171.321 228.79L154.107 189.233H154.124Z" fill="#0D3953"/>
</g>
<g style="mix-blend-mode:multiply">
<path d="M154.364 189.507L171.338 228.79L153.3 217.153L157.368 210.194L137.184 193.552C137.184 193.552 148.632 189.13 154.381 189.525L154.364 189.507Z" fill="#031D2D"/>
</g>
<g style="mix-blend-mode:multiply">
<path d="M190.338 189.593L171.338 228.79L189.376 217.153L185.309 210.194L205.492 193.552C205.492 193.552 196.07 189.216 190.32 189.61L190.338 189.593Z" fill="#031D2D"/>
</g>
<g style="mix-blend-mode:multiply">
<path d="M150.588 189.576L165.846 200.202L164.576 194.889L150.588 189.576Z" fill="#B2B2B2"/>
</g>
<g style="mix-blend-mode:multiply">
<path d="M193.547 189.764L176.796 200.425L178.272 194.221L193.547 189.764Z" fill="#B2B2B2"/>
</g>
<g style="mix-blend-mode:multiply">
<g style="mix-blend-mode:multiply">
<path d="M161.366 184.417L150.588 189.576L163.34 197.186L172.265 187.348L161.366 184.417Z" fill="white"/>
</g>
<g style="mix-blend-mode:multiply">
<path d="M161.212 188.205C162.791 186.765 164.662 185.788 166.859 185.891L161.366 184.417L150.588 189.559L160.217 195.3C159.015 192.987 159.067 190.142 161.212 188.188V188.205Z" fill="#DADADA"/>
</g>
</g>
<g style="mix-blend-mode:multiply">
<g style="mix-blend-mode:multiply">
<path d="M182.975 184.417L193.753 189.576L181.001 197.186L172.059 187.348L182.975 184.417Z" fill="white"/>
</g>
<g style="mix-blend-mode:multiply">
<path d="M183.129 188.205C181.55 186.765 179.68 185.788 177.483 185.891L182.975 184.417L193.753 189.559L184.125 195.3C185.326 192.987 185.275 190.142 183.129 188.188V188.205Z" fill="#DADADA"/>
</g>
</g>
<g style="mix-blend-mode:multiply">
<path d="M130.748 134.234L134.867 138.364L135.656 105.2C135.656 105.2 135.931 87.9752 154.244 87.9752C154.244 87.9752 169.279 95.7735 188.415 89.3291C188.415 89.3291 205.544 86.6383 207.552 104.394L207.415 139.033L211.791 133.634L212.032 129.126C212.032 129.126 214.623 114.507 212.032 93.0483C212.032 93.0483 208.582 69.2764 187.077 65.2487C187.077 65.2487 151.961 56.2163 137.15 78.3087C137.15 78.3087 125.856 91.4887 128.826 112.107L130.731 134.251L130.748 134.234Z" fill="#956000"/>
</g>
</g>
</g>
</g>
</g>
<g style="mix-blend-mode:multiply">
<g style="mix-blend-mode:multiply">
<g style="mix-blend-mode:multiply">
<path d="M439.671 414.581C495.582 411.78 538.653 364.246 535.872 308.411C533.09 252.575 485.51 209.583 429.598 212.384C373.686 215.185 330.616 262.72 333.397 318.555C336.179 374.39 383.759 417.383 439.671 414.581Z" fill="#1DB2A8"/>
</g>
<mask id="mask1_398_239" style="mask-type:alpha" maskUnits="userSpaceOnUse" x="333" y="212" width="204" height="203">
<g style="mix-blend-mode:multiply">
<path d="M439.715 414.601C495.627 411.811 538.688 364.287 535.895 308.453C533.102 252.618 485.512 209.616 429.599 212.406C373.687 215.195 330.625 262.719 333.418 318.554C336.212 374.388 383.802 417.39 439.715 414.601Z" fill="#1DB2A8"/>
</g>
</mask>
<g mask="url(#mask1_398_239)">
<g style="mix-blend-mode:multiply">
<g style="mix-blend-mode:multiply">
<path d="M444.607 361.481H424.664V373.325H444.607V361.481Z" fill="#F8BB94"/>
</g>
<g style="mix-blend-mode:multiply">
<path d="M425.814 370.308C428.165 367.96 431.203 366.64 434.532 366.383C437.381 366.161 442.239 366.778 443.766 363.812C444.006 363.35 444.298 362.99 444.624 362.716V361.447H424.681V371.679C425.024 371.199 425.385 370.737 425.831 370.291L425.814 370.308Z" fill="#C6C6C6"/>
</g>
<g style="mix-blend-mode:multiply">
<g style="mix-blend-mode:multiply">
<path d="M484.545 323.467C484.545 328.369 480.426 332.328 475.346 332.328C470.266 332.328 466.147 328.352 466.147 323.467C466.147 318.582 470.266 314.606 475.346 314.606C480.426 314.606 484.545 318.582 484.545 323.467Z" fill="#F8BB94"/>
</g>
<g style="mix-blend-mode:multiply">
<g style="mix-blend-mode:multiply">
<path d="M476.53 318.548C476.53 318.548 476.753 318.514 477.148 318.531C477.543 318.531 478.109 318.599 478.779 318.856C479.431 319.096 480.203 319.559 480.735 320.348C480.873 320.536 480.958 320.776 481.078 320.982C481.164 321.204 481.233 321.444 481.284 321.684L481.353 322.421C481.353 322.661 481.336 322.901 481.336 323.158C481.302 323.621 481.181 324.101 481.044 324.547C480.907 324.992 480.701 325.404 480.478 325.798C480.014 326.569 479.397 327.169 478.761 327.512C478.47 327.7 478.144 327.786 477.869 327.872C477.594 327.923 477.354 327.992 477.148 327.992C476.736 327.992 476.53 327.992 476.53 327.992C476.53 327.992 476.736 327.906 477.097 327.769C477.268 327.7 477.457 327.563 477.697 327.46C477.903 327.306 478.144 327.169 478.367 326.963C478.59 326.758 478.813 326.518 479.019 326.243C479.225 325.969 479.397 325.644 479.568 325.318C479.723 324.975 479.843 324.615 479.963 324.238C480.066 323.844 480.152 323.484 480.169 323.056L480.22 322.473L480.169 321.907C480.117 321.736 480.083 321.547 480.049 321.376C479.98 321.222 479.929 321.033 479.843 320.896C479.517 320.279 479.002 319.816 478.47 319.473C477.955 319.131 477.457 318.925 477.097 318.771C476.736 318.634 476.53 318.565 476.53 318.565V318.548Z" fill="#DADADA"/>
</g>
</g>
<g style="mix-blend-mode:multiply">
<path d="M477.732 323.913C477.732 324.855 477.062 325.626 476.239 325.626C475.415 325.626 474.745 324.855 474.745 323.913C474.745 322.97 475.415 322.199 476.239 322.199C477.062 322.199 477.732 322.97 477.732 323.913Z" fill="#DADADA"/>
</g>
</g>
<g style="mix-blend-mode:multiply">
<g style="mix-blend-mode:multiply">
<path d="M385.979 323.467C385.979 328.369 390.098 332.328 395.161 332.328C400.224 332.328 404.343 328.352 404.343 323.467C404.343 318.582 400.224 314.606 395.161 314.606C390.098 314.606 385.979 318.582 385.979 323.467Z" fill="#F8BB94"/>
</g>
<g style="mix-blend-mode:multiply">
<g style="mix-blend-mode:multiply">
<path d="M393.994 318.548C393.994 318.548 393.771 318.514 393.376 318.531C392.981 318.531 392.415 318.599 391.745 318.856C391.093 319.096 390.321 319.559 389.789 320.348C389.651 320.536 389.566 320.776 389.446 320.982C389.36 321.204 389.291 321.444 389.24 321.684L389.171 322.421C389.171 322.661 389.188 322.901 389.205 323.158C389.24 323.621 389.36 324.101 389.48 324.547C389.617 324.992 389.823 325.404 390.046 325.798C390.51 326.569 391.145 327.169 391.78 327.512C392.071 327.7 392.415 327.786 392.672 327.872C392.947 327.923 393.187 327.992 393.393 327.992C393.788 327.992 394.011 327.992 394.011 327.992C394.011 327.992 393.805 327.906 393.444 327.769C393.273 327.7 393.084 327.563 392.844 327.46C392.638 327.306 392.398 327.169 392.174 326.963C391.951 326.758 391.728 326.518 391.522 326.243C391.316 325.969 391.145 325.644 390.973 325.318C390.801 324.992 390.698 324.615 390.578 324.238C390.475 323.844 390.389 323.484 390.372 323.056L390.338 322.473L390.372 321.907C390.424 321.736 390.458 321.547 390.492 321.376C390.561 321.222 390.613 321.033 390.698 320.896C391.024 320.279 391.539 319.816 392.071 319.473C392.586 319.131 393.084 318.925 393.444 318.771C393.805 318.634 394.011 318.565 394.011 318.565L393.994 318.548Z" fill="#DADADA"/>
</g>
</g>
<g style="mix-blend-mode:multiply">
<path d="M392.809 323.913C392.809 324.855 393.479 325.626 394.303 325.626C395.126 325.626 395.796 324.855 395.796 323.913C395.796 322.97 395.126 322.199 394.303 322.199C393.479 322.199 392.809 322.97 392.809 323.913Z" fill="#DADADA"/>
</g>
</g>
<g style="mix-blend-mode:multiply">
<path d="M475.346 311.795C475.346 341.909 461.187 363.058 434.635 363.058C408.084 363.058 393.925 341.909 393.925 311.795C393.925 281.682 408.616 257.258 435.185 257.258C461.753 257.258 475.363 281.682 475.363 311.795H475.346Z" fill="#F8BB94"/>
</g>
<g style="mix-blend-mode:multiply">
<path d="M425.059 372.828C425.059 372.828 399.76 376.17 390.681 384.019C381.413 392.023 378.684 398.948 375.337 414.767H493.934C490.587 398.948 487.858 392.023 478.59 384.019C469.511 376.17 444.212 372.828 444.212 372.828H425.076H425.059Z" fill="#F8BB94"/>
</g>
<g style="mix-blend-mode:multiply">
<path d="M453.995 374.559C453.995 374.559 469.494 376.153 478.59 384.002C487.858 392.006 490.604 398.93 493.934 414.75H375.337C378.684 398.93 381.413 392.006 390.681 384.002C399.777 376.153 415.344 374.542 415.344 374.542C415.344 374.542 411.98 396.137 435.494 395.965C435.494 395.965 454.922 396.72 453.995 374.559V374.559Z" fill="#1A7290"/>
</g>
<g style="mix-blend-mode:multiply">
<path d="M418.554 373.925C418.623 374.284 418.64 374.662 418.571 375.056C418.571 375.176 417.49 382.888 421.901 387.979C424.715 391.201 429.298 392.829 435.494 392.76C435.545 392.76 435.597 392.76 435.648 392.76C435.683 392.76 442.239 392.898 446.615 388.476C449.636 385.425 451.043 380.009 450.786 373.925L457.274 375.073C457.48 382.768 455.42 388.818 451.146 393.086C445.362 398.879 437.485 399.222 435.734 399.222C435.477 399.222 435.374 399.222 435.236 399.222C427.17 399.222 421.025 396.84 416.975 392.161C411.672 386.025 411.826 377.901 412.066 375.073L418.537 373.942L418.554 373.925Z" fill="#054153"/>
</g>
<g style="mix-blend-mode:multiply">
<path d="M392.809 295.222L394.268 319.799L397.872 320.81C394.714 281.133 415.636 272.05 415.636 272.05L421.489 247.215C403.605 246.786 395.779 261.389 395.779 261.389C395.779 261.389 389.154 268.108 392.809 295.205V295.222Z" fill="#732400"/>
</g>
<g style="mix-blend-mode:multiply">
<path d="M392.998 298.409C392.998 298.409 392.312 295.307 391.711 290.645C391.385 288.315 391.093 285.589 390.836 282.659C390.733 281.202 390.561 279.694 390.492 278.151C390.441 277.38 390.407 276.609 390.355 275.837L390.321 275.255V274.535L390.355 273.369C390.355 272.615 390.51 271.741 390.647 270.901C390.75 270.027 390.956 269.239 391.196 268.45C391.299 268.056 391.402 267.662 391.522 267.268L391.968 266.154C392.243 265.4 392.586 264.697 392.947 264.011C393.29 263.309 393.633 262.64 394.062 262.04C394.44 261.406 394.852 260.823 395.281 260.258C396.088 259.109 396.98 258.133 397.821 257.276C398.645 256.401 399.486 255.682 400.258 255.065C401.013 254.43 401.717 253.951 402.283 253.574C403.45 252.802 404.171 252.459 404.171 252.459C404.171 252.459 401.889 254.705 399.246 258.458C398.902 258.921 398.576 259.418 398.267 259.949C397.941 260.463 397.598 260.995 397.289 261.577C396.963 262.143 396.637 262.726 396.362 263.343C396.07 263.943 395.761 264.56 395.504 265.211C395.229 265.845 394.972 266.514 394.783 267.199C394.56 267.868 394.354 268.553 394.2 269.256C394.011 269.959 393.856 270.661 393.788 271.347C393.685 272.032 393.565 272.701 393.582 273.523L393.513 274.689V275.135H393.496C393.496 274.877 393.496 275.083 393.496 275.032V275.717C393.547 276.489 393.582 277.277 393.599 278.048C393.668 279.591 393.65 281.099 393.668 282.573C393.685 285.504 393.65 288.246 393.547 290.611C393.376 295.324 392.998 298.461 392.998 298.461V298.409Z" fill="#511800"/>
</g>
<g style="mix-blend-mode:multiply">
<path d="M476.153 300.038L474.694 324.615L471.09 325.626C474.745 272.701 454.991 271.827 454.991 271.827L447.473 252.031C465.357 251.602 473.184 266.205 473.184 266.205C473.184 266.205 479.808 272.906 476.153 300.021V300.038Z" fill="#732400"/>
</g>
<g style="mix-blend-mode:multiply">
<path d="M415.911 271.895C415.911 271.895 438.789 262.914 462.354 274.946L464.156 256.796C464.156 256.796 459.539 221.352 413.216 232.647C413.216 232.647 419 235.338 421.506 238.028C421.506 238.028 403.673 236.794 395.796 253.008C395.796 253.008 407.861 248.98 417.541 251.585C417.541 251.585 402.987 261.166 415.928 271.93L415.911 271.895Z" fill="#732400"/>
</g>
<g style="mix-blend-mode:multiply">
<path d="M464.156 256.796C464.156 256.796 463.898 255.819 463.263 254.191C462.628 252.562 461.616 250.3 460.088 247.798C459.333 246.547 458.389 245.261 457.376 243.958C456.329 242.673 455.111 241.422 453.789 240.205C452.433 239.04 450.957 237.926 449.361 236.949C447.765 235.972 446.049 235.115 444.264 234.463C443.371 234.121 442.479 233.778 441.552 233.538C440.643 233.247 439.716 233.024 438.789 232.835C436.935 232.441 435.082 232.115 433.262 231.978C432.353 231.858 431.46 231.824 430.568 231.79C429.693 231.755 428.817 231.67 427.976 231.687C426.277 231.687 424.681 231.687 423.188 231.79C421.695 231.841 420.339 231.961 419.12 232.064C417.902 232.15 416.837 232.252 415.979 232.372C414.229 232.561 413.216 232.647 413.216 232.647C413.216 232.647 414.16 232.304 415.842 231.738C416.683 231.447 417.713 231.121 418.914 230.847C420.116 230.539 421.471 230.179 422.982 229.956C423.737 229.836 424.509 229.664 425.333 229.544C426.157 229.459 427.015 229.373 427.89 229.287C428.766 229.167 429.675 229.185 430.602 229.133C431.529 229.065 432.473 229.099 433.451 229.133C434.412 229.167 435.408 229.202 436.403 229.339C437.399 229.442 438.411 229.544 439.407 229.784C440.419 229.973 441.432 230.196 442.427 230.504C443.44 230.761 444.436 231.104 445.414 231.481C447.37 232.235 449.258 233.212 451.009 234.343C452.777 235.44 454.304 236.811 455.729 238.165C458.509 240.976 460.466 244.113 461.719 246.941C462.972 249.769 463.589 252.271 463.864 254.036C464.156 255.802 464.156 256.813 464.156 256.813V256.796Z" fill="#511800"/>
</g>
</g>
</g>
</g>
</g>
<g style="mix-blend-mode:multiply">
<g style="mix-blend-mode:multiply">
<g style="mix-blend-mode:multiply">
<path d="M202.712 313.543C202.712 369.451 157.333 414.767 101.347 414.767C45.3618 414.767 0 369.451 0 313.543C0 257.635 45.3789 212.32 101.347 212.32C157.316 212.32 202.712 257.635 202.712 313.543Z" fill="#6EBEBF"/>
</g>
<mask id="mask2_398_239" style="mask-type:alpha" maskUnits="userSpaceOnUse" x="0" y="212" width="203" height="203">
<g style="mix-blend-mode:multiply">
<path d="M202.712 313.543C202.712 369.451 157.333 414.767 101.347 414.767C45.3618 414.767 0 369.451 0 313.543C0 257.635 45.3789 212.32 101.347 212.32C157.316 212.32 202.712 257.635 202.712 313.543Z" fill="#6EBEBF"/>
</g>
</mask>
<g mask="url(#mask2_398_239)">
<g style="mix-blend-mode:multiply">
<g style="mix-blend-mode:multiply">
<path d="M147.207 325.781C147.207 325.781 134.094 370.051 110.924 372.828V362.733C110.924 362.733 134.678 318.514 147.207 325.781Z" fill="#432918"/>
</g>
<g style="mix-blend-mode:multiply">
<path d="M111.336 361.481H91.3928V373.325H111.336V361.481Z" fill="#F8BB94"/>
</g>
<g style="mix-blend-mode:multiply">
<path d="M92.5256 370.308C94.8941 367.96 97.9148 366.64 101.244 366.383C104.093 366.16 108.951 366.778 110.478 363.812C110.701 363.35 111.01 362.99 111.336 362.733V361.464H91.3928V371.696C91.7361 371.217 92.0965 370.737 92.5256 370.308V370.308Z" fill="#C6C6C6"/>
</g>
<g style="mix-blend-mode:multiply">
<g style="mix-blend-mode:multiply">
<path d="M151.257 323.484C151.257 328.369 147.138 332.345 142.058 332.345C136.978 332.345 132.876 328.369 132.876 323.484C132.876 318.599 136.995 314.623 142.058 314.623C147.121 314.623 151.257 318.599 151.257 323.484Z" fill="#F8BB94"/>
</g>
<g style="mix-blend-mode:multiply">
<g style="mix-blend-mode:multiply">
<path d="M143.259 318.548C143.259 318.548 143.483 318.514 143.877 318.531C144.272 318.548 144.838 318.599 145.508 318.856C146.16 319.096 146.932 319.559 147.464 320.365C147.584 320.553 147.687 320.776 147.79 320.999C147.876 321.222 147.945 321.462 148.014 321.702L148.082 322.439C148.082 322.678 148.082 322.918 148.048 323.158C148.014 323.621 147.893 324.101 147.756 324.529C147.619 324.975 147.413 325.386 147.19 325.781C146.726 326.552 146.091 327.152 145.456 327.495C145.165 327.683 144.838 327.769 144.564 327.854C144.272 327.906 144.049 327.974 143.843 327.974C143.431 327.974 143.225 327.974 143.225 327.974C143.225 327.974 143.431 327.889 143.791 327.752C143.963 327.683 144.169 327.546 144.392 327.443C144.598 327.289 144.838 327.152 145.062 326.946C145.285 326.758 145.508 326.5 145.714 326.226C145.92 325.952 146.091 325.626 146.246 325.301C146.417 324.958 146.538 324.598 146.641 324.221C146.744 323.827 146.829 323.467 146.846 323.038L146.898 322.456L146.864 321.89C146.812 321.719 146.778 321.53 146.744 321.359C146.675 321.204 146.623 321.033 146.538 320.879C146.211 320.262 145.679 319.799 145.165 319.456C144.65 319.114 144.152 318.908 143.791 318.754C143.431 318.616 143.225 318.548 143.225 318.548H143.259Z" fill="#DADADA"/>
</g>
</g>
<g style="mix-blend-mode:multiply">
<path d="M144.444 323.913C144.444 324.855 143.774 325.626 142.95 325.626C142.127 325.626 141.457 324.855 141.457 323.913C141.457 322.97 142.127 322.199 142.95 322.199C143.774 322.199 144.444 322.97 144.444 323.913Z" fill="#DADADA"/>
</g>
</g>
<g style="mix-blend-mode:multiply">
<g style="mix-blend-mode:multiply">
<path d="M52.7075 323.484C52.7075 328.369 56.8266 332.345 61.8897 332.345C66.9528 332.345 71.0891 328.369 71.0891 323.484C71.0891 318.599 66.97 314.623 61.8897 314.623C56.8095 314.623 52.7075 318.599 52.7075 323.484Z" fill="#F8BB94"/>
</g>
<g style="mix-blend-mode:multiply">
<g style="mix-blend-mode:multiply">
<path d="M60.7225 318.548C60.7225 318.548 60.4994 318.514 60.1047 318.531C59.7099 318.548 59.1435 318.599 58.4742 318.856C57.822 319.096 57.0496 319.559 56.5176 320.365C56.3803 320.553 56.2945 320.776 56.1743 320.999C56.0885 321.222 56.0199 321.462 55.9684 321.702L55.8826 322.439C55.8826 322.678 55.8826 322.918 55.9169 323.158C55.9512 323.621 56.0714 324.101 56.2087 324.529C56.346 324.975 56.5519 325.386 56.775 325.781C57.2384 326.552 57.8563 327.152 58.5085 327.495C58.8003 327.683 59.1264 327.769 59.3838 327.854C59.6584 327.906 59.8987 327.974 60.1047 327.974C60.4994 327.974 60.7225 327.974 60.7225 327.974C60.7225 327.974 60.5166 327.889 60.1561 327.752C59.9845 327.683 59.7786 327.546 59.5554 327.443C59.3495 327.289 59.092 327.152 58.8861 326.946C58.6458 326.758 58.4399 326.5 58.2339 326.226C58.0279 325.952 57.8563 325.626 57.6847 325.301C57.5302 324.958 57.4101 324.598 57.2899 324.221C57.187 323.827 57.1011 323.467 57.084 323.038L57.0325 322.456L57.0668 321.89C57.1183 321.719 57.1526 321.53 57.187 321.359C57.2556 321.204 57.3071 321.033 57.3929 320.879C57.719 320.262 58.2339 319.799 58.7488 319.456C59.2637 319.114 59.7614 318.908 60.1218 318.754C60.4822 318.616 60.7054 318.548 60.7054 318.548H60.7225Z" fill="#DADADA"/>
</g>
</g>
<g style="mix-blend-mode:multiply">
<path d="M59.5212 323.913C59.5212 324.855 60.1906 325.626 61.0144 325.626C61.8382 325.626 62.5076 324.855 62.5076 323.913C62.5076 322.97 61.8382 322.199 61.0144 322.199C60.1906 322.199 59.5212 322.97 59.5212 323.913Z" fill="#DADADA"/>
</g>
</g>
<g style="mix-blend-mode:multiply">
<path d="M142.075 311.795C142.075 341.909 127.933 363.058 101.364 363.058C74.7961 363.058 60.6538 341.909 60.6538 311.795C60.6538 281.682 75.3453 257.258 101.914 257.258C128.482 257.258 142.092 281.682 142.092 311.795H142.075Z" fill="#F8BB94"/>
</g>
<g style="mix-blend-mode:multiply">
<path d="M91.7876 372.828C91.7876 372.828 66.5065 376.17 57.4101 384.019C48.1421 392.023 45.396 398.948 42.0664 414.767H160.645C157.316 398.948 154.57 392.023 145.302 384.019C136.205 376.17 110.924 372.828 110.924 372.828H91.7876Z" fill="#F8BB94"/>
</g>
<g style="mix-blend-mode:multiply">
<path d="M110.924 372.828C110.924 372.828 123.951 374.541 134.678 378.415C134.678 378.415 128.345 393.72 134.678 414.767H69.3555C69.3555 414.767 73.8522 401.93 71.0718 377.387C81.0606 374.233 91.7703 372.828 91.7703 372.828L100.935 390.635L110.907 372.828H110.924Z" fill="#E74645"/>
</g>
<g style="mix-blend-mode:multiply">
<path d="M143.568 314.743C129.838 311.384 123.179 294.348 123.179 294.348C122.423 298.649 123.625 302.591 123.625 302.591C98.893 291.108 83.721 272.821 83.721 272.821C71.089 257.241 91.3757 247.009 91.3757 247.009C123.934 235.526 137.939 257.241 137.939 257.241C137.939 257.241 161.075 278.134 149.678 318.514C149.678 318.514 148.065 315.84 143.551 314.743H143.568Z" fill="#432918"/>
</g>
<g style="mix-blend-mode:multiply">
<path d="M87.4626 256.264C87.4626 256.264 58.2855 257.258 52.6904 303.311C52.6904 303.311 44.6238 387.584 82.4853 401.913C82.4853 401.913 79.9967 378.072 91.3757 372.862V361.927C91.3757 361.927 63.7777 357.077 64.1381 321.033C64.1381 321.033 64.3097 279.436 85.506 271.552L87.4626 256.23V256.264Z" fill="#432918"/>
</g>
<g style="mix-blend-mode:multiply">
<path d="M145.147 332.002C145.147 333.699 143.774 335.07 142.075 335.07C140.376 335.07 139.003 333.699 139.003 332.002C139.003 330.305 140.376 328.934 142.075 328.934C143.774 328.934 145.147 330.305 145.147 332.002Z" fill="white"/>
</g>
</g>
</g>
</g>
</g>
<g style="mix-blend-mode:multiply">
<g style="mix-blend-mode:multiply">
<g style="mix-blend-mode:multiply">
<path d="M357.556 230.436C413.539 230.436 458.921 185.116 458.921 129.212C458.921 73.3076 413.539 27.9882 357.556 27.9882C301.574 27.9882 256.192 73.3076 256.192 129.212C256.192 185.116 301.574 230.436 357.556 230.436Z" fill="#F08046"/>
</g>
<mask id="mask3_398_239" style="mask-type:alpha" maskUnits="userSpaceOnUse" x="256" y="27" width="203" height="204">
<g style="mix-blend-mode:multiply">
<path d="M357.556 230.436C413.539 230.436 458.921 185.116 458.921 129.212C458.921 73.3076 413.539 27.9882 357.556 27.9882C301.574 27.9882 256.192 73.3076 256.192 129.212C256.192 185.116 301.574 230.436 357.556 230.436Z" fill="#F08046"/>
</g>
</mask>
<g mask="url(#mask3_398_239)">
<g style="mix-blend-mode:multiply">
<g style="mix-blend-mode:multiply">
<path d="M367.528 177.133H347.585V188.976H367.528V177.133Z" fill="#F8BB94"/>
</g>
<g style="mix-blend-mode:multiply">
<path d="M348.735 185.977C351.086 183.629 354.124 182.309 357.453 182.052C360.302 181.846 365.16 182.446 366.687 179.481C366.927 179.018 367.219 178.658 367.545 178.401V177.133H347.602V187.365C347.945 186.885 348.305 186.405 348.752 185.977H348.735Z" fill="#C6C6C6"/>
</g>
<g style="mix-blend-mode:multiply">
<g style="mix-blend-mode:multiply">
<path d="M407.466 139.136C407.466 144.037 403.347 147.996 398.284 147.996C393.221 147.996 389.085 144.02 389.085 139.136C389.085 134.251 393.204 130.275 398.284 130.275C403.364 130.275 407.466 134.251 407.466 139.136Z" fill="#F8BB94"/>
</g>
<g style="mix-blend-mode:multiply">
<g style="mix-blend-mode:multiply">
<path d="M399.451 134.199C399.451 134.199 399.674 134.165 400.069 134.182C400.464 134.199 401.03 134.251 401.7 134.508C402.352 134.748 403.124 135.211 403.656 136.016C403.793 136.205 403.879 136.428 403.999 136.65C404.085 136.873 404.154 137.113 404.222 137.353L404.291 138.09C404.291 138.33 404.274 138.57 404.257 138.81C404.222 139.273 404.102 139.753 403.965 140.181C403.828 140.627 403.622 141.038 403.399 141.432C402.935 142.203 402.317 142.803 401.682 143.146C401.391 143.335 401.064 143.42 400.807 143.506C400.515 143.557 400.292 143.626 400.086 143.626C399.674 143.626 399.468 143.626 399.468 143.626C399.468 143.626 399.674 143.54 400.035 143.403C400.206 143.335 400.395 143.198 400.635 143.095C400.841 142.94 401.099 142.803 401.305 142.598C401.545 142.409 401.751 142.152 401.957 141.878C402.163 141.604 402.335 141.278 402.506 140.952C402.661 140.61 402.798 140.25 402.901 139.873C403.004 139.478 403.09 139.118 403.107 138.69L403.158 138.107L403.107 137.542C403.055 137.37 403.021 137.182 402.987 137.01C402.918 136.856 402.867 136.685 402.781 136.53C402.455 135.913 401.94 135.451 401.425 135.108C400.91 134.765 400.412 134.542 400.052 134.405C399.709 134.268 399.485 134.199 399.485 134.199H399.451Z" fill="#DADADA"/>
</g>
</g>
<g style="mix-blend-mode:multiply">
<path d="M400.653 139.564C400.653 140.507 399.983 141.278 399.159 141.278C398.336 141.278 397.666 140.507 397.666 139.564C397.666 138.621 398.336 137.85 399.159 137.85C399.983 137.85 400.653 138.621 400.653 139.564Z" fill="#DADADA"/>
</g>
</g>
<g style="mix-blend-mode:multiply">
<g style="mix-blend-mode:multiply">
<path d="M308.899 139.136C308.899 144.037 313.019 147.996 318.082 147.996C323.145 147.996 327.264 144.02 327.264 139.136C327.264 134.251 323.145 130.275 318.082 130.275C313.019 130.275 308.899 134.251 308.899 139.136Z" fill="#F8BB94"/>
</g>
<g style="mix-blend-mode:multiply">
<g style="mix-blend-mode:multiply">
<path d="M316.915 134.199C316.915 134.199 316.691 134.165 316.297 134.182C315.902 134.199 315.336 134.251 314.666 134.508C314.014 134.748 313.242 135.211 312.71 136.016C312.572 136.205 312.487 136.428 312.366 136.65C312.298 136.873 312.229 137.113 312.16 137.353L312.092 138.09C312.092 138.33 312.092 138.57 312.126 138.81C312.16 139.273 312.281 139.753 312.418 140.181C312.555 140.627 312.761 141.038 312.984 141.432C313.448 142.203 314.083 142.803 314.701 143.146C315.01 143.335 315.336 143.42 315.593 143.506C315.868 143.557 316.108 143.626 316.314 143.626C316.726 143.626 316.932 143.626 316.932 143.626C316.932 143.626 316.726 143.54 316.365 143.403C316.194 143.335 316.005 143.198 315.765 143.095C315.559 142.94 315.301 142.803 315.095 142.598C314.855 142.409 314.649 142.152 314.443 141.878C314.237 141.604 314.066 141.278 313.894 140.952C313.722 140.61 313.619 140.25 313.499 139.873C313.396 139.478 313.31 139.118 313.293 138.69L313.242 138.107L313.276 137.542C313.328 137.37 313.362 137.182 313.396 137.01C313.465 136.856 313.516 136.685 313.602 136.53C313.928 135.913 314.46 135.451 314.958 135.108C315.473 134.765 315.971 134.542 316.331 134.405C316.691 134.268 316.897 134.199 316.897 134.199H316.915Z" fill="#DADADA"/>
</g>
</g>
<g style="mix-blend-mode:multiply">
<path d="M315.73 139.564C315.73 140.507 316.4 141.278 317.223 141.278C318.047 141.278 318.717 140.507 318.717 139.564C318.717 138.621 318.047 137.85 317.223 137.85C316.4 137.85 315.73 138.621 315.73 139.564Z" fill="#DADADA"/>
</g>
</g>
<g style="mix-blend-mode:multiply">
<path d="M398.267 127.447C398.267 157.56 384.108 178.71 357.556 178.71C331.005 178.71 316.829 157.56 316.829 127.447C316.829 97.3332 331.52 72.9099 358.088 72.9099C384.657 72.9099 398.267 97.3332 398.267 127.447Z" fill="#F8BB94"/>
</g>
<g style="mix-blend-mode:multiply">
<path d="M347.979 188.479C347.979 188.479 322.681 191.821 313.602 199.671C304.334 207.675 301.605 214.599 298.258 230.419H416.837C413.491 214.599 410.762 207.675 401.494 199.671C392.397 191.821 367.116 188.479 367.116 188.479H347.979Z" fill="#F8BB94"/>
</g>
<g style="mix-blend-mode:multiply">
<path d="M334.541 191.05C334.541 191.05 337.27 189.902 327.281 193.038C330.027 217.856 325.547 230.418 325.547 230.418H390.853C384.519 209.372 390.853 194.066 390.853 194.066L384.811 191.89C384.811 191.89 384.245 222.123 357.127 220.015C357.127 220.015 333.631 222.312 334.524 191.05H334.541Z" fill="#00B1C3"/>
</g>
<g style="mix-blend-mode:multiply">
<path d="M343.672 71.9158C343.672 71.9158 314.495 72.9099 308.917 118.963C308.917 118.963 303.476 156.909 321.892 189.25C321.892 189.25 334.198 187.348 347.602 188.53V177.596C347.602 177.596 320.021 172.745 320.381 136.702C320.381 136.702 320.57 95.1051 341.732 87.2211L343.689 71.8987L343.672 71.9158Z" fill="#732400"/>
</g>
<g style="mix-blend-mode:multiply">
<path d="M371.441 71.9158C371.441 71.9158 404.531 71.4017 410.109 117.472C410.109 117.472 412.976 148.288 393.238 189.267C393.238 189.267 380.932 187.365 367.528 188.548V177.613C367.528 177.613 395.109 172.762 394.766 136.719C394.766 136.719 394.594 95.1222 373.398 87.2382L371.458 71.9158H371.441Z" fill="#732400"/>
</g>
<g style="mix-blend-mode:multiply">
<path d="M331.949 83.5876C331.949 83.5876 350.76 113.53 389.943 110.65L397.649 130.257L405.287 133.428C405.287 133.428 416.837 130.257 404.823 83.5876C404.823 83.5876 392.414 49.4636 347.567 59.6099C347.567 59.6099 325.221 63.6891 331.932 83.5876H331.949Z" fill="#732400"/>
</g>
</g>
</g>
</g>
</g>
<g style="mix-blend-mode:multiply">
<g style="mix-blend-mode:multiply">
<g style="mix-blend-mode:multiply">
<path d="M363.255 450.776C363.255 506.667 317.876 552 261.89 552C205.904 552 160.525 506.684 160.525 450.776C160.525 394.868 205.904 349.553 261.89 349.553C317.876 349.553 363.255 394.868 363.255 450.776Z" fill="#E74645"/>
</g>
<g style="mix-blend-mode:multiply">
<g style="mix-blend-mode:multiply">
<g style="mix-blend-mode:multiply">
<path d="M271.862 498.697H251.936V510.54H271.862V498.697Z" fill="#F8BB94"/>
</g>
<g style="mix-blend-mode:multiply">
<path d="M253.068 507.541C255.42 505.193 258.457 503.856 261.787 503.616C264.636 503.411 269.493 504.01 271.004 501.045C271.244 500.583 271.536 500.223 271.862 499.966V498.697H251.936V508.929C252.279 508.449 252.639 507.987 253.068 507.541V507.541Z" fill="#C6C6C6"/>
</g>
<g style="mix-blend-mode:multiply">
<g style="mix-blend-mode:multiply">
<path d="M311.817 460.7C311.817 465.602 307.698 469.561 302.635 469.561C297.572 469.561 293.436 465.584 293.436 460.7C293.436 455.815 297.555 451.839 302.635 451.839C307.715 451.839 311.817 455.815 311.817 460.7Z" fill="#F8BB94"/>
</g>
<g style="mix-blend-mode:multiply">
<g style="mix-blend-mode:multiply">
<path d="M303.802 455.764C303.802 455.764 304.025 455.729 304.42 455.747C304.815 455.747 305.381 455.815 306.05 456.072C306.703 456.312 307.475 456.775 308.007 457.581C308.144 457.769 308.23 457.992 308.35 458.215C308.436 458.437 308.505 458.677 308.556 458.917L308.642 459.654C308.642 459.894 308.625 460.134 308.608 460.391C308.573 460.854 308.453 461.334 308.316 461.762C308.179 462.208 307.973 462.619 307.749 463.014C307.286 463.785 306.651 464.385 306.033 464.728C305.741 464.916 305.415 465.002 305.158 465.087C304.866 465.139 304.643 465.207 304.437 465.207C304.042 465.207 303.819 465.207 303.819 465.207C303.819 465.207 304.025 465.122 304.386 464.967C304.557 464.899 304.763 464.762 304.986 464.659C305.192 464.505 305.45 464.368 305.656 464.162C305.896 463.973 306.102 463.716 306.308 463.442C306.514 463.168 306.685 462.859 306.857 462.517C307.029 462.174 307.132 461.814 307.252 461.437C307.355 461.043 307.441 460.683 307.458 460.254L307.509 459.671L307.475 459.106C307.423 458.934 307.389 458.746 307.355 458.575C307.286 458.42 307.235 458.249 307.149 458.095C306.823 457.478 306.308 457.015 305.793 456.672C305.261 456.329 304.763 456.124 304.42 455.969C304.077 455.832 303.853 455.764 303.853 455.764H303.802Z" fill="#DADADA"/>
</g>
</g>
<g style="mix-blend-mode:multiply">
<path d="M304.986 461.145C304.986 462.088 304.317 462.859 303.493 462.859C302.669 462.859 302 462.088 302 461.145C302 460.203 302.669 459.432 303.493 459.432C304.317 459.432 304.986 460.203 304.986 461.145Z" fill="#DADADA"/>
</g>
</g>
<g style="mix-blend-mode:multiply">
<g style="mix-blend-mode:multiply">
<path d="M213.25 460.7C213.25 465.602 217.369 469.561 222.432 469.561C227.496 469.561 231.632 465.584 231.632 460.7C231.632 455.815 227.513 451.839 222.432 451.839C217.352 451.839 213.25 455.815 213.25 460.7Z" fill="#F8BB94"/>
</g>
<g style="mix-blend-mode:multiply">
<g style="mix-blend-mode:multiply">
<path d="M221.248 455.764C221.248 455.764 221.025 455.729 220.63 455.747C220.236 455.747 219.669 455.815 219 456.072C218.348 456.312 217.575 456.775 217.043 457.581C216.906 457.769 216.82 457.992 216.7 458.215C216.614 458.437 216.546 458.677 216.477 458.917L216.408 459.654C216.408 459.894 216.408 460.134 216.443 460.391C216.477 460.854 216.597 461.334 216.734 461.762C216.872 462.208 217.078 462.619 217.301 463.014C217.764 463.785 218.399 464.385 219.017 464.728C219.309 464.916 219.635 465.002 219.909 465.087C220.184 465.139 220.424 465.207 220.63 465.207C221.025 465.207 221.248 465.207 221.248 465.207C221.248 465.207 221.042 465.122 220.682 464.967C220.51 464.899 220.304 464.762 220.081 464.659C219.875 464.505 219.618 464.368 219.412 464.162C219.189 463.973 218.965 463.716 218.76 463.442C218.554 463.168 218.382 462.859 218.21 462.517C218.039 462.174 217.936 461.814 217.816 461.437C217.713 461.043 217.627 460.683 217.61 460.254L217.558 459.671L217.592 459.106C217.644 458.934 217.678 458.746 217.713 458.575C217.781 458.42 217.833 458.249 217.919 458.095C218.245 457.478 218.76 457.015 219.274 456.672C219.789 456.329 220.287 456.124 220.647 455.969C221.008 455.832 221.214 455.764 221.214 455.764H221.248Z" fill="#DADADA"/>
</g>
</g>
<g style="mix-blend-mode:multiply">
<path d="M220.064 461.145C220.064 462.088 220.733 462.859 221.557 462.859C222.381 462.859 223.05 462.088 223.05 461.145C223.05 460.203 222.381 459.432 221.557 459.432C220.733 459.432 220.064 460.203 220.064 461.145Z" fill="#DADADA"/>
</g>
</g>
<g style="mix-blend-mode:multiply">
<path d="M302.618 449.011C302.618 479.124 288.476 500.274 261.89 500.274C235.305 500.274 221.179 479.124 221.179 449.011C221.179 418.898 235.871 394.474 262.439 394.474C289.008 394.474 302.618 418.898 302.618 449.011Z" fill="#F8BB94"/>
</g>
<g style="mix-blend-mode:multiply">
<path d="M252.33 510.043C252.33 510.043 227.032 513.386 217.953 521.235C208.685 529.239 205.939 536.163 202.609 551.983H321.188C317.841 536.163 315.112 529.239 305.844 521.235C296.748 513.386 271.467 510.043 271.467 510.043H252.33Z" fill="#F8BB94"/>
</g>
<g style="mix-blend-mode:multiply">
<path d="M283.739 512.34C291.513 514.14 300.987 517.053 305.844 521.235C315.112 529.239 317.841 536.163 321.188 551.983H202.609C205.939 536.163 208.685 529.239 217.953 521.235C222.947 516.916 232.833 513.968 240.711 512.186L261.89 534.981L283.721 512.34H283.739Z" fill="#881719"/>
</g>
<g style="mix-blend-mode:multiply">
<path d="M248.022 393.497C248.022 393.497 218.845 394.491 213.25 440.544C213.25 440.544 212.169 480.101 212.169 526.891C212.169 526.891 218.845 515.202 251.936 510.095V499.16C251.936 499.16 224.337 494.31 224.698 458.283C224.698 458.283 224.887 416.687 246.066 408.803L248.022 393.48V393.497Z" fill="#432918"/>
</g>
<g style="mix-blend-mode:multiply">
<path d="M275.792 393.497C275.792 393.497 308.934 391.835 314.529 437.888C314.529 437.888 315.181 478.764 311.817 527.371C311.817 527.371 302.635 514.26 271.879 510.112V499.177C271.879 499.177 299.46 494.327 299.117 458.3C299.117 458.3 298.945 416.704 277.749 408.82L275.809 393.497H275.792Z" fill="#432918"/>
</g>
<g style="mix-blend-mode:multiply">
<path d="M257.393 437.888L261.513 417.252V437.888H281.971L285.352 423.371L288.888 437.888H314.529C314.529 423.182 311.817 411.356 311.817 411.356C311.817 411.356 304.986 379.255 256.861 382.1C256.861 382.1 216.305 382.1 213.37 437.888H257.393V437.888Z" fill="#432918"/>
</g>
</g>
</g>
</g>
</g>
<g style="mix-blend-mode:multiply">
<g style="mix-blend-mode:multiply">
<path d="M363.255 274.055C363.255 329.963 317.876 375.279 261.89 375.279C205.904 375.279 160.525 329.963 160.525 274.055C160.525 218.147 205.904 172.831 261.89 172.831C317.876 172.831 363.255 218.147 363.255 274.055Z" fill="#F9B233"/>
<mask id="mask4_398_239" style="mask-type:alpha" maskUnits="userSpaceOnUse" x="160" y="172" width="204" height="204">
<path d="M363.255 274.055C363.255 329.963 317.876 375.279 261.89 375.279C205.904 375.279 160.525 329.963 160.525 274.055C160.525 218.147 205.904 172.831 261.89 172.831C317.876 172.831 363.255 218.147 363.255 274.055Z" fill="#F9B233"/>
</mask>
<g mask="url(#mask4_398_239)">
<g style="mix-blend-mode:multiply">
<g style="mix-blend-mode:multiply">
<path d="M271.879 321.993H251.935V333.836H271.879V321.993Z" fill="#F8BB94"/>
</g>
<g style="mix-blend-mode:multiply">
<path d="M253.068 330.82C255.419 328.472 258.457 327.152 261.787 326.895C264.636 326.689 269.493 327.289 271.021 324.324C271.261 323.861 271.553 323.501 271.879 323.244V321.976H251.935V332.208C252.279 331.728 252.639 331.265 253.068 330.82Z" fill="#C6C6C6"/>
</g>
<g style="mix-blend-mode:multiply">
<g style="mix-blend-mode:multiply">
<path d="M311.817 283.978C311.817 288.863 307.698 292.839 302.635 292.839C297.572 292.839 293.435 288.863 293.435 283.978C293.435 279.094 297.554 275.117 302.635 275.117C307.715 275.117 311.817 279.094 311.817 283.978Z" fill="#F8BB94"/>
</g>
<g style="mix-blend-mode:multiply">
<g style="mix-blend-mode:multiply">
<path d="M303.802 279.042C303.802 279.042 304.025 279.008 304.42 279.025C304.814 279.025 305.398 279.094 306.05 279.351C306.702 279.591 307.475 280.053 308.007 280.859C308.144 281.047 308.23 281.287 308.35 281.493C308.436 281.716 308.504 281.956 308.556 282.196L308.642 282.933C308.642 283.173 308.607 283.413 308.607 283.653C308.573 284.115 308.453 284.595 308.316 285.041C308.178 285.487 307.972 285.898 307.749 286.292C307.286 287.063 306.668 287.663 306.016 288.006C305.724 288.194 305.398 288.28 305.123 288.366C304.849 288.417 304.608 288.486 304.403 288.486C304.008 288.486 303.785 288.486 303.785 288.486C303.785 288.486 303.991 288.4 304.351 288.263C304.523 288.194 304.729 288.057 304.952 287.955C305.158 287.8 305.415 287.663 305.621 287.44C305.844 287.252 306.067 286.995 306.273 286.721C306.479 286.446 306.651 286.121 306.805 285.795C306.96 285.452 307.097 285.092 307.2 284.715C307.303 284.321 307.389 283.961 307.406 283.533L307.458 282.95L307.423 282.384C307.372 282.213 307.337 282.024 307.303 281.853C307.234 281.699 307.183 281.51 307.097 281.373C306.771 280.756 306.256 280.293 305.741 279.951C305.209 279.608 304.711 279.385 304.368 279.248C304.008 279.111 303.802 279.042 303.802 279.042V279.042Z" fill="#DADADA"/>
</g>
</g>
<g style="mix-blend-mode:multiply">
<path d="M304.986 284.424C304.986 285.367 304.317 286.138 303.493 286.138C302.669 286.138 302 285.367 302 284.424C302 283.481 302.669 282.71 303.493 282.71C304.317 282.71 304.986 283.481 304.986 284.424Z" fill="#DADADA"/>
</g>
</g>
<g style="mix-blend-mode:multiply">
<g style="mix-blend-mode:multiply">
<path d="M213.25 283.978C213.25 288.863 217.369 292.839 222.432 292.839C227.495 292.839 231.632 288.863 231.632 283.978C231.632 279.094 227.512 275.117 222.432 275.117C217.352 275.117 213.25 279.094 213.25 283.978Z" fill="#F8BB94"/>
</g>
<g style="mix-blend-mode:multiply">
<g style="mix-blend-mode:multiply">
<path d="M221.265 279.042C221.265 279.042 221.042 279.008 220.647 279.025C220.252 279.025 219.686 279.094 219.017 279.351C218.364 279.591 217.592 280.053 217.06 280.859C216.923 281.047 216.837 281.287 216.717 281.493C216.631 281.716 216.562 281.956 216.494 282.196L216.425 282.933C216.425 283.173 216.425 283.413 216.442 283.653C216.477 284.115 216.597 284.595 216.734 285.041C216.871 285.487 217.077 285.898 217.3 286.292C217.764 287.063 218.399 287.663 219.034 288.006C219.326 288.194 219.652 288.28 219.926 288.366C220.201 288.417 220.441 288.486 220.647 288.486C221.042 288.486 221.265 288.486 221.265 288.486C221.265 288.486 221.059 288.4 220.699 288.263C220.527 288.194 220.338 288.057 220.098 287.955C219.892 287.8 219.652 287.663 219.429 287.44C219.205 287.252 218.982 286.995 218.776 286.721C218.57 286.446 218.399 286.121 218.244 285.795C218.09 285.452 217.953 285.092 217.85 284.715C217.747 284.321 217.661 283.961 217.644 283.533L217.592 282.95L217.626 282.384C217.678 282.213 217.712 282.024 217.747 281.853C217.815 281.699 217.867 281.51 217.953 281.373C218.279 280.756 218.811 280.293 219.308 279.951C219.823 279.608 220.321 279.385 220.681 279.248C221.042 279.111 221.248 279.042 221.248 279.042H221.265Z" fill="#DADADA"/>
</g>
</g>
<g style="mix-blend-mode:multiply">
<path d="M220.064 284.424C220.064 285.367 220.733 286.138 221.557 286.138C222.381 286.138 223.05 285.367 223.05 284.424C223.05 283.481 222.381 282.71 221.557 282.71C220.733 282.71 220.064 283.481 220.064 284.424Z" fill="#DADADA"/>
</g>
</g>
<g style="mix-blend-mode:multiply">
<path d="M302.618 272.289C302.618 302.403 288.458 323.553 261.89 323.553C235.322 323.553 221.179 302.403 221.179 272.289C221.179 242.176 235.871 217.753 262.439 217.753C289.007 217.753 302.618 242.176 302.618 272.289Z" fill="#F8BB94"/>
</g>
<g style="mix-blend-mode:multiply">
<path d="M252.33 333.339C252.33 333.339 227.032 336.681 217.953 344.531C208.685 352.535 205.956 359.459 202.609 375.279H321.188C317.858 359.459 315.112 352.535 305.844 344.531C296.748 336.681 271.45 333.339 271.45 333.339H252.313H252.33Z" fill="#F8BB94"/>
</g>
<g style="mix-blend-mode:multiply">
<path d="M242.616 335.07C242.616 335.07 227.049 336.681 217.953 344.531C208.685 352.535 205.956 359.459 202.609 375.278H321.188C317.858 359.459 315.112 352.535 305.844 344.531C296.748 336.681 281.25 335.087 281.25 335.087L261.89 354.317L242.599 335.07H242.616Z" fill="#373C47"/>
</g>
<g style="mix-blend-mode:multiply">
<path d="M220.064 255.733L221.54 280.311L225.144 281.322C221.986 241.645 242.908 232.561 242.908 232.561L248.76 207.726C230.876 207.298 223.05 221.9 223.05 221.9C223.05 221.9 216.425 228.619 220.064 255.716V255.733Z" fill="#432918"/>
</g>
<g style="mix-blend-mode:multiply">
<path d="M220.27 258.921C220.27 258.921 219.532 255.819 218.897 251.157C218.553 248.826 218.244 246.101 217.97 243.17C217.85 241.713 217.678 240.205 217.609 238.662C217.558 237.891 217.524 237.12 217.472 236.349L217.438 235.766V235.029L217.472 233.863C217.472 233.109 217.627 232.235 217.764 231.378C217.884 230.504 218.09 229.699 218.313 228.91C218.433 228.516 218.519 228.105 218.639 227.728L219.085 226.596C219.36 225.842 219.703 225.123 220.064 224.437C220.407 223.734 220.767 223.066 221.179 222.449C221.574 221.815 221.986 221.232 222.415 220.666C223.239 219.518 224.131 218.541 224.989 217.701C225.83 216.827 226.671 216.107 227.444 215.507C228.199 214.89 228.92 214.411 229.503 214.033C230.688 213.279 231.408 212.954 231.408 212.954C231.408 212.954 229.16 215.233 226.551 219.004C226.225 219.467 225.899 219.964 225.59 220.495C225.264 221.009 224.921 221.54 224.629 222.123C224.303 222.689 223.994 223.271 223.719 223.889C223.428 224.488 223.119 225.105 222.878 225.757C222.604 226.391 222.346 227.042 222.158 227.728C221.934 228.396 221.728 229.082 221.574 229.784C221.385 230.487 221.231 231.173 221.162 231.858C221.059 232.544 220.956 233.195 220.956 234.018L220.887 235.183V235.629H220.87C220.87 235.629 220.87 235.372 220.87 235.509V236.212C220.922 236.983 220.939 237.771 220.973 238.542C221.042 240.085 221.008 241.593 221.025 243.067C221.025 245.998 220.973 248.74 220.853 251.105C220.647 255.819 220.201 258.972 220.201 258.972L220.27 258.921Z" fill="#2A1807"/>
</g>
<g style="mix-blend-mode:multiply">
<path d="M240.488 234.018C240.488 234.018 253.068 255.682 293.418 254.568C293.418 254.568 285.867 245.655 289.625 241.422C289.625 241.422 250.528 222.86 240.47 234.018H240.488Z" fill="#C6C6C6"/>
</g>
<g style="mix-blend-mode:multiply">
<path d="M303.424 260.549L301.948 285.127L298.361 286.138C301.519 246.461 280.597 237.394 280.597 237.394L274.745 212.56C292.629 212.131 300.455 226.734 300.455 226.734C300.455 226.734 307.08 233.452 303.424 260.549V260.549Z" fill="#432918"/>
</g>
<g style="mix-blend-mode:multiply">
<path d="M233.863 211.377C233.863 211.377 239.664 199.568 260.5 196.346C260.5 196.346 295.169 192.181 306.222 216.21C306.222 216.21 311.817 227.779 309.792 248.123C309.792 248.123 307.698 238.971 302.017 235.92C302.017 235.92 301.073 246.752 286.107 240.085C286.107 240.085 283.721 244.524 288.956 252.425C288.956 252.425 240.505 252.425 233.88 211.377H233.863Z" fill="#432918"/>
</g>
<g style="mix-blend-mode:multiply">
<path d="M233.863 211.377C233.863 211.377 234.326 210.109 235.682 208.189C236.386 207.246 237.261 206.098 238.462 204.967C239.029 204.367 239.715 203.819 240.402 203.184C241.123 202.619 241.912 202.002 242.753 201.436C244.452 200.305 246.357 199.14 248.52 198.231C250.648 197.254 252.982 196.414 255.454 195.763C256.672 195.369 257.959 195.198 259.247 194.889L260.208 194.683L261.289 194.546C261.958 194.478 262.628 194.443 263.297 194.409C265.975 194.272 268.686 194.289 271.381 194.461C274.093 194.666 276.787 195.026 279.413 195.558C282.039 196.072 284.579 196.843 286.982 197.751C289.385 198.643 291.616 199.774 293.624 200.991C295.666 202.19 297.4 203.613 298.893 205.001C300.403 206.389 301.605 207.846 302.566 209.183C303.527 210.52 304.248 211.771 304.763 212.817C305.329 213.845 305.621 214.719 305.844 215.302C306.067 215.885 306.187 216.193 306.187 216.193C306.187 216.193 306.016 215.919 305.672 215.388C305.346 214.856 304.866 214.102 304.162 213.177C303.51 212.234 302.6 211.188 301.519 210.023C300.97 209.457 300.386 208.858 299.717 208.292C299.065 207.692 298.344 207.109 297.589 206.527C296.044 205.395 294.293 204.247 292.337 203.27C290.38 202.276 288.218 201.419 285.952 200.665C283.67 199.911 281.25 199.38 278.761 198.9C276.272 198.437 273.715 198.146 271.141 197.974C268.566 197.768 265.974 197.717 263.452 197.803C262.817 197.837 262.199 197.871 261.564 197.906L260.723 197.957L259.796 198.111C258.577 198.334 257.342 198.454 256.192 198.763C253.84 199.294 251.575 199.859 249.515 200.631C249 200.819 248.485 201.008 247.988 201.196C247.49 201.402 247.009 201.625 246.546 201.83C245.568 202.208 244.692 202.705 243.834 203.133C242.135 204.059 240.625 205.001 239.372 205.944C238.102 206.887 237.072 207.812 236.248 208.6C235.442 209.423 234.824 210.074 234.446 210.571C234.051 211.051 233.88 211.343 233.88 211.343L233.863 211.377Z" fill="#2A1807"/>
</g>
</g>
</g>
</g>
</g>
<path d="M248.554 14.0027C248.554 21.7324 242.29 28.0053 234.532 28.0053C226.774 28.0053 220.51 21.7324 220.51 14.0027C220.51 6.27292 226.792 0 234.532 0C242.273 0 248.554 6.27292 248.554 14.0027Z" fill="#1DB2A8"/>
<path d="M271.501 46.4127C271.501 51.7087 267.21 55.9935 261.907 55.9935C256.604 55.9935 252.313 51.7087 252.313 46.4127C252.313 41.1168 256.604 36.832 261.907 36.832C267.21 36.832 271.501 41.1168 271.501 46.4127V46.4127Z" fill="#E74645"/>
<path d="M307.664 16.7621C307.664 26.0172 300.146 33.5241 290.861 33.5241C281.576 33.5241 274.076 26.0172 274.076 16.7621C274.076 7.50694 281.593 0 290.861 0C300.129 0 307.664 7.50694 307.664 16.7621Z" fill="#F9B233"/>
<path d="M482.709 181.915C489.608 181.915 495.186 187.502 495.186 194.375C495.186 201.248 489.591 206.835 482.709 206.835C475.827 206.835 470.231 201.248 470.231 194.375C470.231 187.502 475.809 181.915 482.709 181.915Z" fill="#1DB2A8"/>
<path d="M511.611 161.502C516.331 161.502 520.159 165.324 520.159 170.037C520.159 174.751 516.331 178.573 511.611 178.573C506.892 178.573 503.064 174.751 503.064 170.037C503.064 165.324 506.892 161.502 511.611 161.502Z" fill="#E74645"/>
<path d="M485.18 129.332C493.436 129.332 500.129 136.016 500.129 144.26C500.129 152.504 493.436 159.188 485.18 159.188C476.925 159.188 470.231 152.504 470.231 144.26C470.231 136.016 476.925 129.332 485.18 129.332V129.332Z" fill="#F9B233"/>
<path d="M28.954 190.399C35.064 193.586 37.4325 201.111 34.2402 207.212C31.0479 213.314 23.5133 215.679 17.4033 212.508C11.2933 209.32 8.92481 201.796 12.1 195.695C15.2923 189.593 22.8268 187.211 28.9368 190.399H28.954Z" fill="#1DB2A8"/>
<path d="M64.0353 185.651C68.223 187.828 69.8363 192.987 67.6566 197.169C65.4769 201.35 60.3109 202.962 56.1403 200.785C51.9525 198.608 50.3392 193.449 52.5189 189.285C54.6986 185.103 59.8647 183.492 64.0524 185.668L64.0353 185.651Z" fill="#E74645"/>
<path d="M55.488 144.911C62.7995 148.716 65.6485 157.749 61.8212 165.05C58.011 172.368 48.9661 175.196 41.6547 171.374C34.3261 167.569 31.4942 158.554 35.3044 151.236C39.1145 143.917 48.1594 141.089 55.4709 144.894L55.488 144.911Z" fill="#F9B233"/>
<path d="M125.976 478.799C132.001 475.439 139.604 477.599 142.951 483.615C146.315 489.631 144.152 497.223 138.128 500.583C132.104 503.942 124.5 501.765 121.154 495.766C117.79 489.751 119.952 482.158 125.976 478.816V478.799Z" fill="#1DB2A8"/>
<path d="M141.268 446.92C145.388 444.623 150.588 446.097 152.888 450.228C155.188 454.341 153.712 459.534 149.593 461.831C145.473 464.128 140.256 462.654 137.973 458.54C135.673 454.427 137.149 449.216 141.268 446.937V446.92Z" fill="#E74645"/>
<path d="M102.497 431.666C109.706 427.655 118.819 430.243 122.836 437.442C126.852 444.64 124.26 453.741 117.052 457.752C109.826 461.762 100.73 459.191 96.7135 451.976C92.6974 444.777 95.2718 435.677 102.497 431.666V431.666Z" fill="#F9B233"/>
<path d="M393.53 461.214C396.894 467.23 394.732 474.823 388.707 478.165C382.683 481.507 375.08 479.364 371.733 473.349C368.369 467.333 370.532 459.74 376.556 456.398C382.58 453.039 390.183 455.198 393.53 461.214V461.214Z" fill="#1DB2A8"/>
<path d="M425.47 476.502C427.77 480.616 426.294 485.809 422.158 488.105C418.039 490.402 412.838 488.928 410.539 484.815C408.239 480.701 409.715 475.508 413.834 473.211C417.953 470.915 423.171 472.389 425.453 476.502H425.47Z" fill="#E74645"/>
<path d="M440.746 437.768C444.762 444.966 442.17 454.067 434.962 458.078C427.736 462.088 418.64 459.5 414.624 452.302C410.607 445.103 413.199 436.002 420.407 431.992C427.616 427.981 436.729 430.569 440.746 437.768Z" fill="#F9B233"/>
</g>
<defs>
<clipPath id="clip0_398_239">
<rect width="536" height="552" fill="white"/>
</clipPath>
</defs>
</svg>
