<?xml version="1.0" encoding="utf-8"?>
<!-- Generator: Adobe Illustrator 26.3.1, SVG Export Plug-In . SVG Version: 6.00 Build 0)  -->
<svg version="1.1" id="Layer_1" xmlns="http://www.w3.org/2000/svg" xmlns:xlink="http://www.w3.org/1999/xlink" x="0px" y="0px"
	 viewBox="0 0 388 306" style="enable-background:new 0 0 388 306;" xml:space="preserve">
<style type="text/css">
	.st0{opacity:0.8;}
	.st1{fill:#FFFFFF;fill-opacity:0.1;filter:url(#Adobe_OpacityMaskFilter);}
	.st2{mask:url(#mask0_341_142_00000076604059111683465010000010598307110238099102_);}
	.st3{fill-rule:evenodd;clip-rule:evenodd;fill:url(#SVGID_1_);fill-opacity:0.6;}
	
		.st4{fill-rule:evenodd;clip-rule:evenodd;fill:url(#SVGID_00000044863076982966491730000001036757834553143741_);fill-opacity:0.6;}
</style>
<g class="st0">
	<defs>
		<filter id="Adobe_OpacityMaskFilter" filterUnits="userSpaceOnUse" x="-58.6" y="-85.8" width="496.1" height="438.5">
			<feColorMatrix  type="matrix" values="1 0 0 0 0  0 1 0 0 0  0 0 1 0 0  0 0 0 1 0"/>
		</filter>
	</defs>
	
		<mask maskUnits="userSpaceOnUse" x="-58.6" y="-85.8" width="496.1" height="438.5" id="mask0_341_142_00000076604059111683465010000010598307110238099102_">
		<path class="st1" d="M37.5-6h343.1c12.6,0,22.9,10.2,22.9,22.9v244.8c0,12.6-10.2,22.9-22.9,22.9H37.5
			c-12.6,0-22.9-10.2-22.9-22.9V16.9C14.6,4.3,24.8-6,37.5-6z"/>
	</mask>
	<g class="st2">
		
			<linearGradient id="SVGID_1_" gradientUnits="userSpaceOnUse" x1="79.2558" y1="422.6694" x2="70.4406" y2="131.4485" gradientTransform="matrix(1 0 0 -1 0 308)">
			<stop  offset="0" style="stop-color:#8000FF"/>
			<stop  offset="1" style="stop-color:#DEAD00"/>
		</linearGradient>
		<path class="st3" d="M39.9,175.6c70.9,19,143.8-23.1,162.8-94c19-70.9-23.1-143.8-94-162.8c-70.9-19-143.8,23.1-162.8,94
			C-73.1,83.7-31,156.6,39.9,175.6z M50.1,137.9c50.1,13.4,101.5-16.3,114.9-66.4C178.4,21.4,148.7-30,98.6-43.4
			C48.6-56.8-2.9-27.1-16.3,22.9C-29.7,73,0,124.4,50.1,137.9z"/>
		
			<linearGradient id="SVGID_00000047054045958843939510000006527450085738574986_" gradientUnits="userSpaceOnUse" x1="354.3511" y1="146.656" x2="348.629" y2="-42.3822" gradientTransform="matrix(1 0 0 -1 0 308)">
			<stop  offset="0" style="stop-color:#8000FF"/>
			<stop  offset="1" style="stop-color:#DEAD00"/>
		</linearGradient>
		
			<path style="fill-rule:evenodd;clip-rule:evenodd;fill:url(#SVGID_00000047054045958843939510000006527450085738574986_);fill-opacity:0.6;" d="
			M328.8,349.8c46,12.3,93.4-15,105.7-61c12.3-46-15-93.4-61-105.7c-46-12.3-93.4,15-105.7,61C255.5,290.1,282.8,337.4,328.8,349.8z
			 M335.4,325.3c32.5,8.7,65.9-10.6,74.6-43.1c8.7-32.5-10.6-65.9-43.1-74.6c-32.5-8.7-65.9,10.6-74.6,43.1
			C283.6,283.2,302.9,316.6,335.4,325.3z"/>
	</g>
</g>
</svg>
