<svg width="24" height="24" viewBox="0 0 24 24" fill="none" xmlns="http://www.w3.org/2000/svg">
<path fill-rule="evenodd" clip-rule="evenodd" d="M9.42888 8.969H13.1429V10.819C13.6779 9.755 15.0499 8.799 17.1109 8.799C21.0619 8.799 21.9999 10.917 21.9999 14.803V22H17.9999V15.688C17.9999 13.475 17.4649 12.227 16.1029 12.227C14.2139 12.227 13.4289 13.572 13.4289 15.687V22H9.42888V8.969ZM2.56988 21.83H6.56988V8.799H2.56988V21.83ZM7.14288 4.55C7.14303 4.88528 7.07653 5.21724 6.94727 5.52659C6.818 5.83594 6.62853 6.11651 6.38988 6.352C5.90628 6.83262 5.25169 7.10165 4.56988 7.1C3.88927 7.09954 3.23619 6.8312 2.75188 6.353C2.51409 6.11671 2.32526 5.83582 2.19622 5.52643C2.06718 5.21704 2.00046 4.88522 1.99988 4.55C1.99988 3.873 2.26988 3.225 2.75288 2.747C3.23676 2.26816 3.89012 1.9997 4.57088 2C5.25288 2 5.90688 2.269 6.38988 2.747C6.87188 3.225 7.14288 3.873 7.14288 4.55Z" fill="black"/>
</svg>
