<svg width="24" height="24" viewBox="0 0 24 24" fill="none" xmlns="http://www.w3.org/2000/svg">
<mask id="mask0_175_39" style="mask-type:alpha" maskUnits="userSpaceOnUse" x="-1" y="0" width="25" height="25">
<rect x="-0.00012207" y="0.000244141" width="24" height="24" fill="#C4C4C4"/>
</mask>
<g mask="url(#mask0_175_39)">
<path d="M4.45008 19.0006C4.05008 19.0006 3.70828 18.8588 3.42468 18.5752C3.14148 18.292 2.99988 17.9504 2.99988 17.5504V6.45044C2.99988 6.05044 3.14148 5.70884 3.42468 5.42564C3.70828 5.14204 4.05008 5.00024 4.45008 5.00024H19.5497C19.9497 5.00024 20.2915 5.14204 20.5751 5.42564C20.8583 5.70884 20.9999 6.05044 20.9999 6.45044V17.5504C20.9999 17.9504 20.8583 18.292 20.5751 18.5752C20.2915 18.8588 19.9497 19.0006 19.5497 19.0006H4.45008ZM11.9999 11.9506L3.85008 6.52544V17.5504C3.85008 17.7172 3.90828 17.8588 4.02468 17.9752C4.14148 18.092 4.28328 18.1504 4.45008 18.1504H19.5497C19.7165 18.1504 19.8583 18.092 19.9751 17.9752C20.0915 17.8588 20.1497 17.7172 20.1497 17.5504V6.52544L11.9999 11.9506ZM11.9999 10.9756L19.8251 5.85044H4.19988L11.9999 10.9756ZM3.85008 17.5504C3.85008 17.7172 3.90828 17.8588 4.02468 17.9752C4.14148 18.092 4.28328 18.1504 4.45008 18.1504H3.85008C3.85008 18.1504 3.85008 18.092 3.85008 17.9752C3.85008 17.8588 3.85008 17.7172 3.85008 17.5504Z" fill="black"/>
</g>
</svg>
