<svg width="24" height="24" viewBox="0 0 24 24" fill="none" xmlns="http://www.w3.org/2000/svg">
<path d="M20.9399 17.46H19.8299C19.7699 17.98 19.4299 18.63 18.5799 18.63C17.7999 18.63 17.2399 18.09 16.6999 17.27C17.5916 16.5883 18.3124 15.7085 18.8054 14.7001C19.2983 13.6917 19.5498 12.5824 19.5399 11.46C19.5399 7 15.8599 4 12.0099 4C8.20988 4 4.49988 7.03 4.49988 11.47C4.49988 15.87 8.20988 18.9 12.0099 18.9C12.6699 18.9 13.3299 18.81 13.9599 18.64C14.6999 19.91 15.6899 21 17.5599 21C20.6599 21 21.0099 18.14 20.9399 17.46ZM15.4899 15.28C14.7599 14.17 13.8299 13.3 12.0299 13.3C10.8699 13.3 9.96988 13.68 9.40988 14.16L9.86988 15.08C10.1099 14.97 10.3599 14.93 10.6199 14.93C11.9699 14.93 12.6599 16.1 13.2499 17.26C12.8699 17.37 12.4599 17.42 12.0099 17.42C9.15988 17.42 7.92988 15.41 7.92988 11.47C7.92988 7.51 9.15988 5.48 12.0099 5.48C14.8999 5.48 16.1399 7.51 16.1399 11.47C16.1299 13.05 15.9299 14.33 15.4899 15.28Z" fill="black"/>
</svg>
