<svg width="24" height="24" viewBox="0 0 24 24" fill="none" xmlns="http://www.w3.org/2000/svg">
<path d="M8.93988 18.705C10.2067 18.713 11.4626 18.4693 12.6345 17.9882C13.8065 17.507 14.8713 16.798 15.7671 15.9022C16.6629 15.0064 17.3719 13.9416 17.8531 12.7696C18.3342 11.5977 18.5778 10.3418 18.5699 9.07499V8.63249C19.2266 8.15135 19.795 7.56012 20.2499 6.88499C19.6315 7.15543 18.9772 7.3348 18.3074 7.41749C19.0176 6.99432 19.5504 6.32824 19.8074 5.54249C19.1455 5.93957 18.4197 6.21871 17.6624 6.36749C17.1523 5.82401 16.4774 5.46378 15.742 5.34253C15.0066 5.22128 14.2517 5.34576 13.5942 5.69673C12.9367 6.04769 12.4131 6.60557 12.1046 7.28405C11.796 7.96252 11.7197 8.72376 11.8874 9.44999C10.5419 9.38395 9.22541 9.03525 8.02365 8.42662C6.82188 7.81798 5.76178 6.96305 4.91238 5.91749C4.48407 6.66087 4.35425 7.53923 4.5492 8.37473C4.74415 9.21023 5.2493 9.94043 5.96238 10.4175C5.43634 10.3972 4.92247 10.2533 4.46238 9.99749V10.035C4.4577 10.8119 4.71942 11.5669 5.20391 12.1742C5.68839 12.7815 6.36638 13.2044 7.12488 13.3725C6.63561 13.5041 6.1231 13.5246 5.62488 13.4325C5.84447 14.095 6.26364 14.6734 6.82491 15.0883C7.38619 15.5032 8.06207 15.7344 8.75988 15.75C7.56679 16.7104 6.08395 17.239 4.55238 17.25C4.28384 17.2422 4.01594 17.2197 3.74988 17.1825C5.30009 18.1702 7.10178 18.6909 8.93988 18.6825" fill="black"/>
</svg>
