<svg width="180" height="30" viewBox="0 0 180 30" fill="none" xmlns="http://www.w3.org/2000/svg">
    <path fill-rule="evenodd" clip-rule="evenodd" d="M17.1007 9.71C16.2564 10.4615 16.1975 11.7469 16.9436 12.5973C16.9632 12.6171 16.9632 12.6368 16.9829 12.6368C17.7682 13.4674 19.064 13.507 19.8886 12.7159C20.7132 11.9249 20.7525 10.6197 19.9672 9.7891C19.2014 8.97829 17.9253 8.93874 17.1007 9.71ZM12.5457 12.9137C11.7211 13.7047 10.4253 13.6652 9.63993 12.8346C8.85459 12.004 8.89386 10.679 9.71846 9.90776C10.5431 9.1365 11.8389 9.15627 12.6242 9.98686C13.4096 10.8174 13.3703 12.1227 12.5457 12.9137ZM13.2329 16.8491C14.136 17.8181 15.6674 17.8774 16.6295 16.9677L16.6491 16.948C17.6308 16.0185 17.67 14.4562 16.7473 13.4674C15.8245 12.4786 14.2734 12.4391 13.2918 13.3685C12.3297 14.298 12.2905 15.8207 13.1936 16.8095C13.2132 16.8095 13.2132 16.8293 13.2329 16.8491ZM9.40433 17.0666C8.59935 17.8379 8.54045 19.1233 9.30616 19.9341L9.32579 19.9539C10.1111 20.7647 11.3873 20.8043 12.1923 20.033C12.9973 19.2617 13.0562 17.9763 12.2905 17.1655L12.2708 17.1457C11.5444 16.3349 10.2878 16.2756 9.46323 17.0073C9.4436 17.0271 9.42396 17.0468 9.40433 17.0666ZM19.8101 20.6263C19.0051 21.3975 17.7289 21.3778 16.9436 20.567C16.9436 20.567 16.9436 20.567 16.924 20.5472C16.1583 19.7561 16.1583 18.4905 16.9436 17.7192C16.9632 17.6995 16.9829 17.6797 17.0025 17.6599C17.8075 16.8886 19.0836 16.9084 19.8494 17.7192L19.869 17.739C20.6543 18.5696 20.6151 19.855 19.8101 20.6263ZM5.26166 1.06794C5.02606 0.810854 5.04569 0.435113 5.28129 0.197802C5.53653 -0.059284 5.9292 -0.059284 6.18443 0.178026C6.43967 0.435113 6.42003 0.850406 6.1648 1.10749L6.14517 1.12727C5.88993 1.3448 5.47763 1.32503 5.26166 1.06794ZM23.9331 0.316458C24.208 0.0791471 24.6007 0.118699 24.8363 0.375785C25.0522 0.632872 25.0522 1.00861 24.8166 1.24592C24.581 1.50301 24.1687 1.50301 23.9135 1.2657C23.6583 1.02839 23.6583 0.613096 23.8939 0.356009C23.9135 0.336233 23.9135 0.336233 23.9331 0.316458ZM1.55093 2.07651C1.29569 1.74032 1.33496 1.2657 1.64909 1.00861C1.96323 0.751527 2.45407 0.791078 2.7093 1.10749C2.96454 1.42391 2.92527 1.85898 2.6504 2.13584C2.33627 2.43248 1.84543 2.39292 1.55093 2.07651ZM27.742 1.54256C28.0365 1.24592 28.5077 1.24592 28.8022 1.52279C29.0967 1.79965 29.0967 2.29404 28.8219 2.59068C28.8022 2.61046 28.8022 2.61046 28.7826 2.63023C28.5077 2.94665 28.0169 2.96642 27.7224 2.68956C27.4083 2.4127 27.3886 1.9183 27.6635 1.62167C27.6831 1.60189 27.7224 1.58211 27.742 1.54256ZM21.3611 2.19517C21.6753 1.9183 22.1465 1.9183 22.4213 2.21494C22.7355 2.51158 22.7355 3.02575 22.441 3.32239C22.1465 3.6388 21.636 3.6388 21.3219 3.34217C21.3022 3.32239 21.3022 3.32239 21.2826 3.30261C21.0077 2.9862 21.0274 2.4918 21.3611 2.19517ZM7.61768 3.36194C7.34281 3.02575 7.36244 2.53136 7.69621 2.25449C8.01035 1.97763 8.46192 1.97763 8.75642 2.27427C9.07056 2.57091 9.07056 3.08508 8.77606 3.38172C8.48155 3.69813 7.97108 3.69813 7.65695 3.38172C7.63731 3.40149 7.61768 3.38172 7.61768 3.36194ZM3.74988 5.2802C3.31794 4.78581 3.35721 4.03432 3.82841 3.57948C4.29962 3.12463 5.06532 3.14441 5.51689 3.61903C5.96846 4.09365 5.94883 4.86491 5.47763 5.31975C4.98679 5.7746 4.22108 5.75482 3.74988 5.2802ZM24.5614 3.77724C25.0522 3.34217 25.7983 3.38172 26.2499 3.85634C26.7211 4.31118 26.7407 5.08244 26.2695 5.55706C25.8179 6.03169 25.0522 6.05146 24.581 5.57684C24.5614 5.55706 24.5418 5.53729 24.5221 5.49774C24.0706 5.02312 24.0902 4.25186 24.5614 3.77724ZM18.0627 4.41006C18.5339 3.93544 19.28 3.95522 19.7512 4.42984C19.7708 4.44962 19.7708 4.44962 19.7905 4.46939C20.2617 4.92424 20.2813 5.6955 19.8101 6.17012C19.3585 6.64474 18.5928 6.66451 18.1216 6.18989C18.102 6.17012 18.0823 6.15034 18.0627 6.11079C17.5915 5.65594 17.5915 4.90446 18.0431 4.42984C18.0431 4.41006 18.0431 4.41006 18.0627 4.41006ZM10.1308 6.30855C9.6792 5.81415 9.69883 5.04289 10.17 4.56827C10.6412 4.11343 11.4069 4.1332 11.8585 4.60782C12.3101 5.08244 12.2905 5.8537 11.8192 6.30855C11.348 6.78317 10.602 6.78317 10.1308 6.30855ZM0.314014 5.91303C0.078412 5.65594 0.0980455 5.2802 0.333648 5.04289C0.588883 4.7858 0.981553 4.76603 1.23679 5.02312C1.49202 5.2802 1.49202 5.67572 1.23679 5.93281L1.21716 5.95258C0.96192 6.18989 0.56925 6.17012 0.314014 5.91303C0.333648 5.91303 0.333648 5.91303 0.314014 5.91303ZM28.7237 5.2802C28.9789 5.06267 29.352 5.06267 29.5876 5.29998C29.8428 5.55706 29.8428 5.95258 29.5876 6.20967C29.3323 6.46675 28.9397 6.46675 28.6844 6.20967C28.4292 5.95258 28.4292 5.55706 28.6844 5.29998C28.7041 5.29998 28.7237 5.2802 28.7237 5.2802ZM6.65564 8.85964C6.06663 8.20703 6.12553 7.19846 6.7538 6.58541C7.38208 5.99213 8.36375 6.01191 8.95276 6.64474C8.95276 6.64474 8.95276 6.64474 8.97239 6.66451C9.58103 7.29734 9.58103 8.30591 8.95276 8.93874C8.28522 9.53202 7.26428 9.51224 6.65564 8.85964ZM20.9881 6.70407C21.636 6.11079 22.6373 6.15034 23.246 6.80294C23.835 7.43577 23.8153 8.42457 23.2067 9.01784C23.2067 9.01784 23.1871 9.01784 23.1871 9.03762C22.5588 9.65067 21.5575 9.65067 20.9292 9.01784C20.3402 8.34546 20.3598 7.33689 20.9881 6.70407ZM16.0601 9.71C16.6687 9.07717 16.6687 8.0686 16.0405 7.43577C15.4318 6.82272 14.4501 6.80294 13.8219 7.416C13.1936 8.02905 13.1543 9.03762 13.763 9.69022C14.3912 10.3033 15.3925 10.323 16.0601 9.71ZM2.1792 8.50367C1.90433 8.20703 1.90433 7.73241 2.19883 7.43577C2.49333 7.11936 3.0038 7.11936 3.29831 7.416C3.61244 7.73241 3.61244 8.24658 3.29831 8.54322L3.27867 8.563C2.96454 8.85964 2.4737 8.82008 2.1792 8.50367ZM26.4462 7.67308C26.78 7.37644 27.2708 7.416 27.5457 7.73241C27.8206 8.0686 27.7617 8.563 27.4279 8.83986C27.1334 9.07717 26.7014 9.07717 26.4069 8.82008C26.0928 8.50367 26.0928 8.00927 26.4069 7.69286C26.4266 7.69286 26.4266 7.67308 26.4462 7.67308ZM4.37815 11.826C3.90695 11.3514 3.92658 10.5999 4.37815 10.1253C4.39778 10.1055 4.39778 10.1055 4.41742 10.0857C4.90825 9.63089 5.67396 9.65067 6.14517 10.1253C6.5771 10.6197 6.53784 11.3712 6.06663 11.826C5.61506 12.3006 4.86899 12.3006 4.39778 11.8458C4.37815 11.8458 4.37815 11.826 4.37815 11.826ZM23.5208 10.2242C24.0117 9.76933 24.7774 9.7891 25.2486 10.2637C25.7394 10.6988 25.7983 11.4503 25.3664 11.9447C24.9344 12.4391 24.1884 12.4984 23.6975 12.0633C23.6386 12.0238 23.5994 11.9644 23.5405 11.9051C23.0692 11.4305 23.0693 10.6988 23.5208 10.2242ZM22.4999 16.3547C23.1085 15.7416 23.1282 14.7528 22.5391 14.12C21.9305 13.4872 20.9292 13.4476 20.2813 14.0607C19.653 14.6935 19.653 15.7219 20.2617 16.3745C20.8703 16.9875 21.8716 16.9677 22.4999 16.3547ZM9.14909 16.414C8.50119 17.0073 7.49988 16.9677 6.89124 16.3151C6.30223 15.6823 6.32187 14.6935 6.93051 14.1002C6.93051 14.1002 6.93051 14.1002 6.95014 14.0805C7.57841 13.4674 8.57972 13.4674 9.20799 14.1002C9.797 14.7528 9.77736 15.7812 9.14909 16.414ZM4.35852 17.9961C3.88731 18.4509 3.86768 19.2024 4.31925 19.6968C4.33888 19.7166 4.33888 19.7166 4.35852 19.7364C4.79045 20.2308 5.53653 20.2901 6.047 19.855C6.55747 19.42 6.59674 18.6685 6.1648 18.1543C6.12553 18.1147 6.08627 18.0752 6.047 18.0356C5.59543 17.561 4.84935 17.5412 4.37815 17.9961C4.35852 17.9961 4.35852 17.9961 4.35852 17.9961ZM23.4619 19.9143C23.9331 20.389 24.6988 20.389 25.1897 19.9143C25.6412 19.4397 25.6412 18.6882 25.17 18.2136C24.6988 17.7588 23.9528 17.7588 23.4816 18.2334C23.03 18.708 23.0103 19.4595 23.4619 19.9143ZM15.4907 23.1378C14.8624 23.7311 13.8808 23.7113 13.2918 23.0983C13.2918 23.0983 13.2918 23.0983 13.2721 23.0785C12.6635 22.4457 12.6635 21.4371 13.2918 20.8043C13.9397 20.1912 14.9606 20.2308 15.5889 20.8636C16.1779 21.536 16.119 22.5445 15.4907 23.1378ZM6.55747 21.002C5.94883 21.6546 5.9881 22.6632 6.61637 23.2762C7.22501 23.8893 8.20668 23.8893 8.81532 23.2762C8.81532 23.2762 8.81532 23.2762 8.83496 23.2565C9.46323 22.6434 9.48286 21.6151 8.87422 20.9822C8.22632 20.389 7.20538 20.389 6.55747 21.002ZM20.8703 23.3949C21.5182 24.008 22.5195 23.9684 23.1282 23.3356C23.7368 22.7225 23.7368 21.7337 23.1282 21.1207C23.1282 21.1207 23.1281 21.1207 23.1085 21.1009C22.4999 20.4681 21.4789 20.4483 20.8507 21.0613C20.242 21.714 20.242 22.7423 20.8703 23.3949ZM2.08103 21.2789C1.78653 21.5755 1.78653 22.0501 2.08103 22.3468C2.37553 22.6632 2.86637 22.683 3.18051 22.3863C3.49464 22.0699 3.51428 21.5755 3.20014 21.2591L3.18051 21.2393C2.86637 20.9427 2.37553 20.9625 2.08103 21.2789ZM26.3284 22.5445C26.6425 22.8412 27.1334 22.8016 27.4279 22.4852C27.7224 22.1886 27.7224 21.714 27.4279 21.4173C27.1334 21.1009 26.6425 21.0811 26.3284 21.3778C26.0143 21.6744 25.9946 22.1688 26.2891 22.505C26.3088 22.505 26.3284 22.5248 26.3284 22.5445ZM9.99333 23.6322C9.52213 24.1068 9.52213 24.8781 9.99333 25.3725C10.4449 25.8471 11.191 25.8867 11.6622 25.4318C11.6818 25.412 11.7014 25.3923 11.7211 25.3725C12.1727 24.8979 12.153 24.1464 11.6818 23.6915L11.6622 23.6718C11.2106 23.1971 10.4645 23.1971 9.99333 23.6322ZM17.8664 25.6296C18.3179 26.1042 19.0836 26.124 19.5549 25.6691C19.5745 25.6494 19.5745 25.6494 19.5941 25.6296C20.0653 25.155 20.0653 24.3639 19.5745 23.8893C19.0836 23.4542 18.3572 23.474 17.886 23.9289C17.4344 24.3837 17.4148 25.1352 17.8664 25.6296ZM0.17658 23.83C-0.0590226 24.0673 -0.0590226 24.4628 0.17658 24.7001C0.412182 24.9572 0.824485 24.977 1.07972 24.7397C1.33496 24.5024 1.35459 24.0871 1.11899 23.83C0.883386 23.5729 0.471082 23.5531 0.215847 23.7904C0.196213 23.8102 0.17658 23.83 0.17658 23.83ZM28.5666 24.977C28.8022 25.2143 29.1949 25.2143 29.4305 24.977C29.6857 24.7397 29.7054 24.3244 29.4698 24.0673C29.2145 23.8102 28.8219 23.8102 28.5666 24.0673C28.3114 24.3244 28.3114 24.7199 28.5666 24.977ZM3.59281 24.5419C3.16087 25.0363 3.18051 25.7878 3.63208 26.2426C4.10328 26.7172 4.84935 26.6975 5.32056 26.2229C5.79176 25.7482 5.77213 24.9967 5.32056 24.5221C4.82972 24.0673 4.06401 24.0673 3.59281 24.5419ZM24.3651 26.3811C24.8559 26.8161 25.5823 26.7964 26.0535 26.3415C26.5247 25.8867 26.5444 25.1352 26.0928 24.6606L26.0732 24.6408C25.6216 24.1662 24.8559 24.1464 24.3847 24.6012C24.3651 24.621 24.3651 24.621 24.3454 24.6408C23.8742 25.1154 23.8742 25.9064 24.3651 26.3811ZM7.42134 26.5195C7.12684 26.8359 7.14647 27.3303 7.46061 27.6269C7.75511 27.9236 8.22632 27.9236 8.52082 27.6269C8.83496 27.3303 8.85459 26.8359 8.56009 26.5195C8.26558 26.2031 7.77475 26.1833 7.44098 26.4799C7.44098 26.4997 7.42134 26.5195 7.42134 26.5195ZM21.1255 27.9038C21.42 28.2004 21.8912 28.2004 22.1857 27.9038C22.4999 27.6072 22.5195 27.1128 22.225 26.7964C21.9109 26.4799 21.42 26.4602 21.0863 26.7766L21.0666 26.7964C20.7918 27.1128 20.8114 27.6072 21.1255 27.9038ZM27.4868 28.6948C27.7813 28.9915 28.2721 28.9915 28.547 28.6948C28.8415 28.3982 28.8415 27.9038 28.547 27.6072C28.2721 27.2907 27.7813 27.271 27.4672 27.5478C27.153 27.8247 27.1334 28.3191 27.4083 28.6355C27.4475 28.6553 27.4672 28.6751 27.4868 28.6948ZM1.31532 27.706C1.02082 28.0027 1.02082 28.4773 1.31532 28.7739C1.60983 29.0706 2.08103 29.0706 2.37553 28.7739C2.68967 28.4773 2.7093 27.9829 2.4148 27.6665C2.10066 27.3699 1.60983 27.3896 1.31532 27.706ZM4.98679 28.7937C4.75119 29.031 4.75119 29.4265 4.98679 29.6639C5.22239 29.9209 5.61506 29.9407 5.88993 29.7034C6.14517 29.4661 6.1648 29.0706 5.9292 28.7937C5.90956 28.7739 5.88993 28.7542 5.8703 28.7344C5.63469 28.5169 5.24202 28.5169 4.98679 28.7937C4.98679 28.7937 5.00642 28.7739 4.98679 28.7937ZM23.6583 29.8418C23.9135 30.0989 24.3062 30.0989 24.5614 29.8418C24.8166 29.5847 24.8166 29.1892 24.5614 28.9321C24.3062 28.6751 23.9135 28.6553 23.6386 28.9124L23.619 28.9321C23.3834 29.1892 23.403 29.6045 23.6583 29.8418Z" fill="black" />
    <path d="M48.8481 12.1423C48.8481 16.7105 45.5693 19.4791 40.1308 19.4791H34.9672V25.8469H31.9829V4.80542H40.1308C45.5497 4.80542 48.8481 7.57404 48.8481 12.1423ZM45.8638 12.1423C45.8638 9.13634 43.8612 7.41584 40.0523 7.41584H34.9868V16.8489H40.0523C43.8612 16.8489 45.8638 15.1482 45.8638 12.1423Z" fill="black" />
    <path d="M62.081 13.0916H55.386V15.6426H62.081V13.0916Z" fill="black" />
    <path d="M66.42 23.2365V25.8469H51.2629V4.80542H66.0077V7.41584H54.2472V23.2365H66.42Z" fill="black" />
    <path d="M92.0025 7.41584V14.7527H102.487V17.3433H92.0221V25.8469H89.0378V4.80542H103.783V7.41584H92.0025Z" fill="black" />
    <path d="M121.178 23.2365V25.8469H106.021V4.80542H120.766V7.41584H109.005V13.8825H119.47V16.4336H109.005V23.2168H121.178V23.2365Z" fill="black" />
    <path d="M122.258 15.3262C122.258 9.09679 126.97 4.56812 133.331 4.56812C136.551 4.56812 139.358 5.67556 141.263 7.85091L139.319 9.74939C137.709 8.02889 135.746 7.25763 133.429 7.25763C128.717 7.25763 125.222 10.6789 125.222 15.346C125.222 20.0131 128.717 23.4343 133.429 23.4343C135.667 23.4739 137.807 22.5642 139.319 20.903L141.263 22.8015C139.358 24.957 136.551 26.104 133.292 26.104C126.97 26.0843 122.258 21.5358 122.258 15.3262Z" fill="black" />
    <path d="M150.235 7.41584H143.069V4.80542H160.347V7.41584H153.18V25.8469H150.235V7.41584Z" fill="black" />
    <path d="M180 23.2365V25.8469H162.546V23.81L175.68 7.43561H162.742V4.80542H179.607V6.84233L166.531 23.2168H180V23.2365Z" fill="black" />
    <path d="M81.5574 18.787C84.4828 17.7388 86.1517 15.3855 86.1517 12.1423C86.1517 7.57404 82.8729 4.80542 77.4344 4.80542H69.2865V16.8885H55.386V19.4396H69.2865V25.8469H72.2708V19.4396H77.4344C77.886 19.4396 78.3376 19.4 78.7499 19.3802L83.2656 25.8469H86.5247L81.5574 18.787ZM77.3559 16.8885H72.2904V7.41584H77.3559C81.1844 7.41584 83.1674 9.13634 83.1674 12.1423C83.1674 15.1482 81.1648 16.8885 77.3559 16.8885Z" fill="black" />
</svg>
    