<svg width="44" height="44" viewBox="0 0 44 44" fill="none" xmlns="http://www.w3.org/2000/svg">
<circle cx="22" cy="22" r="22" fill="#FDCD00"/>
<circle cx="22" cy="22" r="19.5" fill="#FDCD00" stroke="white"/>
<mask id="mask0_175_32" style="mask-type:alpha" maskUnits="userSpaceOnUse" x="6" y="6" width="32" height="32">
<rect x="6" y="6" width="32" height="32" fill="#C4C4C4"/>
</mask>
<g mask="url(#mask0_175_32)">
<path d="M26.9336 21.9336C24.9336 20.2445 23.267 18.6445 21.9336 17.1336C20.6003 15.6221 19.9336 14.2443 19.9336 13C19.9336 12.0443 20.2614 11.2331 20.9168 10.5664C21.5723 9.89974 22.3888 9.56641 23.3664 9.56641C23.9664 9.56641 24.5776 9.74427 25.2 10.1C25.8224 10.4557 26.4003 10.9891 26.9336 11.7C27.467 10.9891 28.0446 10.4557 28.6664 10.1C29.2888 9.74427 29.9 9.56641 30.5 9.56641C31.4776 9.56641 32.2944 9.89974 32.9504 10.5664C33.6059 11.2331 33.9336 12.0443 33.9336 13C33.9336 14.2443 33.267 15.6221 31.9336 17.1336C30.6003 18.6445 28.9336 20.2445 26.9336 21.9336ZM26.9336 20.3664C28.4888 19.0555 29.8608 17.7499 31.0496 16.4496C32.239 15.1499 32.8336 13.9888 32.8336 12.9664C32.8336 12.3221 32.6168 11.7835 32.1832 11.3504C31.7502 10.9168 31.2003 10.7 30.5336 10.7C30.1336 10.7 29.7056 10.8112 29.2496 11.0336C28.7942 11.2555 28.2888 11.7331 27.7336 12.4664L26.9336 13.5L26.1 12.4664C25.5667 11.7331 25.0667 11.2555 24.6 11.0336C24.1334 10.8112 23.7222 10.7 23.3664 10.7C22.6779 10.7 22.1224 10.9168 21.7 11.3504C21.2776 11.7835 21.0664 12.3221 21.0664 12.9664C21.0664 13.9888 21.6555 15.1499 22.8336 16.4496C24.0112 17.7499 25.3779 19.0555 26.9336 20.3664ZM24.2664 34.0664L13.8 31V32.7336H8.73364V22.3336H17.1336L25.2336 25.3336C25.7003 25.4888 26.0947 25.7776 26.4168 26.2C26.739 26.6224 26.9 27.2224 26.9 28H31.2664C31.9998 28 32.5611 28.2667 32.9504 28.8C33.3392 29.3333 33.5336 30.0667 33.5336 31V31.2L24.2664 34.0664ZM9.83364 31.6H12.6664V23.4664H9.83364V31.6ZM24.1664 32.9L32.3664 30.4C32.3222 30 32.2056 29.6888 32.0168 29.4664C31.828 29.2445 31.5779 29.1336 31.2664 29.1336H24.8336C24.2555 29.1336 23.6664 29.0891 23.0664 29C22.4664 28.9109 21.9443 28.7997 21.5 28.6664L18.8 27.8L19.2664 26.6664L21.7 27.5336C22.211 27.7112 22.7443 27.8333 23.3 27.9C23.8558 27.9667 24.667 28 25.7336 28C25.7336 27.5776 25.6614 27.2331 25.5168 26.9664C25.3723 26.6997 25.1555 26.5109 24.8664 26.4L16.9664 23.4664H13.8V29.8L24.1664 32.9Z" fill="white"/>
</g>
</svg>
