<svg width="44" height="44" viewBox="0 0 44 44" fill="none" xmlns="http://www.w3.org/2000/svg">
<circle cx="22" cy="22" r="22" fill="#FDCD00"/>
<circle cx="22" cy="22" r="19.5" fill="#FDCD00" stroke="white"/>
<mask id="mask0_175_33" style="mask-type:alpha" maskUnits="userSpaceOnUse" x="6" y="6" width="32" height="32">
<rect x="6" y="6" width="32" height="32" fill="#D9D9D9"/>
</mask>
<g mask="url(#mask0_175_33)">
<path d="M21.7664 34C20.1445 33.9557 18.6168 33.6168 17.1832 32.9832C15.7501 32.3501 14.5056 31.4947 13.4496 30.4168C12.3941 29.3389 11.5555 28.0779 10.9336 26.6336C10.3112 25.1888 10 23.6443 10 22C10 20.3333 10.3168 18.7723 10.9504 17.3168C11.5835 15.8613 12.4389 14.5947 13.5168 13.5168C14.5947 12.4389 15.8613 11.5835 17.3168 10.9504C18.7723 10.3168 20.3333 10 22 10C25.1333 10 27.8277 11.0333 30.0832 13.1C32.3387 15.1667 33.6221 17.7221 33.9336 20.7664H32.8C32.5776 18.7664 31.872 16.9664 30.6832 15.3664C29.4944 13.7664 27.9555 12.5888 26.0664 11.8336V12.4664C26.0664 13.2221 25.8053 13.8667 25.2832 14.4C24.7611 14.9333 24.1221 15.2 23.3664 15.2H20.6336V17.9336C20.6336 18.3112 20.5003 18.6277 20.2336 18.8832C19.9669 19.1387 19.6445 19.2664 19.2664 19.2664H16.5664V22H19.3336V26.0336H17.9336L11.4 19.5336C11.3333 19.9336 11.2723 20.3392 11.2168 20.7504C11.1613 21.1611 11.1336 21.5776 11.1336 22C11.1336 24.9333 12.1557 27.4611 14.2 29.5832C16.2443 31.7053 18.7664 32.7997 21.7664 32.8664V34ZM34.1 33.5664L29.4336 28.9664C29.0336 29.2555 28.5947 29.4832 28.1168 29.6496C27.6389 29.8165 27.1555 29.9 26.6664 29.9C25.3997 29.9 24.3221 29.4555 23.4336 28.5664C22.5445 27.6779 22.1 26.6003 22.1 25.3336C22.1 24.0669 22.5445 22.9891 23.4336 22.1C24.3221 21.2109 25.3997 20.7664 26.6664 20.7664C27.9331 20.7664 29.0109 21.2109 29.9 22.1C30.7891 22.9891 31.2336 24.0669 31.2336 25.3336C31.2336 25.8445 31.1501 26.3445 30.9832 26.8336C30.8168 27.3221 30.5669 27.7664 30.2336 28.1664L34.9 32.7664L34.1 33.5664ZM26.6664 28.7664C27.6221 28.7664 28.4333 28.4331 29.1 27.7664C29.7667 27.0997 30.1 26.2888 30.1 25.3336C30.1 24.3779 29.7667 23.5667 29.1 22.9C28.4333 22.2333 27.6221 21.9 26.6664 21.9C25.7112 21.9 24.9003 22.2333 24.2336 22.9C23.5669 23.5667 23.2336 24.3779 23.2336 25.3336C23.2336 26.2888 23.5669 27.0997 24.2336 27.7664C24.9003 28.4331 25.7112 28.7664 26.6664 28.7664Z" fill="white"/>
</g>
</svg>
