<svg width="543" height="494" viewBox="0 0 543 494" fill="none" xmlns="http://www.w3.org/2000/svg">
<g clip-path="url(#clip0_31_75)">
<path d="M469.995 418.575H71.6723V350.958H77.817V300.629C77.8304 288.771 82.5472 277.403 90.9327 269.018C99.3182 260.634 110.687 255.917 122.546 255.904H419.844C431.703 255.917 443.072 260.634 451.458 269.018C459.843 277.403 464.56 288.771 464.573 300.629V350.958H469.995V418.575Z" fill="#E4E4E4"/>
<path d="M480.788 492.996H460.959V492.635C460.939 475.099 453.964 458.288 441.563 445.889C429.163 433.489 412.35 426.514 394.813 426.495H146.855C129.318 426.514 112.505 433.489 100.104 445.889C87.7038 458.288 80.7284 475.099 80.7086 492.635V492.996H60.8798C56.3622 492.991 52.0311 491.194 48.8366 488C45.6422 484.806 43.8453 480.475 43.8402 475.958V365.427C38.0823 362.175 33.3991 344.508 36.441 330.399C38.35 321.545 43.8611 310.852 59.2746 310.19C74.279 309.545 85.4161 323.63 86.4109 337.189C86.95 344.323 84.8544 351.408 80.5206 357.102H80.7086V372.87C113.246 362.444 145.829 357.139 177.56 357.102C210.03 357.133 242.275 362.499 273.005 372.985C336.899 352.321 400.131 351.919 460.959 371.794V357.102H461.147C456.813 351.408 454.717 344.323 455.257 337.189C456.348 322.317 468.514 310.205 482.377 310.19H482.423C498.771 310.19 504.553 320.03 506.525 328.29C510.015 342.907 503.607 362.147 497.827 365.427V475.958C497.822 480.475 496.025 484.806 492.831 488C489.637 491.194 485.305 492.991 480.788 492.996Z" fill="#CACACA"/>
<path d="M370.006 463.419L379.577 470.256L410.504 436.595L396.378 426.506L370.006 463.419Z" fill="#FFB6B6"/>
<path d="M369.797 458.551L372.491 460.475L386.064 463.711L388.646 472.014L388.647 472.015C391.833 474.291 393.983 477.739 394.627 481.6C395.27 485.462 394.353 489.42 392.078 492.606L391.799 492.996L360.937 470.952L369.797 458.551Z" fill="#2F2E41"/>
<path d="M434.865 373.3H364.586C358.033 373.297 351.749 370.691 347.116 366.056C342.483 361.421 339.881 355.137 339.881 348.584C339.881 342.031 342.483 335.746 347.116 331.112C351.749 326.477 358.033 323.871 364.586 323.868H434.865C441.42 323.868 447.708 326.472 452.343 331.107C456.979 335.742 459.583 342.029 459.583 348.584C459.583 355.139 456.979 361.426 452.343 366.061C447.708 370.696 441.42 373.3 434.865 373.3Z" fill="#2F2E41"/>
<path d="M400.384 200.711L411.72 209.342L425.391 213.543C425.391 213.543 431.043 293.034 436.135 298.126C441.228 303.218 436.635 303.355 437.658 309.97C438.682 316.585 441.169 330.145 441.169 330.145C406.794 348.339 377.16 348.827 353.356 327.537C353.051 326.22 353.206 324.838 353.794 323.621C354.383 322.404 355.369 321.425 356.591 320.845C361.021 318.494 352.507 307.524 356.127 305.689C359.748 303.855 354.655 287.942 354.655 287.942L357.996 254.742L355.357 249.435L361.798 216.961L372.974 212.88L377.438 202.125L400.384 200.711Z" fill="black"/>
<path d="M407.486 126.495C407.435 127.93 407.699 129.36 408.261 130.682C408.822 132.004 409.667 133.187 410.735 134.148C411.803 135.108 413.069 135.823 414.443 136.242C415.817 136.66 417.267 136.773 418.689 136.57L434.665 167.62L443.565 151.807L427.03 124.746C426.532 122.38 425.183 120.278 423.239 118.839C421.295 117.401 418.89 116.725 416.481 116.941C414.072 117.156 411.826 118.248 410.168 120.009C408.51 121.77 407.556 124.077 407.486 126.495H407.486Z" fill="#FFB6B6"/>
<path d="M434.39 134.09L468.656 187.193L468.543 187.438C468.414 187.718 460.654 204.474 453.136 219.823C451.978 222.186 450.826 224.516 449.708 226.748C449.226 227.711 448.75 228.654 448.282 229.577C445.125 235.802 442.366 240.947 440.719 243.391C437.076 248.916 431.653 253.03 425.349 255.049L425.191 255.09L425.039 255.027C421.956 253.726 419.408 251.413 417.816 248.47C416.223 245.527 415.682 242.129 416.28 238.836C419.252 222.956 425.875 207.984 435.625 195.102L441.18 187.78L421.876 145.814L434.39 134.09Z" fill="black"/>
<path d="M375.189 119.989C375.24 121.425 374.975 122.854 374.414 124.176C373.853 125.499 373.008 126.682 371.94 127.642C370.872 128.603 369.606 129.318 368.232 129.736C366.857 130.155 365.408 130.267 363.986 130.065L348.01 161.114L339.109 145.302L355.645 118.241C356.143 115.874 357.492 113.772 359.436 112.334C361.38 110.895 363.784 110.22 366.194 110.435C368.603 110.651 370.849 111.742 372.507 113.503C374.165 115.264 375.119 117.572 375.189 119.989H375.189Z" fill="#FFB6B6"/>
<path d="M348.285 127.585L314.019 180.688L314.132 180.932C314.261 181.212 322.021 197.969 329.539 213.317C330.697 215.681 331.849 218.011 332.967 220.242C333.449 221.205 333.924 222.148 334.392 223.071C337.55 229.296 340.309 234.441 341.956 236.885C345.599 242.411 351.022 246.525 357.326 248.543L357.484 248.584L357.636 248.521C360.719 247.22 363.267 244.907 364.859 241.964C366.452 239.021 366.993 235.623 366.395 232.331C363.423 216.451 356.8 201.478 347.049 188.596L341.494 181.275L360.799 139.309L348.285 127.585Z" fill="black"/>
<path d="M388.78 195.907C401.163 195.907 411.202 185.869 411.202 173.487C411.202 161.104 401.163 151.066 388.78 151.066C376.396 151.066 366.357 161.104 366.357 173.487C366.357 185.869 376.396 195.907 388.78 195.907Z" fill="#FFB6B6"/>
<path d="M370.516 154.225C372.36 148.861 381.54 145.141 396.421 144.623C411.302 144.106 415.076 161.641 415.076 161.641C425.011 169.699 404.468 191.273 403.475 190.496L403.921 186.443C404.661 179.729 407.805 174.491 403.807 167.494L399.967 167.538L392.685 168.938C392.231 169.025 391.761 168.961 391.347 168.755C390.934 168.549 390.599 168.212 390.396 167.797C390.192 167.382 390.131 166.912 390.221 166.458C390.311 166.005 390.548 165.594 390.895 165.288L390.962 165.23L390.796 164.974C388.231 166.15 385.587 167.242 382.782 167.407C379.627 167.592 376.177 166.336 374.666 163.561C374.262 162.798 374.016 161.961 373.941 161.102C369.686 162.801 367.74 168.047 367.74 168.047C367.74 168.047 368.672 159.589 370.516 154.225Z" fill="#2F2E41"/>
<path d="M431.075 453.882L422.097 461.482L388.508 430.478L401.756 419.261L431.075 453.882Z" fill="#FFB6B6"/>
<path d="M440.732 460.643L411.788 485.15L411.478 484.784C408.948 481.796 407.708 477.926 408.032 474.025C408.356 470.124 410.216 466.511 413.203 463.981L413.204 463.98L415.094 455.493L428.356 451.152L430.882 449.012L440.732 460.643Z" fill="#2F2E41"/>
<path d="M375.598 368.152L383.017 352.064C382.934 337.388 370.649 325.47 356.001 326.39C347.844 326.902 340.205 331.464 337.049 345.023C328.934 379.89 408.561 452.447 408.561 452.447L423.192 443.406L423.866 433.854L415.672 428.804L415.665 420.658L407.852 416.953L375.598 368.152Z" fill="#2F2E41"/>
<path d="M424.342 363.721L415.172 350.238C414.048 335.605 425.312 322.717 439.985 322.429C448.157 322.269 456.145 326.188 460.405 339.442C471.36 373.523 397.969 452.381 397.969 452.381L382.644 444.574L381.187 435.11L388.938 429.403L388.275 421.284L395.757 416.949L424.342 363.721Z" fill="#2F2E41"/>
<path d="M392.062 253.301V257.609H377.778V253.301H382.202V242.921L378.067 245.292V240.637L384.428 237.022H387.609V253.301L392.062 253.301Z" fill="white"/>
<path d="M395.286 255.151C393.927 253.34 393.248 250.718 393.248 247.287C393.248 243.914 393.927 241.326 395.286 239.523C396.008 238.676 396.906 237.995 397.917 237.529C398.928 237.062 400.028 236.82 401.142 236.82C402.255 236.82 403.356 237.062 404.367 237.529C405.378 237.995 406.275 238.676 406.997 239.523C408.356 241.326 409.036 243.914 409.036 247.287C409.036 250.718 408.356 253.339 406.997 255.151C406.278 256.003 405.381 256.687 404.37 257.157C403.358 257.626 402.257 257.869 401.142 257.869C400.027 257.869 398.925 257.626 397.914 257.157C396.903 256.687 396.006 256.003 395.286 255.151ZM403.137 252.274C403.625 250.659 403.831 248.972 403.744 247.287C403.829 245.635 403.623 243.981 403.137 242.4C403.013 241.967 402.751 241.586 402.391 241.315C402.031 241.043 401.593 240.897 401.142 240.897C400.691 240.897 400.253 241.043 399.893 241.315C399.533 241.586 399.271 241.967 399.147 242.4C398.66 243.981 398.455 245.635 398.539 247.287C398.453 248.972 398.658 250.659 399.147 252.274C399.267 252.711 399.528 253.096 399.888 253.37C400.249 253.644 400.689 253.793 401.142 253.793C401.595 253.793 402.035 253.644 402.395 253.37C402.756 253.096 403.016 252.711 403.137 252.274Z" fill="white"/>
<path d="M239.725 481.555L228.757 481.554L223.539 439.249L239.728 439.25L239.725 481.555Z" fill="#A0616A"/>
<path d="M240.112 492.996L206.382 492.995V492.568C206.382 489.087 207.765 485.748 210.227 483.286C212.689 480.824 216.028 479.441 219.51 479.441H219.511L225.672 474.767L237.168 479.442L240.112 479.442L240.112 492.996Z" fill="#2F2E41"/>
<path d="M317.337 481.555L328.305 481.554L333.523 439.249L317.334 439.25L317.337 481.555Z" fill="#A0616A"/>
<path d="M316.95 492.996L350.681 492.995V492.568C350.68 489.087 349.297 485.748 346.835 483.286C344.373 480.824 341.034 479.441 337.552 479.441H337.551L331.39 474.767L319.894 479.442L316.95 479.442L316.95 492.996Z" fill="#2F2E41"/>
<path d="M223.056 408.162C223.218 405.748 224.506 392.398 224.506 392.398L227.591 364.087L233.029 289.04L233.384 284.127L261.867 278.659L281.335 269.328L304.473 276.724L322.49 283.479C322.49 283.479 322.521 286.371 322.66 289.865C322.845 294.438 323.169 300.045 323.94 301.503C325.228 304.079 324.905 317.907 324.905 317.907C324.905 317.907 326.185 346.04 327.797 349.125C329.409 352.21 329.733 358.634 329.247 359.922C328.761 361.21 330.859 394.997 330.859 394.997C330.859 394.997 336.243 454.788 332.865 463.803C329.487 472.819 316.721 466.913 316.721 466.913C316.721 466.913 317.338 464.507 313.636 463.373C309.934 462.24 298.658 377.46 298.658 377.46C298.658 377.46 296.56 360.077 294.632 355.095C292.703 350.113 290.929 336.115 290.929 336.115C290.929 336.115 279.021 312.948 278.866 307.796C278.866 307.796 277.308 302.976 275.835 308.282C274.362 313.588 270.02 326.297 270.02 326.297L265.785 341.907L260.803 365.228L257.579 384.863C257.579 384.863 252.751 410.923 251.979 412.049C251.208 413.175 251.979 436.982 251.979 436.982C251.979 436.982 248.246 457.258 242.971 460.797C237.695 464.337 223.718 460.854 223.718 460.854C223.718 460.854 222.894 410.576 223.056 408.162Z" fill="#2F2E41"/>
<path d="M235.208 205.841L241.54 222.42L233.727 230.505L237.167 233.582L234.63 237.934L228.011 283.535L264.293 295.495L276.51 282.181L286.143 295.495L328.125 286.579L317.419 228.427V224.626L314.396 217.285V201.745L328.279 155.486L298.554 148.232L287.162 140.395L283.475 151.417L267.779 148.99L267.37 140.71L255.361 150.572L239.35 153.079L227.241 155.486L225.698 158.838L228.783 158.167L234.182 201.778L235.208 205.841Z" fill="#2F2E41"/>
<path d="M259.622 161.078L267.371 140.758L287.162 140.395L293.729 161.078L317.334 292.931C317.334 292.931 245.018 313.068 245.751 288.862C246.523 263.412 250.002 229.606 250.002 229.606L259.622 161.078Z" fill="#3F3D56"/>
<path d="M276.824 135.074C289.7 135.074 300.138 124.637 300.138 111.762C300.138 98.8869 289.7 88.4498 276.824 88.4498C263.948 88.4498 253.51 98.8869 253.51 111.762C253.51 124.637 263.948 135.074 276.824 135.074Z" fill="#A0616A"/>
<path d="M252.135 94.8503C255.93 90.7194 260.678 83.1579 275.058 79.9826C292.827 76.059 301.223 92.1093 296.742 92.3724C309.845 96.3398 301.428 123.452 297.671 121.179C297.639 121.156 297.608 121.132 297.578 121.106C295.558 119.619 293.863 117.735 292.595 115.57C291.327 113.405 290.515 111.004 290.206 108.515L289.493 102.099C289.392 107.319 284.055 108.009 278.604 106.087C278.926 104.942 279.542 103.902 280.389 103.067C281.236 102.233 282.286 101.634 283.436 101.33C280.101 104.405 275.761 106.606 269.698 107.307C270.442 104.426 271.924 102.306 274.246 101.049L274.03 100.838C271.809 102.529 269.494 104.153 266.823 104.919C263.818 105.78 260.217 105.314 258.158 102.962C257.604 102.313 257.185 101.559 256.927 100.746C257.372 104.88 254.599 109.599 252.444 108.789C250.652 108.441 249.608 97.6003 252.135 94.8503Z" fill="#2F2E41"/>
<path d="M305.57 110.476L326.773 146.145L342.445 138.744C342.445 138.744 315.44 105.019 314.58 104.049C314.948 102.41 314.81 100.697 314.184 99.1383C313.558 97.5792 312.474 96.2468 311.074 95.3175C309.674 94.3883 308.025 93.9058 306.345 93.934C304.665 93.9622 303.033 94.4997 301.665 95.4754C300.297 96.4511 299.258 97.8191 298.684 99.3983C298.111 100.978 298.031 102.694 298.454 104.32C298.877 105.946 299.784 107.405 301.054 108.504C302.325 109.603 303.9 110.291 305.57 110.476Z" fill="#A0616A"/>
<path d="M315.835 199.115L348.742 175.412C350.889 173.865 352.689 171.888 354.028 169.606C355.367 167.324 356.216 164.788 356.519 162.16C356.822 159.532 356.573 156.869 355.788 154.342C355.003 151.816 353.7 149.481 351.961 147.486L328.279 120.322L317.962 134.301L325.914 150.927L310.517 154.986L315.835 199.115Z" fill="#2F2E41"/>
<path d="M259.356 113.829L238.152 149.498L222.481 142.097C222.481 142.097 249.485 108.372 250.345 107.402C249.977 105.762 250.115 104.05 250.741 102.491C251.367 100.932 252.452 99.5994 253.852 98.6701C255.251 97.7409 256.9 97.2584 258.58 97.2866C260.26 97.3148 261.892 97.8523 263.26 98.828C264.628 99.8037 265.667 101.172 266.241 102.751C266.814 104.33 266.895 106.046 266.472 107.672C266.048 109.298 265.141 110.757 263.871 111.857C262.6 112.956 261.026 113.644 259.356 113.829Z" fill="#A0616A"/>
<path d="M249.09 202.468L216.183 178.764C214.036 177.218 212.236 175.24 210.897 172.959C209.558 170.677 208.71 168.141 208.407 165.512C208.104 162.884 208.352 160.222 209.137 157.695C209.922 155.168 211.225 152.833 212.964 150.839L236.646 123.675L246.963 137.654L239.011 154.279L254.409 158.339L249.09 202.468Z" fill="#2F2E41"/>
<path d="M282.383 195.832C283.126 196.71 283.518 197.833 283.482 198.983C283.507 200.122 283.139 201.235 282.44 202.135C281.686 203.065 280.691 203.77 279.563 204.173C276.838 205.118 273.874 205.118 271.149 204.173C270.021 203.77 269.026 203.065 268.272 202.135C267.573 201.235 267.205 200.122 267.23 198.983C267.192 197.82 267.583 196.683 268.329 195.789C269.145 194.882 270.229 194.259 271.423 194.01C270.376 193.685 269.443 193.068 268.734 192.232C268.081 191.439 267.732 190.44 267.751 189.413C267.731 188.335 268.083 187.283 268.748 186.435C269.462 185.551 270.402 184.877 271.467 184.483C273.98 183.577 276.732 183.577 279.245 184.483C280.31 184.877 281.25 185.551 281.963 186.435C282.629 187.283 282.981 188.335 282.961 189.413C282.979 190.46 282.626 191.479 281.963 192.29C281.276 193.124 280.354 193.733 279.318 194.039C280.499 194.309 281.568 194.935 282.383 195.832ZM277.612 200.227C277.89 200.048 278.117 199.798 278.27 199.504C278.422 199.21 278.494 198.881 278.479 198.55C278.487 198.215 278.415 197.883 278.269 197.581C278.123 197.28 277.908 197.017 277.641 196.815C277.028 196.221 276.209 195.89 275.356 195.89C274.503 195.89 273.684 196.221 273.072 196.815C272.804 197.017 272.589 197.279 272.443 197.581C272.297 197.883 272.225 198.215 272.233 198.55C272.218 198.881 272.29 199.21 272.443 199.504C272.595 199.798 272.822 200.048 273.1 200.227C273.792 200.606 274.567 200.805 275.356 200.805C276.145 200.805 276.92 200.606 277.612 200.227ZM273.52 188.415C273.278 188.61 273.088 188.86 272.964 189.145C272.841 189.429 272.788 189.74 272.811 190.049C272.811 191.321 273.66 192.169 275.356 192.593C277.052 192.17 277.9 191.322 277.901 190.049C277.924 189.74 277.871 189.429 277.748 189.145C277.624 188.86 277.434 188.61 277.192 188.415C276.644 188.066 276.007 187.88 275.356 187.88C274.705 187.88 274.068 188.066 273.52 188.415H273.52Z" fill="white"/>
<path d="M21.7455 127.256C22.2511 128.003 22.9144 128.631 23.6887 129.094C24.4631 129.558 25.3296 129.846 26.2273 129.938C27.1249 130.03 28.032 129.925 28.8844 129.628C29.7368 129.332 30.5139 128.853 31.161 128.224L50.7619 138.071L49.4266 126.751L31.0179 119.136C29.8892 118.119 28.4266 117.552 26.9074 117.541C25.3881 117.53 23.9178 118.077 22.7749 119.078C21.632 120.079 20.8959 121.464 20.7062 122.971C20.5165 124.479 20.8863 126.003 21.7455 127.256Z" fill="#9E616A"/>
<path d="M102.834 172.944L93.0746 166.214C93.0746 166.214 81.8987 165.456 80.2178 161.904C78.537 158.351 78.2537 159.546 76.4618 159.121C74.67 158.696 73.7454 153.348 70.7417 153.979C63.9838 155.399 32.2021 134.4 35.6322 131.776L38.182 121.026C40.8761 122.031 43.685 122.697 46.5438 123.008C50.8664 123.403 61.0508 128.341 62.5594 129.96C64.0679 131.58 66.7403 130.952 70.324 131.802C73.9077 132.652 75.1619 138.416 81.1057 136.882C89.4688 134.724 132.796 155.272 137.483 157.19C142.628 159.295 146.221 165.57 146.221 165.57L144.804 171.543L102.834 172.944Z" fill="black"/>
<path d="M173.268 478.26H181.773L185.821 445.455H173.267L173.268 478.26Z" fill="#9E616A"/>
<path d="M170.491 472.435L184.08 471.624V477.445L197 486.367C197.638 486.808 198.119 487.441 198.372 488.174C198.625 488.907 198.636 489.702 198.406 490.442C198.175 491.182 197.714 491.829 197.089 492.289C196.464 492.748 195.709 492.996 194.934 492.996H178.755L175.967 487.238L174.878 492.996H168.778L170.491 472.435Z" fill="#2F2E41"/>
<path d="M66.6602 471.034L74.5631 474.18L90.4577 445.198L78.7943 440.556L66.6602 471.034Z" fill="#9E616A"/>
<path d="M66.2357 464.596L79.1613 468.868L77.008 474.277L85.7115 487.344C86.1414 487.989 86.3538 488.755 86.3176 489.529C86.2814 490.304 85.9985 491.047 85.5103 491.649C85.0221 492.252 84.354 492.682 83.6037 492.878C82.8534 493.074 82.0601 493.025 81.3396 492.738L66.3084 486.755L65.8474 480.374L62.7059 485.321L57.0385 483.066L66.2357 464.596Z" fill="#2F2E41"/>
<path d="M156.122 380.643L141.938 314.458L119.79 387.996L84.7189 457.728L84.5331 458.098L73.4238 452.117C71.856 423.803 75.5796 397.27 89.1988 374.069L95.6478 310.388C95.8455 308.212 100.656 257.128 115.889 248.069L120.35 237.898L164.718 226.941L164.88 227.123C169.146 231.918 171.965 237.825 173.008 244.157L186.265 324.466L186.273 324.511L182.718 380.536L187.581 463.19H169.986C159.102 442.711 154.48 415.196 156.122 380.643Z" fill="#2F2E41"/>
<path d="M194.317 103.066C194.993 103.663 195.53 104.402 195.89 105.229C196.25 106.057 196.424 106.953 196.4 107.855C196.376 108.757 196.155 109.643 195.751 110.45C195.348 111.257 194.773 111.966 194.066 112.527L201.311 133.23L190.256 130.45L185.071 111.216C184.207 109.966 183.833 108.443 184.018 106.935C184.202 105.427 184.934 104.04 186.073 103.035C187.213 102.03 188.682 101.479 190.201 101.484C191.72 101.49 193.185 102.053 194.317 103.066H194.317Z" fill="#9E616A"/>
<path d="M107.272 259.445C106.077 259.445 105.398 259.211 105.135 258.709C104.75 257.971 105.419 257.008 106.194 255.892C106.734 255.115 108.313 253.569 107.536 253.474C95.7663 252.036 101.416 179.477 106.517 169.886C107.553 167.937 106.457 164.947 107.624 161.64C110.812 152.608 115.164 149.832 123.833 144.303C124.537 143.854 125.269 143.385 126.031 142.897C127.017 142.263 126.962 140.164 126.904 137.94C126.839 135.469 126.773 132.913 127.983 131.316L128.062 131.212L128.189 131.183C131.117 130.506 140.967 129.249 146.8 131.192L146.88 131.219L146.94 131.279C148.326 132.664 148.452 135.348 148.574 137.943C148.674 140.074 148.769 142.085 149.553 142.959C155.546 149.639 162.343 149.509 162.412 149.507L162.748 149.497L162.782 149.832C166.984 157.829 163.694 187.527 166.614 205.975C169.582 224.717 194.921 240.671 173.224 243.503C173.27 243.575 173.296 243.659 173.299 243.745C173.302 243.831 173.281 243.915 173.238 243.99C171.927 246.44 111.775 259.445 107.272 259.445Z" fill="black"/>
<path d="M205.36 168.055L193.317 174.028C170.111 182.942 157.982 180.771 151.889 177.382C145.387 173.766 144.26 168.223 144.216 167.989L144.212 167.876L145.697 156.11C145.886 154.615 146.39 153.178 147.177 151.893C147.963 150.608 149.014 149.505 150.259 148.657C151.504 147.809 152.915 147.235 154.399 146.973C155.883 146.712 157.405 146.769 158.865 147.14L186.572 154.191L186.067 140.742L187.163 135.9L185.142 130.014L185.97 118.193L195.908 115.76L206.333 134.431L204.46 139.584L206.225 142.15L206.222 142.269L205.36 168.055Z" fill="black"/>
<path d="M144.943 177.49V181.538L135.979 198.076H130.196L139.131 181.798H129.646V177.49L144.943 177.49Z" fill="white"/>
<path d="M542.139 493.778L0.86077 494C0.632915 493.999 0.414623 493.908 0.253738 493.747C0.0928534 493.586 0.00250244 493.367 0.00250244 493.139C0.00250244 492.912 0.0928534 492.693 0.253738 492.532C0.414623 492.37 0.632915 492.279 0.86077 492.279L542.139 492.057C542.367 492.057 542.585 492.148 542.746 492.309C542.907 492.471 542.998 492.689 542.998 492.917C542.998 493.145 542.907 493.364 542.746 493.525C542.585 493.686 542.367 493.777 542.139 493.778Z" fill="#CACACA"/>
<path d="M374.093 76.6035C380.752 62.4472 375.364 45.8986 365.742 41.3737C356.12 36.8488 339.936 43.2519 333.277 57.4082C327.114 70.5115 331.705 85.859 339.608 91.4502C339.475 91.4893 339.35 91.5535 339.242 91.6393L337.343 93.2031C337.198 93.3223 337.086 93.4765 337.018 93.6511C336.95 93.8257 336.927 94.0149 336.952 94.2007C336.978 94.3865 337.05 94.5627 337.163 94.7127C337.275 94.8626 337.424 94.9813 337.596 95.0574L342.385 97.1855C342.556 97.2616 342.744 97.2927 342.931 97.2758C343.118 97.2589 343.297 97.1945 343.452 97.0888C343.607 96.983 343.732 96.8395 343.816 96.6717C343.9 96.504 343.939 96.3176 343.931 96.1303L343.819 93.6731C343.813 93.5876 343.797 93.5031 343.772 93.4213C353.128 95.9921 367.917 89.7353 374.093 76.6035Z" fill="#CCCCCC"/>
<path d="M368.639 56.3006C370.151 60.6856 369.921 65.4834 367.997 69.7038C366.073 73.9242 362.602 77.2449 358.301 78.9805C357.321 79.3883 358.103 80.842 359.076 80.4368C363.686 78.5165 367.4 74.9246 369.472 70.3813C371.544 65.838 371.822 60.6793 370.25 55.9397C369.918 54.94 368.304 55.2935 368.639 56.3006Z" fill="white"/>
<path d="M490.92 124.037C504.394 116.086 509.257 99.3754 503.853 90.2194C498.448 81.0635 481.467 77.2453 467.994 85.1969C455.522 92.5571 450.676 107.826 454.059 116.895C453.928 116.853 453.789 116.836 453.651 116.846L451.201 117.069C451.014 117.086 450.835 117.151 450.68 117.257C450.525 117.363 450.4 117.506 450.316 117.674C450.233 117.842 450.193 118.028 450.202 118.215C450.21 118.403 450.267 118.585 450.366 118.744L453.126 123.199C453.224 123.358 453.362 123.49 453.526 123.581C453.69 123.672 453.875 123.72 454.062 123.72C454.25 123.719 454.434 123.671 454.598 123.58C454.761 123.488 454.899 123.357 454.997 123.197L456.288 121.103C456.332 121.029 456.366 120.95 456.391 120.868C462.677 128.26 478.422 131.413 490.92 124.037Z" fill="black"/>
<path d="M497.843 104.187C496.624 108.662 493.732 112.498 489.766 114.903C485.8 117.308 481.062 118.099 476.529 117.112C475.49 116.897 475.318 118.539 476.351 118.752C481.242 119.76 486.333 118.882 490.604 116.293C494.875 113.705 498.009 109.598 499.378 104.796C499.666 103.782 498.134 103.166 497.843 104.187Z" fill="white"/>
<path d="M405.159 59.0167C403.462 55.2819 402.674 51.1981 402.86 47.1C403.046 43.0019 404.2 39.0063 406.229 35.4405C406.807 34.436 407.383 33.2199 408.651 33.0269C409.13 32.9397 409.625 33.0176 410.054 33.2478C410.483 33.4781 410.821 33.8471 411.013 34.2945C411.183 34.8896 411.152 35.524 410.925 36.0998C410.698 36.6756 410.288 37.1608 409.758 37.4805C409.228 37.8002 408.608 37.9367 407.993 37.869C407.378 37.8013 406.802 37.5331 406.354 37.1057C403.95 35.1689 404.255 31.7604 404.487 29.0166C405.013 22.7646 405.005 16.201 402.345 10.382C399.884 4.99826 394.86 0.495058 388.792 0.00324975C387.73 -0.0827686 387.67 1.56666 388.726 1.65226C394.744 2.14004 399.453 7.09764 401.454 12.5235C402.583 15.7902 403.146 19.2261 403.116 22.6824C403.135 24.4564 403.053 26.2303 402.916 27.9987C402.708 29.7226 402.654 31.4615 402.754 33.1949C403.037 36.024 404.749 39.0571 407.808 39.5091C410.662 39.9308 413.449 36.9457 412.677 34.1091C412.491 33.4958 412.155 32.9383 411.701 32.4866C411.246 32.0349 410.686 31.7031 410.072 31.5209C409.457 31.3387 408.807 31.3118 408.18 31.4427C407.552 31.5736 406.967 31.8581 406.477 32.2707C405.405 33.1656 404.708 34.7024 404.097 35.9304C402.251 39.6251 401.257 43.6869 401.188 47.8166C401.12 51.9464 401.979 56.0388 403.702 59.7925C404.155 60.754 405.61 59.9757 405.159 59.0168L405.159 59.0167Z" fill="#CCCCCC"/>
<path d="M156.03 135.938C155.409 134.803 154.339 131.558 153.139 131.601C151.911 131.655 150.682 131.55 149.481 131.29C149.351 131.268 149.221 131.24 149.098 131.211C144.028 129.946 138.83 129.267 133.606 129.187C129.391 129.129 124.765 129.635 121.822 132.649C118.88 135.663 119.314 141.88 123.369 143.029C109.816 145.376 95.8844 142.288 84.5924 134.434C77.4139 129.389 71.6596 122.63 65.5727 116.313C59.4858 109.988 52.7772 103.909 44.5722 100.815C36.3599 97.7141 26.3187 98.1478 19.7041 103.923C11.6364 110.964 11.0147 123.079 11.0075 133.784C11.0002 137.788 12.2509 136.943 15.7859 138.829C19.0679 140.579 22.5162 144.178 24.5187 141.049C26.5211 137.919 26.8753 134.051 27.2874 130.358C27.6922 126.664 28.2923 122.775 30.6345 119.891C34.6611 114.932 42.5914 114.882 48.1506 118.026C53.7098 121.17 57.4472 126.671 60.9822 131.991C64.5172 137.304 68.2475 142.819 73.7994 145.986C81.0936 150.142 90.2528 149.527 97.8651 153.069C102.701 155.325 106.612 159.105 110.624 162.611C114.644 166.117 119.046 169.492 124.258 170.627C129.463 171.769 135.644 170.049 138.203 165.372C140.509 161.144 139.382 155.729 141.435 151.363C143.018 147.995 146.249 145.761 149.163 143.434C150.363 142.472 150.674 145.783 151.693 144.612C154.635 144.027 157.397 138.432 156.03 135.938Z" fill="#3F3D56"/>
<path d="M135.76 129.957C148.376 129.957 158.603 119.731 158.603 107.117C158.603 94.5026 148.376 84.2766 135.76 84.2766C123.145 84.2766 112.918 94.5026 112.918 107.117C112.918 119.731 123.145 129.957 135.76 129.957Z" fill="#2F2E41"/>
<path d="M137.599 131.843C146.662 131.586 153.8 124.032 153.544 114.97C153.287 105.908 145.732 98.7706 136.669 99.0273C127.607 99.2841 120.468 106.838 120.725 115.9C120.982 124.962 128.537 132.099 137.599 131.843Z" fill="#9E616A"/>
<path d="M137.293 90.4022L130.638 90.5907C126.445 90.7129 122.471 92.4938 119.589 95.5424C116.707 98.5911 115.152 102.658 115.266 106.852L115.271 106.999L115.392 107.075C119.009 109.468 123.278 110.683 127.613 110.552L127.987 110.542L131.664 110.375C132.283 108.783 132.489 107.06 132.265 105.366C132.821 106.972 133.254 108.617 133.562 110.287L150.06 109.536C151.02 109.489 151.923 109.068 152.578 108.364C153.232 107.66 153.585 106.728 153.561 105.767C153.438 101.574 151.655 97.6009 148.605 94.7203C145.555 91.8397 141.487 90.2867 137.293 90.4022Z" fill="#2F2E41"/>
<path d="M124.032 86.2834C122.53 88.1355 120.119 88.9071 117.952 89.9102C114.128 91.7181 110.804 94.4313 108.266 97.8144C105.729 101.198 104.055 105.149 103.389 109.325C102.879 112.726 103.057 116.226 102.193 119.552C101.334 122.878 99.0679 126.181 95.7002 126.849C93.4213 127.305 91.1006 126.486 88.9219 125.674C87.7237 125.232 86.5255 124.787 85.3272 124.341C86.4751 121.205 87.621 118.07 88.7651 114.935C86.8681 117.917 84.6419 120.676 82.1284 123.161C77.8343 121.569 73.5365 119.978 69.2349 118.387C79.6997 118.13 77.6264 108.024 79.6786 97.7673C80.8066 92.1311 91.6559 88.0289 93.6532 82.6404C94.7322 79.7178 96.6259 77.1654 99.1102 75.2854C101.595 73.4054 104.566 72.2763 107.672 72.032C110.778 71.7876 113.889 72.4382 116.637 73.9066C119.384 75.375 121.654 77.5998 123.177 80.3177C125.349 81.1127 125.506 84.4549 124.032 86.2834Z" fill="#2F2E41"/>
<path d="M125.079 93.0761C129.776 93.0761 133.585 89.2683 133.585 84.5711C133.585 79.8739 129.776 76.066 125.079 76.066C120.381 76.066 116.573 79.8739 116.573 84.5711C116.573 89.2683 120.381 93.0761 125.079 93.0761Z" fill="#2F2E41"/>
</g>
<defs>
<clipPath id="clip0_31_75">
<rect width="543" height="494" fill="white"/>
</clipPath>
</defs>
</svg>
