<svg width="44" height="44" viewBox="0 0 44 44" fill="none" xmlns="http://www.w3.org/2000/svg">
<circle cx="22" cy="22" r="22" fill="#FDCD00"/>
<circle cx="22" cy="22" r="19.5" fill="#FDCD00" stroke="white"/>
<mask id="mask0_175_30" style="mask-type:alpha" maskUnits="userSpaceOnUse" x="6" y="6" width="32" height="32">
<rect x="6" y="6" width="32" height="32" fill="#2C1C00"/>
</mask>
<g mask="url(#mask0_175_30)">
<path d="M32.9664 23.6999C32.4998 23.6999 32.0998 23.5332 31.7664 23.1999C31.4331 22.8666 31.2664 22.4666 31.2664 21.9999C31.2664 21.5332 31.4331 21.1332 31.7664 20.7999C32.0998 20.4666 32.4998 20.2999 32.9664 20.2999C33.4331 20.2999 33.8331 20.4666 34.1664 20.7999C34.4998 21.1332 34.6664 21.5332 34.6664 21.9999C34.6664 22.4666 34.4998 22.8666 34.1664 23.1999C33.8331 23.5332 33.4331 23.6999 32.9664 23.6999ZM11.0336 23.6999C10.567 23.6999 10.167 23.5332 9.83362 23.1999C9.50028 22.8666 9.33362 22.4666 9.33362 21.9999C9.33362 21.5332 9.50028 21.1332 9.83362 20.7999C10.167 20.4666 10.567 20.2999 11.0336 20.2999C11.5003 20.2999 11.9003 20.4666 12.2336 20.7999C12.567 21.1332 12.7336 21.5332 12.7336 21.9999C12.7336 22.4666 12.567 22.8666 12.2336 23.1999C11.9003 23.5332 11.5003 23.6999 11.0336 23.6999ZM22 34.6663C21.5334 34.6663 21.1334 34.4996 20.8 34.1663C20.4667 33.833 20.3 33.433 20.3 32.9663C20.3 32.4996 20.4667 32.0996 20.8 31.7663C21.1334 31.433 21.5334 31.2663 22 31.2663C22.4667 31.2663 22.8667 31.433 23.2 31.7663C23.5334 32.0996 23.7 32.4996 23.7 32.9663C23.7 33.433 23.5334 33.833 23.2 34.1663C22.8667 34.4996 22.4667 34.6663 22 34.6663ZM26.6 18.1663L25.8 17.3335L30.7 12.4999L31.5 13.2999L26.6 18.1663ZM17.4 18.1335L12.5336 13.2999L13.3664 12.4999L18.2 17.3335L17.4 18.1335ZM30.7 31.4335L25.8336 26.5999L26.6336 25.7663L31.5 30.6335L30.7 31.4335ZM13.3 31.4663L12.5 30.6335L17.3664 25.7663L18.1664 26.5999L13.3 31.4663ZM22 12.7335C21.5334 12.7335 21.1334 12.5668 20.8 12.2335C20.4667 11.9002 20.3 11.5002 20.3 11.0335C20.3 10.5668 20.4667 10.1668 20.8 9.8335C21.1334 9.50016 21.5334 9.3335 22 9.3335C22.4667 9.3335 22.8667 9.50016 23.2 9.8335C23.5334 10.1668 23.7 10.5668 23.7 11.0335C23.7 11.5002 23.5334 11.9002 23.2 12.2335C22.8667 12.5668 22.4667 12.7335 22 12.7335Z" fill="white"/>
</g>
</svg>
