<?xml version="1.0" encoding="utf-8"?>
<!-- Generator: Adobe Illustrator 26.0.1, SVG Export Plug-In . SVG Version: 6.00 Build 0)  -->
<svg version="1.1" id="Layer_1" xmlns="http://www.w3.org/2000/svg" xmlns:xlink="http://www.w3.org/1999/xlink" x="0px" y="0px"
	 viewBox="0 0 916.8 151.7" style="enable-background:new 0 0 916.8 151.7;" xml:space="preserve">
<style type="text/css">
	.st0{fill-rule:evenodd;clip-rule:evenodd;fill:#FDCD00;}
	.st1{fill:#FDCD00;}
</style>
<path class="st0" d="M87.1,49.1c-4.3,3.8-4.6,10.3-0.8,14.6c0.1,0.1,0.1,0.2,0.2,0.2c4,4.2,10.6,4.4,14.8,0.4
	c4.2-4,4.4-10.6,0.4-14.8l0,0C97.8,45.4,91.3,45.2,87.1,49.1C87.1,49.1,87.1,49.1,87.1,49.1z M63.9,65.3c-4.2,4-10.8,3.8-14.8-0.4
	S45.3,54,49.5,50.1s10.8-3.8,14.8,0.4S68.1,61.3,63.9,65.3L63.9,65.3z M67.4,85.2c4.6,4.9,12.4,5.2,17.3,0.6c0,0,0.1-0.1,0.1-0.1
	c5-4.7,5.2-12.6,0.5-17.6s-12.6-5.2-17.6-0.5l0,0c-4.9,4.7-5.1,12.4-0.5,17.4C67.3,85,67.3,85.1,67.4,85.2z M47.9,86.3
	c-4.1,3.9-4.4,10.4-0.5,14.5c0,0,0.1,0.1,0.1,0.1c4,4.1,10.5,4.3,14.6,0.4c4.1-3.9,4.4-10.4,0.5-14.5c0,0-0.1-0.1-0.1-0.1
	c-3.7-4.1-10.1-4.4-14.3-0.7C48.1,86.1,48,86.2,47.9,86.3L47.9,86.3z M100.9,104.3c-4.1,3.9-10.6,3.8-14.6-0.3c0,0,0,0-0.1-0.1
	c-3.9-4-3.9-10.4,0.1-14.3c0.1-0.1,0.2-0.2,0.3-0.3c4.1-3.9,10.6-3.8,14.5,0.3c0,0,0.1,0.1,0.1,0.1
	C105.2,93.9,105,100.4,100.9,104.3z M26.8,5.4c-1.2-1.3-1.1-3.2,0.1-4.4c1.3-1.3,3.3-1.3,4.6-0.1c0,0,0,0,0,0
	c1.3,1.3,1.2,3.4-0.1,4.7c0,0-0.1,0.1-0.1,0.1C30,6.8,27.9,6.7,26.8,5.4z M121.9,1.6c1.4-1.2,3.4-1,4.6,0.3c1.1,1.3,1.1,3.2-0.1,4.4
	c-1.2,1.3-3.3,1.3-4.6,0.1c-1.3-1.2-1.3-3.3-0.1-4.6C121.8,1.7,121.8,1.7,121.9,1.6z M7.9,10.5C6.6,8.8,6.8,6.4,8.4,5.1
	c1.6-1.3,4.1-1.1,5.4,0.5c1.3,1.6,1.1,3.8-0.3,5.2C11.9,12.3,9.4,12.1,7.9,10.5C7.9,10.5,7.9,10.5,7.9,10.5z M141.3,7.8
	c1.5-1.5,3.9-1.5,5.4-0.1s1.5,3.9,0.1,5.4c-0.1,0.1-0.1,0.1-0.2,0.2c-1.4,1.6-3.9,1.7-5.4,0.3c-1.6-1.4-1.7-3.9-0.3-5.4
	C141,8.1,141.2,8,141.3,7.8z M108.8,11.1c1.6-1.4,4-1.4,5.4,0.1c1.6,1.5,1.6,4.1,0.1,5.6c-1.5,1.6-4.1,1.6-5.7,0.1
	c-0.1-0.1-0.1-0.1-0.2-0.2C107,15.1,107.1,12.6,108.8,11.1z M38.8,17c-1.4-1.7-1.3-4.2,0.4-5.6c1.6-1.4,3.9-1.4,5.4,0.1
	c1.6,1.5,1.6,4.1,0.1,5.6c-1.5,1.6-4.1,1.6-5.7,0C38.9,17.2,38.8,17.1,38.8,17z M19.1,26.7c-2.2-2.5-2-6.3,0.4-8.6
	c2.4-2.3,6.3-2.2,8.6,0.2s2.2,6.3-0.2,8.6l0,0C25.4,29.2,21.5,29.1,19.1,26.7z M125.1,19.1c2.5-2.2,6.3-2,8.6,0.4
	c2.4,2.3,2.5,6.2,0.1,8.6c-2.3,2.4-6.2,2.5-8.6,0.1c-0.1-0.1-0.2-0.2-0.3-0.4C122.6,25.4,122.7,21.5,125.1,19.1L125.1,19.1z
	 M92,22.3c2.4-2.4,6.2-2.3,8.6,0.1c0.1,0.1,0.1,0.1,0.2,0.2c2.4,2.3,2.5,6.2,0.1,8.6c-2.3,2.4-6.2,2.5-8.6,0.1
	c-0.1-0.1-0.2-0.2-0.3-0.4c-2.4-2.3-2.4-6.1-0.1-8.5C91.9,22.3,91.9,22.3,92,22.3L92,22.3z M51.6,31.9c-2.3-2.5-2.2-6.4,0.2-8.8
	c2.4-2.3,6.3-2.2,8.6,0.2c2.3,2.4,2.2,6.3-0.2,8.6l0,0C57.8,34.3,54,34.3,51.6,31.9L51.6,31.9z M1.6,29.9c-1.2-1.3-1.1-3.2,0.1-4.4
	C3,24.2,5,24.1,6.3,25.4c0,0,0,0,0,0c1.3,1.3,1.3,3.3,0,4.6c0,0-0.1,0.1-0.1,0.1C4.9,31.3,2.9,31.2,1.6,29.9
	C1.7,29.9,1.7,29.9,1.6,29.9L1.6,29.9z M146.3,26.7c1.3-1.1,3.2-1.1,4.4,0.1c1.3,1.3,1.3,3.3,0,4.6s-3.3,1.3-4.6,0
	c-1.3-1.3-1.3-3.3,0-4.6C146.2,26.8,146.3,26.7,146.3,26.7z M33.9,44.8c-3-3.3-2.7-8.4,0.5-11.5c3.2-3,8.2-2.9,11.2,0.3
	c0,0,0,0,0.1,0.1c3.1,3.2,3.1,8.3-0.1,11.5C42.2,48.2,37,48.1,33.9,44.8L33.9,44.8z M106.9,33.9c3.3-3,8.4-2.8,11.5,0.5
	c3,3.2,2.9,8.2-0.2,11.2c0,0-0.1,0-0.1,0.1c-3.2,3.1-8.3,3.1-11.5-0.1C103.6,42.2,103.7,37.1,106.9,33.9L106.9,33.9z M81.8,49.1
	c3.1-3.2,3.1-8.3-0.1-11.5c-3.1-3.1-8.1-3.2-11.3-0.1c-3.2,3.1-3.4,8.2-0.3,11.5C73.3,52.1,78.4,52.2,81.8,49.1z M11.1,43
	c-1.4-1.5-1.4-3.9,0.1-5.4c1.5-1.6,4.1-1.6,5.6-0.1c1.6,1.6,1.6,4.2,0,5.7c0,0-0.1,0.1-0.1,0.1C15.1,44.8,12.6,44.6,11.1,43L11.1,43
	z M134.7,38.8c1.7-1.5,4.2-1.3,5.6,0.3c1.4,1.7,1.1,4.2-0.6,5.6c-1.5,1.2-3.7,1.2-5.2-0.1c-1.6-1.6-1.6-4.1,0-5.7
	C134.6,38.9,134.6,38.8,134.7,38.8z M22.3,59.8c-2.4-2.4-2.3-6.2,0-8.6c0.1-0.1,0.1-0.1,0.2-0.2c2.5-2.3,6.4-2.2,8.8,0.2
	c2.2,2.5,2,6.3-0.4,8.6c-2.3,2.4-6.1,2.4-8.5,0.1C22.3,59.9,22.3,59.8,22.3,59.8L22.3,59.8z M119.8,51.7c2.5-2.3,6.4-2.2,8.8,0.2
	c2.5,2.2,2.8,6,0.6,8.5c-2.2,2.5-6,2.8-8.5,0.6c-0.3-0.2-0.5-0.5-0.8-0.8C117.5,57.8,117.5,54.1,119.8,51.7z M114.6,82.7
	c3.1-3.1,3.2-8.1,0.2-11.3c-3.1-3.2-8.2-3.4-11.5-0.3c-3.2,3.2-3.2,8.4-0.1,11.7C106.3,85.9,111.4,85.8,114.6,82.7L114.6,82.7z
	 M46.6,83c-3.3,3-8.4,2.8-11.5-0.5c-3-3.2-2.9-8.2,0.2-11.2c0,0,0,0,0.1-0.1c3.2-3.1,8.3-3.1,11.5,0.1C49.9,74.6,49.8,79.8,46.6,83z
	 M22.2,91c-2.4,2.3-2.5,6.1-0.2,8.6c0.1,0.1,0.1,0.1,0.2,0.2c2.2,2.5,6,2.8,8.6,0.6s2.8-6,0.6-8.6c-0.2-0.2-0.4-0.4-0.6-0.6
	c-2.3-2.4-6.1-2.5-8.5-0.2C22.2,91,22.2,91,22.2,91L22.2,91z M119.5,100.7c2.4,2.4,6.3,2.4,8.8,0c2.3-2.4,2.3-6.2-0.1-8.6
	c-2.4-2.3-6.2-2.3-8.6,0.1C117.3,94.6,117.2,98.4,119.5,100.7L119.5,100.7z M78.9,117c-3.2,3-8.2,2.9-11.2-0.2c0,0,0,0-0.1-0.1
	c-3.1-3.2-3.1-8.3,0.1-11.5c3.3-3.1,8.5-2.9,11.7,0.3C82.4,108.9,82.1,114,78.9,117z M33.4,106.2c-3.1,3.3-2.9,8.4,0.3,11.5
	c3.1,3.1,8.1,3.1,11.2,0c0,0,0,0,0.1-0.1c3.2-3.1,3.3-8.3,0.2-11.5C41.9,103.1,36.7,103.1,33.4,106.2L33.4,106.2z M106.3,118.3
	c3.3,3.1,8.4,2.9,11.5-0.3c3.1-3.1,3.1-8.1,0-11.2c0,0,0,0-0.1-0.1c-3.1-3.2-8.3-3.3-11.5-0.2C103.1,109.8,103.1,115,106.3,118.3z
	 M10.6,107.6c-1.5,1.5-1.5,3.9,0,5.4c1.5,1.6,4,1.7,5.6,0.2c1.6-1.6,1.7-4.1,0.1-5.7c0,0-0.1-0.1-0.1-0.1
	C14.6,105.9,12.1,106,10.6,107.6z M134.1,114c1.6,1.5,4.1,1.3,5.6-0.3c1.5-1.5,1.5-3.9,0-5.4c-1.5-1.6-4-1.7-5.6-0.2
	c-1.6,1.5-1.7,4-0.2,5.7C134,113.8,134.1,113.9,134.1,114L134.1,114z M50.9,119.5c-2.4,2.4-2.4,6.3,0,8.8c2.3,2.4,6.1,2.6,8.5,0.3
	c0.1-0.1,0.2-0.2,0.3-0.3c2.3-2.4,2.2-6.2-0.2-8.5c0,0-0.1-0.1-0.1-0.1C57.1,117.3,53.3,117.3,50.9,119.5L50.9,119.5z M91,129.6
	c2.3,2.4,6.2,2.5,8.6,0.2c0.1-0.1,0.1-0.1,0.2-0.2c2.4-2.4,2.4-6.4-0.1-8.8c-2.5-2.2-6.2-2.1-8.6,0.2
	C88.8,123.3,88.7,127.1,91,129.6C91,129.6,91,129.6,91,129.6L91,129.6z M0.9,120.5c-1.2,1.2-1.2,3.2,0,4.4c1.2,1.3,3.3,1.4,4.6,0.2
	s1.4-3.3,0.2-4.6s-3.3-1.4-4.6-0.2C1,120.4,0.9,120.5,0.9,120.5z M145.5,126.3c1.2,1.2,3.2,1.2,4.4,0c1.3-1.2,1.4-3.3,0.2-4.6
	c0,0,0,0,0,0c-1.3-1.3-3.3-1.3-4.6,0C144.2,123,144.2,125,145.5,126.3L145.5,126.3z M18.3,124.1c-2.2,2.5-2.1,6.3,0.2,8.6
	c2.4,2.4,6.2,2.3,8.6-0.1c2.4-2.4,2.3-6.2,0-8.6C24.6,121.7,20.7,121.7,18.3,124.1L18.3,124.1z M124.1,133.4
	c2.5,2.2,6.2,2.1,8.6-0.2c2.4-2.3,2.5-6.1,0.2-8.5c0,0-0.1-0.1-0.1-0.1c-2.3-2.4-6.2-2.5-8.6-0.2c-0.1,0.1-0.1,0.1-0.2,0.2
	C121.6,127,121.6,131,124.1,133.4L124.1,133.4z M37.8,134.1c-1.5,1.6-1.4,4.1,0.2,5.6c1.5,1.5,3.9,1.5,5.4,0c1.6-1.5,1.7-4,0.2-5.6
	c-1.5-1.6-4-1.7-5.7-0.2C37.9,134,37.8,134.1,37.8,134.1z M107.6,141.1c1.5,1.5,3.9,1.5,5.4,0c1.6-1.5,1.7-4,0.2-5.6
	c-1.6-1.6-4.1-1.7-5.8-0.1c0,0-0.1,0.1-0.1,0.1C105.9,137.1,106,139.6,107.6,141.1L107.6,141.1z M140,145.1c1.5,1.5,4,1.5,5.4,0
	c1.5-1.5,1.5-4,0-5.5l0,0c-1.4-1.6-3.9-1.7-5.5-0.3c-1.6,1.4-1.7,3.9-0.3,5.5C139.8,144.9,139.9,145,140,145.1z M6.7,140.1
	c-1.5,1.5-1.5,3.9,0,5.4c1.5,1.5,3.9,1.5,5.4,0c1.6-1.5,1.7-4,0.2-5.6C10.7,138.4,8.2,138.5,6.7,140.1z M25.4,145.6
	c-1.2,1.2-1.2,3.2,0,4.4c1.2,1.3,3.2,1.4,4.6,0.2c1.3-1.2,1.4-3.2,0.2-4.6c-0.1-0.1-0.2-0.2-0.3-0.3
	C28.7,144.2,26.7,144.2,25.4,145.6C25.5,145.5,25.4,145.6,25.4,145.6L25.4,145.6z M120.5,150.9c1.3,1.3,3.3,1.3,4.6,0s1.3-3.3,0-4.6
	l0,0c-1.3-1.3-3.3-1.4-4.7-0.1c0,0-0.1,0.1-0.1,0.1C119.1,147.6,119.2,149.7,120.5,150.9C120.5,150.9,120.5,150.9,120.5,150.9
	L120.5,150.9z"/>
<path class="st1" d="M248.8,61.4c0,23.1-16.7,37.1-44.4,37.1h-26.3v32.2h-15.2V24.3h41.5C232,24.3,248.8,38.3,248.8,61.4z
	 M233.6,61.4c0-15.2-10.2-23.9-29.6-23.9h-25.8v47.7h25.8C223.4,85.2,233.6,76.6,233.6,61.4z"/>
<rect x="282.1" y="66.2" class="st1" width="34.1" height="12.9"/>
<polygon class="st1" points="338.3,117.5 338.3,130.7 261.1,130.7 261.1,24.3 336.2,24.3 336.2,37.5 276.3,37.5 276.3,117.5 "/>
<path class="st1" d="M468.6,37.5v37.1H522v13.1h-53.3v43h-15.2V24.3h75.1v13.2H468.6z"/>
<path class="st1" d="M617.2,117.5v13.2H540V24.3h75.1v13.2h-59.9v32.7h53.3v12.9h-53.3v34.3H617.2z"/>
<path class="st1" d="M622.7,77.5c0-31.5,24-54.4,56.4-54.4c16.4,0,30.7,5.6,40.4,16.6l-9.9,9.6c-8.2-8.7-18.2-12.6-30-12.6
	c-24,0-41.8,17.3-41.8,40.9s17.8,40.9,41.8,40.9c11.4,0.2,22.3-4.4,30-12.8l9.9,9.6c-9.7,10.9-24,16.7-40.6,16.7
	C646.7,131.9,622.7,108.9,622.7,77.5z"/>
<path class="st1" d="M765.2,37.5h-36.5V24.3h88v13.2h-36.5v93.2h-15L765.2,37.5z"/>
<path class="st1" d="M916.8,117.5v13.2h-88.9v-10.3l66.9-82.8h-65.9V24.3h85.9v10.3l-66.6,82.8H916.8z"/>
<path class="st1" d="M415.4,95c14.9-5.3,23.4-17.2,23.4-33.6c0-23.1-16.7-37.1-44.4-37.1h-41.5v61.1h-70.8v12.9h70.8v32.4h15.2V98.3
	h26.3c2.3,0,4.6-0.2,6.7-0.3l23,32.7h16.6L415.4,95z M394,85.4h-25.8V37.5H394c19.5,0,29.6,8.7,29.6,23.9
	C423.6,76.6,413.4,85.4,394,85.4z"/>
</svg>
