<svg width="44" height="44" viewBox="0 0 44 44" fill="none" xmlns="http://www.w3.org/2000/svg">
<circle cx="22" cy="22" r="22" fill="#FDCD00"/>
<circle cx="22" cy="22" r="19.5" fill="#FDCD00" stroke="white"/>
<mask id="mask0_175_29" style="mask-type:alpha" maskUnits="userSpaceOnUse" x="6" y="6" width="32" height="32">
<rect x="6" y="6" width="32" height="32" fill="#C4C4C4"/>
</mask>
<g mask="url(#mask0_175_29)">
<path d="M14.8336 34.3663L16.3664 30.9335C15.9664 30.6669 15.5941 30.389 15.2496 30.0999C14.9056 29.8109 14.5669 29.4775 14.2336 29.0999C14.0779 29.189 13.9168 29.2501 13.7504 29.2831C13.5835 29.3167 13.4221 29.3335 13.2664 29.3335C12.6445 29.3335 12.1112 29.1111 11.6664 28.6663C11.2221 28.2221 11 27.6887 11 27.0663C11 26.7111 11.0832 26.3669 11.2496 26.0335C11.4165 25.7002 11.6333 25.4335 11.9 25.2335C11.7443 24.7221 11.6221 24.1997 11.5336 23.6663C11.4445 23.133 11.4 22.5775 11.4 21.9999C11.4 21.4223 11.4445 20.8669 11.5336 20.3335C11.6221 19.8002 11.7443 19.2669 11.9 18.7335C11.6333 18.5335 11.4165 18.2725 11.2496 17.9503C11.0832 17.6277 11 17.2775 11 16.8999C11 16.2999 11.2221 15.7722 11.6664 15.3167C12.1112 14.8613 12.6445 14.6335 13.2664 14.6335C13.4221 14.6335 13.5835 14.6557 13.7504 14.6999C13.9168 14.7442 14.0667 14.7997 14.2 14.8663C14.9557 14.0663 15.7891 13.3943 16.7 12.8503C17.6109 12.3058 18.6221 11.9111 19.7336 11.6663C19.8003 11.0887 20.0557 10.6055 20.5 10.2167C20.9443 9.82794 21.4443 9.63354 22 9.63354C22.5557 9.63354 23.0557 9.81675 23.5 10.1831C23.9443 10.5501 24.1997 11.0223 24.2664 11.5999C25.3997 11.8442 26.4387 12.233 27.3832 12.7663C28.3277 13.2997 29.1667 13.9775 29.9 14.7999C30.0333 14.7333 30.1723 14.6943 30.3168 14.6831C30.4613 14.6719 30.6003 14.6663 30.7336 14.6663C31.3555 14.6663 31.8888 14.8887 32.3336 15.3335C32.7779 15.7778 33 16.3111 33 16.9335C33 17.3111 32.9168 17.661 32.7504 17.9831C32.5835 18.3053 32.3555 18.5554 32.0664 18.7335C32.2445 19.2669 32.3779 19.8002 32.4664 20.3335C32.5555 20.8669 32.6 21.4223 32.6 21.9999C32.6 22.5775 32.5555 23.1386 32.4664 23.6831C32.3779 24.2277 32.2445 24.7554 32.0664 25.2663C32.3555 25.4887 32.5779 25.761 32.7336 26.0831C32.8888 26.4053 32.9664 26.733 32.9664 27.0663C32.9664 27.6887 32.7443 28.2221 32.3 28.6663C31.8557 29.1111 31.3112 29.3335 30.6664 29.3335C30.5331 29.3335 30.3888 29.3167 30.2336 29.2831C30.0779 29.2501 29.9333 29.2111 29.8 29.1663C29.4667 29.5221 29.1277 29.8501 28.7832 30.1503C28.4387 30.4501 28.0555 30.7221 27.6336 30.9663L29.1 34.3663H27.9336L26.7 31.5335C26.3 31.7335 25.9 31.9002 25.5 32.0335C25.1 32.1669 24.6888 32.2778 24.2664 32.3663C24.1997 32.9663 23.9443 33.4442 23.5 33.7999C23.0557 34.1557 22.5557 34.3335 22 34.3335C21.4443 34.3335 20.9443 34.1445 20.5 33.7663C20.0557 33.3887 19.8003 32.9111 19.7336 32.3335C19.2888 32.2221 18.872 32.0997 18.4832 31.9663C18.0944 31.833 17.7112 31.6663 17.3336 31.4663L16 34.3663H14.8336ZM16.8 29.8663L19.5336 23.8999C19.2888 23.6333 19.1109 23.3389 19 23.0167C18.8891 22.6946 18.8336 22.3557 18.8336 21.9999C18.8336 21.1333 19.1501 20.3887 19.7832 19.7663C20.4168 19.1445 21.1669 18.8335 22.0336 18.8335C22.9003 18.8335 23.6336 19.1445 24.2336 19.7663C24.8336 20.3887 25.1336 21.1333 25.1336 21.9999C25.1336 22.3557 25.0725 22.6946 24.9504 23.0167C24.8277 23.3389 24.6555 23.6445 24.4336 23.9335L27.1336 29.9335C27.4669 29.7335 27.7779 29.5055 28.0664 29.2495C28.3555 28.9941 28.6333 28.7221 28.9 28.4335C28.7443 28.2554 28.6221 28.0498 28.5336 27.8167C28.4445 27.5831 28.4 27.333 28.4 27.0663C28.4 26.3997 28.6667 25.833 29.2 25.3663C29.7333 24.8997 30.3333 24.7221 31 24.8335C31.1557 24.3887 31.2725 23.933 31.3504 23.4663C31.4277 22.9997 31.4664 22.5109 31.4664 21.9999C31.4664 21.4666 31.4277 20.9722 31.3504 20.5167C31.2725 20.0613 31.1669 19.6111 31.0336 19.1663C30.3669 19.2997 29.7723 19.133 29.2496 18.6663C28.7275 18.1997 28.4664 17.6221 28.4664 16.9335C28.4664 16.6669 28.5109 16.4223 28.6 16.1999C28.6891 15.9775 28.8003 15.7663 28.9336 15.5663C28.2888 14.8554 27.5611 14.2722 26.7504 13.8167C25.9392 13.3613 25.0669 13.0111 24.1336 12.7663C23.9779 13.1663 23.7112 13.5053 23.3336 13.7831C22.9555 14.061 22.5109 14.1999 22 14.1999C21.4891 14.1999 21.0445 14.061 20.6664 13.7831C20.2888 13.5053 20.0333 13.1663 19.9 12.7663C18.9224 13.0111 18.0336 13.3613 17.2336 13.8167C16.4336 14.2722 15.7112 14.8666 15.0664 15.5999C15.2221 15.7775 15.3389 15.9831 15.4168 16.2167C15.4947 16.4498 15.5336 16.6775 15.5336 16.8999C15.5336 17.6557 15.2557 18.2445 14.7 18.6663C14.1443 19.0887 13.5555 19.2554 12.9336 19.1663C12.8003 19.5887 12.6947 20.0333 12.6168 20.4999C12.5389 20.9666 12.5 21.4666 12.5 21.9999C12.5 22.5109 12.5389 22.9997 12.6168 23.4663C12.6947 23.933 12.8003 24.3887 12.9336 24.8335C13.5555 24.7221 14.1443 24.8887 14.7 25.3335C15.2557 25.7778 15.5336 26.3554 15.5336 27.0663C15.5336 27.333 15.4947 27.5775 15.4168 27.7999C15.3389 28.0223 15.2221 28.2111 15.0664 28.3663C15.3331 28.6778 15.6053 28.9501 15.8832 29.1831C16.1611 29.4167 16.4667 29.6445 16.8 29.8663ZM17.7 30.4335C18.0333 30.5887 18.3779 30.733 18.7336 30.8663C19.0888 30.9997 19.4776 31.1109 19.9 31.1999C20.0557 30.7999 20.3168 30.461 20.6832 30.1831C21.0501 29.9053 21.4891 29.7663 22 29.7663C22.5109 29.7663 22.9555 29.9053 23.3336 30.1831C23.7112 30.461 23.9779 30.7999 24.1336 31.1999C24.5112 31.1109 24.8723 31.0109 25.2168 30.8999C25.5613 30.789 25.8891 30.6557 26.2 30.4999L23.6336 24.6663C23.3888 24.8221 23.1275 24.9445 22.8496 25.0335C22.5723 25.1221 22.2779 25.1663 21.9664 25.1663C21.6779 25.1663 21.3891 25.1165 21.1 25.0167C20.8109 24.9165 20.5331 24.7775 20.2664 24.5999L17.7 30.4335ZM22 24.0335C22.5333 24.0335 23 23.8389 23.4 23.4495C23.8 23.0607 24 22.5775 24 21.9999C24 21.4442 23.8 20.9663 23.4 20.5663C23 20.1663 22.5333 19.9663 22 19.9663C21.4224 19.9663 20.9392 20.1663 20.5504 20.5663C20.1611 20.9663 19.9664 21.4442 19.9664 21.9999C19.9664 22.5775 20.1611 23.0607 20.5504 23.4495C20.9392 23.8389 21.4224 24.0335 22 24.0335Z" fill="white"/>
</g>
</svg>
