<svg width="487" height="423" viewBox="0 0 487 423" fill="none" xmlns="http://www.w3.org/2000/svg">
<g clip-path="url(#clip0_175_35)">
<path d="M371.275 168.164C370.247 168.84 369.238 169.527 368.233 170.235C358.53 197.105 353.602 225.342 353.655 253.773C353.652 257.061 353.726 260.341 353.879 263.612C354.95 288.147 359.838 312.392 368.382 335.545C368.833 336.764 369.292 337.978 369.759 339.186C370.094 340.053 370.434 340.928 370.799 341.787C371.165 342.219 371.525 342.644 371.884 343.068C371.909 343.086 371.932 343.118 371.957 343.137C372.102 343.308 372.247 343.479 372.378 343.648C373 344.376 373.63 345.098 374.251 345.825L373.759 345.879L372.526 346.008L372.531 346.016C372.946 345.99 373.37 345.958 373.787 345.918C373.94 345.912 374.105 345.909 374.26 345.889C374.399 345.88 374.545 345.866 374.684 345.858C392.498 344.618 410.71 342.971 426.609 335.281C443.25 327.226 456.91 310.781 455.331 292.999C455.117 290.67 454.637 288.371 453.9 286.142C453.593 285.211 453.238 284.299 452.861 283.39C450.567 277.822 446.765 272.94 441.846 269.245C436.928 265.55 431.071 263.176 424.876 262.367C418.682 261.558 412.374 262.343 406.602 264.642C400.83 266.94 395.801 270.669 392.033 275.445C396.031 256.914 416.488 246.656 435.043 240.153C453.612 233.652 474.525 226.788 483.366 209.863C488.303 200.444 487.924 189.736 483.948 180.007C483.828 179.716 483.701 179.417 483.566 179.124C478.598 167.689 469.306 158.47 457.547 153.309C435.534 144.041 409.545 148.781 387.919 158.85C382.133 161.547 376.569 164.661 371.275 168.164Z" fill="#F2F2F2"/>
<path d="M438.614 284.086C421.763 286.312 406.107 293.67 393.961 305.073C383.622 314.887 376.232 327.185 372.569 340.677C372.355 341.449 372.164 342.219 371.986 342.991C371.522 342.23 371.069 341.452 370.621 340.68C370.332 340.187 370.039 339.685 369.759 339.186C370.094 340.053 370.434 340.928 370.799 341.787C371.165 342.219 371.525 342.644 371.884 343.068C371.909 343.086 371.931 343.118 371.957 343.137C372.102 343.308 372.247 343.48 372.378 343.648C373 344.376 373.63 345.098 374.251 345.825L373.759 345.879L372.526 346.008L372.531 346.016C372.946 345.99 373.37 345.958 373.787 345.919C373.939 345.912 374.105 345.909 374.26 345.889C374.3 345.656 374.354 345.425 374.408 345.194C377.976 327.82 387.991 312.269 402.603 301.414C417.215 290.559 435.436 285.135 453.9 286.142C453.593 285.211 453.238 284.299 452.861 283.39C448.1 283.225 443.333 283.458 438.614 284.086Z" fill="white"/>
<path d="M379.172 218.774C372.614 223.94 366.879 229.996 362.15 236.749C359.689 240.347 357.584 244.156 355.861 248.127C355.042 249.97 354.307 251.864 353.655 253.773C353.652 257.061 353.726 260.341 353.879 263.612C354.391 261.112 355.042 258.639 355.83 256.205C356.236 254.87 356.695 253.559 357.188 252.26C362.715 237.721 373.421 225.965 386.272 216.822C400.043 207.038 415.733 199.46 431.721 193.637C448.105 187.645 465.195 183.599 482.608 181.589C483.001 181.541 483.36 181.35 483.609 181.055C483.859 180.76 483.98 180.385 483.948 180.007C483.946 179.676 483.809 179.359 483.566 179.124C483.438 179.014 483.285 178.935 483.118 178.892C482.952 178.849 482.778 178.844 482.61 178.878C480.461 179.126 478.318 179.383 476.178 179.695C458.369 182.239 440.96 186.893 424.351 193.551C408.317 199.957 392.531 208.047 379.172 218.774Z" fill="white"/>
<path d="M463.808 136.003C467.114 136.003 469.794 133.436 469.794 130.271C469.794 127.105 467.114 124.539 463.808 124.539C460.501 124.539 457.821 127.105 457.821 130.271C457.821 133.436 460.501 136.003 463.808 136.003Z" fill="#F2F2F2"/>
<path d="M346.661 421.618H199.061C190.212 421.609 181.728 418.239 175.471 412.248C169.214 406.257 165.694 398.135 165.684 389.663V31.9559C165.694 23.4836 169.214 15.3611 175.471 9.37029C181.728 3.37946 190.212 0.00959858 199.061 0H346.661C355.51 0.00959694 363.994 3.37946 370.251 9.37028C376.508 15.3611 380.028 23.4836 380.038 31.9559V389.663C380.028 398.135 376.508 406.257 370.251 412.248C363.994 418.239 355.51 421.609 346.661 421.618Z" fill="#3F3D56"/>
<path d="M345.009 9.92041H328.58C327.114 9.92179 325.708 10.4801 324.671 11.4728C323.634 12.4655 323.051 13.8115 323.049 15.2154C323.047 18.0857 321.854 20.8377 319.734 22.8673C317.615 24.897 314.74 26.0384 311.742 26.0411H231.389C228.391 26.0384 225.517 24.897 223.397 22.8673C221.277 20.8377 220.085 18.0857 220.082 15.2154C220.081 13.8115 219.497 12.4655 218.461 11.4728C217.424 10.4801 216.018 9.92179 214.552 9.92041H200.065C193.354 9.9286 186.92 12.4848 182.174 17.0283C177.429 21.5718 174.759 27.7318 174.751 34.1573V389.321C174.759 395.747 177.429 401.907 182.174 406.45C186.92 410.994 193.354 413.55 200.065 413.558H345.009C351.72 413.55 358.154 410.994 362.9 406.45C367.645 401.907 370.315 395.747 370.324 389.321V34.1573C370.315 27.7318 367.645 21.5718 362.9 17.0283C358.154 12.4848 351.72 9.9286 345.009 9.92041Z" fill="white"/>
<path d="M291.803 17.0508H246.472C246.042 17.0508 245.63 16.8875 245.327 16.5968C245.023 16.3061 244.853 15.9119 244.853 15.5008C244.853 15.0896 245.023 14.6954 245.327 14.4047C245.63 14.114 246.042 13.9507 246.472 13.9507H291.803C292.232 13.9507 292.644 14.114 292.948 14.4047C293.251 14.6954 293.422 15.0896 293.422 15.5008C293.422 15.9119 293.251 16.3061 292.948 16.5968C292.644 16.8875 292.232 17.0508 291.803 17.0508Z" fill="white"/>
<path d="M298.927 16.7409C299.642 16.7409 300.222 16.1857 300.222 15.5008C300.222 14.8159 299.642 14.2607 298.927 14.2607C298.211 14.2607 297.631 14.8159 297.631 15.5008C297.631 16.1857 298.211 16.7409 298.927 16.7409Z" fill="white"/>
<path d="M381.333 141.056C380.56 141.055 379.819 140.761 379.273 140.238C378.727 139.715 378.419 139.006 378.418 138.266V83.7037C378.418 82.9637 378.725 82.254 379.272 81.7308C379.818 81.2075 380.56 80.9136 381.333 80.9136C382.106 80.9136 382.847 81.2075 383.393 81.7308C383.94 82.254 384.247 82.9637 384.247 83.7037V138.266C384.246 139.006 383.939 139.715 383.392 140.238C382.846 140.761 382.105 141.055 381.333 141.056Z" fill="#3F3D56"/>
<path d="M165.684 100.754C164.912 100.754 164.171 100.459 163.625 99.9364C163.078 99.4133 162.771 98.7041 162.77 97.9643V85.5638C162.77 84.8238 163.077 84.1141 163.624 83.5909C164.17 83.0676 164.911 82.7737 165.684 82.7737C166.457 82.7737 167.198 83.0676 167.745 83.5909C168.291 84.1141 168.598 84.8238 168.598 85.5638V97.9643C168.598 98.7041 168.29 99.4133 167.744 99.9364C167.198 100.459 166.457 100.754 165.684 100.754Z" fill="#3F3D56"/>
<path d="M165.684 123.695C164.912 123.695 164.171 123.4 163.625 122.877C163.078 122.354 162.771 121.645 162.77 120.905V108.505C162.77 107.765 163.077 107.055 163.624 106.532C164.17 106.009 164.911 105.715 165.684 105.715C166.457 105.715 167.198 106.009 167.745 106.532C168.291 107.055 168.598 107.765 168.598 108.505V120.905C168.598 121.645 168.29 122.354 167.744 122.877C167.198 123.4 166.457 123.695 165.684 123.695Z" fill="#3F3D56"/>
<path d="M432.592 422.859H0.647593C0.47584 422.859 0.311122 422.793 0.189675 422.677C0.0682278 422.561 0 422.403 0 422.239C0 422.074 0.0682278 421.916 0.189675 421.8C0.311122 421.684 0.47584 421.619 0.647593 421.619H432.592C432.764 421.619 432.928 421.684 433.05 421.8C433.171 421.916 433.24 422.074 433.24 422.239C433.24 422.403 433.171 422.561 433.05 422.677C432.928 422.793 432.764 422.859 432.592 422.859Z" fill="#3F3D56"/>
<path d="M40.571 415.356H48.5105L52.2872 386.036H40.5697L40.571 415.356Z" fill="#FFB6B6"/>
<path d="M38.5458 412.874L54.1813 412.873H54.1819C56.8245 412.873 59.3588 413.879 61.2274 415.668C63.096 417.457 64.1459 419.883 64.1461 422.413V422.723L38.5463 422.724L38.5458 412.874Z" fill="#2F2E41"/>
<path d="M113.749 415.356H121.688L125.465 386.036H113.748L113.749 415.356Z" fill="#FFB6B6"/>
<path d="M111.724 412.874L127.359 412.873H127.36C130.002 412.873 132.537 413.879 134.405 415.668C136.274 417.457 137.324 419.883 137.324 422.413V422.723L111.724 422.724L111.724 412.874Z" fill="#2F2E41"/>
<path d="M104.163 179.808L109.343 211.429L60.1263 212.049L66.6023 181.668L104.163 179.808Z" fill="#FFB6B6"/>
<path d="M111.287 203.369L123.591 243.671L125.534 409.281H112.258L80.5259 276.222L51.3842 405.808H38.4324L47.4987 260.101C47.4987 260.101 42.9655 224.14 58.5077 213.599V204.35L111.287 203.369Z" fill="#2F2E41"/>
<path d="M40.6767 234.861C42.0471 234.503 43.3189 233.863 44.4026 232.984C45.4863 232.104 46.3555 231.009 46.949 229.773C47.5424 228.538 47.8458 227.193 47.8376 225.833C47.8294 224.473 47.5099 223.131 46.9016 221.902L67.8392 156.546L52.4387 153.623L33.2892 217.686C31.2008 218.801 29.6122 220.611 28.8245 222.773C28.0368 224.935 28.1046 227.298 29.0152 229.415C29.9259 231.532 31.6159 233.256 33.7652 234.26C35.9145 235.263 38.3737 235.477 40.6767 234.861Z" fill="#FFB6B6"/>
<path d="M99.0935 114.593C107.768 106.287 107.768 92.8217 99.0935 84.5164C90.4189 76.2111 76.3547 76.2111 67.6802 84.5164C59.0056 92.8217 59.0056 106.287 67.6802 114.593C76.3547 122.898 90.4189 122.898 99.0935 114.593Z" fill="#FFB6B6"/>
<path d="M67.5041 196.858C66.6319 196.692 65.8407 196.257 65.2518 195.619C64.6628 194.982 64.3087 194.176 64.2437 193.327C63.7553 186.924 61.3393 175.795 57.0634 160.248C56.0997 156.735 55.923 153.065 56.5446 149.482C57.1662 145.898 58.5721 142.481 60.6702 139.454C62.7684 136.427 65.5112 133.859 68.7188 131.918C71.9264 129.978 75.5263 128.708 79.2823 128.193C82.8429 127.7 86.4707 127.895 89.951 128.768C93.4313 129.64 96.6935 131.172 99.5446 133.273C102.396 135.374 104.778 138.001 106.55 140.999C108.322 143.996 109.448 147.304 109.862 150.725C111.977 168.564 107.986 186.486 106.172 193.362C105.953 194.19 105.455 194.926 104.757 195.457C104.058 195.989 103.197 196.287 102.305 196.305L68.3786 196.932C68.0852 196.938 67.7919 196.913 67.5041 196.858Z" fill="#FDCD00"/>
<path d="M163.076 139.863C162.872 140.301 162.704 140.753 162.575 141.216L120.108 155.032L111.903 148.169L99.4655 158.672L112.759 172.174C113.833 173.264 115.247 173.992 116.79 174.248C118.333 174.503 119.92 174.273 121.315 173.591L166.756 151.368C168.4 152.333 170.311 152.796 172.236 152.696C174.161 152.595 176.008 151.936 177.533 150.806C179.057 149.676 180.186 148.129 180.769 146.369C181.352 144.61 181.362 142.722 180.797 140.958C180.233 139.193 179.12 137.634 177.608 136.49C176.096 135.345 174.255 134.668 172.331 134.549C170.407 134.431 168.491 134.875 166.838 135.825C165.185 136.774 163.872 138.182 163.076 139.863H163.076Z" fill="#FFB6B6"/>
<path d="M118.628 155.787L103.147 168.733C102.707 169.101 102.189 169.374 101.628 169.534C101.067 169.693 100.477 169.735 99.8983 169.656C99.3193 169.577 98.7648 169.38 98.2725 169.078C97.7803 168.775 97.3619 168.375 97.0458 167.904L85.9728 151.395C84.0174 149.227 83.0398 146.404 83.2543 143.547C83.4689 140.69 84.8582 138.03 87.1176 136.152C89.3769 134.274 92.3219 133.33 95.307 133.527C98.292 133.725 101.073 135.048 103.041 137.206L118.591 149.887C119.036 150.25 119.394 150.701 119.641 151.209C119.887 151.716 120.017 152.269 120.021 152.829C120.024 153.389 119.902 153.943 119.661 154.453C119.421 154.964 119.069 155.419 118.628 155.787V155.787Z" fill="#FDCD00"/>
<path d="M65.3933 173.28L46.2622 166.084C45.7179 165.879 45.2261 165.565 44.8202 165.162C44.4144 164.758 44.104 164.276 43.9103 163.748C43.7166 163.22 43.6442 162.657 43.6978 162.1C43.7515 161.542 43.9301 161.002 44.2213 160.517L54.4285 143.504C55.5377 140.843 57.7042 138.711 60.4527 137.577C63.2011 136.443 66.3072 136.399 69.0896 137.454C71.872 138.51 74.1036 140.579 75.2948 143.208C76.4859 145.837 76.5395 148.81 75.4437 151.477L70.8464 170.531C70.7145 171.077 70.4615 171.589 70.1044 172.032C69.7473 172.476 69.2946 172.84 68.7771 173.101C68.2596 173.362 67.6895 173.513 67.1056 173.544C66.5216 173.575 65.9376 173.485 65.3933 173.28V173.28Z" fill="#E4E4E4"/>
<path d="M93.6572 94.7906C98.4976 99.5231 105.07 104.691 111.598 101.869C115.885 100.015 118.052 95.4883 117.393 91.0294C116.207 83.011 109.365 78.2816 102.694 74.3855C94.0207 69.3205 84.3772 64.7704 74.2327 65.2935C64.0883 65.8167 53.7007 73.1485 53.499 82.8733C53.3367 90.6937 59.4781 98.3922 56.8468 105.797C54.1986 113.25 44.3733 115.573 36.1524 115.434C27.9314 115.296 18.958 114.05 12.1233 118.426C3.40435 124.008 2.64455 136.8 7.96981 145.452C13.2951 154.104 22.9383 159.398 32.4821 163.564C45.1271 169.084 59.1492 173.384 72.7805 170.794C86.4117 168.203 98.9932 156.654 97.9469 143.386C97.5049 137.782 94.8024 132.603 92.1973 127.567C89.5921 122.53 86.984 117.286 86.7553 111.67C86.5646 106.99 88.4646 101.958 92.2533 99.1942C92.9377 98.7143 93.4457 98.0392 93.7043 97.2658C93.9629 96.4923 93.9588 95.6602 93.6927 94.8891L93.6572 94.7906Z" fill="#2F2E41"/>
<path d="M379.001 177.464C373.008 180.925 362.331 185.261 351.42 180.805L344.367 177.924L358.501 162.667C347.222 150.692 340.983 135.1 341 118.934C341.017 102.767 347.29 87.187 358.594 75.2344C369.898 63.2817 385.421 55.8143 402.135 54.2898C418.848 52.7653 435.551 57.293 448.985 66.9893C462.418 76.6855 471.617 90.8543 474.786 106.73C477.955 122.606 474.867 139.049 466.124 152.85C457.381 166.651 443.611 176.82 427.502 181.371C411.393 185.922 394.101 184.529 379.001 177.464Z" fill="white"/>
<path d="M378.931 177.579C373.152 180.797 362.143 185.245 350.919 180.728L342.869 177.49L357.306 162.141C348.323 152.557 342.532 140.667 340.66 127.968C338.788 115.269 340.92 102.328 346.787 90.7757C352.654 79.2234 361.993 69.5759 373.63 63.0484C385.266 56.5209 398.679 53.4052 412.178 54.0938C425.678 54.7823 438.661 59.2442 449.492 66.9176C460.323 74.5911 468.518 85.1328 473.045 97.2153C477.572 109.298 478.229 122.381 474.932 134.816C471.635 147.252 464.533 158.484 454.519 167.099C444.462 175.803 431.888 181.452 418.417 183.32C404.946 185.188 391.194 183.188 378.931 177.579ZM458.12 76.2872C452.211 70.102 445.076 65.0817 437.121 61.5129C429.166 57.9441 420.548 55.8968 411.759 55.4881C402.97 55.0793 394.182 56.317 385.898 59.1305C377.613 61.944 369.994 66.2782 363.476 71.8854C356.958 77.4926 351.668 84.2629 347.909 91.8096C344.151 99.3563 341.996 107.532 341.57 115.868C341.143 124.205 342.452 132.54 345.422 140.396C348.392 148.253 352.966 155.477 358.88 161.657L359.337 162.135L345.402 176.951L351.509 179.408C362.349 183.77 373.076 179.239 378.505 176.151L378.856 175.951L379.225 176.121C393.22 182.571 409.147 184.199 424.27 180.724C439.393 177.25 452.769 168.89 462.102 157.081C471.434 145.271 476.141 130.748 475.415 116.005C474.688 101.263 468.573 87.2195 458.12 76.2871V76.2872Z" fill="#EAEAEA"/>
<path opacity="0.1" d="M465.145 118.5C465.144 103.63 459.38 89.2999 448.989 78.3308C438.597 67.3617 424.331 60.5488 409 59.234C410.794 59.0822 412.609 59 414.443 59C430.772 59.0082 446.429 65.2805 457.972 76.438C469.516 87.5956 476 102.725 476 118.5C476 134.275 469.516 149.404 457.972 160.562C446.429 171.72 430.772 177.992 414.443 178C412.611 178 410.8 177.917 409.009 177.765C424.338 176.448 438.602 169.635 448.992 158.666C459.381 147.697 465.144 133.368 465.145 118.5Z" fill="black"/>
<path d="M417 107H372V111H417V107Z" fill="#EAEAEA"/>
<path d="M450 120H372V124H450V120Z" fill="#EAEAEA"/>
<path d="M450 134H372V138H450V134Z" fill="#EAEAEA"/>
<path d="M201.85 303.513C194.477 297.11 189.252 288.758 186.836 279.512C184.421 270.266 184.923 260.541 188.28 251.569C191.636 242.596 197.697 234.778 205.694 229.103C213.692 223.428 223.268 220.151 233.21 219.686C243.153 219.222 253.017 221.59 261.553 226.493C270.09 231.396 276.917 238.612 281.17 247.229C285.423 255.846 286.912 265.478 285.448 274.905C283.984 284.332 279.633 293.132 272.946 300.192L283.484 311.503L278.225 313.639C270.09 316.943 262.128 313.728 257.66 311.162C248.623 315.366 238.478 316.884 228.532 315.521C218.585 314.158 209.293 309.976 201.85 303.513Z" fill="white"/>
<path d="M235.598 316.587C222.972 316.578 210.803 312.058 201.473 303.912C194.033 297.451 188.756 289.027 186.307 279.701C183.857 270.375 184.345 260.563 187.708 251.501C191.072 242.44 197.161 234.534 205.208 228.779C213.255 223.024 222.901 219.678 232.931 219.161C242.961 218.645 252.926 220.982 261.571 225.877C270.217 230.773 277.156 238.008 281.515 246.672C285.874 255.336 287.458 265.041 286.067 274.565C284.676 284.089 280.373 293.006 273.7 300.193L284.425 311.705L278.445 314.134C270.106 317.521 261.926 314.185 257.633 311.772C250.757 314.936 243.227 316.581 235.598 316.587ZM202.228 303.115C209.572 309.532 218.762 313.685 228.605 315.034C238.447 316.383 248.485 314.865 257.415 310.678L257.688 310.551L257.949 310.701C261.983 313.017 269.952 316.415 278.006 313.144L282.543 311.301L272.19 300.189L272.53 299.831C279.143 292.85 283.445 284.148 284.892 274.826C286.34 265.504 284.868 255.98 280.662 247.459C276.456 238.938 269.706 231.802 261.265 226.954C252.823 222.106 243.07 219.764 233.238 220.223C223.406 220.683 213.937 223.923 206.029 229.535C198.12 235.147 192.128 242.877 188.808 251.75C185.489 260.623 184.992 270.238 187.381 279.381C189.77 288.524 194.936 296.784 202.228 303.115Z" fill="#EAEAEA"/>
<path opacity="0.1" d="M193.173 267.518C193.174 256.435 197.508 245.755 205.323 237.579C213.138 229.404 223.867 224.326 235.397 223.346C234.048 223.233 232.683 223.172 231.303 223.172C219.023 223.178 207.248 227.853 198.567 236.169C189.887 244.484 185.01 255.76 185.01 267.518C185.01 279.275 189.887 290.551 198.567 298.867C207.248 307.183 219.023 311.858 231.303 311.864C232.681 311.864 234.043 311.802 235.39 311.689C223.862 310.707 213.135 305.629 205.321 297.454C197.507 289.279 193.174 278.599 193.173 267.518Z" fill="black"/>
<path d="M262.224 258.675H229.127V261.617H262.224V258.675Z" fill="#EAEAEA"/>
<path d="M262.224 268.854H204.54V271.797H262.224V268.854Z" fill="#EAEAEA"/>
<path d="M262.224 279.034H204.596V281.976H262.224V279.034Z" fill="#EAEAEA"/>
<path d="M300.065 322.497C303.999 322.497 307.188 319.444 307.188 315.677C307.188 311.91 303.999 308.857 300.065 308.857C296.131 308.857 292.941 311.91 292.941 315.677C292.941 319.444 296.131 322.497 300.065 322.497Z" fill="#EAEAEA"/>
<path d="M310.426 196.632C315.076 196.632 318.845 193.023 318.845 188.571C318.845 184.12 315.076 180.511 310.426 180.511C305.777 180.511 302.008 184.12 302.008 188.571C302.008 193.023 305.777 196.632 310.426 196.632Z" fill="#EAEAEA"/>
</g>
<path d="M209.441 146H205.783V137.468H196.63V146H192.971V126.479H196.63V134.876H205.783V126.479H209.441V146ZM216.741 132.149V146H213.406V132.149H216.741ZM217.24 128.112C217.24 128.4 217.182 128.67 217.065 128.922C216.948 129.174 216.79 129.395 216.592 129.584C216.403 129.773 216.178 129.926 215.917 130.043C215.656 130.151 215.377 130.205 215.08 130.205C214.792 130.205 214.518 130.151 214.257 130.043C214.005 129.926 213.784 129.773 213.595 129.584C213.406 129.395 213.253 129.174 213.136 128.922C213.028 128.67 212.974 128.4 212.974 128.112C212.974 127.815 213.028 127.536 213.136 127.275C213.253 127.014 213.406 126.789 213.595 126.6C213.784 126.411 214.005 126.263 214.257 126.155C214.518 126.038 214.792 125.979 215.08 125.979C215.377 125.979 215.656 126.038 215.917 126.155C216.178 126.263 216.403 126.411 216.592 126.6C216.79 126.789 216.948 127.014 217.065 127.275C217.182 127.536 217.24 127.815 217.24 128.112ZM225.313 131.906C225.907 131.906 226.465 131.969 226.987 132.095C227.509 132.212 227.986 132.387 228.418 132.621H232.4V133.863C232.4 134.07 232.346 134.232 232.238 134.349C232.13 134.466 231.946 134.547 231.685 134.592L230.443 134.822C230.533 135.056 230.6 135.303 230.645 135.564C230.699 135.825 230.726 136.1 230.726 136.388C230.726 137.072 230.587 137.693 230.308 138.251C230.038 138.8 229.66 139.268 229.174 139.655C228.697 140.042 228.125 140.343 227.459 140.559C226.802 140.766 226.087 140.87 225.313 140.87C224.791 140.87 224.282 140.82 223.787 140.721C223.355 140.982 223.139 141.275 223.139 141.599C223.139 141.878 223.265 142.085 223.517 142.22C223.778 142.346 224.116 142.436 224.53 142.49C224.953 142.544 225.43 142.58 225.961 142.598C226.492 142.607 227.036 142.634 227.594 142.679C228.152 142.724 228.697 142.805 229.228 142.922C229.759 143.03 230.231 143.205 230.645 143.448C231.068 143.691 231.406 144.024 231.658 144.447C231.919 144.861 232.049 145.397 232.049 146.054C232.049 146.666 231.896 147.26 231.59 147.836C231.293 148.412 230.857 148.925 230.281 149.375C229.714 149.825 229.016 150.185 228.188 150.455C227.36 150.734 226.415 150.874 225.353 150.874C224.3 150.874 223.387 150.77 222.613 150.563C221.839 150.365 221.195 150.095 220.682 149.753C220.178 149.42 219.8 149.033 219.548 148.592C219.296 148.151 219.17 147.692 219.17 147.215C219.17 146.567 219.368 146.023 219.764 145.581C220.16 145.14 220.709 144.789 221.411 144.528C221.069 144.339 220.795 144.087 220.588 143.772C220.381 143.457 220.277 143.048 220.277 142.544C220.277 142.337 220.313 142.125 220.385 141.909C220.457 141.684 220.565 141.464 220.709 141.248C220.862 141.032 221.051 140.829 221.276 140.64C221.501 140.442 221.767 140.267 222.073 140.114C221.371 139.736 220.817 139.232 220.412 138.602C220.016 137.972 219.818 137.234 219.818 136.388C219.818 135.704 219.953 135.087 220.223 134.538C220.502 133.98 220.885 133.508 221.371 133.121C221.866 132.725 222.446 132.423 223.112 132.216C223.787 132.009 224.521 131.906 225.313 131.906ZM228.971 146.621C228.971 146.351 228.89 146.131 228.728 145.959C228.566 145.788 228.346 145.658 228.067 145.568C227.788 145.469 227.459 145.397 227.081 145.352C226.712 145.307 226.316 145.275 225.893 145.257C225.479 145.23 225.047 145.208 224.597 145.19C224.156 145.163 223.729 145.122 223.315 145.068C222.937 145.275 222.631 145.523 222.397 145.811C222.172 146.09 222.059 146.414 222.059 146.783C222.059 147.026 222.118 147.251 222.235 147.458C222.361 147.674 222.554 147.859 222.815 148.012C223.085 148.165 223.432 148.282 223.855 148.363C224.278 148.453 224.795 148.498 225.407 148.498C226.028 148.498 226.564 148.448 227.014 148.349C227.464 148.259 227.833 148.129 228.121 147.958C228.418 147.796 228.634 147.598 228.769 147.364C228.904 147.139 228.971 146.891 228.971 146.621ZM225.313 138.737C225.727 138.737 226.087 138.683 226.393 138.575C226.699 138.458 226.951 138.3 227.149 138.102C227.356 137.904 227.509 137.666 227.608 137.387C227.716 137.108 227.77 136.802 227.77 136.469C227.77 135.785 227.563 135.245 227.149 134.849C226.744 134.444 226.132 134.241 225.313 134.241C224.494 134.241 223.877 134.444 223.463 134.849C223.058 135.245 222.856 135.785 222.856 136.469C222.856 136.793 222.905 137.094 223.004 137.373C223.112 137.652 223.265 137.895 223.463 138.102C223.67 138.3 223.927 138.458 224.233 138.575C224.548 138.683 224.908 138.737 225.313 138.737ZM234.495 146V125.939H237.829V133.647C238.369 133.134 238.963 132.72 239.611 132.405C240.259 132.09 241.02 131.933 241.893 131.933C242.649 131.933 243.319 132.063 243.904 132.324C244.489 132.576 244.975 132.936 245.362 133.404C245.758 133.863 246.055 134.417 246.253 135.065C246.46 135.704 246.564 136.41 246.564 137.184V146H243.229V137.184C243.229 136.338 243.031 135.686 242.635 135.227C242.248 134.759 241.663 134.525 240.88 134.525C240.304 134.525 239.764 134.655 239.26 134.916C238.756 135.177 238.279 135.533 237.829 135.983V146H234.495ZM266.847 132.149V150.523H263.512V144.258C263.233 144.555 262.936 144.825 262.621 145.068C262.315 145.302 261.987 145.505 261.636 145.676C261.285 145.838 260.911 145.964 260.515 146.054C260.119 146.153 259.692 146.203 259.233 146.203C258.477 146.203 257.784 146.045 257.154 145.73C256.524 145.415 255.979 144.96 255.52 144.366C255.07 143.763 254.719 143.021 254.467 142.139C254.224 141.257 254.103 140.249 254.103 139.115C254.103 138.089 254.242 137.135 254.521 136.253C254.8 135.371 255.201 134.606 255.723 133.958C256.245 133.31 256.87 132.806 257.599 132.446C258.328 132.077 259.147 131.892 260.056 131.892C260.488 131.892 260.88 131.933 261.231 132.014C261.591 132.086 261.919 132.194 262.216 132.338C262.522 132.482 262.801 132.653 263.053 132.851C263.305 133.049 263.548 133.274 263.782 133.526L263.958 132.756C264.003 132.549 264.102 132.396 264.255 132.297C264.408 132.198 264.592 132.149 264.808 132.149H266.847ZM260.367 143.556C261.06 143.556 261.649 143.412 262.135 143.124C262.621 142.836 263.08 142.427 263.512 141.896V135.686C263.134 135.227 262.72 134.903 262.27 134.714C261.829 134.525 261.352 134.43 260.839 134.43C260.335 134.43 259.876 134.525 259.462 134.714C259.057 134.903 258.711 135.191 258.423 135.578C258.144 135.956 257.928 136.442 257.775 137.036C257.622 137.621 257.545 138.314 257.545 139.115C257.545 139.925 257.608 140.613 257.734 141.18C257.869 141.738 258.058 142.197 258.301 142.557C258.544 142.908 258.841 143.165 259.192 143.327C259.543 143.48 259.935 143.556 260.367 143.556ZM273.511 132.149V140.951C273.511 141.797 273.704 142.454 274.091 142.922C274.487 143.381 275.077 143.61 275.86 143.61C276.436 143.61 276.976 143.484 277.48 143.232C277.984 142.971 278.461 142.616 278.911 142.166V132.149H282.245V146H280.207C279.775 146 279.491 145.797 279.356 145.392L279.127 144.285C278.839 144.573 278.542 144.839 278.236 145.082C277.93 145.316 277.601 145.518 277.25 145.689C276.908 145.851 276.535 145.977 276.13 146.068C275.734 146.167 275.306 146.216 274.847 146.216C274.091 146.216 273.421 146.09 272.836 145.838C272.26 145.577 271.774 145.212 271.378 144.744C270.982 144.276 270.68 143.723 270.473 143.084C270.275 142.436 270.176 141.725 270.176 140.951V132.149H273.511ZM296.659 146H295.161C294.846 146 294.598 145.955 294.418 145.865C294.238 145.766 294.103 145.572 294.013 145.284L293.716 144.299C293.365 144.614 293.019 144.893 292.677 145.136C292.344 145.37 291.997 145.568 291.637 145.73C291.277 145.892 290.895 146.014 290.49 146.095C290.085 146.176 289.635 146.216 289.14 146.216C288.555 146.216 288.015 146.14 287.52 145.986C287.025 145.824 286.597 145.586 286.237 145.271C285.886 144.956 285.612 144.564 285.414 144.096C285.216 143.628 285.117 143.084 285.117 142.463C285.117 141.941 285.252 141.428 285.522 140.924C285.801 140.411 286.26 139.952 286.899 139.547C287.538 139.133 288.388 138.791 289.45 138.521C290.512 138.251 291.831 138.098 293.406 138.062V137.252C293.406 136.325 293.208 135.641 292.812 135.2C292.425 134.75 291.858 134.525 291.111 134.525C290.571 134.525 290.121 134.588 289.761 134.714C289.401 134.84 289.086 134.984 288.816 135.146C288.555 135.299 288.312 135.438 288.087 135.564C287.862 135.69 287.614 135.753 287.344 135.753C287.119 135.753 286.926 135.695 286.764 135.578C286.602 135.461 286.471 135.317 286.372 135.146L285.765 134.079C287.358 132.621 289.279 131.892 291.529 131.892C292.339 131.892 293.059 132.027 293.689 132.297C294.328 132.558 294.868 132.927 295.309 133.404C295.75 133.872 296.083 134.435 296.308 135.092C296.542 135.749 296.659 136.469 296.659 137.252V146ZM290.179 143.921C290.521 143.921 290.836 143.889 291.124 143.826C291.412 143.763 291.682 143.669 291.934 143.543C292.195 143.417 292.443 143.264 292.677 143.084C292.92 142.895 293.163 142.674 293.406 142.422V140.087C292.434 140.132 291.619 140.217 290.962 140.343C290.314 140.46 289.792 140.613 289.396 140.802C289 140.991 288.717 141.212 288.546 141.464C288.384 141.716 288.303 141.99 288.303 142.287C288.303 142.872 288.474 143.291 288.816 143.543C289.167 143.795 289.621 143.921 290.179 143.921ZM303.489 125.939V146H300.154V125.939H303.489ZM310.819 132.149V146H307.484V132.149H310.819ZM311.318 128.112C311.318 128.4 311.26 128.67 311.143 128.922C311.026 129.174 310.868 129.395 310.67 129.584C310.481 129.773 310.256 129.926 309.995 130.043C309.734 130.151 309.455 130.205 309.158 130.205C308.87 130.205 308.596 130.151 308.335 130.043C308.083 129.926 307.862 129.773 307.673 129.584C307.484 129.395 307.331 129.174 307.214 128.922C307.106 128.67 307.052 128.4 307.052 128.112C307.052 127.815 307.106 127.536 307.214 127.275C307.331 127.014 307.484 126.789 307.673 126.6C307.862 126.411 308.083 126.263 308.335 126.155C308.596 126.038 308.87 125.979 309.158 125.979C309.455 125.979 309.734 126.038 309.995 126.155C310.256 126.263 310.481 126.411 310.67 126.6C310.868 126.789 311.026 127.014 311.143 127.275C311.26 127.536 311.318 127.815 311.318 128.112ZM319.148 146.216C317.951 146.216 317.028 145.878 316.38 145.203C315.732 144.519 315.408 143.579 315.408 142.382V134.646H314.004C313.824 134.646 313.667 134.588 313.532 134.471C313.406 134.354 313.343 134.178 313.343 133.944V132.621L315.57 132.257L316.272 128.477C316.308 128.297 316.389 128.157 316.515 128.058C316.65 127.959 316.817 127.91 317.015 127.91H318.743V132.27H322.388V134.646H318.743V142.152C318.743 142.584 318.851 142.922 319.067 143.165C319.283 143.408 319.571 143.529 319.931 143.529C320.138 143.529 320.309 143.507 320.444 143.462C320.588 143.408 320.709 143.354 320.808 143.3C320.916 143.246 321.011 143.196 321.092 143.151C321.173 143.097 321.254 143.07 321.335 143.07C321.434 143.07 321.515 143.097 321.578 143.151C321.641 143.196 321.708 143.268 321.78 143.367L322.779 144.987C322.293 145.392 321.735 145.698 321.105 145.905C320.475 146.113 319.823 146.216 319.148 146.216ZM329.954 149.807C329.855 150.041 329.724 150.217 329.562 150.334C329.409 150.46 329.171 150.523 328.847 150.523H326.363L328.955 144.974L323.352 132.149H326.268C326.538 132.149 326.745 132.212 326.889 132.338C327.033 132.464 327.141 132.608 327.213 132.77L330.17 139.952C330.269 140.186 330.354 140.429 330.426 140.681C330.498 140.933 330.561 141.185 330.615 141.437C330.687 141.176 330.764 140.924 330.845 140.681C330.935 140.438 331.029 140.19 331.128 139.938L333.909 132.77C333.981 132.59 334.098 132.441 334.26 132.324C334.431 132.207 334.62 132.149 334.827 132.149H337.5L329.954 149.807ZM198.506 163.933C199.379 163.933 200.18 164.072 200.909 164.351C201.647 164.63 202.282 165.04 202.813 165.58C203.344 166.111 203.758 166.768 204.055 167.551C204.352 168.325 204.5 169.211 204.5 170.21C204.5 170.462 204.487 170.674 204.46 170.845C204.442 171.007 204.401 171.137 204.338 171.236C204.284 171.326 204.208 171.394 204.109 171.439C204.01 171.475 203.884 171.493 203.731 171.493H195.172C195.271 172.915 195.653 173.959 196.319 174.625C196.985 175.291 197.867 175.624 198.965 175.624C199.505 175.624 199.969 175.561 200.356 175.435C200.752 175.309 201.094 175.169 201.382 175.016C201.679 174.863 201.935 174.724 202.151 174.598C202.376 174.472 202.592 174.409 202.799 174.409C202.934 174.409 203.051 174.436 203.15 174.49C203.249 174.544 203.335 174.62 203.407 174.719L204.379 175.934C204.01 176.366 203.596 176.731 203.137 177.028C202.678 177.316 202.196 177.55 201.692 177.73C201.197 177.901 200.689 178.023 200.167 178.095C199.654 178.167 199.154 178.203 198.668 178.203C197.705 178.203 196.81 178.045 195.982 177.73C195.154 177.406 194.434 176.933 193.822 176.312C193.21 175.682 192.728 174.908 192.377 173.99C192.026 173.063 191.851 171.992 191.851 170.777C191.851 169.832 192.004 168.946 192.31 168.118C192.616 167.281 193.052 166.556 193.619 165.944C194.195 165.323 194.893 164.833 195.712 164.473C196.54 164.113 197.471 163.933 198.506 163.933ZM198.574 166.322C197.602 166.322 196.841 166.597 196.292 167.146C195.743 167.695 195.392 168.473 195.239 169.481H201.503C201.503 169.049 201.445 168.644 201.328 168.266C201.211 167.879 201.031 167.542 200.788 167.254C200.545 166.966 200.239 166.741 199.87 166.579C199.501 166.408 199.069 166.322 198.574 166.322ZM207.205 178V164.149H209.243C209.675 164.149 209.959 164.351 210.094 164.756L210.323 165.85C210.602 165.562 210.895 165.301 211.201 165.067C211.516 164.833 211.844 164.63 212.186 164.459C212.537 164.288 212.911 164.158 213.307 164.068C213.703 163.978 214.135 163.933 214.603 163.933C215.359 163.933 216.029 164.063 216.614 164.324C217.199 164.576 217.685 164.936 218.072 165.404C218.468 165.863 218.765 166.417 218.963 167.065C219.17 167.704 219.274 168.41 219.274 169.184V178H215.939V169.184C215.939 168.338 215.741 167.686 215.345 167.227C214.958 166.759 214.373 166.525 213.59 166.525C213.014 166.525 212.474 166.655 211.97 166.916C211.466 167.177 210.989 167.533 210.539 167.983V178H207.205ZM227.343 163.906C227.937 163.906 228.495 163.969 229.017 164.095C229.539 164.212 230.016 164.387 230.448 164.621H234.431V165.863C234.431 166.07 234.377 166.232 234.269 166.349C234.161 166.466 233.976 166.547 233.715 166.592L232.473 166.822C232.563 167.056 232.631 167.303 232.676 167.564C232.73 167.825 232.757 168.1 232.757 168.388C232.757 169.072 232.617 169.693 232.338 170.251C232.068 170.8 231.69 171.268 231.204 171.655C230.727 172.042 230.156 172.343 229.49 172.559C228.833 172.766 228.117 172.87 227.343 172.87C226.821 172.87 226.313 172.82 225.818 172.721C225.386 172.982 225.17 173.275 225.17 173.599C225.17 173.878 225.296 174.085 225.548 174.22C225.809 174.346 226.146 174.436 226.56 174.49C226.983 174.544 227.46 174.58 227.991 174.598C228.522 174.607 229.067 174.634 229.625 174.679C230.183 174.724 230.727 174.805 231.258 174.922C231.789 175.03 232.262 175.205 232.676 175.448C233.099 175.691 233.436 176.024 233.688 176.447C233.949 176.861 234.08 177.397 234.08 178.054C234.08 178.666 233.927 179.26 233.621 179.836C233.324 180.412 232.887 180.925 232.311 181.375C231.744 181.825 231.047 182.185 230.219 182.455C229.391 182.734 228.446 182.874 227.384 182.874C226.331 182.874 225.417 182.77 224.643 182.563C223.869 182.365 223.226 182.095 222.713 181.753C222.209 181.42 221.831 181.033 221.579 180.592C221.327 180.151 221.201 179.692 221.201 179.215C221.201 178.567 221.399 178.023 221.795 177.581C222.191 177.14 222.74 176.789 223.442 176.528C223.1 176.339 222.825 176.087 222.618 175.772C222.411 175.457 222.308 175.048 222.308 174.544C222.308 174.337 222.344 174.125 222.416 173.909C222.488 173.684 222.596 173.464 222.74 173.248C222.893 173.032 223.082 172.829 223.307 172.64C223.532 172.442 223.797 172.267 224.103 172.114C223.401 171.736 222.848 171.232 222.443 170.602C222.047 169.972 221.849 169.234 221.849 168.388C221.849 167.704 221.984 167.087 222.254 166.538C222.533 165.98 222.915 165.508 223.401 165.121C223.896 164.725 224.477 164.423 225.143 164.216C225.818 164.009 226.551 163.906 227.343 163.906ZM231.002 178.621C231.002 178.351 230.921 178.131 230.759 177.959C230.597 177.788 230.376 177.658 230.097 177.568C229.818 177.469 229.49 177.397 229.112 177.352C228.743 177.307 228.347 177.275 227.924 177.257C227.51 177.23 227.078 177.208 226.628 177.19C226.187 177.163 225.759 177.122 225.345 177.068C224.967 177.275 224.661 177.523 224.427 177.811C224.202 178.09 224.09 178.414 224.09 178.783C224.09 179.026 224.148 179.251 224.265 179.458C224.391 179.674 224.585 179.859 224.846 180.012C225.116 180.165 225.462 180.282 225.885 180.363C226.308 180.453 226.826 180.498 227.438 180.498C228.059 180.498 228.594 180.448 229.044 180.349C229.494 180.259 229.863 180.129 230.151 179.958C230.448 179.796 230.664 179.598 230.799 179.364C230.934 179.139 231.002 178.891 231.002 178.621ZM227.343 170.737C227.757 170.737 228.117 170.683 228.423 170.575C228.729 170.458 228.981 170.3 229.179 170.102C229.386 169.904 229.539 169.666 229.638 169.387C229.746 169.108 229.8 168.802 229.8 168.469C229.8 167.785 229.593 167.245 229.179 166.849C228.774 166.444 228.162 166.241 227.343 166.241C226.524 166.241 225.908 166.444 225.494 166.849C225.089 167.245 224.886 167.785 224.886 168.469C224.886 168.793 224.936 169.094 225.035 169.373C225.143 169.652 225.296 169.895 225.494 170.102C225.701 170.3 225.957 170.458 226.263 170.575C226.578 170.683 226.938 170.737 227.343 170.737ZM240.076 164.149V178H236.741V164.149H240.076ZM240.575 160.112C240.575 160.4 240.517 160.67 240.4 160.922C240.283 161.174 240.125 161.395 239.927 161.584C239.738 161.773 239.513 161.926 239.252 162.043C238.991 162.151 238.712 162.205 238.415 162.205C238.127 162.205 237.853 162.151 237.592 162.043C237.34 161.926 237.119 161.773 236.93 161.584C236.741 161.395 236.588 161.174 236.471 160.922C236.363 160.67 236.309 160.4 236.309 160.112C236.309 159.815 236.363 159.536 236.471 159.275C236.588 159.014 236.741 158.789 236.93 158.6C237.119 158.411 237.34 158.263 237.592 158.155C237.853 158.038 238.127 157.979 238.415 157.979C238.712 157.979 238.991 158.038 239.252 158.155C239.513 158.263 239.738 158.411 239.927 158.6C240.125 158.789 240.283 159.014 240.4 159.275C240.517 159.536 240.575 159.815 240.575 160.112ZM243.855 178V164.149H245.894C246.326 164.149 246.609 164.351 246.744 164.756L246.974 165.85C247.253 165.562 247.545 165.301 247.851 165.067C248.166 164.833 248.495 164.63 248.837 164.459C249.188 164.288 249.561 164.158 249.957 164.068C250.353 163.978 250.785 163.933 251.253 163.933C252.009 163.933 252.68 164.063 253.265 164.324C253.85 164.576 254.336 164.936 254.723 165.404C255.119 165.863 255.416 166.417 255.614 167.065C255.821 167.704 255.924 168.41 255.924 169.184V178H252.59V169.184C252.59 168.338 252.392 167.686 251.996 167.227C251.609 166.759 251.024 166.525 250.241 166.525C249.665 166.525 249.125 166.655 248.621 166.916C248.117 167.177 247.64 167.533 247.19 167.983V178H243.855ZM264.925 163.933C265.798 163.933 266.599 164.072 267.328 164.351C268.066 164.63 268.7 165.04 269.231 165.58C269.762 166.111 270.176 166.768 270.473 167.551C270.77 168.325 270.919 169.211 270.919 170.21C270.919 170.462 270.905 170.674 270.878 170.845C270.86 171.007 270.82 171.137 270.757 171.236C270.703 171.326 270.626 171.394 270.527 171.439C270.428 171.475 270.302 171.493 270.149 171.493H261.59C261.689 172.915 262.072 173.959 262.738 174.625C263.404 175.291 264.286 175.624 265.384 175.624C265.924 175.624 266.387 175.561 266.774 175.435C267.17 175.309 267.512 175.169 267.8 175.016C268.097 174.863 268.354 174.724 268.57 174.598C268.795 174.472 269.011 174.409 269.218 174.409C269.353 174.409 269.47 174.436 269.569 174.49C269.668 174.544 269.753 174.62 269.825 174.719L270.797 175.934C270.428 176.366 270.014 176.731 269.555 177.028C269.096 177.316 268.615 177.55 268.111 177.73C267.616 177.901 267.107 178.023 266.585 178.095C266.072 178.167 265.573 178.203 265.087 178.203C264.124 178.203 263.228 178.045 262.4 177.73C261.572 177.406 260.852 176.933 260.24 176.312C259.628 175.682 259.147 174.908 258.796 173.99C258.445 173.063 258.269 171.992 258.269 170.777C258.269 169.832 258.422 168.946 258.728 168.118C259.034 167.281 259.471 166.556 260.038 165.944C260.614 165.323 261.311 164.833 262.13 164.473C262.958 164.113 263.89 163.933 264.925 163.933ZM264.992 166.322C264.02 166.322 263.26 166.597 262.711 167.146C262.162 167.695 261.811 168.473 261.658 169.481H267.922C267.922 169.049 267.863 168.644 267.746 168.266C267.629 167.879 267.449 167.542 267.206 167.254C266.963 166.966 266.657 166.741 266.288 166.579C265.919 166.408 265.487 166.322 264.992 166.322ZM279.348 163.933C280.221 163.933 281.022 164.072 281.751 164.351C282.489 164.63 283.123 165.04 283.654 165.58C284.185 166.111 284.599 166.768 284.896 167.551C285.193 168.325 285.342 169.211 285.342 170.21C285.342 170.462 285.328 170.674 285.301 170.845C285.283 171.007 285.243 171.137 285.18 171.236C285.126 171.326 285.049 171.394 284.95 171.439C284.851 171.475 284.725 171.493 284.572 171.493H276.013C276.112 172.915 276.495 173.959 277.161 174.625C277.827 175.291 278.709 175.624 279.807 175.624C280.347 175.624 280.81 175.561 281.197 175.435C281.593 175.309 281.935 175.169 282.223 175.016C282.52 174.863 282.777 174.724 282.993 174.598C283.218 174.472 283.434 174.409 283.641 174.409C283.776 174.409 283.893 174.436 283.992 174.49C284.091 174.544 284.176 174.62 284.248 174.719L285.22 175.934C284.851 176.366 284.437 176.731 283.978 177.028C283.519 177.316 283.038 177.55 282.534 177.73C282.039 177.901 281.53 178.023 281.008 178.095C280.495 178.167 279.996 178.203 279.51 178.203C278.547 178.203 277.651 178.045 276.823 177.73C275.995 177.406 275.275 176.933 274.663 176.312C274.051 175.682 273.57 174.908 273.219 173.99C272.868 173.063 272.692 171.992 272.692 170.777C272.692 169.832 272.845 168.946 273.151 168.118C273.457 167.281 273.894 166.556 274.461 165.944C275.037 165.323 275.734 164.833 276.553 164.473C277.381 164.113 278.313 163.933 279.348 163.933ZM279.415 166.322C278.443 166.322 277.683 166.597 277.134 167.146C276.585 167.695 276.234 168.473 276.081 169.481H282.345C282.345 169.049 282.286 168.644 282.169 168.266C282.052 167.879 281.872 167.542 281.629 167.254C281.386 166.966 281.08 166.741 280.711 166.579C280.342 166.408 279.91 166.322 279.415 166.322ZM288.047 178V164.149H290.004C290.346 164.149 290.585 164.212 290.72 164.338C290.855 164.464 290.945 164.68 290.99 164.986L291.192 166.66C291.687 165.805 292.268 165.13 292.934 164.635C293.6 164.14 294.347 163.892 295.175 163.892C295.859 163.892 296.426 164.05 296.876 164.365L296.444 166.862C296.417 167.024 296.358 167.141 296.268 167.213C296.178 167.276 296.057 167.308 295.904 167.308C295.769 167.308 295.584 167.276 295.35 167.213C295.116 167.15 294.806 167.119 294.419 167.119C293.726 167.119 293.132 167.312 292.637 167.699C292.142 168.077 291.723 168.635 291.381 169.373V178H288.047ZM307.29 166.849C307.2 166.993 307.105 167.096 307.006 167.159C306.907 167.213 306.781 167.24 306.628 167.24C306.466 167.24 306.291 167.195 306.102 167.105C305.922 167.015 305.71 166.916 305.467 166.808C305.224 166.691 304.945 166.588 304.63 166.498C304.324 166.408 303.96 166.363 303.537 166.363C302.88 166.363 302.362 166.502 301.984 166.781C301.606 167.06 301.417 167.425 301.417 167.875C301.417 168.172 301.512 168.424 301.701 168.631C301.899 168.829 302.155 169.004 302.47 169.157C302.794 169.31 303.159 169.45 303.564 169.576C303.969 169.693 304.383 169.823 304.806 169.967C305.229 170.111 305.643 170.278 306.048 170.467C306.453 170.647 306.813 170.881 307.128 171.169C307.452 171.448 307.708 171.785 307.897 172.181C308.095 172.577 308.194 173.054 308.194 173.612C308.194 174.278 308.073 174.895 307.83 175.462C307.587 176.02 307.231 176.506 306.763 176.92C306.295 177.325 305.715 177.644 305.022 177.878C304.338 178.104 303.55 178.216 302.659 178.216C302.182 178.216 301.714 178.171 301.255 178.081C300.805 178 300.369 177.883 299.946 177.73C299.532 177.577 299.145 177.397 298.785 177.19C298.434 176.983 298.123 176.758 297.853 176.515L298.623 175.246C298.722 175.093 298.839 174.976 298.974 174.895C299.109 174.814 299.28 174.773 299.487 174.773C299.694 174.773 299.887 174.832 300.067 174.949C300.256 175.066 300.472 175.192 300.715 175.327C300.958 175.462 301.242 175.588 301.566 175.705C301.899 175.822 302.317 175.88 302.821 175.88C303.217 175.88 303.555 175.835 303.834 175.745C304.122 175.646 304.356 175.52 304.536 175.367C304.725 175.214 304.86 175.039 304.941 174.841C305.031 174.634 305.076 174.422 305.076 174.206C305.076 173.882 304.977 173.617 304.779 173.41C304.59 173.203 304.333 173.023 304.009 172.87C303.694 172.717 303.33 172.582 302.916 172.465C302.511 172.339 302.092 172.204 301.66 172.06C301.237 171.916 300.819 171.749 300.405 171.56C300 171.362 299.635 171.115 299.311 170.818C298.996 170.521 298.74 170.156 298.542 169.724C298.353 169.292 298.258 168.77 298.258 168.158C298.258 167.591 298.371 167.051 298.596 166.538C298.821 166.025 299.149 165.58 299.581 165.202C300.022 164.815 300.567 164.509 301.215 164.284C301.872 164.05 302.628 163.933 303.483 163.933C304.437 163.933 305.305 164.09 306.088 164.405C306.871 164.72 307.524 165.134 308.046 165.647L307.29 166.849ZM197.332 210.216C196.135 210.216 195.212 209.878 194.564 209.203C193.916 208.519 193.592 207.579 193.592 206.382V198.646H192.188C192.008 198.646 191.851 198.588 191.716 198.471C191.59 198.354 191.527 198.178 191.527 197.944V196.621L193.754 196.257L194.456 192.477C194.492 192.297 194.573 192.157 194.699 192.058C194.834 191.959 195.001 191.91 195.199 191.91H196.927V196.27H200.572V198.646H196.927V206.152C196.927 206.584 197.035 206.922 197.251 207.165C197.467 207.408 197.755 207.529 198.115 207.529C198.322 207.529 198.493 207.507 198.627 207.462C198.772 207.408 198.893 207.354 198.992 207.3C199.1 207.246 199.195 207.196 199.276 207.151C199.357 207.097 199.438 207.07 199.519 207.07C199.618 207.07 199.699 207.097 199.762 207.151C199.825 207.196 199.892 207.268 199.964 207.367L200.963 208.987C200.477 209.392 199.919 209.698 199.289 209.905C198.659 210.113 198.007 210.216 197.332 210.216ZM208.947 195.933C209.82 195.933 210.621 196.072 211.35 196.351C212.088 196.63 212.723 197.04 213.254 197.58C213.785 198.111 214.199 198.768 214.496 199.551C214.793 200.325 214.941 201.211 214.941 202.21C214.941 202.462 214.928 202.674 214.901 202.845C214.883 203.007 214.842 203.137 214.779 203.236C214.725 203.326 214.649 203.394 214.55 203.439C214.451 203.475 214.325 203.493 214.172 203.493H205.613C205.712 204.915 206.094 205.959 206.76 206.625C207.426 207.291 208.308 207.624 209.406 207.624C209.946 207.624 210.41 207.561 210.797 207.435C211.193 207.309 211.535 207.169 211.823 207.016C212.12 206.863 212.376 206.724 212.592 206.598C212.817 206.472 213.033 206.409 213.24 206.409C213.375 206.409 213.492 206.436 213.591 206.49C213.69 206.544 213.776 206.62 213.848 206.719L214.82 207.934C214.451 208.366 214.037 208.731 213.578 209.028C213.119 209.316 212.637 209.55 212.133 209.73C211.638 209.901 211.13 210.023 210.608 210.095C210.095 210.167 209.595 210.203 209.109 210.203C208.146 210.203 207.251 210.045 206.423 209.73C205.595 209.406 204.875 208.933 204.263 208.312C203.651 207.682 203.169 206.908 202.818 205.99C202.467 205.063 202.292 203.992 202.292 202.777C202.292 201.832 202.445 200.946 202.751 200.118C203.057 199.281 203.493 198.556 204.06 197.944C204.636 197.323 205.334 196.833 206.153 196.473C206.981 196.113 207.912 195.933 208.947 195.933ZM209.015 198.322C208.043 198.322 207.282 198.597 206.733 199.146C206.184 199.695 205.833 200.473 205.68 201.481H211.944C211.944 201.049 211.886 200.644 211.769 200.266C211.652 199.879 211.472 199.542 211.229 199.254C210.986 198.966 210.68 198.741 210.311 198.579C209.942 198.408 209.51 198.322 209.015 198.322ZM228.5 210H227.002C226.687 210 226.439 209.955 226.259 209.865C226.079 209.766 225.944 209.572 225.854 209.284L225.557 208.299C225.206 208.614 224.86 208.893 224.518 209.136C224.185 209.37 223.838 209.568 223.478 209.73C223.118 209.892 222.736 210.014 222.331 210.095C221.926 210.176 221.476 210.216 220.981 210.216C220.396 210.216 219.856 210.14 219.361 209.986C218.866 209.824 218.438 209.586 218.078 209.271C217.727 208.956 217.453 208.564 217.255 208.096C217.057 207.628 216.958 207.084 216.958 206.463C216.958 205.941 217.093 205.428 217.363 204.924C217.642 204.411 218.101 203.952 218.74 203.547C219.379 203.133 220.229 202.791 221.291 202.521C222.353 202.251 223.672 202.098 225.247 202.062V201.252C225.247 200.325 225.049 199.641 224.653 199.2C224.266 198.75 223.699 198.525 222.952 198.525C222.412 198.525 221.962 198.588 221.602 198.714C221.242 198.84 220.927 198.984 220.657 199.146C220.396 199.299 220.153 199.438 219.928 199.564C219.703 199.69 219.455 199.753 219.185 199.753C218.96 199.753 218.767 199.695 218.605 199.578C218.443 199.461 218.312 199.317 218.213 199.146L217.606 198.079C219.199 196.621 221.12 195.892 223.37 195.892C224.18 195.892 224.9 196.027 225.53 196.297C226.169 196.558 226.709 196.927 227.15 197.404C227.591 197.872 227.924 198.435 228.149 199.092C228.383 199.749 228.5 200.469 228.5 201.252V210ZM222.02 207.921C222.362 207.921 222.677 207.889 222.965 207.826C223.253 207.763 223.523 207.669 223.775 207.543C224.036 207.417 224.284 207.264 224.518 207.084C224.761 206.895 225.004 206.674 225.247 206.422V204.087C224.275 204.132 223.46 204.217 222.803 204.343C222.155 204.46 221.633 204.613 221.237 204.802C220.841 204.991 220.558 205.212 220.387 205.464C220.225 205.716 220.144 205.99 220.144 206.287C220.144 206.872 220.315 207.291 220.657 207.543C221.008 207.795 221.462 207.921 222.02 207.921ZM231.779 210V196.149H233.818C234.25 196.149 234.533 196.351 234.668 196.756L234.884 197.782C235.127 197.512 235.379 197.265 235.64 197.04C235.91 196.815 236.194 196.621 236.491 196.459C236.797 196.297 237.121 196.171 237.463 196.081C237.814 195.982 238.196 195.933 238.61 195.933C239.483 195.933 240.199 196.171 240.757 196.648C241.324 197.116 241.747 197.742 242.026 198.525C242.242 198.066 242.512 197.674 242.836 197.35C243.16 197.017 243.515 196.747 243.902 196.54C244.289 196.333 244.699 196.18 245.131 196.081C245.572 195.982 246.013 195.933 246.454 195.933C247.219 195.933 247.898 196.05 248.492 196.284C249.086 196.518 249.586 196.86 249.991 197.31C250.396 197.76 250.702 198.309 250.909 198.957C251.125 199.605 251.233 200.347 251.233 201.184V210H247.898V201.184C247.898 200.302 247.705 199.641 247.318 199.2C246.931 198.75 246.364 198.525 245.617 198.525C245.275 198.525 244.955 198.583 244.658 198.7C244.37 198.817 244.114 198.988 243.889 199.213C243.673 199.429 243.502 199.704 243.376 200.037C243.25 200.37 243.187 200.752 243.187 201.184V210H239.839V201.184C239.839 200.257 239.65 199.582 239.272 199.159C238.903 198.736 238.354 198.525 237.625 198.525C237.148 198.525 236.698 198.646 236.275 198.889C235.861 199.123 235.474 199.447 235.114 199.861V210H231.779ZM265.641 195.933C266.676 195.933 267.612 196.099 268.449 196.433C269.295 196.765 270.015 197.238 270.609 197.85C271.203 198.462 271.662 199.209 271.986 200.091C272.31 200.973 272.472 201.958 272.472 203.047C272.472 204.145 272.31 205.135 271.986 206.017C271.662 206.899 271.203 207.651 270.609 208.272C270.015 208.893 269.295 209.37 268.449 209.703C267.612 210.036 266.676 210.203 265.641 210.203C264.606 210.203 263.666 210.036 262.82 209.703C261.974 209.37 261.249 208.893 260.646 208.272C260.052 207.651 259.589 206.899 259.256 206.017C258.932 205.135 258.77 204.145 258.77 203.047C258.77 201.958 258.932 200.973 259.256 200.091C259.589 199.209 260.052 198.462 260.646 197.85C261.249 197.238 261.974 196.765 262.82 196.433C263.666 196.099 264.606 195.933 265.641 195.933ZM265.641 207.637C266.793 207.637 267.644 207.25 268.193 206.476C268.751 205.702 269.03 204.568 269.03 203.074C269.03 201.58 268.751 200.442 268.193 199.659C267.644 198.876 266.793 198.484 265.641 198.484C264.471 198.484 263.607 198.88 263.049 199.672C262.491 200.455 262.212 201.589 262.212 203.074C262.212 204.559 262.491 205.693 263.049 206.476C263.607 207.25 264.471 207.637 265.641 207.637ZM275.074 210V196.149H277.112C277.544 196.149 277.828 196.351 277.963 196.756L278.192 197.85C278.471 197.562 278.764 197.301 279.07 197.067C279.385 196.833 279.713 196.63 280.055 196.459C280.406 196.288 280.78 196.158 281.176 196.068C281.572 195.978 282.004 195.933 282.472 195.933C283.228 195.933 283.898 196.063 284.483 196.324C285.068 196.576 285.554 196.936 285.941 197.404C286.337 197.863 286.634 198.417 286.832 199.065C287.039 199.704 287.143 200.41 287.143 201.184V210H283.808V201.184C283.808 200.338 283.61 199.686 283.214 199.227C282.827 198.759 282.242 198.525 281.459 198.525C280.883 198.525 280.343 198.655 279.839 198.916C279.335 199.177 278.858 199.533 278.408 199.983V210H275.074ZM203.636 242H202.138C201.823 242 201.575 241.955 201.395 241.865C201.215 241.766 201.08 241.572 200.99 241.284L200.693 240.299C200.342 240.614 199.996 240.893 199.654 241.136C199.321 241.37 198.974 241.568 198.614 241.73C198.254 241.892 197.872 242.014 197.467 242.095C197.062 242.176 196.612 242.216 196.117 242.216C195.532 242.216 194.992 242.14 194.497 241.986C194.002 241.824 193.574 241.586 193.214 241.271C192.863 240.956 192.589 240.564 192.391 240.096C192.193 239.628 192.094 239.084 192.094 238.463C192.094 237.941 192.229 237.428 192.499 236.924C192.778 236.411 193.237 235.952 193.876 235.547C194.515 235.133 195.365 234.791 196.427 234.521C197.489 234.251 198.808 234.098 200.383 234.062V233.252C200.383 232.325 200.185 231.641 199.789 231.2C199.402 230.75 198.835 230.525 198.088 230.525C197.548 230.525 197.098 230.588 196.738 230.714C196.378 230.84 196.063 230.984 195.793 231.146C195.532 231.299 195.289 231.438 195.064 231.564C194.839 231.69 194.591 231.753 194.321 231.753C194.096 231.753 193.903 231.695 193.741 231.578C193.579 231.461 193.448 231.317 193.349 231.146L192.742 230.079C194.335 228.621 196.256 227.892 198.506 227.892C199.316 227.892 200.036 228.027 200.666 228.297C201.305 228.558 201.845 228.927 202.286 229.404C202.727 229.872 203.06 230.435 203.285 231.092C203.519 231.749 203.636 232.469 203.636 233.252V242ZM197.156 239.921C197.498 239.921 197.813 239.889 198.101 239.826C198.389 239.763 198.659 239.669 198.911 239.543C199.172 239.417 199.42 239.264 199.654 239.084C199.897 238.895 200.14 238.674 200.383 238.422V236.087C199.411 236.132 198.596 236.217 197.939 236.343C197.291 236.46 196.769 236.613 196.373 236.802C195.977 236.991 195.694 237.212 195.523 237.464C195.361 237.716 195.28 237.99 195.28 238.287C195.28 238.872 195.451 239.291 195.793 239.543C196.144 239.795 196.598 239.921 197.156 239.921ZM210.465 221.939V242H207.131V221.939H210.465ZM217.795 221.939V242H214.461V221.939H217.795ZM226.796 242V228.149H228.834C229.266 228.149 229.55 228.351 229.685 228.756L229.901 229.782C230.144 229.512 230.396 229.265 230.657 229.04C230.927 228.815 231.21 228.621 231.507 228.459C231.813 228.297 232.137 228.171 232.479 228.081C232.83 227.982 233.213 227.933 233.627 227.933C234.5 227.933 235.215 228.171 235.773 228.648C236.34 229.116 236.763 229.742 237.042 230.525C237.258 230.066 237.528 229.674 237.852 229.35C238.176 229.017 238.532 228.747 238.919 228.54C239.306 228.333 239.715 228.18 240.147 228.081C240.588 227.982 241.029 227.933 241.47 227.933C242.235 227.933 242.915 228.05 243.509 228.284C244.103 228.518 244.602 228.86 245.007 229.31C245.412 229.76 245.718 230.309 245.925 230.957C246.141 231.605 246.249 232.347 246.249 233.184V242H242.915V233.184C242.915 232.302 242.721 231.641 242.334 231.2C241.947 230.75 241.38 230.525 240.633 230.525C240.291 230.525 239.972 230.583 239.675 230.7C239.387 230.817 239.13 230.988 238.905 231.213C238.689 231.429 238.518 231.704 238.392 232.037C238.266 232.37 238.203 232.752 238.203 233.184V242H234.855V233.184C234.855 232.257 234.666 231.582 234.288 231.159C233.919 230.736 233.37 230.525 232.641 230.525C232.164 230.525 231.714 230.646 231.291 230.889C230.877 231.123 230.49 231.447 230.13 231.861V242H226.796ZM260.378 242H258.88C258.565 242 258.317 241.955 258.137 241.865C257.957 241.766 257.822 241.572 257.732 241.284L257.435 240.299C257.084 240.614 256.738 240.893 256.396 241.136C256.063 241.37 255.716 241.568 255.356 241.73C254.996 241.892 254.614 242.014 254.209 242.095C253.804 242.176 253.354 242.216 252.859 242.216C252.274 242.216 251.734 242.14 251.239 241.986C250.744 241.824 250.316 241.586 249.956 241.271C249.605 240.956 249.331 240.564 249.133 240.096C248.935 239.628 248.836 239.084 248.836 238.463C248.836 237.941 248.971 237.428 249.241 236.924C249.52 236.411 249.979 235.952 250.618 235.547C251.257 235.133 252.107 234.791 253.169 234.521C254.231 234.251 255.55 234.098 257.125 234.062V233.252C257.125 232.325 256.927 231.641 256.531 231.2C256.144 230.75 255.577 230.525 254.83 230.525C254.29 230.525 253.84 230.588 253.48 230.714C253.12 230.84 252.805 230.984 252.535 231.146C252.274 231.299 252.031 231.438 251.806 231.564C251.581 231.69 251.333 231.753 251.063 231.753C250.838 231.753 250.645 231.695 250.483 231.578C250.321 231.461 250.19 231.317 250.091 231.146L249.484 230.079C251.077 228.621 252.998 227.892 255.248 227.892C256.058 227.892 256.778 228.027 257.408 228.297C258.047 228.558 258.587 228.927 259.028 229.404C259.469 229.872 259.802 230.435 260.027 231.092C260.261 231.749 260.378 232.469 260.378 233.252V242ZM253.898 239.921C254.24 239.921 254.555 239.889 254.843 239.826C255.131 239.763 255.401 239.669 255.653 239.543C255.914 239.417 256.162 239.264 256.396 239.084C256.639 238.895 256.882 238.674 257.125 238.422V236.087C256.153 236.132 255.338 236.217 254.681 236.343C254.033 236.46 253.511 236.613 253.115 236.802C252.719 236.991 252.436 237.212 252.265 237.464C252.103 237.716 252.022 237.99 252.022 238.287C252.022 238.872 252.193 239.291 252.535 239.543C252.886 239.795 253.34 239.921 253.898 239.921ZM267.208 228.149V242.473C267.208 243.076 267.127 243.643 266.965 244.174C266.812 244.705 266.56 245.168 266.209 245.564C265.867 245.969 265.412 246.284 264.845 246.509C264.287 246.743 263.603 246.86 262.793 246.86C262.478 246.86 262.185 246.838 261.916 246.793C261.645 246.757 261.371 246.694 261.092 246.604L261.2 244.808C261.227 244.628 261.299 244.511 261.416 244.457C261.533 244.412 261.758 244.39 262.091 244.39C262.424 244.39 262.703 244.354 262.928 244.282C263.162 244.219 263.347 244.111 263.482 243.958C263.626 243.814 263.725 243.62 263.779 243.377C263.842 243.134 263.873 242.833 263.873 242.473V228.149H267.208ZM267.707 224.112C267.707 224.4 267.649 224.67 267.532 224.922C267.415 225.174 267.257 225.395 267.059 225.584C266.87 225.773 266.645 225.926 266.384 226.043C266.123 226.151 265.844 226.205 265.547 226.205C265.259 226.205 264.985 226.151 264.724 226.043C264.472 225.926 264.251 225.773 264.062 225.584C263.873 225.395 263.72 225.174 263.603 224.922C263.495 224.67 263.441 224.4 263.441 224.112C263.441 223.815 263.495 223.536 263.603 223.275C263.72 223.014 263.873 222.789 264.062 222.6C264.251 222.411 264.472 222.263 264.724 222.155C264.985 222.038 265.259 221.979 265.547 221.979C265.844 221.979 266.123 222.038 266.384 222.155C266.645 222.263 266.87 222.411 267.059 222.6C267.257 222.789 267.415 223.014 267.532 223.275C267.649 223.536 267.707 223.815 267.707 224.112ZM276.821 227.933C277.856 227.933 278.792 228.099 279.629 228.433C280.475 228.765 281.195 229.238 281.789 229.85C282.383 230.462 282.842 231.209 283.166 232.091C283.49 232.973 283.652 233.958 283.652 235.047C283.652 236.145 283.49 237.135 283.166 238.017C282.842 238.899 282.383 239.651 281.789 240.272C281.195 240.893 280.475 241.37 279.629 241.703C278.792 242.036 277.856 242.203 276.821 242.203C275.786 242.203 274.845 242.036 273.999 241.703C273.153 241.37 272.429 240.893 271.826 240.272C271.232 239.651 270.768 238.899 270.435 238.017C270.111 237.135 269.949 236.145 269.949 235.047C269.949 233.958 270.111 232.973 270.435 232.091C270.768 231.209 271.232 230.462 271.826 229.85C272.429 229.238 273.153 228.765 273.999 228.433C274.845 228.099 275.786 227.933 276.821 227.933ZM276.821 239.637C277.973 239.637 278.823 239.25 279.372 238.476C279.93 237.702 280.209 236.568 280.209 235.074C280.209 233.58 279.93 232.442 279.372 231.659C278.823 230.876 277.973 230.484 276.821 230.484C275.651 230.484 274.787 230.88 274.229 231.672C273.671 232.455 273.392 233.589 273.392 235.074C273.392 236.559 273.671 237.693 274.229 238.476C274.787 239.25 275.651 239.637 276.821 239.637ZM286.254 242V228.149H288.211C288.553 228.149 288.792 228.212 288.927 228.338C289.062 228.464 289.152 228.68 289.197 228.986L289.399 230.66C289.894 229.805 290.475 229.13 291.141 228.635C291.807 228.14 292.554 227.892 293.382 227.892C294.066 227.892 294.633 228.05 295.083 228.365L294.651 230.862C294.624 231.024 294.565 231.141 294.475 231.213C294.385 231.276 294.264 231.308 294.111 231.308C293.976 231.308 293.791 231.276 293.557 231.213C293.323 231.15 293.013 231.119 292.626 231.119C291.933 231.119 291.339 231.312 290.844 231.699C290.349 232.077 289.93 232.635 289.588 233.373V242H286.254ZM202.529 274C202.097 274 201.814 273.797 201.679 273.392L201.409 272.056C201.121 272.38 200.819 272.672 200.504 272.933C200.189 273.194 199.847 273.419 199.478 273.608C199.118 273.797 198.727 273.941 198.304 274.041C197.89 274.149 197.44 274.203 196.954 274.203C196.198 274.203 195.505 274.045 194.875 273.73C194.245 273.415 193.7 272.96 193.241 272.366C192.791 271.763 192.44 271.021 192.188 270.139C191.945 269.257 191.824 268.249 191.824 267.115C191.824 266.089 191.963 265.135 192.242 264.253C192.521 263.371 192.922 262.606 193.444 261.958C193.966 261.31 194.591 260.806 195.32 260.446C196.049 260.077 196.868 259.892 197.777 259.892C198.551 259.892 199.213 260.018 199.762 260.27C200.311 260.513 200.801 260.842 201.233 261.256V253.939H204.567V274H202.529ZM198.088 271.556C198.781 271.556 199.37 271.412 199.856 271.124C200.342 270.836 200.801 270.427 201.233 269.896V263.686C200.855 263.227 200.441 262.903 199.991 262.714C199.55 262.525 199.073 262.43 198.56 262.43C198.056 262.43 197.597 262.525 197.183 262.714C196.778 262.903 196.432 263.191 196.144 263.578C195.865 263.956 195.649 264.442 195.496 265.036C195.343 265.621 195.266 266.314 195.266 267.115C195.266 267.925 195.329 268.613 195.455 269.18C195.59 269.738 195.779 270.197 196.022 270.557C196.265 270.908 196.562 271.165 196.913 271.327C197.264 271.48 197.656 271.556 198.088 271.556ZM213.904 259.933C214.777 259.933 215.578 260.072 216.307 260.351C217.045 260.63 217.68 261.04 218.211 261.58C218.742 262.111 219.156 262.768 219.453 263.551C219.75 264.325 219.898 265.211 219.898 266.21C219.898 266.462 219.885 266.674 219.858 266.845C219.84 267.007 219.799 267.137 219.736 267.236C219.682 267.326 219.606 267.394 219.507 267.439C219.408 267.475 219.282 267.493 219.129 267.493H210.57C210.669 268.915 211.051 269.959 211.717 270.625C212.383 271.291 213.265 271.624 214.363 271.624C214.903 271.624 215.367 271.561 215.754 271.435C216.15 271.309 216.492 271.169 216.78 271.016C217.077 270.863 217.333 270.724 217.549 270.598C217.774 270.472 217.99 270.409 218.197 270.409C218.332 270.409 218.449 270.436 218.548 270.49C218.647 270.544 218.733 270.62 218.805 270.719L219.777 271.934C219.408 272.366 218.994 272.731 218.535 273.028C218.076 273.316 217.594 273.55 217.09 273.73C216.595 273.901 216.087 274.023 215.565 274.095C215.052 274.167 214.552 274.203 214.066 274.203C213.103 274.203 212.208 274.045 211.38 273.73C210.552 273.406 209.832 272.933 209.22 272.312C208.608 271.682 208.126 270.908 207.775 269.99C207.424 269.063 207.249 267.992 207.249 266.777C207.249 265.832 207.402 264.946 207.708 264.118C208.014 263.281 208.45 262.556 209.017 261.944C209.593 261.323 210.291 260.833 211.11 260.473C211.938 260.113 212.869 259.933 213.904 259.933ZM213.972 262.322C213 262.322 212.239 262.597 211.69 263.146C211.141 263.695 210.79 264.473 210.637 265.481H216.901C216.901 265.049 216.843 264.644 216.726 264.266C216.609 263.879 216.429 263.542 216.186 263.254C215.943 262.966 215.637 262.741 215.268 262.579C214.899 262.408 214.467 262.322 213.972 262.322ZM229.094 274H226.07L220.562 260.149H223.33C223.573 260.149 223.775 260.207 223.937 260.324C224.108 260.441 224.225 260.59 224.288 260.77L226.961 268.168C227.114 268.6 227.24 269.023 227.339 269.437C227.447 269.851 227.542 270.265 227.623 270.679C227.704 270.265 227.794 269.851 227.893 269.437C228.001 269.023 228.136 268.6 228.298 268.168L231.038 260.77C231.101 260.59 231.214 260.441 231.376 260.324C231.538 260.207 231.731 260.149 231.956 260.149H234.589L229.094 274ZM241.827 259.933C242.7 259.933 243.501 260.072 244.23 260.351C244.968 260.63 245.603 261.04 246.134 261.58C246.665 262.111 247.079 262.768 247.376 263.551C247.673 264.325 247.821 265.211 247.821 266.21C247.821 266.462 247.808 266.674 247.781 266.845C247.763 267.007 247.722 267.137 247.659 267.236C247.605 267.326 247.529 267.394 247.43 267.439C247.331 267.475 247.205 267.493 247.052 267.493H238.493C238.592 268.915 238.974 269.959 239.64 270.625C240.306 271.291 241.188 271.624 242.286 271.624C242.826 271.624 243.29 271.561 243.677 271.435C244.073 271.309 244.415 271.169 244.703 271.016C245 270.863 245.256 270.724 245.472 270.598C245.697 270.472 245.913 270.409 246.12 270.409C246.255 270.409 246.372 270.436 246.471 270.49C246.57 270.544 246.656 270.62 246.728 270.719L247.7 271.934C247.331 272.366 246.917 272.731 246.458 273.028C245.999 273.316 245.517 273.55 245.013 273.73C244.518 273.901 244.01 274.023 243.488 274.095C242.975 274.167 242.475 274.203 241.989 274.203C241.026 274.203 240.131 274.045 239.303 273.73C238.475 273.406 237.755 272.933 237.143 272.312C236.531 271.682 236.049 270.908 235.698 269.99C235.347 269.063 235.172 267.992 235.172 266.777C235.172 265.832 235.325 264.946 235.631 264.118C235.937 263.281 236.373 262.556 236.94 261.944C237.516 261.323 238.214 260.833 239.033 260.473C239.861 260.113 240.792 259.933 241.827 259.933ZM241.895 262.322C240.923 262.322 240.162 262.597 239.613 263.146C239.064 263.695 238.713 264.473 238.56 265.481H244.824C244.824 265.049 244.766 264.644 244.649 264.266C244.532 263.879 244.352 263.542 244.109 263.254C243.866 262.966 243.56 262.741 243.191 262.579C242.822 262.408 242.39 262.322 241.895 262.322ZM254.077 253.939V274H250.742V253.939H254.077ZM263.769 259.933C264.804 259.933 265.74 260.099 266.577 260.433C267.423 260.765 268.143 261.238 268.737 261.85C269.331 262.462 269.79 263.209 270.114 264.091C270.438 264.973 270.6 265.958 270.6 267.047C270.6 268.145 270.438 269.135 270.114 270.017C269.79 270.899 269.331 271.651 268.737 272.272C268.143 272.893 267.423 273.37 266.577 273.703C265.74 274.036 264.804 274.203 263.769 274.203C262.734 274.203 261.794 274.036 260.948 273.703C260.102 273.37 259.377 272.893 258.774 272.272C258.18 271.651 257.717 270.899 257.384 270.017C257.06 269.135 256.898 268.145 256.898 267.047C256.898 265.958 257.06 264.973 257.384 264.091C257.717 263.209 258.18 262.462 258.774 261.85C259.377 261.238 260.102 260.765 260.948 260.433C261.794 260.099 262.734 259.933 263.769 259.933ZM263.769 271.637C264.921 271.637 265.772 271.25 266.321 270.476C266.879 269.702 267.158 268.568 267.158 267.074C267.158 265.58 266.879 264.442 266.321 263.659C265.772 262.876 264.921 262.484 263.769 262.484C262.599 262.484 261.735 262.88 261.177 263.672C260.619 264.455 260.34 265.589 260.34 267.074C260.34 268.559 260.619 269.693 261.177 270.476C261.735 271.25 262.599 271.637 263.769 271.637ZM273.202 278.523V260.149H275.24C275.456 260.149 275.641 260.198 275.794 260.297C275.947 260.396 276.046 260.549 276.091 260.756L276.361 262.039C276.919 261.4 277.558 260.882 278.278 260.486C279.007 260.09 279.857 259.892 280.829 259.892C281.585 259.892 282.274 260.05 282.895 260.365C283.525 260.68 284.065 261.139 284.515 261.742C284.974 262.336 285.325 263.074 285.568 263.956C285.82 264.829 285.946 265.832 285.946 266.966C285.946 268.001 285.806 268.96 285.527 269.842C285.248 270.724 284.848 271.489 284.326 272.137C283.813 272.785 283.187 273.294 282.449 273.662C281.72 274.023 280.901 274.203 279.992 274.203C279.209 274.203 278.543 274.086 277.994 273.851C277.454 273.608 276.968 273.275 276.536 272.852V278.523H273.202ZM279.682 262.525C278.989 262.525 278.395 262.673 277.9 262.97C277.414 263.258 276.959 263.668 276.536 264.199V270.409C276.914 270.877 277.324 271.205 277.765 271.394C278.215 271.574 278.696 271.664 279.209 271.664C279.713 271.664 280.168 271.57 280.573 271.381C280.987 271.192 281.333 270.904 281.612 270.517C281.9 270.13 282.121 269.644 282.274 269.059C282.427 268.465 282.503 267.767 282.503 266.966C282.503 266.156 282.436 265.472 282.301 264.914C282.175 264.347 281.99 263.888 281.747 263.537C281.504 263.186 281.207 262.93 280.856 262.768C280.514 262.606 280.123 262.525 279.682 262.525ZM288.469 274V260.149H290.507C290.939 260.149 291.223 260.351 291.358 260.756L291.574 261.782C291.817 261.512 292.069 261.265 292.33 261.04C292.6 260.815 292.883 260.621 293.18 260.459C293.486 260.297 293.81 260.171 294.152 260.081C294.503 259.982 294.886 259.933 295.3 259.933C296.173 259.933 296.888 260.171 297.446 260.648C298.013 261.116 298.436 261.742 298.715 262.525C298.931 262.066 299.201 261.674 299.525 261.35C299.849 261.017 300.205 260.747 300.592 260.54C300.979 260.333 301.388 260.18 301.82 260.081C302.261 259.982 302.702 259.933 303.143 259.933C303.908 259.933 304.588 260.05 305.182 260.284C305.776 260.518 306.275 260.86 306.68 261.31C307.085 261.76 307.391 262.309 307.598 262.957C307.814 263.605 307.922 264.347 307.922 265.184V274H304.588V265.184C304.588 264.302 304.394 263.641 304.007 263.2C303.62 262.75 303.053 262.525 302.306 262.525C301.964 262.525 301.645 262.583 301.348 262.7C301.06 262.817 300.803 262.988 300.578 263.213C300.362 263.429 300.191 263.704 300.065 264.037C299.939 264.37 299.876 264.752 299.876 265.184V274H296.528V265.184C296.528 264.257 296.339 263.582 295.961 263.159C295.592 262.736 295.043 262.525 294.314 262.525C293.837 262.525 293.387 262.646 292.964 262.889C292.55 263.123 292.163 263.447 291.803 263.861V274H288.469ZM316.921 259.933C317.794 259.933 318.595 260.072 319.324 260.351C320.062 260.63 320.697 261.04 321.228 261.58C321.759 262.111 322.173 262.768 322.47 263.551C322.767 264.325 322.915 265.211 322.915 266.21C322.915 266.462 322.902 266.674 322.875 266.845C322.857 267.007 322.816 267.137 322.753 267.236C322.699 267.326 322.623 267.394 322.524 267.439C322.425 267.475 322.299 267.493 322.146 267.493H313.587C313.686 268.915 314.068 269.959 314.734 270.625C315.4 271.291 316.282 271.624 317.38 271.624C317.92 271.624 318.384 271.561 318.771 271.435C319.167 271.309 319.509 271.169 319.797 271.016C320.094 270.863 320.35 270.724 320.566 270.598C320.791 270.472 321.007 270.409 321.214 270.409C321.349 270.409 321.466 270.436 321.565 270.49C321.664 270.544 321.75 270.62 321.822 270.719L322.794 271.934C322.425 272.366 322.011 272.731 321.552 273.028C321.093 273.316 320.611 273.55 320.107 273.73C319.612 273.901 319.104 274.023 318.582 274.095C318.069 274.167 317.569 274.203 317.083 274.203C316.12 274.203 315.225 274.045 314.397 273.73C313.569 273.406 312.849 272.933 312.237 272.312C311.625 271.682 311.143 270.908 310.792 269.99C310.441 269.063 310.266 267.992 310.266 266.777C310.266 265.832 310.419 264.946 310.725 264.118C311.031 263.281 311.467 262.556 312.034 261.944C312.61 261.323 313.308 260.833 314.127 260.473C314.955 260.113 315.886 259.933 316.921 259.933ZM316.989 262.322C316.017 262.322 315.256 262.597 314.707 263.146C314.158 263.695 313.807 264.473 313.654 265.481H319.918C319.918 265.049 319.86 264.644 319.743 264.266C319.626 263.879 319.446 263.542 319.203 263.254C318.96 262.966 318.654 262.741 318.285 262.579C317.916 262.408 317.484 262.322 316.989 262.322ZM325.62 274V260.149H327.658C328.09 260.149 328.374 260.351 328.509 260.756L328.738 261.85C329.017 261.562 329.31 261.301 329.616 261.067C329.931 260.833 330.259 260.63 330.601 260.459C330.952 260.288 331.326 260.158 331.722 260.068C332.118 259.978 332.55 259.933 333.018 259.933C333.774 259.933 334.444 260.063 335.029 260.324C335.614 260.576 336.1 260.936 336.487 261.404C336.883 261.863 337.18 262.417 337.378 263.065C337.585 263.704 337.689 264.41 337.689 265.184V274H334.354V265.184C334.354 264.338 334.156 263.686 333.76 263.227C333.373 262.759 332.788 262.525 332.005 262.525C331.429 262.525 330.889 262.655 330.385 262.916C329.881 263.177 329.404 263.533 328.954 263.983V274H325.62ZM345.515 274.216C344.318 274.216 343.396 273.878 342.748 273.203C342.1 272.519 341.776 271.579 341.776 270.382V262.646H340.372C340.192 262.646 340.034 262.588 339.899 262.471C339.773 262.354 339.71 262.178 339.71 261.944V260.621L341.938 260.257L342.64 256.477C342.676 256.297 342.757 256.157 342.883 256.058C343.018 255.959 343.184 255.91 343.382 255.91H345.11V260.27H348.755V262.646H345.11V270.152C345.11 270.584 345.218 270.922 345.434 271.165C345.65 271.408 345.938 271.529 346.298 271.529C346.505 271.529 346.676 271.507 346.811 271.462C346.955 271.408 347.077 271.354 347.176 271.3C347.284 271.246 347.378 271.196 347.459 271.151C347.54 271.097 347.621 271.07 347.702 271.07C347.801 271.07 347.882 271.097 347.945 271.151C348.008 271.196 348.076 271.268 348.148 271.367L349.147 272.987C348.661 273.392 348.103 273.698 347.473 273.905C346.843 274.113 346.19 274.216 345.515 274.216ZM192.782 310.523V292.149H194.821C195.037 292.149 195.221 292.198 195.374 292.297C195.527 292.396 195.626 292.549 195.671 292.756L195.941 294.039C196.499 293.4 197.138 292.882 197.858 292.486C198.587 292.09 199.438 291.892 200.41 291.892C201.166 291.892 201.854 292.05 202.475 292.365C203.105 292.68 203.645 293.139 204.095 293.742C204.554 294.336 204.905 295.074 205.148 295.956C205.4 296.829 205.526 297.832 205.526 298.966C205.526 300.001 205.387 300.96 205.108 301.842C204.829 302.724 204.428 303.489 203.906 304.137C203.393 304.785 202.768 305.294 202.03 305.662C201.301 306.023 200.482 306.203 199.573 306.203C198.79 306.203 198.124 306.086 197.575 305.851C197.035 305.608 196.549 305.275 196.117 304.852V310.523H192.782ZM199.262 294.525C198.569 294.525 197.975 294.673 197.48 294.97C196.994 295.258 196.54 295.668 196.117 296.199V302.409C196.495 302.877 196.904 303.205 197.345 303.394C197.795 303.574 198.277 303.664 198.79 303.664C199.294 303.664 199.748 303.57 200.153 303.381C200.567 303.192 200.914 302.904 201.193 302.517C201.481 302.13 201.701 301.644 201.854 301.059C202.007 300.465 202.084 299.767 202.084 298.966C202.084 298.156 202.016 297.472 201.881 296.914C201.755 296.347 201.571 295.888 201.328 295.537C201.085 295.186 200.788 294.93 200.437 294.768C200.095 294.606 199.703 294.525 199.262 294.525ZM211.599 285.939V306H208.265V285.939H211.599ZM226.233 306H224.734C224.419 306 224.172 305.955 223.992 305.865C223.812 305.766 223.677 305.572 223.587 305.284L223.29 304.299C222.939 304.614 222.592 304.893 222.25 305.136C221.917 305.37 221.571 305.568 221.211 305.73C220.851 305.892 220.468 306.014 220.063 306.095C219.658 306.176 219.208 306.216 218.713 306.216C218.128 306.216 217.588 306.14 217.093 305.986C216.598 305.824 216.171 305.586 215.811 305.271C215.46 304.956 215.185 304.564 214.987 304.096C214.789 303.628 214.69 303.084 214.69 302.463C214.69 301.941 214.825 301.428 215.095 300.924C215.374 300.411 215.833 299.952 216.472 299.547C217.111 299.133 217.962 298.791 219.024 298.521C220.086 298.251 221.404 298.098 222.979 298.062V297.252C222.979 296.325 222.781 295.641 222.385 295.2C221.998 294.75 221.431 294.525 220.684 294.525C220.144 294.525 219.694 294.588 219.334 294.714C218.974 294.84 218.659 294.984 218.389 295.146C218.128 295.299 217.885 295.438 217.66 295.564C217.435 295.69 217.188 295.753 216.918 295.753C216.693 295.753 216.499 295.695 216.337 295.578C216.175 295.461 216.045 295.317 215.946 295.146L215.338 294.079C216.931 292.621 218.853 291.892 221.103 291.892C221.913 291.892 222.633 292.027 223.263 292.297C223.902 292.558 224.442 292.927 224.883 293.404C225.324 293.872 225.657 294.435 225.882 295.092C226.116 295.749 226.233 296.469 226.233 297.252V306ZM219.753 303.921C220.095 303.921 220.41 303.889 220.698 303.826C220.986 303.763 221.256 303.669 221.508 303.543C221.769 303.417 222.016 303.264 222.25 303.084C222.493 302.895 222.736 302.674 222.979 302.422V300.087C222.007 300.132 221.193 300.217 220.536 300.343C219.888 300.46 219.366 300.613 218.97 300.802C218.574 300.991 218.29 301.212 218.119 301.464C217.957 301.716 217.876 301.99 217.876 302.287C217.876 302.872 218.047 303.291 218.389 303.543C218.74 303.795 219.195 303.921 219.753 303.921ZM234.061 306.216C232.864 306.216 231.941 305.878 231.293 305.203C230.645 304.519 230.321 303.579 230.321 302.382V294.646H228.917C228.737 294.646 228.58 294.588 228.445 294.471C228.319 294.354 228.256 294.178 228.256 293.944V292.621L230.483 292.257L231.185 288.477C231.221 288.297 231.302 288.157 231.428 288.058C231.563 287.959 231.73 287.91 231.928 287.91H233.656V292.27H237.301V294.646H233.656V302.152C233.656 302.584 233.764 302.922 233.98 303.165C234.196 303.408 234.484 303.529 234.844 303.529C235.051 303.529 235.222 303.507 235.357 303.462C235.501 303.408 235.622 303.354 235.721 303.3C235.829 303.246 235.924 303.196 236.005 303.151C236.086 303.097 236.167 303.07 236.248 303.07C236.347 303.07 236.428 303.097 236.491 303.151C236.554 303.196 236.621 303.268 236.693 303.367L237.692 304.987C237.206 305.392 236.648 305.698 236.018 305.905C235.388 306.113 234.736 306.216 234.061 306.216ZM240.547 306V294.66L239.345 294.471C239.084 294.426 238.873 294.336 238.711 294.201C238.558 294.066 238.481 293.877 238.481 293.634V292.27H240.547V291.244C240.547 290.452 240.664 289.741 240.898 289.111C241.141 288.481 241.483 287.946 241.924 287.505C242.374 287.064 242.918 286.726 243.557 286.492C244.196 286.258 244.916 286.141 245.717 286.141C246.356 286.141 246.95 286.227 247.499 286.398L247.432 288.072C247.414 288.333 247.292 288.495 247.067 288.558C246.842 288.621 246.581 288.652 246.284 288.652C245.888 288.652 245.533 288.697 245.218 288.787C244.912 288.868 244.651 289.017 244.435 289.233C244.219 289.44 244.052 289.719 243.935 290.07C243.827 290.412 243.773 290.839 243.773 291.352V292.27H247.378V294.646H243.881V306H240.547ZM255.332 291.933C256.367 291.933 257.303 292.099 258.14 292.433C258.986 292.765 259.706 293.238 260.3 293.85C260.894 294.462 261.353 295.209 261.677 296.091C262.001 296.973 262.163 297.958 262.163 299.047C262.163 300.145 262.001 301.135 261.677 302.017C261.353 302.899 260.894 303.651 260.3 304.272C259.706 304.893 258.986 305.37 258.14 305.703C257.303 306.036 256.367 306.203 255.332 306.203C254.297 306.203 253.356 306.036 252.51 305.703C251.664 305.37 250.94 304.893 250.337 304.272C249.743 303.651 249.279 302.899 248.946 302.017C248.622 301.135 248.46 300.145 248.46 299.047C248.46 297.958 248.622 296.973 248.946 296.091C249.279 295.209 249.743 294.462 250.337 293.85C250.94 293.238 251.664 292.765 252.51 292.433C253.356 292.099 254.297 291.933 255.332 291.933ZM255.332 303.637C256.484 303.637 257.334 303.25 257.883 302.476C258.441 301.702 258.72 300.568 258.72 299.074C258.72 297.58 258.441 296.442 257.883 295.659C257.334 294.876 256.484 294.484 255.332 294.484C254.162 294.484 253.298 294.88 252.74 295.672C252.182 296.455 251.903 297.589 251.903 299.074C251.903 300.559 252.182 301.693 252.74 302.476C253.298 303.25 254.162 303.637 255.332 303.637ZM264.764 306V292.149H266.722C267.064 292.149 267.302 292.212 267.437 292.338C267.572 292.464 267.662 292.68 267.707 292.986L267.91 294.66C268.405 293.805 268.985 293.13 269.651 292.635C270.317 292.14 271.064 291.892 271.892 291.892C272.576 291.892 273.143 292.05 273.593 292.365L273.161 294.862C273.134 295.024 273.076 295.141 272.986 295.213C272.896 295.276 272.774 295.308 272.621 295.308C272.486 295.308 272.302 295.276 272.068 295.213C271.834 295.15 271.523 295.119 271.136 295.119C270.443 295.119 269.849 295.312 269.354 295.699C268.859 296.077 268.441 296.635 268.099 297.373V306H264.764ZM275.786 306V292.149H277.824C278.256 292.149 278.54 292.351 278.675 292.756L278.891 293.782C279.134 293.512 279.386 293.265 279.647 293.04C279.917 292.815 280.2 292.621 280.497 292.459C280.803 292.297 281.127 292.171 281.469 292.081C281.82 291.982 282.203 291.933 282.617 291.933C283.49 291.933 284.205 292.171 284.763 292.648C285.33 293.116 285.753 293.742 286.032 294.525C286.248 294.066 286.518 293.674 286.842 293.35C287.166 293.017 287.522 292.747 287.909 292.54C288.296 292.333 288.705 292.18 289.137 292.081C289.578 291.982 290.019 291.933 290.46 291.933C291.225 291.933 291.905 292.05 292.499 292.284C293.093 292.518 293.592 292.86 293.997 293.31C294.402 293.76 294.708 294.309 294.915 294.957C295.131 295.605 295.239 296.347 295.239 297.184V306H291.905V297.184C291.905 296.302 291.711 295.641 291.324 295.2C290.937 294.75 290.37 294.525 289.623 294.525C289.281 294.525 288.962 294.583 288.665 294.7C288.377 294.817 288.12 294.988 287.895 295.213C287.679 295.429 287.508 295.704 287.382 296.037C287.256 296.37 287.193 296.752 287.193 297.184V306H283.845V297.184C283.845 296.257 283.656 295.582 283.278 295.159C282.909 294.736 282.36 294.525 281.631 294.525C281.154 294.525 280.704 294.646 280.281 294.889C279.867 295.123 279.48 295.447 279.12 295.861V306H275.786ZM306.736 294.849C306.646 294.993 306.551 295.096 306.452 295.159C306.353 295.213 306.227 295.24 306.074 295.24C305.912 295.24 305.737 295.195 305.548 295.105C305.368 295.015 305.156 294.916 304.913 294.808C304.67 294.691 304.391 294.588 304.076 294.498C303.77 294.408 303.406 294.363 302.983 294.363C302.326 294.363 301.808 294.502 301.43 294.781C301.052 295.06 300.863 295.425 300.863 295.875C300.863 296.172 300.958 296.424 301.147 296.631C301.345 296.829 301.601 297.004 301.916 297.157C302.24 297.31 302.605 297.45 303.01 297.576C303.415 297.693 303.829 297.823 304.252 297.967C304.675 298.111 305.089 298.278 305.494 298.467C305.899 298.647 306.259 298.881 306.574 299.169C306.898 299.448 307.154 299.785 307.343 300.181C307.541 300.577 307.64 301.054 307.64 301.612C307.64 302.278 307.519 302.895 307.276 303.462C307.033 304.02 306.677 304.506 306.209 304.92C305.741 305.325 305.161 305.644 304.468 305.878C303.784 306.104 302.996 306.216 302.105 306.216C301.628 306.216 301.16 306.171 300.701 306.081C300.251 306 299.815 305.883 299.392 305.73C298.978 305.577 298.591 305.397 298.231 305.19C297.88 304.983 297.569 304.758 297.299 304.515L298.069 303.246C298.168 303.093 298.285 302.976 298.42 302.895C298.555 302.814 298.726 302.773 298.933 302.773C299.14 302.773 299.333 302.832 299.513 302.949C299.702 303.066 299.918 303.192 300.161 303.327C300.404 303.462 300.688 303.588 301.012 303.705C301.345 303.822 301.763 303.88 302.267 303.88C302.663 303.88 303.001 303.835 303.28 303.745C303.568 303.646 303.802 303.52 303.982 303.367C304.171 303.214 304.306 303.039 304.387 302.841C304.477 302.634 304.522 302.422 304.522 302.206C304.522 301.882 304.423 301.617 304.225 301.41C304.036 301.203 303.779 301.023 303.455 300.87C303.14 300.717 302.776 300.582 302.362 300.465C301.957 300.339 301.538 300.204 301.106 300.06C300.683 299.916 300.265 299.749 299.851 299.56C299.446 299.362 299.081 299.115 298.757 298.818C298.442 298.521 298.186 298.156 297.988 297.724C297.799 297.292 297.704 296.77 297.704 296.158C297.704 295.591 297.817 295.051 298.042 294.538C298.267 294.025 298.595 293.58 299.027 293.202C299.468 292.815 300.013 292.509 300.661 292.284C301.318 292.05 302.074 291.933 302.929 291.933C303.883 291.933 304.751 292.09 305.534 292.405C306.317 292.72 306.97 293.134 307.492 293.647L306.736 294.849Z" fill="black"/>
<defs>
<clipPath id="clip0_175_35">
<rect width="487" height="422.859" fill="white"/>
</clipPath>
</defs>
</svg>
