<svg width="44" height="44" viewBox="0 0 44 44" fill="none" xmlns="http://www.w3.org/2000/svg">
<circle cx="22" cy="22" r="22" fill="#FDCD00"/>
<circle cx="22" cy="22" r="19.5" fill="#FDCD00" stroke="white"/>
<mask id="mask0_175_34" style="mask-type:alpha" maskUnits="userSpaceOnUse" x="6" y="6" width="32" height="32">
<rect x="6" y="6" width="32" height="32" fill="#D9D9D9"/>
</mask>
<g mask="url(#mask0_175_34)">
<path d="M18.3664 32.9664C17.9664 32.9664 17.6277 32.8277 17.3504 32.5504C17.0725 32.2725 16.9336 31.9336 16.9336 31.5336C16.9336 31.1336 17.0725 30.789 17.3504 30.5C17.6277 30.2109 17.9664 30.0664 18.3664 30.0664C18.7664 30.0664 19.1053 30.2109 19.3832 30.5C19.661 30.789 19.8 31.1336 19.8 31.5336C19.8 31.9336 19.661 32.2725 19.3832 32.5504C19.1053 32.8277 18.7664 32.9664 18.3664 32.9664ZM29.5 32.9664C29.1 32.9664 28.7554 32.8277 28.4664 32.5504C28.1778 32.2725 28.0336 31.9336 28.0336 31.5336C28.0336 31.1336 28.1722 30.789 28.4496 30.5C28.7274 30.2109 29.0664 30.0664 29.4664 30.0664C29.8664 30.0664 30.2109 30.2109 30.5 30.5C30.789 30.789 30.9336 31.1336 30.9336 31.5336C30.9336 31.9336 30.7946 32.2725 30.5168 32.5504C30.2389 32.8277 29.9 32.9664 29.5 32.9664ZM23 17.1L18.8336 12.1C19.5669 11.8109 20.3056 11.5997 21.0496 11.4664C21.7941 11.333 22.5221 11.2664 23.2336 11.2664C24.1888 11.2664 25.0776 11.3776 25.9 11.6C26.7224 11.8224 27.489 12.1445 28.2 12.5664L23 17.1ZM22.1664 28.6664C20.6997 28.6664 19.4608 28.161 18.4496 27.1504C17.4389 26.1392 16.9336 24.889 16.9336 23.4V14.8L15.9 13.6C15.3442 12.889 14.8664 12.4002 14.4664 12.1336C14.0664 11.8669 13.6664 11.7336 13.2664 11.7336C12.6664 11.7336 12.1776 11.9501 11.8 12.3832C11.4224 12.8168 11.2336 13.3224 11.2336 13.9H10.1C10.1 13.0109 10.4165 12.2386 11.0496 11.5832C11.6832 10.9277 12.4445 10.6 13.3336 10.6C13.9336 10.6 14.4778 10.7666 14.9664 11.1C15.4554 11.4333 16.0333 12.0112 16.7 12.8336L28.5336 27C28.8002 27.3333 28.8389 27.6944 28.6496 28.0832C28.4608 28.472 28.1554 28.6664 27.7336 28.6664H22.1664ZM22.1664 27.5336H27.4664L18.0664 16.1664V23.4C18.0664 24.5557 18.4664 25.5336 19.2664 26.3336C20.0664 27.1336 21.033 27.5336 22.1664 27.5336Z" fill="white"/>
</g>
</svg>
