<svg width="52" height="52" viewBox="0 0 52 52" fill="none" xmlns="http://www.w3.org/2000/svg">
<g filter="url(#filter0_d_175_31)">
<circle cx="26" cy="22" r="22" fill="#FDCD00"/>
<circle cx="26" cy="22" r="19.5" fill="#FDCD00" stroke="white"/>
<mask id="mask0_175_31" style="mask-type:alpha" maskUnits="userSpaceOnUse" x="10" y="6" width="32" height="32">
<rect x="10" y="6" width="32" height="32" fill="#C4C4C4"/>
</mask>
<g mask="url(#mask0_175_31)">
<path d="M25.2 28.6C23.5333 28.4 22.1389 27.6779 21.0168 26.4336C19.8947 25.1888 19.3336 23.7109 19.3336 22C19.3336 20.1333 19.9779 18.5555 21.2664 17.2664C22.5555 15.9779 24.1333 15.3336 26 15.3336C27.7109 15.3336 29.1888 15.8891 30.4336 17C31.6779 18.1109 32.4 19.5109 32.6 21.2L31.4 20.8336C31.1109 19.5669 30.472 18.5224 29.4832 17.7C28.4944 16.8776 27.3333 16.4664 26 16.4664C24.4667 16.4664 23.1611 17.0053 22.0832 18.0832C21.0053 19.1611 20.4664 20.4667 20.4664 22C20.4664 23.3333 20.8832 24.5 21.7168 25.5C22.5499 26.5 23.5888 27.1333 24.8336 27.4L25.2 28.6ZM26 34C24.3333 34 22.7723 33.6832 21.3168 33.0496C19.8613 32.4165 18.5947 31.5611 17.5168 30.4832C16.4389 29.4053 15.5835 28.1387 14.9504 26.6832C14.3168 25.2277 14 23.6667 14 22C14 20.3333 14.3168 18.7723 14.9504 17.3168C15.5835 15.8613 16.4389 14.5947 17.5168 13.5168C18.5947 12.4389 19.8613 11.5835 21.3168 10.9504C22.7723 10.3168 24.3333 10 26 10C27.6667 10 29.2277 10.3168 30.6832 10.9504C32.1387 11.5835 33.4053 12.4389 34.4832 13.5168C35.5611 14.5947 36.4165 15.8613 37.0496 17.3168C37.6832 18.7723 38 20.3333 38 22C38 22.1333 38 22.2667 38 22.4C38 22.5333 37.9888 22.6667 37.9664 22.8L36.8664 22.4664V22C36.8664 18.9776 35.8109 16.4109 33.7 14.3C31.5891 12.1891 29.0224 11.1336 26 11.1336C22.9776 11.1336 20.4109 12.1891 18.3 14.3C16.1891 16.4109 15.1336 18.9776 15.1336 22C15.1336 25.0224 16.1891 27.5891 18.3 29.7C20.4109 31.8109 22.9776 32.8664 26 32.8664H26.4664L26.8 33.9664C26.6667 33.9888 26.5333 34 26.4 34C26.2667 34 26.1333 34 26 34ZM36.3336 33.7336L29.9336 27.3L28.7336 31.0336L26 22L35.0336 24.7336L31.3 25.9336L37.7336 32.3336L36.3336 33.7336Z" fill="white"/>
</g>
</g>
<defs>
<filter id="filter0_d_175_31" x="0" y="0" width="52" height="52" filterUnits="userSpaceOnUse" color-interpolation-filters="sRGB">
<feFlood flood-opacity="0" result="BackgroundImageFix"/>
<feColorMatrix in="SourceAlpha" type="matrix" values="0 0 0 0 0 0 0 0 0 0 0 0 0 0 0 0 0 0 127 0" result="hardAlpha"/>
<feOffset dy="4"/>
<feGaussianBlur stdDeviation="2"/>
<feComposite in2="hardAlpha" operator="out"/>
<feColorMatrix type="matrix" values="0 0 0 0 0 0 0 0 0 0 0 0 0 0 0 0 0 0 0.25 0"/>
<feBlend mode="normal" in2="BackgroundImageFix" result="effect1_dropShadow_175_31"/>
<feBlend mode="normal" in="SourceGraphic" in2="effect1_dropShadow_175_31" result="shape"/>
</filter>
</defs>
</svg>
